<svg width="668" height="305" viewBox="0 0 668 305" fill="none" xmlns="http://www.w3.org/2000/svg">
<rect x="5" y="5" width="658" height="295" rx="45" fill="#FCF1E7" fill-opacity="0.24" stroke="#526B4B" stroke-width="10"/>
<path d="M61.3142 51.8626C61.3142 51.0729 61.2462 50.4739 61.11 50.0655C61.0011 49.657 60.756 49.3711 60.3748 49.2077C59.9936 49.0444 59.4218 48.9627 58.6594 48.9627C58.5777 48.9627 58.5368 48.881 58.5368 48.7176C58.5368 48.5542 58.5777 48.4725 58.6594 48.4725C59.3673 48.4725 60.157 48.4998 61.0283 48.5542C61.8997 48.5815 62.8391 48.5951 63.8466 48.5951C64.8268 48.5951 65.7662 48.5815 66.6648 48.5542C67.5634 48.4998 68.3666 48.4725 69.0746 48.4725C69.129 48.4725 69.1563 48.5542 69.1563 48.7176C69.1563 48.881 69.129 48.9627 69.0746 48.9627C68.176 48.9627 67.4953 49.0444 67.0324 49.2077C66.5695 49.3439 66.2563 49.6162 66.093 50.0246C65.9296 50.4058 65.8479 50.9912 65.8479 51.7809V70.6916C65.8479 71.4813 65.9296 72.0803 66.093 72.4888C66.2563 72.8972 66.5695 73.1695 67.0324 73.3057C67.4953 73.4418 68.176 73.5099 69.0746 73.5099C69.129 73.5099 69.1563 73.5916 69.1563 73.7549C69.1563 73.9183 69.129 74 69.0746 74C68.3666 74 67.5634 73.9864 66.6648 73.9592C65.7662 73.9319 64.8268 73.9183 63.8466 73.9183C62.7302 73.9183 61.6954 73.9319 60.7424 73.9592C59.8166 73.9864 58.9589 74 58.1692 74C58.1148 74 58.0876 73.9183 58.0876 73.7549C58.0876 73.5916 58.1148 73.5099 58.1692 73.5099C59.095 73.5099 59.7758 73.4418 60.2114 73.3057C60.6471 73.1695 60.933 72.8972 61.0692 72.4888C61.2325 72.0803 61.3142 71.4813 61.3142 70.6916V51.8626ZM62.4579 60.5623C61.2053 61.6515 59.9664 62.4956 58.7411 63.0947C57.5157 63.6665 56.0998 63.9524 54.4933 63.9524C52.1788 63.9524 50.3817 63.367 49.1019 62.1961C47.8221 60.998 47.1822 59.3779 47.1822 57.3357V51.7809C47.1822 50.9912 47.1142 50.4058 46.978 50.0246C46.8691 49.6162 46.624 49.3439 46.2428 49.2077C45.8616 49.0444 45.2898 48.9627 44.5274 48.9627C44.4457 48.9627 44.4048 48.881 44.4048 48.7176C44.4048 48.5542 44.4457 48.4725 44.5274 48.4725C44.8814 48.4725 45.1809 48.4862 45.4259 48.5134C45.6982 48.5406 46.0931 48.5678 46.6104 48.5951C47.155 48.5951 48.0127 48.5951 49.1836 48.5951C50.6267 48.5951 51.7295 48.5815 52.4919 48.5542C53.2544 48.4998 53.8942 48.4725 54.4116 48.4725C54.4661 48.4725 54.4933 48.5542 54.4933 48.7176C54.4933 48.881 54.4661 48.9627 54.4116 48.9627C53.268 48.9627 52.5328 49.1533 52.206 49.5345C51.8793 49.9157 51.7159 50.6917 51.7159 51.8626V55.9061C51.7159 57.8394 52.0835 59.2962 52.8187 60.2764C53.5811 61.2567 54.8745 61.7468 56.6989 61.7468C57.543 61.7468 58.3735 61.6379 59.1903 61.4201C60.0345 61.175 61.0011 60.7938 62.0903 60.2764L62.4579 60.5623ZM74.6996 74C74.6179 74 74.577 73.9183 74.577 73.7549C74.577 73.5916 74.6179 73.5099 74.6996 73.5099C75.6526 73.5099 76.2652 73.3329 76.5375 72.9789C76.8098 72.6249 76.946 71.8625 76.946 70.6916V61.6243C76.946 60.6713 76.8779 60.0178 76.7417 59.6638C76.6056 59.3098 76.3061 59.1328 75.8432 59.1328C74.9446 59.1328 74.1958 59.4732 73.5968 60.1539C72.9977 60.8074 72.4259 61.9238 71.8813 63.5031C71.8541 63.5848 71.7588 63.6256 71.5954 63.6256C71.4593 63.6256 71.3912 63.5848 71.3912 63.5031C71.3912 63.1219 71.3912 62.5501 71.3912 61.7877C71.3912 61.0252 71.3776 60.2356 71.3503 59.4187C71.3503 58.6018 71.3503 57.9483 71.3503 57.4582C71.3503 57.3221 71.432 57.254 71.5954 57.254C71.7588 57.254 71.8405 57.3221 71.8405 57.4582C71.8405 57.8122 72.3851 58.0436 73.4742 58.1526C74.5906 58.2342 76.4286 58.2751 78.9882 58.2751C80.5402 58.2751 81.82 58.2615 82.8275 58.2342C83.835 58.1798 84.5838 58.0981 85.0739 57.9892C85.564 57.8803 85.8091 57.7033 85.8091 57.4582C85.8091 57.3221 85.8908 57.254 86.0542 57.254C86.2175 57.254 86.2992 57.3221 86.2992 57.4582C86.2992 57.9483 86.2992 58.6018 86.2992 59.4187C86.2992 60.2356 86.2856 61.0252 86.2584 61.7877C86.2584 62.5501 86.2584 63.1219 86.2584 63.5031C86.2584 63.5848 86.1767 63.6256 86.0133 63.6256C85.8772 63.6256 85.7955 63.5848 85.7683 63.5031C85.2509 61.9238 84.6791 60.8074 84.0528 60.1539C83.4538 59.4732 82.7186 59.1328 81.8472 59.1328C81.4116 59.1328 81.1121 59.3098 80.9487 59.6638C80.8125 60.0178 80.7445 60.6713 80.7445 61.6243V70.6916C80.7445 71.8625 80.8806 72.6249 81.1529 72.9789C81.4252 73.3329 82.0242 73.5099 82.95 73.5099C83.0317 73.5099 83.0726 73.5916 83.0726 73.7549C83.0726 73.9183 83.0317 74 82.95 74C82.3782 74 81.7383 73.9864 81.0304 73.9592C80.3496 73.9319 79.6417 73.9183 78.9065 73.9183C78.1441 73.9183 77.3953 73.9319 76.6601 73.9592C75.9521 73.9864 75.2986 74 74.6996 74ZM97.001 74.531C95.2855 74.531 93.8015 74.1361 92.549 73.3465C91.2964 72.5568 90.3298 71.5085 89.6491 70.2015C88.9683 68.8673 88.628 67.4377 88.628 65.9129C88.628 64.497 88.9003 63.2717 89.4449 62.2369C89.9894 61.2022 90.711 60.3581 91.6096 59.7046C92.5081 59.0239 93.4884 58.5201 94.5503 58.1934C95.6123 57.8666 96.6606 57.7033 97.6953 57.7033C99.438 57.7033 100.922 58.1117 102.147 58.9286C103.4 59.7455 104.353 60.7938 105.006 62.0736C105.66 63.3533 105.987 64.7148 105.987 66.158C105.987 67.819 105.565 69.2893 104.72 70.5691C103.904 71.8217 102.814 72.8019 101.453 73.5099C100.092 74.1906 98.6075 74.531 97.001 74.531ZM98.2263 73.6732C99.3155 73.6732 100.132 73.1423 100.677 72.0803C101.222 71.0184 101.494 69.5208 101.494 67.5875C101.494 65.5998 101.235 63.9388 100.718 62.6045C100.228 61.2703 99.5878 60.2628 98.7981 59.5821C98.0085 58.9014 97.178 58.561 96.3066 58.561C95.2447 58.561 94.4278 59.0375 93.856 59.9905C93.3114 60.9436 93.0391 62.4139 93.0391 64.4017C93.0391 66.2533 93.2706 67.887 93.7335 69.3029C94.1964 70.6916 94.8226 71.7672 95.6123 72.5296C96.4019 73.292 97.2733 73.6732 98.2263 73.6732ZM116.412 74.531C114.996 74.531 113.676 74.2042 112.451 73.5507C111.252 72.87 110.286 71.808 109.551 70.3649C108.843 68.9217 108.489 67.0565 108.489 64.7693C108.489 61.3111 108.87 58.5065 109.632 56.3554C110.395 54.1771 111.484 52.4889 112.9 51.2908C114.316 50.0655 115.99 49.1669 117.924 48.5951C118.822 48.3228 119.639 48.0505 120.374 47.7782C121.109 47.4787 121.763 47.0702 122.335 46.5529C122.934 46.0355 123.438 45.3139 123.846 44.3881C123.873 44.3065 123.955 44.2792 124.091 44.3065C124.227 44.3337 124.282 44.3881 124.254 44.4698C124.037 45.9402 123.764 47.1383 123.438 48.0641C123.138 48.9627 122.743 49.6842 122.253 50.2288C121.79 50.7734 121.205 51.2227 120.497 51.5767C119.789 51.9034 118.931 52.2302 117.924 52.5569C116.753 52.9109 115.65 53.3738 114.615 53.9456C113.581 54.5174 112.655 55.3071 111.838 56.3146C111.048 57.3221 110.422 58.6563 109.959 60.3173C109.523 61.951 109.306 64.0341 109.306 66.5664L108.938 64.9326C109.455 63.2717 110.109 61.9783 110.898 61.0525C111.715 60.1267 112.532 59.4732 113.349 59.092C114.193 58.6835 114.928 58.4385 115.555 58.3568C116.208 58.2479 116.657 58.1934 116.903 58.1934C118.536 58.1934 119.898 58.4385 120.987 58.9286C122.103 59.3915 122.988 60.0178 123.642 60.8074C124.322 61.5971 124.799 62.4548 125.071 63.3806C125.371 64.2791 125.521 65.1641 125.521 66.0354C125.521 67.8053 125.085 69.3302 124.214 70.61C123.369 71.8625 122.253 72.8291 120.864 73.5099C119.503 74.1906 118.019 74.531 116.412 74.531ZM118.005 73.6732C119.04 73.6732 119.843 73.1423 120.415 72.0803C120.987 71.0184 121.273 69.4391 121.273 67.3424C121.273 65.4908 121.041 63.9524 120.578 62.7271C120.116 61.4745 119.517 60.5487 118.781 59.9497C118.046 59.3234 117.243 59.0103 116.372 59.0103C115.5 59.0103 114.806 59.3234 114.288 59.9497C113.798 60.5487 113.444 61.3248 113.227 62.2778C113.036 63.2036 112.941 64.1838 112.941 65.2186C112.941 66.8251 113.145 68.2682 113.553 69.548C113.962 70.8278 114.547 71.8353 115.31 72.5705C116.072 73.3057 116.971 73.6732 118.005 73.6732ZM145.271 74C145.189 74 145.149 73.9183 145.149 73.7549C145.149 73.5916 145.189 73.5099 145.271 73.5099C146.224 73.5099 146.837 73.3329 147.109 72.9789C147.381 72.6249 147.518 71.8625 147.518 70.6916V61.5426C147.518 60.3445 147.381 59.5821 147.109 59.2553C146.837 58.9014 146.238 58.7244 145.312 58.7244C145.23 58.7244 145.189 58.6427 145.189 58.4793C145.189 58.3159 145.23 58.2342 145.312 58.2342C145.884 58.2342 146.524 58.2479 147.232 58.2751C147.967 58.3023 148.716 58.3159 149.478 58.3159C150.213 58.3159 150.935 58.3023 151.643 58.2751C152.351 58.2479 152.977 58.2342 153.522 58.2342C153.576 58.2342 153.603 58.3159 153.603 58.4793C153.603 58.6427 153.576 58.7244 153.522 58.7244C152.596 58.7244 151.997 58.915 151.725 59.2962C151.452 59.6774 151.316 60.4534 151.316 61.6243V70.6916C151.316 71.8625 151.452 72.6249 151.725 72.9789C151.997 73.3329 152.596 73.5099 153.522 73.5099C153.576 73.5099 153.603 73.5916 153.603 73.7549C153.603 73.9183 153.576 74 153.522 74C152.95 74 152.31 73.9864 151.602 73.9592C150.921 73.9319 150.213 73.9183 149.478 73.9183C148.716 73.9183 147.967 73.9319 147.232 73.9592C146.524 73.9864 145.87 74 145.271 74ZM134.121 61.6243V70.6916C134.121 71.6174 134.271 72.3118 134.57 72.7747C134.897 73.2376 135.523 73.469 136.449 73.469C137.565 73.469 138.369 73.1695 138.859 72.5705C139.376 71.9714 139.635 71.0456 139.635 69.7931C139.635 68.5405 139.362 67.5194 138.818 66.7298C138.273 65.9401 137.32 65.5453 135.959 65.5453C135.496 65.5453 134.979 65.6134 134.407 65.7495C133.862 65.8584 133.277 66.0627 132.65 66.3622L132.405 65.5861C133.277 65.2049 134.148 64.9599 135.019 64.851C135.891 64.7148 136.694 64.6467 137.429 64.6467C141.622 64.6467 143.719 66.0627 143.719 68.8945C143.719 70.4738 143.12 71.74 141.922 72.693C140.724 73.6188 139.185 74.0817 137.307 74.0817C136.925 74.0817 136.435 74.0681 135.836 74.0408C135.237 74.0136 134.611 73.9864 133.957 73.9592C133.331 73.9319 132.773 73.9183 132.283 73.9183C131.52 73.9183 130.772 73.9319 130.036 73.9592C129.328 73.9864 128.675 74 128.076 74C127.994 74 127.953 73.9183 127.953 73.7549C127.953 73.5916 127.994 73.5099 128.076 73.5099C129.029 73.5099 129.642 73.3329 129.914 72.9789C130.186 72.6249 130.322 71.8625 130.322 70.6916V61.5426C130.322 60.3445 130.186 59.5821 129.914 59.2553C129.642 58.9014 129.043 58.7244 128.117 58.7244C128.035 58.7244 127.994 58.6427 127.994 58.4793C127.994 58.3159 128.035 58.2342 128.117 58.2342C128.689 58.2342 129.328 58.2479 130.036 58.2751C130.772 58.3023 131.52 58.3159 132.283 58.3159C133.1 58.3159 133.903 58.3023 134.693 58.2751C135.482 58.2479 136.19 58.2342 136.816 58.2342C136.871 58.2342 136.898 58.3159 136.898 58.4793C136.898 58.6427 136.871 58.7244 136.816 58.7244C135.646 58.7244 134.897 58.915 134.57 59.2962C134.271 59.6774 134.121 60.4534 134.121 61.6243ZM184.926 73.5099C184.981 73.5099 185.008 73.5916 185.008 73.7549C185.008 73.9183 184.981 74 184.926 74C184.355 74 183.715 73.9864 183.007 73.9592C182.326 73.9319 181.618 73.9183 180.883 73.9183C180.202 73.9183 179.535 73.9319 178.882 73.9592C178.228 73.9864 177.643 74 177.125 74C177.071 74 177.044 73.9183 177.044 73.7549C177.044 73.5916 177.071 73.5099 177.125 73.5099C177.888 73.5099 178.378 73.3329 178.596 72.9789C178.814 72.6249 178.922 71.8625 178.922 70.6916V61.5426C178.922 60.7257 178.909 60.1539 178.882 59.8272C178.854 59.4732 178.745 59.269 178.555 59.2145C178.391 59.1328 178.106 59.092 177.697 59.092H173C172.592 59.092 172.292 59.1328 172.101 59.2145C171.938 59.2962 171.829 59.514 171.775 59.868C171.748 60.1947 171.734 60.7802 171.734 61.6243V70.6916C171.734 71.8625 171.829 72.6249 172.02 72.9789C172.238 73.3329 172.714 73.5099 173.449 73.5099C173.531 73.5099 173.572 73.5916 173.572 73.7549C173.572 73.9183 173.531 74 173.449 74C172.959 74 172.401 73.9864 171.775 73.9592C171.148 73.9319 170.522 73.9183 169.896 73.9183C169.134 73.9183 168.385 73.9319 167.65 73.9592C166.942 73.9864 166.288 74 165.689 74C165.607 74 165.566 73.9183 165.566 73.7549C165.566 73.5916 165.607 73.5099 165.689 73.5099C166.642 73.5099 167.255 73.3329 167.527 72.9789C167.799 72.6249 167.935 71.8625 167.935 70.6916V61.5426C167.935 60.3445 167.799 59.5821 167.527 59.2553C167.255 58.9014 166.656 58.7244 165.73 58.7244C165.648 58.7244 165.607 58.6427 165.607 58.4793C165.607 58.3159 165.648 58.2342 165.73 58.2342H184.926C184.981 58.2342 185.008 58.3159 185.008 58.4793C185.008 58.6427 184.981 58.7244 184.926 58.7244C184.001 58.7244 183.402 58.915 183.129 59.2962C182.857 59.6774 182.721 60.4534 182.721 61.6243V70.6916C182.721 71.8625 182.857 72.6249 183.129 72.9789C183.402 73.3329 184.001 73.5099 184.926 73.5099ZM195.92 74.531C194.204 74.531 192.72 74.1361 191.468 73.3465C190.215 72.5568 189.249 71.5085 188.568 70.2015C187.887 68.8673 187.547 67.4377 187.547 65.9129C187.547 64.497 187.819 63.2717 188.364 62.2369C188.908 61.2022 189.63 60.3581 190.528 59.7046C191.427 59.0239 192.407 58.5201 193.469 58.1934C194.531 57.8666 195.58 57.7033 196.614 57.7033C198.357 57.7033 199.841 58.1117 201.066 58.9286C202.319 59.7455 203.272 60.7938 203.925 62.0736C204.579 63.3533 204.906 64.7148 204.906 66.158C204.906 67.819 204.483 69.2893 203.639 70.5691C202.823 71.8217 201.733 72.8019 200.372 73.5099C199.01 74.1906 197.526 74.531 195.92 74.531ZM197.145 73.6732C198.234 73.6732 199.051 73.1423 199.596 72.0803C200.14 71.0184 200.413 69.5208 200.413 67.5875C200.413 65.5998 200.154 63.9388 199.637 62.6045C199.147 61.2703 198.507 60.2628 197.717 59.5821C196.927 58.9014 196.097 58.561 195.226 58.561C194.164 58.561 193.347 59.0375 192.775 59.9905C192.23 60.9436 191.958 62.4139 191.958 64.4017C191.958 66.2533 192.189 67.887 192.652 69.3029C193.115 70.6916 193.742 71.7672 194.531 72.5296C195.321 73.292 196.192 73.6732 197.145 73.6732ZM226.768 73.5099C226.822 73.5099 226.849 73.5916 226.849 73.7549C226.849 73.9183 226.822 74 226.768 74C226.196 74 225.556 73.9864 224.848 73.9592C224.167 73.9319 223.459 73.9183 222.724 73.9183C222.043 73.9183 221.376 73.9319 220.723 73.9592C220.069 73.9864 219.484 74 218.966 74C218.912 74 218.885 73.9183 218.885 73.7549C218.885 73.5916 218.912 73.5099 218.966 73.5099C219.729 73.5099 220.219 73.3329 220.437 72.9789C220.655 72.6249 220.764 71.8625 220.764 70.6916V61.5426C220.764 60.7257 220.75 60.1539 220.723 59.8272C220.695 59.4732 220.587 59.269 220.396 59.2145C220.233 59.1328 219.947 59.092 219.538 59.092H214.841C214.433 59.092 214.133 59.1328 213.943 59.2145C213.779 59.2962 213.67 59.514 213.616 59.868C213.589 60.1947 213.575 60.7802 213.575 61.6243V70.6916C213.575 71.8625 213.67 72.6249 213.861 72.9789C214.079 73.3329 214.555 73.5099 215.29 73.5099C215.372 73.5099 215.413 73.5916 215.413 73.7549C215.413 73.9183 215.372 74 215.29 74C214.8 74 214.242 73.9864 213.616 73.9592C212.99 73.9319 212.363 73.9183 211.737 73.9183C210.975 73.9183 210.226 73.9319 209.491 73.9592C208.783 73.9864 208.129 74 207.53 74C207.448 74 207.408 73.9183 207.408 73.7549C207.408 73.5916 207.448 73.5099 207.53 73.5099C208.483 73.5099 209.096 73.3329 209.368 72.9789C209.64 72.6249 209.777 71.8625 209.777 70.6916V61.5426C209.777 60.3445 209.64 59.5821 209.368 59.2553C209.096 58.9014 208.497 58.7244 207.571 58.7244C207.489 58.7244 207.448 58.6427 207.448 58.4793C207.448 58.3159 207.489 58.2342 207.571 58.2342H226.768C226.822 58.2342 226.849 58.3159 226.849 58.4793C226.849 58.6427 226.822 58.7244 226.768 58.7244C225.842 58.7244 225.243 58.915 224.97 59.2962C224.698 59.6774 224.562 60.4534 224.562 61.6243V70.6916C224.562 71.8625 224.698 72.6249 224.97 72.9789C225.243 73.3329 225.842 73.5099 226.768 73.5099ZM241.11 74.2451C241.001 74.2995 240.865 74.3268 240.702 74.3268C240.212 74.3268 239.722 74 239.231 73.3465C238.741 72.693 238.496 71.7536 238.496 70.5283V63.5848C238.496 62.5229 238.428 61.6379 238.292 60.9299C238.156 60.222 237.938 59.691 237.638 59.337C237.339 58.983 236.93 58.8061 236.413 58.8061C236.005 58.8061 235.637 58.915 235.31 59.1328C234.984 59.3234 234.725 59.6502 234.534 60.1131C234.344 60.5487 234.221 61.1614 234.167 61.951C234.085 62.7407 233.84 63.3261 233.432 63.7073C233.023 64.0613 232.465 64.2383 231.757 64.2383C231.076 64.2383 230.586 64.0885 230.287 63.789C229.987 63.4895 229.837 63.0811 229.837 62.5637C229.837 61.9647 230.123 61.3928 230.695 60.8483C231.267 60.2764 231.975 59.7727 232.819 59.337C233.69 58.8741 234.589 58.5201 235.515 58.2751C236.44 58.0028 237.271 57.8666 238.006 57.8666C239.204 57.8666 240.225 58.2342 241.069 58.9694C241.913 59.6774 242.336 60.8074 242.336 62.3595V69.5889C242.336 70.3785 242.472 70.9912 242.744 71.4268C243.043 71.8625 243.452 72.0803 243.969 72.0803C244.35 72.0803 244.745 71.985 245.154 71.7944C245.263 71.74 245.344 71.7944 245.399 71.9578C245.48 72.0939 245.453 72.1893 245.317 72.2437L241.11 74.2451ZM232.533 74.2859C231.689 74.2859 231.008 74.0681 230.491 73.6324C229.973 73.1695 229.715 72.516 229.715 71.6719C229.715 70.6916 230.082 69.9973 230.818 69.5889C231.58 69.1532 232.751 68.6767 234.33 68.1593L238.905 66.6889L239.068 67.3016L236.25 68.3227C235.515 68.595 234.984 68.8945 234.657 69.2213C234.357 69.548 234.208 69.9428 234.208 70.4057C234.208 70.9775 234.371 71.4268 234.698 71.7536C235.024 72.0803 235.433 72.2437 235.923 72.2437C236.141 72.2437 236.427 72.2029 236.781 72.1212C237.162 72.0123 237.57 71.8625 238.006 71.6719L240.252 70.4466L240.293 71.1409L236.781 73.0606C236.1 73.4146 235.378 73.7141 234.616 73.9592C233.854 74.177 233.159 74.2859 232.533 74.2859ZM254.83 74.4901C252.951 74.4901 251.399 74.0953 250.173 73.3057C248.948 72.4888 248.036 71.4541 247.437 70.2015C246.865 68.949 246.579 67.6828 246.579 66.403C246.579 65.0416 246.865 63.8299 247.437 62.7679C248.009 61.706 248.757 60.821 249.683 60.1131C250.636 59.3779 251.685 58.8197 252.828 58.4385C253.972 58.0572 255.102 57.8666 256.218 57.8666C257.008 57.8666 257.798 57.9892 258.587 58.2342C259.377 58.4521 260.03 58.7924 260.548 59.2553C261.065 59.691 261.324 60.2492 261.324 60.9299C261.324 61.3928 261.133 61.8285 260.752 62.2369C260.371 62.6182 259.813 62.8088 259.077 62.8088C258.397 62.8088 257.866 62.6318 257.484 62.2778C257.103 61.9238 256.804 61.4065 256.586 60.7257C256.395 60.0722 256.177 59.5821 255.932 59.2553C255.715 58.9014 255.279 58.7244 254.625 58.7244C253.455 58.7244 252.515 59.3098 251.807 60.4807C251.126 61.6515 250.786 63.1764 250.786 65.0552C250.786 66.4166 250.99 67.6692 251.399 68.8128C251.807 69.9292 252.474 70.8278 253.4 71.5085C254.326 72.162 255.565 72.4888 257.117 72.4888C257.934 72.4888 258.614 72.3935 259.159 72.2029C259.731 72.0123 260.357 71.7536 261.038 71.4268C261.092 71.3724 261.16 71.3996 261.242 71.5085C261.351 71.6174 261.378 71.6991 261.324 71.7536C260.371 72.6249 259.391 73.3057 258.383 73.7958C257.376 74.2587 256.191 74.4901 254.83 74.4901ZM266.993 74C266.911 74 266.871 73.9183 266.871 73.7549C266.871 73.5916 266.911 73.5099 266.993 73.5099C267.946 73.5099 268.559 73.3329 268.831 72.9789C269.103 72.6249 269.24 71.8625 269.24 70.6916V61.6243C269.24 60.6713 269.171 60.0178 269.035 59.6638C268.899 59.3098 268.6 59.1328 268.137 59.1328C267.238 59.1328 266.489 59.4732 265.89 60.1539C265.291 60.8074 264.719 61.9238 264.175 63.5031C264.148 63.5848 264.052 63.6256 263.889 63.6256C263.753 63.6256 263.685 63.5848 263.685 63.5031C263.685 63.1219 263.685 62.5501 263.685 61.7877C263.685 61.0252 263.671 60.2356 263.644 59.4187C263.644 58.6018 263.644 57.9483 263.644 57.4582C263.644 57.3221 263.726 57.254 263.889 57.254C264.052 57.254 264.134 57.3221 264.134 57.4582C264.134 57.8122 264.679 58.0436 265.768 58.1526C266.884 58.2342 268.722 58.2751 271.282 58.2751C272.834 58.2751 274.114 58.2615 275.121 58.2342C276.129 58.1798 276.877 58.0981 277.367 57.9892C277.858 57.8803 278.103 57.7033 278.103 57.4582C278.103 57.3221 278.184 57.254 278.348 57.254C278.511 57.254 278.593 57.3221 278.593 57.4582C278.593 57.9483 278.593 58.6018 278.593 59.4187C278.593 60.2356 278.579 61.0252 278.552 61.7877C278.552 62.5501 278.552 63.1219 278.552 63.5031C278.552 63.5848 278.47 63.6256 278.307 63.6256C278.171 63.6256 278.089 63.5848 278.062 63.5031C277.544 61.9238 276.973 60.8074 276.346 60.1539C275.747 59.4732 275.012 59.1328 274.141 59.1328C273.705 59.1328 273.406 59.3098 273.242 59.6638C273.106 60.0178 273.038 60.6713 273.038 61.6243V70.6916C273.038 71.8625 273.174 72.6249 273.446 72.9789C273.719 73.3329 274.318 73.5099 275.244 73.5099C275.325 73.5099 275.366 73.5916 275.366 73.7549C275.366 73.9183 275.325 74 275.244 74C274.672 74 274.032 73.9864 273.324 73.9592C272.643 73.9319 271.935 73.9183 271.2 73.9183C270.438 73.9183 269.689 73.9319 268.954 73.9592C268.246 73.9864 267.592 74 266.993 74ZM286.966 61.6243V70.6916C286.966 71.6174 287.116 72.3118 287.416 72.7747C287.742 73.2376 288.369 73.469 289.295 73.469C290.411 73.469 291.214 73.1695 291.704 72.5705C292.222 71.9714 292.48 71.0456 292.48 69.7931C292.48 68.5405 292.208 67.5194 291.663 66.7298C291.119 65.9401 290.166 65.5453 288.804 65.5453C288.342 65.5453 287.824 65.6134 287.252 65.7495C286.708 65.8584 286.122 66.0627 285.496 66.3622L285.251 65.5861C286.122 65.2049 286.994 64.9599 287.865 64.851C288.736 64.7148 289.54 64.6467 290.275 64.6467C294.468 64.6467 296.565 66.0627 296.565 68.8945C296.565 70.4738 295.966 71.74 294.768 72.693C293.57 73.6188 292.031 74.0817 290.152 74.0817C289.771 74.0817 289.281 74.0681 288.682 74.0408C288.083 74.0136 287.457 73.9864 286.803 73.9592C286.177 73.9319 285.619 73.9183 285.128 73.9183C284.366 73.9183 283.617 73.9319 282.882 73.9592C282.174 73.9864 281.521 74 280.922 74C280.84 74 280.799 73.9183 280.799 73.7549C280.799 73.5916 280.84 73.5099 280.922 73.5099C281.875 73.5099 282.487 73.3329 282.76 72.9789C283.032 72.6249 283.168 71.8625 283.168 70.6916V61.5426C283.168 60.3445 283.032 59.5821 282.76 59.2553C282.487 58.9014 281.888 58.7244 280.962 58.7244C280.881 58.7244 280.84 58.6427 280.84 58.4793C280.84 58.3159 280.881 58.2342 280.962 58.2342C281.534 58.2342 282.174 58.2479 282.882 58.2751C283.617 58.3023 284.366 58.3159 285.128 58.3159C285.945 58.3159 286.749 58.3023 287.538 58.2751C288.328 58.2479 289.036 58.2342 289.662 58.2342C289.717 58.2342 289.744 58.3159 289.744 58.4793C289.744 58.6427 289.717 58.7244 289.662 58.7244C288.491 58.7244 287.742 58.915 287.416 59.2962C287.116 59.6774 286.966 60.4534 286.966 61.6243ZM312.451 58.2751C313.104 58.2751 313.826 58.2615 314.616 58.2342C315.432 58.1798 316.181 58.1526 316.862 58.1526C318.741 58.1526 320.17 58.4112 321.151 58.9286C322.158 59.4459 322.662 60.222 322.662 61.2567C322.662 62.7543 321.3 64.2247 318.577 65.6678L318.087 65.3411C318.223 64.9599 318.332 64.5378 318.414 64.0749C318.496 63.5848 318.537 63.0402 318.537 62.4412C318.537 61.1614 318.319 60.2628 317.883 59.7455C317.475 59.2281 316.808 58.9694 315.882 58.9694C315.255 58.9694 314.833 59.1328 314.616 59.4596C314.398 59.7863 314.289 60.5079 314.289 61.6243V70.6916C314.289 71.5357 314.452 72.1756 314.779 72.6113C315.106 73.0197 315.773 73.224 316.78 73.224C317.951 73.224 318.809 72.9517 319.353 72.4071C319.898 71.8353 320.17 70.9912 320.17 69.8748C320.17 68.7584 319.871 67.8326 319.272 67.0974C318.7 66.3622 317.72 65.9946 316.331 65.9946H312.614L312.573 65.2186H317.761C322.172 65.2186 324.377 66.4847 324.377 69.017C324.377 70.4874 323.737 71.6991 322.458 72.6522C321.178 73.6052 319.517 74.0817 317.475 74.0817C316.876 74.0817 316.072 74.0545 315.065 74C314.085 73.9455 313.213 73.9183 312.451 73.9183C311.688 73.9183 310.94 73.9319 310.204 73.9592C309.496 73.9864 308.843 74 308.244 74C308.162 74 308.121 73.9183 308.121 73.7549C308.121 73.5916 308.162 73.5099 308.244 73.5099C309.197 73.5099 309.81 73.3329 310.082 72.9789C310.354 72.6249 310.49 71.8625 310.49 70.6916V61.5426C310.49 60.3445 310.354 59.5821 310.082 59.2553C309.81 58.9014 309.211 58.7244 308.285 58.7244C308.203 58.7244 308.162 58.6427 308.162 58.4793C308.162 58.3159 308.203 58.2342 308.285 58.2342C308.857 58.2342 309.496 58.2479 310.204 58.2751C310.94 58.2751 311.688 58.2751 312.451 58.2751ZM338.569 69.7522L339.14 59.1328L339.957 59.2553L339.386 69.7522C339.331 71.0048 339.535 71.9442 339.998 72.5705C340.461 73.1967 341.115 73.5099 341.959 73.5099C342.04 73.5099 342.081 73.5916 342.081 73.7549C342.081 73.9183 342.04 74 341.959 74C341.523 74 341.06 73.9864 340.57 73.9592C340.08 73.9319 339.549 73.9183 338.977 73.9183C338.432 73.9183 337.888 73.9319 337.343 73.9592C336.826 73.9864 336.336 74 335.873 74C335.791 74 335.75 73.9183 335.75 73.7549C335.75 73.5916 335.791 73.5099 335.873 73.5099C336.744 73.5099 337.398 73.1967 337.833 72.5705C338.269 71.9442 338.514 71.0048 338.569 69.7522ZM357.643 73.5099C357.724 73.5099 357.765 73.5916 357.765 73.7549C357.765 73.9183 357.724 74 357.643 74C357.071 74 356.417 73.9864 355.682 73.9592C354.947 73.9319 354.225 73.9183 353.518 73.9183C352.782 73.9183 352.115 73.9319 351.516 73.9592C350.944 73.9864 350.386 74 349.842 74C349.787 74 349.76 73.9183 349.76 73.7549C349.76 73.5916 349.787 73.5099 349.842 73.5099C350.604 73.5099 351.108 73.3329 351.353 72.9789C351.598 72.6249 351.68 71.8625 351.598 70.6916L350.822 60.9299L351.802 58.7244L346.125 73.0606C346.098 73.1423 346.002 73.1831 345.839 73.1831C345.675 73.1831 345.567 73.1423 345.512 73.0606L339.876 61.6243C339.277 60.399 338.732 59.6093 338.242 59.2553C337.779 58.9014 337.221 58.7244 336.567 58.7244C336.513 58.7244 336.486 58.6427 336.486 58.4793C336.486 58.3159 336.513 58.2342 336.567 58.2342C337.139 58.2342 337.629 58.2479 338.038 58.2751C338.446 58.2751 338.773 58.2751 339.018 58.2751C339.399 58.2751 339.753 58.2751 340.08 58.2751C340.407 58.2479 340.652 58.2342 340.815 58.2342C341.387 58.2342 341.85 58.3432 342.204 58.561C342.558 58.7788 342.98 59.3643 343.47 60.3173L347.554 68.7311L345.798 71.917L350.781 59.2553C350.89 58.9286 351.053 58.6835 351.271 58.5201C351.516 58.3295 351.761 58.2342 352.006 58.2342C352.17 58.2342 352.496 58.2479 352.987 58.2751C353.477 58.2751 353.953 58.2751 354.416 58.2751C354.988 58.2751 355.464 58.2751 355.846 58.2751C356.227 58.2479 356.622 58.2342 357.03 58.2342C357.085 58.2342 357.112 58.3159 357.112 58.4793C357.112 58.6427 357.085 58.7244 357.03 58.7244C356.213 58.7244 355.587 58.8877 355.151 59.2145C354.716 59.5412 354.539 60.2764 354.62 61.4201L355.396 70.6916C355.478 71.4813 355.56 72.0803 355.641 72.4888C355.75 72.8972 355.955 73.1695 356.254 73.3057C356.554 73.4418 357.016 73.5099 357.643 73.5099ZM363.819 72.5296L363.084 71.7944L374.153 60.7257L374.888 61.4201L363.819 72.5296ZM362.104 70.6916V61.5426C362.104 60.3445 361.968 59.5821 361.695 59.2553C361.423 58.9014 360.824 58.7244 359.898 58.7244C359.816 58.7244 359.776 58.6427 359.776 58.4793C359.776 58.3159 359.816 58.2342 359.898 58.2342C360.47 58.2342 361.11 58.2479 361.818 58.2751C362.553 58.3023 363.302 58.3159 364.064 58.3159C364.799 58.3159 365.521 58.3023 366.229 58.2751C366.937 58.2479 367.563 58.2342 368.108 58.2342C368.162 58.2342 368.189 58.3159 368.189 58.4793C368.189 58.6427 368.162 58.7244 368.108 58.7244C367.182 58.7244 366.583 58.915 366.311 59.2962C366.038 59.6774 365.902 60.4534 365.902 61.6243V70.6916C365.902 71.8625 366.038 72.6249 366.311 72.9789C366.583 73.3329 367.182 73.5099 368.108 73.5099C368.162 73.5099 368.189 73.5916 368.189 73.7549C368.189 73.9183 368.162 74 368.108 74C367.536 74 366.896 73.9864 366.188 73.9592C365.507 73.9319 364.799 73.9183 364.064 73.9183C363.302 73.9183 362.553 73.9319 361.818 73.9592C361.11 73.9864 360.456 74 359.857 74C359.776 74 359.735 73.9183 359.735 73.7549C359.735 73.5916 359.776 73.5099 359.857 73.5099C360.81 73.5099 361.423 73.3329 361.695 72.9789C361.968 72.6249 362.104 71.8625 362.104 70.6916ZM373.091 70.6916V61.5426C373.091 60.3445 372.955 59.5821 372.682 59.2553C372.41 58.9014 371.811 58.7244 370.885 58.7244C370.803 58.7244 370.763 58.6427 370.763 58.4793C370.763 58.3159 370.803 58.2342 370.885 58.2342C371.457 58.2342 372.097 58.2479 372.805 58.2751C373.54 58.3023 374.289 58.3159 375.051 58.3159C375.786 58.3159 376.508 58.3023 377.216 58.2751C377.924 58.2479 378.55 58.2342 379.095 58.2342C379.149 58.2342 379.176 58.3159 379.176 58.4793C379.176 58.6427 379.149 58.7244 379.095 58.7244C378.169 58.7244 377.57 58.915 377.298 59.2962C377.025 59.6774 376.889 60.4534 376.889 61.6243V70.6916C376.889 71.8625 377.025 72.6249 377.298 72.9789C377.57 73.3329 378.169 73.5099 379.095 73.5099C379.149 73.5099 379.176 73.5916 379.176 73.7549C379.176 73.9183 379.149 74 379.095 74C378.523 74 377.883 73.9864 377.175 73.9592C376.494 73.9319 375.786 73.9183 375.051 73.9183C374.289 73.9183 373.54 73.9319 372.805 73.9592C372.07 73.9864 371.416 74 370.844 74C370.763 74 370.722 73.9183 370.722 73.7549C370.722 73.5916 370.763 73.5099 370.844 73.5099C371.797 73.5099 372.41 73.3329 372.682 72.9789C372.955 72.6249 373.091 71.8625 373.091 70.6916ZM381.184 85.2321C381.102 85.2321 381.062 85.1504 381.062 84.987C381.062 84.8236 381.102 84.742 381.184 84.742C382.137 84.742 382.75 84.565 383.022 84.211C383.322 83.857 383.471 83.0946 383.471 81.9237V61.5426C383.471 60.3445 383.254 59.5821 382.818 59.2553C382.409 58.9014 381.729 58.7244 380.776 58.7244C380.721 58.7244 380.694 58.6427 380.694 58.4793C380.694 58.3159 380.721 58.2342 380.776 58.2342C381.184 58.2342 381.729 58.2342 382.409 58.2342C383.09 58.2342 383.785 58.2342 384.493 58.2342C385.228 58.2342 385.854 58.2342 386.371 58.2342C386.753 58.2342 386.998 58.3159 387.107 58.4793C387.215 58.6154 387.27 58.8469 387.27 59.1737V81.9237C387.27 82.6861 387.352 83.2716 387.515 83.68C387.706 84.0885 388.06 84.3607 388.577 84.4969C389.094 84.6603 389.87 84.742 390.905 84.742C390.987 84.742 391.028 84.8236 391.028 84.987C391.028 85.1504 390.987 85.2321 390.905 85.2321C390.143 85.2321 389.285 85.2185 388.332 85.1912C387.379 85.164 386.371 85.1504 385.309 85.1504C384.547 85.1504 383.798 85.164 383.063 85.1912C382.355 85.2185 381.729 85.2321 381.184 85.2321ZM390.782 74.531C389.721 74.531 388.808 74.4493 388.046 74.2859C387.311 74.1225 386.426 73.8639 385.391 73.5099L386.821 70.9367C387.42 71.6719 388.06 72.2846 388.74 72.7747C389.448 73.2648 390.388 73.5099 391.559 73.5099C392.838 73.5099 393.846 72.9517 394.581 71.8353C395.316 70.7189 395.684 68.9354 395.684 66.4847C395.684 64.3064 395.18 62.6862 394.173 61.6243C393.165 60.5351 391.981 59.9905 390.619 59.9905C389.612 59.9905 388.74 60.2492 388.005 60.7666C387.27 61.2839 386.548 61.9374 385.84 62.7271L385.432 62.2369C386.821 60.6304 388.141 59.4732 389.394 58.7652C390.674 58.0572 391.981 57.7033 393.315 57.7033C394.458 57.7033 395.52 58.0028 396.501 58.6018C397.481 59.1737 398.271 60.0178 398.87 61.1342C399.496 62.2506 399.809 63.612 399.809 65.2186C399.809 66.9612 399.523 68.4316 398.951 69.6297C398.407 70.8278 397.685 71.7944 396.787 72.5296C395.888 73.2376 394.908 73.7413 393.846 74.0408C392.811 74.3676 391.79 74.531 390.782 74.531ZM429.527 60.3581C428.465 62.0736 427.404 63.9252 426.342 65.9129C425.307 67.8734 424.19 69.8339 422.992 71.7944C421.822 73.7277 420.569 75.5929 419.235 77.39C417.873 79.1872 416.376 80.7665 414.742 82.1279C413.108 83.5166 411.311 84.6194 409.351 85.4363C407.363 86.2532 405.157 86.6616 402.734 86.6616C401.917 86.6616 401.046 86.5663 400.12 86.3757C399.194 86.2123 398.35 85.9264 397.587 85.518C396.825 85.1096 396.199 84.565 395.709 83.8842C395.191 83.2035 394.933 82.3458 394.933 81.3111C394.933 80.5214 395.11 79.8271 395.464 79.228C395.79 78.629 396.24 78.1252 396.811 77.7168C397.356 77.3084 397.982 76.9952 398.69 76.7774C399.398 76.5596 400.12 76.4506 400.855 76.4506C401.236 76.4506 401.59 76.4643 401.917 76.4915C402.216 76.5187 402.489 76.5596 402.734 76.614V76.9408C401.427 77.0225 400.378 77.4853 399.589 78.3295C398.772 79.1736 398.363 80.2491 398.363 81.5561C398.363 82.9721 398.758 84.0885 399.548 84.9053C400.338 85.7494 401.617 86.1715 403.387 86.1715C404.994 86.1715 406.532 85.7222 408.003 84.8236C409.473 83.9523 410.889 82.7951 412.25 81.3519C413.585 79.9088 414.864 78.2614 416.09 76.4098C417.288 74.5854 418.445 72.7202 419.561 70.8142C420.651 68.8809 421.699 67.0021 422.706 65.1777C423.714 63.3533 424.667 61.7468 425.566 60.3581H421.645L422.053 59.6229H426.056C426.845 58.2615 427.771 56.7639 428.833 55.1301C429.922 53.4963 431.134 51.9715 432.468 50.5556C433.83 49.1397 435.314 47.9552 436.92 47.0022C438.527 46.0491 440.242 45.5726 442.067 45.5726C442.638 45.5726 443.183 45.6407 443.7 45.7768C444.245 45.913 444.721 46.1172 445.13 46.3895C445.565 46.6618 445.906 47.0158 446.151 47.4514C446.423 47.8599 446.559 48.35 446.559 48.9218C446.559 49.9021 446.205 50.6373 445.497 51.1274C444.789 51.6175 443.959 51.8626 443.006 51.8626C442.788 51.8626 442.543 51.8354 442.271 51.7809C442.516 51.2908 442.72 50.7734 442.883 50.2288C443.047 49.6842 443.128 49.0988 443.128 48.4725C443.128 47.6829 442.965 47.0838 442.638 46.6754C442.312 46.267 441.876 46.0627 441.331 46.0627C440.651 46.0627 439.929 46.335 439.167 46.8796C438.404 47.397 437.655 48.0777 436.92 48.9218C436.185 49.7659 435.45 50.7053 434.715 51.7401C434.007 52.7748 433.353 53.7959 432.754 54.8033C432.155 55.8108 431.61 56.7502 431.12 57.6216C430.657 58.4657 430.276 59.1328 429.977 59.6229H440.514L440.065 60.3581H429.527ZM447.675 59.868L451.923 59.6229C451.678 60.1131 451.324 60.7121 450.861 61.4201C450.398 62.1008 449.894 62.8496 449.35 63.6665C448.805 64.4561 448.247 65.2866 447.675 66.158C447.131 67.0021 446.627 67.8326 446.164 68.6494C445.701 69.4391 445.32 70.1879 445.02 70.8959C444.748 71.5766 444.612 72.162 444.612 72.6522C444.612 73.3329 444.952 73.6732 445.633 73.6732C446.287 73.6732 447.171 73.292 448.288 72.5296C449.404 71.7672 450.575 70.7597 451.8 69.5072C452.318 68.9898 452.835 68.4316 453.353 67.8326C453.897 67.2335 454.414 66.6481 454.905 66.0763C455.395 65.4772 455.844 64.9326 456.252 64.4425C456.661 63.9252 456.988 63.5031 457.233 63.1764L457.519 63.3397C456.811 64.2928 455.994 65.3547 455.068 66.5256C454.142 67.6692 453.026 68.8945 451.719 70.2015C450.412 71.5085 449.118 72.5841 447.839 73.4282C446.586 74.2451 445.333 74.6535 444.081 74.6535C443.21 74.6535 442.529 74.4357 442.039 74C441.576 73.5371 441.344 72.9789 441.344 72.3254C441.344 72.1076 441.358 71.9033 441.385 71.7127C441.412 71.5221 441.453 71.3724 441.508 71.2635H441.426C440.582 72.2165 439.629 73.0197 438.567 73.6732C437.505 74.3268 436.361 74.6535 435.136 74.6535C434.483 74.6535 433.924 74.531 433.462 74.2859C432.999 74.0408 432.617 73.7141 432.318 73.3057C432.046 72.87 431.841 72.3935 431.705 71.8761C431.569 71.3315 431.501 70.7733 431.501 70.2015C431.501 68.8673 431.869 67.533 432.604 66.1988C433.339 64.8646 434.265 63.6665 435.381 62.6045C436.498 61.5154 437.737 60.644 439.098 59.9905C440.487 59.3098 441.807 58.9694 443.06 58.9694C444.013 58.9694 444.762 59.1736 445.306 59.5821C445.851 59.9905 446.3 60.6304 446.654 61.5018L447.675 59.868ZM435.422 70.324C435.422 71.1137 435.545 71.808 435.79 72.4071C436.062 72.9789 436.62 73.2648 437.464 73.2648C438.036 73.2376 438.635 73.0061 439.261 72.5705C439.888 72.1076 440.487 71.5357 441.058 70.855C441.658 70.1743 442.216 69.4255 442.733 68.6086C443.278 67.7645 443.741 66.9204 444.122 66.0763C444.53 65.2322 444.843 64.4425 445.061 63.7073C445.306 62.9449 445.429 62.305 445.429 61.7877C445.429 61.0525 445.293 60.4807 445.02 60.0722C444.748 59.6638 444.217 59.4596 443.427 59.4596C442.801 59.4596 442.161 59.6502 441.508 60.0314C440.882 60.4126 440.269 60.9163 439.67 61.5426C439.098 62.1689 438.54 62.8768 437.995 63.6665C437.478 64.4289 437.029 65.2186 436.647 66.0354C436.266 66.8523 435.967 67.642 435.749 68.4044C435.531 69.1396 435.422 69.7795 435.422 70.324ZM462.688 59.6229C461.408 61.6379 460.305 63.367 459.379 64.8101C458.453 66.226 457.691 67.4377 457.092 68.4452C456.52 69.4527 456.084 70.2832 455.785 70.9367C455.513 71.563 455.377 72.0803 455.377 72.4888C455.377 72.8155 455.431 73.0878 455.54 73.3057C455.676 73.4963 455.867 73.5916 456.112 73.5916C456.656 73.5916 457.419 73.2784 458.399 72.6522C459.406 72.0259 460.659 70.9503 462.157 69.4255C462.756 68.7992 463.341 68.1865 463.913 67.5875C464.485 66.9612 465.016 66.3622 465.506 65.7904C466.023 65.2186 466.472 64.7012 466.854 64.2383C467.262 63.7754 467.589 63.4078 467.834 63.1355L468.202 63.3806C467.875 63.8162 467.466 64.32 466.976 64.8918C466.513 65.4364 466.01 66.0218 465.465 66.6481C464.92 67.2471 464.362 67.8462 463.79 68.4452C463.219 69.0443 462.66 69.6161 462.116 70.1607C460.536 71.74 459.175 72.8428 458.031 73.469C456.915 74.0953 455.88 74.4084 454.927 74.4084C454.029 74.4084 453.334 74.1634 452.844 73.6732C452.354 73.1831 452.109 72.5432 452.109 71.7536C452.109 71.209 452.218 70.6508 452.436 70.079C452.626 69.4799 452.967 68.7447 453.457 67.8734C453.947 67.0021 454.6 65.9265 455.417 64.6467C456.234 63.3397 457.255 61.7332 458.481 59.8272L462.688 59.6229ZM465.057 50.5556C465.574 50.5556 466.023 50.7462 466.404 51.1274C466.813 51.5086 467.017 51.9579 467.017 52.4752C467.017 53.0198 466.799 53.5236 466.364 53.9865C465.928 54.4221 465.438 54.64 464.893 54.64C464.294 54.64 463.777 54.4902 463.341 54.1907C462.905 53.8639 462.688 53.3874 462.688 52.7612C462.688 52.1349 462.919 51.6175 463.382 51.2091C463.872 50.7734 464.43 50.5556 465.057 50.5556ZM459.983 74C461.372 71.6038 462.774 69.2213 464.19 66.8523C465.633 64.4834 467.063 62.0736 468.479 59.6229L473.135 59.4596L467.744 67.0565L467.825 67.1382C468.86 65.8584 469.772 64.8373 470.562 64.0749C471.379 63.2853 472.087 62.6454 472.686 62.1553C473.285 61.6651 473.789 61.2975 474.197 61.0525C474.605 60.7802 474.905 60.5487 475.096 60.3581C475.395 60.0586 475.667 59.8272 475.912 59.6638C476.185 59.4732 476.498 59.337 476.852 59.2553C477.206 59.1464 477.628 59.0783 478.118 59.0511C478.635 59.0239 479.275 58.9967 480.038 58.9694C479.52 59.7046 479.044 60.4807 478.608 61.2975C478.172 62.0872 477.955 62.9449 477.955 63.8707C477.955 65.0416 478.54 65.627 479.711 65.627C480.092 65.627 480.46 65.5453 480.814 65.3819C481.195 65.2186 481.549 65.0143 481.876 64.7693C482.202 64.5242 482.516 64.2655 482.815 63.9932C483.115 63.6937 483.387 63.4214 483.632 63.1764L483.795 63.3806C483.033 64.3336 482.134 65.1096 481.1 65.7087C480.065 66.3077 478.935 66.6072 477.71 66.6072C476.62 66.6072 475.763 66.3213 475.136 65.7495C474.51 65.1777 474.197 64.3336 474.197 63.2172C474.197 62.5092 474.401 61.8421 474.81 61.2158L474.728 61.1342C473.584 61.8966 472.495 62.7815 471.46 63.789C470.426 64.7965 469.459 65.8584 468.561 66.9748C467.689 68.0912 466.872 69.2485 466.11 70.4466C465.375 71.6174 464.708 72.7611 464.109 73.8775L459.983 74ZM471.774 77.2267C471.638 77.1994 471.393 77.1858 471.039 77.1858C469.868 77.1858 468.969 77.6079 468.343 78.452C467.689 79.2961 467.363 80.3308 467.363 81.5561C467.363 82.9993 467.812 84.1293 468.71 84.9462C469.582 85.7631 470.671 86.1715 471.978 86.1715C473.367 86.1715 474.674 85.872 475.899 85.2729C477.124 84.7011 478.268 83.9251 479.33 82.9448C480.392 81.9918 481.386 80.889 482.312 79.6365C483.265 78.4111 484.136 77.145 484.926 75.838C485.742 74.531 486.505 73.2512 487.213 71.9986C487.921 70.7461 488.574 69.6161 489.173 68.6086L489.092 68.5269C488.683 69.017 488.166 69.6025 487.54 70.2832C486.94 70.9367 486.26 71.5766 485.497 72.2029C484.735 72.8019 483.932 73.3193 483.088 73.7549C482.243 74.1906 481.386 74.4084 480.514 74.4084C479.616 74.4084 478.976 74.1498 478.595 73.6324C478.186 73.115 477.982 72.5024 477.982 71.7944C477.982 71.1137 478.173 70.3377 478.554 69.4663C478.935 68.595 479.412 67.642 479.983 66.6072C480.582 65.5453 481.25 64.4289 481.985 63.258C482.72 62.0872 483.455 60.8755 484.19 59.6229L488.52 59.4596C486.233 63.0266 484.449 65.8448 483.169 67.9143C481.889 69.9837 481.25 71.4541 481.25 72.3254C481.25 72.6522 481.345 72.9244 481.535 73.1423C481.753 73.3329 482.012 73.4282 482.312 73.4282C482.802 73.4282 483.428 73.1831 484.19 72.693C484.953 72.1756 485.756 71.4949 486.6 70.6508C487.471 69.8067 488.343 68.84 489.214 67.7509C490.085 66.6345 490.875 65.4908 491.583 64.32C492.182 63.3397 492.713 62.4412 493.176 61.6243C493.639 60.8074 493.979 60.1403 494.197 59.6229L498.2 59.4596C496.729 61.9919 495.3 64.5242 493.911 67.0565C492.55 69.5616 491.12 72.0531 489.623 74.531C490.93 74.1498 492.223 73.5643 493.503 72.7747C494.783 71.9578 496.008 71.0184 497.179 69.9564C498.377 68.8945 499.48 67.7645 500.487 66.5664C501.522 65.3683 502.448 64.1975 503.264 63.0538L503.591 63.3397C502.665 64.674 501.644 65.981 500.528 67.2608C499.412 68.5133 498.227 69.6705 496.974 70.7325C495.749 71.7672 494.483 72.6658 493.176 73.4282C491.869 74.1906 490.562 74.7352 489.255 75.0619C488.275 76.7229 487.172 78.2614 485.947 79.6773C484.721 81.0932 483.373 82.3185 481.903 83.3533C480.433 84.388 478.84 85.1912 477.124 85.7631C475.409 86.3621 473.571 86.6616 471.61 86.6616C470.63 86.6616 469.677 86.5663 468.751 86.3757C467.826 86.2123 467.009 85.9128 466.301 85.4771C465.593 85.0687 465.021 84.5105 464.585 83.8025C464.15 83.1218 463.932 82.2777 463.932 81.2702C463.932 80.4533 464.109 79.759 464.463 79.1872C464.789 78.6154 465.239 78.1389 465.811 77.7576C466.355 77.4037 466.995 77.1314 467.73 76.9408C468.438 76.7774 469.173 76.6957 469.936 76.6957C470.263 76.6957 470.603 76.7093 470.957 76.7365C471.284 76.7638 471.556 76.8046 471.774 76.8591V77.2267ZM495.196 79.3097C496.012 79.3097 496.843 79.1872 497.687 78.9421C498.504 78.7243 499.253 78.3839 499.933 77.921C500.641 77.4853 501.24 76.9408 501.731 76.2873C502.221 75.6338 502.561 74.8713 502.752 74C502.561 74.1089 502.37 74.177 502.18 74.2042C502.044 74.2314 501.826 74.2451 501.526 74.2451C501.009 74.2451 500.601 74.0681 500.301 73.7141C500.002 73.3329 499.852 72.9108 499.852 72.4479C499.852 71.74 500.083 71.209 500.546 70.855C501.009 70.501 501.526 70.324 502.098 70.324C502.888 70.324 503.541 70.5419 504.059 70.9775C504.576 71.4132 504.835 72.0395 504.835 72.8564C504.835 73.9183 504.522 74.8713 503.895 75.7154C503.296 76.5596 502.52 77.2675 501.567 77.8393C500.614 78.4384 499.579 78.8877 498.463 79.1872C497.319 79.5139 496.23 79.6909 495.196 79.7182V79.3097ZM524.436 74.3268C523.918 74.3268 523.564 74.2859 523.374 74.2042C523.183 74.1498 523.088 74.0817 523.088 74C523.088 73.8911 523.156 73.5371 523.292 72.9381C523.455 72.339 523.592 71.6855 523.7 70.9775L525.375 61.8693C525.62 60.5351 525.416 59.868 524.762 59.868C524.49 59.868 524.15 60.0041 523.741 60.2764C523.36 60.5487 522.911 60.9572 522.393 61.5018C522.312 61.6107 522.216 61.6107 522.108 61.5018C521.999 61.3656 521.985 61.2431 522.067 61.1342C523.047 59.9633 523.932 59.1328 524.722 58.6427C525.511 58.1253 526.287 57.8666 527.05 57.8666C527.921 57.8666 528.493 58.1798 528.765 58.8061C529.037 59.4051 529.065 60.2628 528.847 61.3792L526.723 73.5099C526.587 74.0545 525.824 74.3268 524.436 74.3268ZM526.192 66.6072L526.314 65.627H536.199L536.076 66.6072H526.192ZM534.973 74.3676C534.102 74.3676 533.53 74.0681 533.258 73.469C533.013 72.8428 532.986 71.9714 533.176 70.855L535.3 58.7244C535.436 58.1798 536.199 57.9075 537.587 57.9075C538.132 57.9075 538.486 57.9483 538.649 58.03C538.84 58.1117 538.935 58.1798 538.935 58.2342C538.935 58.3432 538.867 58.6971 538.731 59.2962C538.595 59.8952 538.459 60.5487 538.323 61.2567L536.648 70.3649C536.403 71.6991 536.607 72.3662 537.261 72.3662C537.832 72.3662 538.609 71.8217 539.589 70.7325C539.698 70.6236 539.807 70.6372 539.916 70.7733C540.024 70.8822 540.038 70.9912 539.956 71.1001C538.976 72.2709 538.091 73.115 537.302 73.6324C536.512 74.1225 535.736 74.3676 534.973 74.3676ZM539.741 85.4771C539.033 85.4771 538.434 85.3002 537.944 84.9462C537.426 84.6194 537.236 83.9795 537.372 83.0265C537.59 81.774 538.379 81.1477 539.741 81.1477C540.313 81.1477 540.83 81.2702 541.293 81.5153C541.756 81.7876 542.232 81.9782 542.723 82.0871C543.213 82.196 543.771 82.0326 544.397 81.597C544.996 81.1885 545.704 80.4806 546.521 79.4731C547.338 78.4928 548.182 77.3628 549.053 76.083C549.925 74.8305 550.742 73.5507 551.504 72.2437C552.294 70.9367 552.961 69.7522 553.505 68.6903C554.05 67.6011 554.39 66.7706 554.526 66.1988C554.772 65.2186 554.826 64.4425 554.69 63.8707C554.581 63.2717 554.39 62.7815 554.118 62.4003C553.873 62.0191 553.628 61.6515 553.383 61.2975C553.138 60.9436 553.015 60.4807 553.015 59.9088C553.015 59.2826 553.233 58.7788 553.669 58.3976C554.104 58.0164 554.676 57.8258 555.384 57.8258C556.065 57.8258 556.596 58.0709 556.977 58.561C557.358 59.0239 557.549 59.7319 557.549 60.6849C557.549 61.5562 557.317 62.659 556.855 63.9932C556.419 65.3002 555.806 66.7298 555.017 68.2818C554.254 69.8339 553.369 71.4132 552.362 73.0197C551.354 74.6263 550.292 76.1647 549.176 77.6351C548.059 79.1327 546.929 80.467 545.786 81.6378C544.642 82.8359 543.553 83.7753 542.518 84.456C541.484 85.1368 540.558 85.4771 539.741 85.4771ZM547.052 79.5139C547.188 73.2784 546.875 68.4997 546.113 65.1777C545.35 61.8285 544.288 60.1539 542.927 60.1539C542.573 60.1539 542.232 60.2764 541.906 60.5215C541.579 60.7666 541.307 61.0661 541.089 61.4201C541.034 61.529 540.925 61.5698 540.762 61.5426C540.626 61.4881 540.571 61.4065 540.599 61.2975C541.089 60.2628 541.81 59.4323 542.763 58.8061C543.716 58.1798 544.574 57.8666 545.337 57.8666C546.235 57.8666 547.025 58.3159 547.706 59.2145C548.386 60.0858 548.944 61.2975 549.38 62.8496C549.816 64.4017 550.115 66.1852 550.279 68.2002C550.442 70.2151 550.456 72.3662 550.32 74.6535L547.052 79.5139ZM561.23 74.531C560.549 74.531 559.896 74.2995 559.27 73.8366C558.643 73.3465 558.385 72.6658 558.493 71.7944C558.548 71.3588 558.711 70.9639 558.984 70.61C559.283 70.256 559.705 70.079 560.25 70.079C560.822 70.079 561.216 70.2287 561.434 70.5283C561.679 70.8278 561.843 71.1818 561.924 71.5902C562.033 71.9986 562.142 72.3526 562.251 72.6522C562.36 72.9517 562.578 73.1014 562.905 73.1014C563.422 73.1014 563.858 72.8155 564.212 72.2437C564.593 71.6719 564.906 70.9367 565.151 70.0381C565.423 69.1123 565.641 68.1729 565.805 67.2199C565.995 66.0218 566.036 64.851 565.927 63.7073C565.818 62.5365 565.532 61.5834 565.069 60.8483C564.634 60.0858 564.007 59.7046 563.191 59.7046C562.619 59.7046 562.074 59.8544 561.557 60.1539C561.039 60.4534 560.672 60.7257 560.454 60.9708C560.4 60.998 560.304 60.9708 560.168 60.8891C560.059 60.8074 560.032 60.7257 560.086 60.644C560.985 59.4459 561.843 58.6563 562.66 58.2751C563.504 57.8939 564.266 57.7033 564.947 57.7033C565.9 57.7033 566.649 57.9756 567.193 58.5201C567.765 59.0375 568.174 59.7319 568.419 60.6032C568.664 61.4745 568.786 62.4276 568.786 63.4623C568.786 64.497 568.691 65.5045 568.5 66.4847C568.174 68.2546 567.602 69.7386 566.785 70.9367C565.995 72.1348 565.097 73.0334 564.089 73.6324C563.082 74.2314 562.129 74.531 561.23 74.531ZM571.237 74.3268C570.719 74.3268 570.365 74.2859 570.175 74.2042C570.011 74.1498 569.93 74.0817 569.93 74C569.93 73.8911 570.011 73.5371 570.175 72.9381C570.338 72.339 570.474 71.6855 570.583 70.9775L572.748 58.7244C572.884 58.1798 573.633 57.9075 574.994 57.9075C575.539 57.9075 575.893 57.9483 576.056 58.03C576.22 58.1117 576.301 58.1798 576.301 58.2342C576.301 58.2887 576.261 58.4657 576.179 58.7652C576.097 59.0647 576.002 59.4323 575.893 59.868C575.811 60.3037 575.73 60.7666 575.648 61.2567L573.483 73.5099C573.402 74.0545 572.653 74.3268 571.237 74.3268ZM566.744 66.6072L566.866 65.627H579.651L579.487 66.6072H566.744ZM581.284 74.531C580.331 74.531 579.569 74.2723 578.997 73.7549C578.425 73.2104 578.017 72.5024 577.772 71.6311C577.527 70.7597 577.404 69.8067 577.404 68.772C577.404 67.7373 577.5 66.7298 577.69 65.7495C578.044 63.9796 578.616 62.4956 579.406 61.2975C580.222 60.0994 581.121 59.2009 582.101 58.6018C583.109 58.0028 584.062 57.7033 584.96 57.7033C585.668 57.7033 586.322 57.9483 586.921 58.4385C587.52 58.9014 587.779 59.5685 587.697 60.4398C587.67 60.8755 587.506 61.2703 587.207 61.6243C586.934 61.9783 586.526 62.1553 585.981 62.1553C585.41 62.1553 585.001 62.0055 584.756 61.706C584.511 61.4065 584.334 61.0525 584.225 60.644C584.143 60.2356 584.048 59.8816 583.939 59.5821C583.83 59.2826 583.613 59.1328 583.286 59.1328C582.768 59.1328 582.319 59.4187 581.938 59.9905C581.584 60.5623 581.271 61.2975 580.999 62.1961C580.753 63.0947 580.549 64.0341 580.386 65.0143C580.195 66.2124 580.154 67.3969 580.263 68.5678C580.372 69.7114 580.645 70.6644 581.08 71.4268C581.543 72.162 582.183 72.5296 583 72.5296C583.572 72.5296 584.103 72.3662 584.593 72.0395C585.11 71.7127 585.491 71.4541 585.736 71.2635C585.791 71.209 585.873 71.2362 585.981 71.3451C586.118 71.4268 586.158 71.5221 586.104 71.6311C585.178 72.7747 584.307 73.5507 583.49 73.9592C582.7 74.3404 581.965 74.531 581.284 74.531ZM590.608 74.3268C590.09 74.3268 589.736 74.2859 589.546 74.2042C589.355 74.1498 589.26 74.0817 589.26 74C589.26 73.8911 589.328 73.5371 589.464 72.9381C589.627 72.339 589.763 71.6855 589.872 70.9775L591.547 61.8693C591.792 60.5351 591.588 59.868 590.934 59.868C590.662 59.868 590.322 60.0041 589.913 60.2764C589.532 60.5487 589.083 60.9572 588.565 61.5018C588.484 61.6107 588.388 61.6107 588.279 61.5018C588.171 61.3656 588.157 61.2431 588.239 61.1342C589.219 59.9633 590.104 59.1328 590.894 58.6427C591.683 58.1253 592.459 57.8666 593.222 57.8666C594.093 57.8666 594.665 58.1798 594.937 58.8061C595.209 59.4051 595.237 60.2628 595.019 61.3792L592.895 73.5099C592.759 74.0545 591.996 74.3268 590.608 74.3268ZM592.364 66.6072L592.486 65.627H602.371L602.248 66.6072H592.364ZM601.145 74.3676C600.274 74.3676 599.702 74.0681 599.43 73.469C599.185 72.8428 599.158 71.9714 599.348 70.855L601.472 58.7244C601.608 58.1798 602.371 57.9075 603.759 57.9075C604.304 57.9075 604.658 57.9483 604.821 58.03C605.012 58.1117 605.107 58.1798 605.107 58.2342C605.107 58.3432 605.039 58.6971 604.903 59.2962C604.767 59.8952 604.631 60.5487 604.495 61.2567L602.82 70.3649C602.575 71.6991 602.779 72.3662 603.433 72.3662C604.004 72.3662 604.78 71.8217 605.761 70.7325C605.87 70.6236 605.979 70.6372 606.087 70.7733C606.196 70.8822 606.21 70.9912 606.128 71.1001C605.148 72.2709 604.263 73.115 603.473 73.6324C602.684 74.1225 601.908 74.3676 601.145 74.3676ZM613.458 74.5718C611.96 74.5718 610.762 74.177 609.863 73.3873C608.992 72.5977 608.42 71.563 608.148 70.2832C607.876 69.0034 607.876 67.6147 608.148 66.1171C608.475 64.4561 609.074 62.9994 609.945 61.7468C610.816 60.467 611.878 59.4732 613.131 58.7652C614.383 58.0572 615.731 57.7033 617.174 57.7033C618.699 57.7033 619.911 58.0845 620.81 58.8469C621.708 59.5821 622.307 60.5896 622.607 61.8693C622.906 63.1219 622.893 64.5378 622.566 66.1171C622.212 67.9687 621.545 69.5344 620.564 70.8142C619.611 72.0667 618.509 73.0061 617.256 73.6324C616.004 74.2587 614.737 74.5718 613.458 74.5718ZM614.846 73.5507C615.718 73.5507 616.466 73.047 617.093 72.0395C617.746 71.0048 618.223 69.6297 618.522 67.9143C618.74 66.6889 618.835 65.5317 618.808 64.4425C618.808 63.3261 618.686 62.3322 618.441 61.4609C618.196 60.5896 617.855 59.9088 617.419 59.4187C616.984 58.9286 616.453 58.6835 615.827 58.6835C615.064 58.6835 614.356 59.1464 613.703 60.0722C613.049 60.998 612.545 62.4276 612.191 64.3608C611.974 65.5861 611.878 66.757 611.906 67.8734C611.933 68.9898 612.055 69.9701 612.273 70.8142C612.518 71.6583 612.859 72.3254 613.294 72.8155C613.73 73.3057 614.247 73.5507 614.846 73.5507ZM221.61 122.51L220.875 122.428C221.174 120.822 221.624 119.256 222.223 117.731C222.849 116.179 223.557 114.75 224.346 113.443C225.163 112.136 226.021 110.992 226.92 110.012C227.818 109.004 228.703 108.228 229.574 107.684C230.446 107.112 231.235 106.826 231.943 106.826C232.733 106.826 233.305 107.044 233.659 107.479C234.04 107.888 234.176 108.378 234.067 108.95C233.986 109.358 233.781 109.726 233.455 110.052C233.128 110.379 232.679 110.543 232.107 110.543C231.508 110.543 231.058 110.42 230.759 110.175C230.487 109.903 230.174 109.767 229.82 109.767C229.221 109.767 228.581 110.066 227.9 110.665C227.219 111.264 226.538 112.054 225.858 113.034C225.204 113.987 224.578 115.035 223.979 116.179C223.407 117.295 222.903 118.412 222.468 119.528C222.059 120.645 221.773 121.639 221.61 122.51ZM219.323 123.327C218.805 123.327 218.451 123.286 218.261 123.204C218.07 123.15 217.975 123.082 217.975 123C217.975 122.891 218.043 122.537 218.179 121.938C218.342 121.339 218.479 120.686 218.587 119.978L220.262 110.869C220.507 109.535 220.303 108.868 219.649 108.868C219.377 108.868 219.037 109.004 218.628 109.276C218.247 109.549 217.798 109.957 217.28 110.502C217.199 110.611 217.103 110.611 216.995 110.502C216.886 110.366 216.872 110.243 216.954 110.134C217.934 108.963 218.819 108.133 219.609 107.643C220.398 107.125 221.174 106.867 221.937 106.867C222.808 106.867 223.38 107.18 223.652 107.806C223.924 108.405 223.952 109.263 223.734 110.379L221.61 122.51C221.474 123.054 220.711 123.327 219.323 123.327ZM229.411 123.449C228.676 123.449 228.159 123.231 227.859 122.796C227.56 122.333 227.383 121.734 227.328 120.999C227.274 120.236 227.246 119.419 227.246 118.548C227.274 117.922 227.26 117.323 227.206 116.751C227.151 116.179 227.001 115.716 226.756 115.362C226.538 114.981 226.13 114.79 225.531 114.79C225.177 114.79 224.809 114.831 224.428 114.913L224.224 114.341C224.687 114.123 225.163 113.973 225.653 113.892C226.171 113.783 226.661 113.728 227.124 113.728C228.131 113.728 228.867 113.919 229.329 114.3C229.82 114.681 230.133 115.172 230.269 115.771C230.432 116.37 230.5 117.01 230.473 117.69C230.446 118.616 230.487 119.392 230.596 120.018C230.705 120.617 231.086 120.917 231.739 120.917C232.039 120.917 232.379 120.781 232.76 120.509C233.142 120.236 233.455 119.978 233.7 119.732C233.781 119.651 233.877 119.664 233.986 119.773C234.095 119.882 234.108 119.991 234.026 120.1C233.101 121.162 232.297 121.993 231.617 122.592C230.936 123.163 230.201 123.449 229.411 123.449ZM234.229 134.477C233.521 134.477 232.922 134.3 232.432 133.946C231.915 133.619 231.724 132.98 231.86 132.027C232.078 130.774 232.868 130.148 234.229 130.148C234.801 130.148 235.318 130.27 235.781 130.515C236.244 130.788 236.721 130.978 237.211 131.087C237.701 131.196 238.259 131.033 238.885 130.597C239.484 130.189 240.192 129.481 241.009 128.473C241.826 127.493 242.67 126.363 243.542 125.083C244.413 123.83 245.23 122.551 245.992 121.244C246.782 119.937 247.449 118.752 247.994 117.69C248.538 116.601 248.878 115.771 249.015 115.199C249.26 114.219 249.314 113.443 249.178 112.871C249.069 112.272 248.878 111.782 248.606 111.4C248.361 111.019 248.116 110.652 247.871 110.298C247.626 109.944 247.503 109.481 247.503 108.909C247.503 108.283 247.721 107.779 248.157 107.398C248.593 107.016 249.164 106.826 249.872 106.826C250.553 106.826 251.084 107.071 251.465 107.561C251.846 108.024 252.037 108.732 252.037 109.685C252.037 110.556 251.806 111.659 251.343 112.993C250.907 114.3 250.294 115.73 249.505 117.282C248.742 118.834 247.857 120.413 246.85 122.02C245.842 123.626 244.78 125.165 243.664 126.635C242.548 128.133 241.418 129.467 240.274 130.638C239.13 131.836 238.041 132.775 237.006 133.456C235.972 134.137 235.046 134.477 234.229 134.477ZM241.54 128.514C241.676 122.278 241.363 117.5 240.601 114.178C239.838 110.829 238.776 109.154 237.415 109.154C237.061 109.154 236.721 109.276 236.394 109.522C236.067 109.767 235.795 110.066 235.577 110.42C235.522 110.529 235.414 110.57 235.25 110.543C235.114 110.488 235.06 110.406 235.087 110.298C235.577 109.263 236.299 108.432 237.252 107.806C238.205 107.18 239.062 106.867 239.825 106.867C240.723 106.867 241.513 107.316 242.194 108.214C242.874 109.086 243.433 110.298 243.868 111.85C244.304 113.402 244.603 115.185 244.767 117.2C244.93 119.215 244.944 121.366 244.808 123.654L241.54 128.514ZM267.195 123.368C266.297 123.368 265.711 123.027 265.439 122.346C265.194 121.666 265.194 120.672 265.439 119.365L266.623 112.871C267.114 110.311 266.746 109.031 265.521 109.031C264.758 109.031 263.955 109.549 263.111 110.583C262.267 111.618 261.477 113.143 260.742 115.158C260.007 117.146 259.394 119.596 258.904 122.51L258.169 122.469C258.713 119.229 259.449 116.438 260.374 114.096C261.327 111.727 262.417 109.903 263.642 108.623C264.894 107.343 266.215 106.703 267.604 106.703C268.747 106.703 269.551 107.139 270.013 108.01C270.476 108.882 270.544 110.243 270.218 112.095L268.87 119.365C268.734 120.127 268.72 120.645 268.829 120.917C268.965 121.162 269.156 121.285 269.401 121.285C269.7 121.285 270.027 121.148 270.381 120.876C270.735 120.604 271.13 120.263 271.566 119.855C271.647 119.746 271.743 119.746 271.851 119.855C271.96 119.964 271.974 120.073 271.892 120.182C271.048 121.189 270.259 121.979 269.523 122.551C268.788 123.095 268.012 123.368 267.195 123.368ZM256.617 123.327C256.099 123.327 255.745 123.286 255.555 123.204C255.364 123.15 255.269 123.082 255.269 123C255.269 122.891 255.337 122.537 255.473 121.938C255.636 121.339 255.773 120.686 255.881 119.978L257.556 110.869C257.801 109.535 257.597 108.868 256.943 108.868C256.671 108.868 256.331 109.004 255.922 109.276C255.541 109.549 255.092 109.957 254.574 110.502C254.493 110.611 254.397 110.611 254.289 110.502C254.18 110.366 254.166 110.243 254.248 110.134C255.228 108.963 256.113 108.133 256.903 107.643C257.692 107.125 258.468 106.867 259.231 106.867C260.102 106.867 260.674 107.18 260.946 107.806C261.218 108.405 261.246 109.263 261.028 110.379L258.904 122.51C258.768 123.054 258.005 123.327 256.617 123.327ZM277.921 123.531C276.778 123.531 275.961 123.095 275.471 122.224C275.008 121.325 274.953 119.964 275.307 118.14L276.737 110.869C276.873 110.08 276.873 109.562 276.737 109.317C276.628 109.072 276.451 108.95 276.206 108.95C275.934 108.95 275.62 109.086 275.266 109.358C274.912 109.63 274.518 109.971 274.082 110.379C273.973 110.488 273.864 110.488 273.755 110.379C273.646 110.27 273.646 110.161 273.755 110.052C274.627 109.018 275.416 108.228 276.124 107.684C276.832 107.139 277.581 106.867 278.371 106.867C279.187 106.867 279.759 107.18 280.086 107.806C280.44 108.432 280.467 109.453 280.168 110.869L278.902 117.364C278.629 118.671 278.602 119.637 278.82 120.263C279.038 120.89 279.432 121.203 280.004 121.203C280.794 121.203 281.597 120.686 282.414 119.651C283.258 118.616 284.048 117.105 284.783 115.117C285.518 113.102 286.131 110.638 286.621 107.724L287.356 107.765C286.839 110.978 286.104 113.769 285.151 116.138C284.198 118.507 283.108 120.332 281.883 121.611C280.658 122.891 279.337 123.531 277.921 123.531ZM286.294 123.368C285.423 123.368 284.851 123.068 284.579 122.469C284.334 121.843 284.307 120.971 284.497 119.855L286.621 107.724C286.757 107.18 287.52 106.907 288.908 106.907C289.453 106.907 289.807 106.948 289.97 107.03C290.161 107.112 290.256 107.18 290.256 107.234C290.256 107.343 290.188 107.697 290.052 108.296C289.916 108.895 289.78 109.549 289.643 110.257L287.969 119.365C287.724 120.699 287.928 121.366 288.582 121.366C288.854 121.366 289.181 121.23 289.562 120.958C289.97 120.686 290.433 120.277 290.95 119.732C291.032 119.624 291.127 119.637 291.236 119.773C291.345 119.882 291.359 119.991 291.277 120.1C290.297 121.271 289.412 122.115 288.622 122.632C287.86 123.123 287.084 123.368 286.294 123.368ZM314.623 123.368C313.697 123.368 313.112 123.027 312.867 122.346C312.622 121.666 312.608 120.672 312.826 119.365L314.051 112.871C314.269 111.564 314.296 110.597 314.133 109.971C313.97 109.345 313.616 109.031 313.071 109.031C312.417 109.031 311.696 109.535 310.906 110.543C310.117 111.523 309.354 113.007 308.619 114.995C307.884 116.982 307.271 119.487 306.781 122.51L306.046 122.469C306.59 119.147 307.326 116.315 308.251 113.973C309.177 111.605 310.239 109.807 311.437 108.582C312.635 107.33 313.888 106.703 315.195 106.703C316.257 106.703 317.006 107.139 317.441 108.01C317.904 108.882 317.959 110.243 317.605 112.095L316.298 119.365C316.161 120.127 316.148 120.645 316.257 120.917C316.393 121.162 316.584 121.285 316.829 121.285C317.128 121.285 317.441 121.148 317.768 120.876C318.122 120.604 318.517 120.263 318.952 119.855C319.061 119.746 319.17 119.746 319.279 119.855C319.388 119.964 319.388 120.073 319.279 120.182C318.435 121.189 317.645 121.979 316.91 122.551C316.175 123.095 315.413 123.368 314.623 123.368ZM295.426 123.327C294.909 123.327 294.555 123.286 294.364 123.204C294.174 123.15 294.079 123.082 294.079 123C294.079 122.891 294.147 122.537 294.283 121.938C294.446 121.339 294.582 120.686 294.691 119.978L296.366 110.869C296.611 109.535 296.407 108.868 295.753 108.868C295.481 108.868 295.14 109.004 294.732 109.276C294.351 109.549 293.902 109.957 293.384 110.502C293.303 110.611 293.207 110.611 293.098 110.502C292.989 110.366 292.976 110.243 293.057 110.134C294.038 108.963 294.923 108.133 295.712 107.643C296.502 107.125 297.278 106.867 298.04 106.867C298.912 106.867 299.484 107.18 299.756 107.806C300.028 108.405 300.055 109.263 299.838 110.379L297.714 122.51C297.578 123.054 296.815 123.327 295.426 123.327ZM304.494 123.327C303.976 123.327 303.622 123.286 303.432 123.204C303.241 123.15 303.146 123.082 303.146 123C303.146 122.891 303.214 122.537 303.35 121.938C303.513 121.339 303.65 120.686 303.759 119.978L305.106 112.789C305.351 111.455 305.365 110.502 305.147 109.93C304.929 109.331 304.548 109.031 304.004 109.031C303.296 109.031 302.533 109.562 301.716 110.624C300.927 111.686 300.178 113.225 299.47 115.24C298.762 117.227 298.177 119.651 297.714 122.51L296.978 122.469C297.496 119.229 298.204 116.438 299.102 114.096C300.028 111.727 301.09 109.903 302.288 108.623C303.513 107.343 304.807 106.703 306.168 106.703C307.203 106.703 307.952 107.125 308.415 107.969C308.905 108.814 308.987 110.161 308.66 112.013L306.781 122.51C306.699 123.054 305.937 123.327 304.494 123.327ZM326.695 123.531C325.034 123.531 323.877 123.177 323.224 122.469C322.57 121.761 322.448 120.44 322.856 118.507L324.408 110.869C324.544 110.189 324.544 109.685 324.408 109.358C324.299 109.031 324.095 108.868 323.795 108.868C323.523 108.868 323.183 108.991 322.774 109.236C322.366 109.481 321.93 109.903 321.467 110.502C321.358 110.611 321.249 110.611 321.141 110.502C321.032 110.366 321.032 110.243 321.141 110.134C322.202 109.072 323.101 108.269 323.836 107.724C324.571 107.153 325.32 106.867 326.083 106.867C326.954 106.867 327.526 107.18 327.798 107.806C328.098 108.405 328.138 109.263 327.921 110.379L326.287 118.875C326.042 120.182 326.055 121.176 326.328 121.856C326.627 122.51 327.158 122.837 327.921 122.837C328.438 122.837 328.901 122.646 329.309 122.265C329.718 121.856 330.058 121.353 330.33 120.754C330.63 120.127 330.821 119.487 330.902 118.834C331.038 117.799 330.902 117.01 330.494 116.465C330.113 115.92 329.65 115.648 329.105 115.648C328.561 115.648 328.002 115.92 327.431 116.465C326.886 116.982 326.505 117.786 326.287 118.875L325.633 118.834C325.797 117.881 326.137 117.064 326.654 116.383C327.172 115.675 327.853 115.144 328.697 114.79C329.541 114.409 330.494 114.219 331.556 114.219C332.645 114.219 333.475 114.532 334.047 115.158C334.646 115.784 334.864 116.628 334.701 117.69C334.537 118.616 334.088 119.528 333.353 120.427C332.645 121.325 331.719 122.074 330.575 122.673C329.432 123.245 328.138 123.531 326.695 123.531ZM352.548 123.531C351.213 123.531 350.056 123.191 349.076 122.51C348.096 121.802 347.415 120.658 347.034 119.079C346.652 117.472 346.693 115.308 347.156 112.585C347.537 110.434 347.959 108.541 348.422 106.907C348.885 105.247 349.403 103.803 349.974 102.578C350.573 101.353 351.254 100.318 352.017 99.4739C352.806 98.6026 353.705 97.8946 354.712 97.35C355.747 96.7782 356.918 96.3425 358.225 96.043C358.933 95.8796 359.641 95.7026 360.349 95.512C361.084 95.2942 361.751 95.0219 362.35 94.6952C362.949 94.3412 363.385 93.9055 363.657 93.3881C363.712 93.2792 363.807 93.252 363.943 93.3065C364.079 93.3337 364.134 93.3881 364.106 93.4698C363.78 94.8041 363.439 95.866 363.085 96.6557C362.731 97.4181 362.323 98.0171 361.86 98.4528C361.397 98.8612 360.825 99.188 360.145 99.433C359.491 99.6781 358.688 99.9232 357.735 100.168C356.482 100.495 355.352 100.89 354.345 101.353C353.337 101.816 352.425 102.524 351.608 103.477C350.791 104.43 350.043 105.805 349.362 107.602C348.708 109.372 348.082 111.754 347.483 114.75L347.36 113.81C348.15 112.095 348.981 110.774 349.852 109.848C350.75 108.895 351.608 108.214 352.425 107.806C353.269 107.398 353.991 107.153 354.59 107.071C355.189 106.989 355.584 106.948 355.774 106.948C357.245 106.948 358.429 107.207 359.328 107.724C360.254 108.242 360.934 108.922 361.37 109.767C361.833 110.583 362.105 111.482 362.187 112.462C362.268 113.443 362.228 114.382 362.064 115.28C361.765 117.023 361.125 118.507 360.145 119.732C359.192 120.958 358.034 121.897 356.673 122.551C355.339 123.204 353.964 123.531 352.548 123.531ZM353.936 122.673C354.889 122.673 355.72 122.129 356.428 121.039C357.163 119.923 357.721 118.289 358.102 116.138C358.429 114.259 358.497 112.707 358.307 111.482C358.143 110.229 357.789 109.304 357.245 108.705C356.727 108.078 356.074 107.765 355.284 107.765C354.495 107.765 353.814 108.078 353.242 108.705C352.67 109.331 352.207 110.107 351.853 111.033C351.499 111.931 351.227 112.83 351.036 113.728C350.737 115.498 350.642 117.064 350.75 118.425C350.887 119.76 351.213 120.808 351.731 121.57C352.275 122.306 353.011 122.673 353.936 122.673ZM368.384 123.531C367.241 123.531 366.424 123.095 365.934 122.224C365.471 121.325 365.416 119.964 365.77 118.14L367.2 110.869C367.336 110.08 367.336 109.562 367.2 109.317C367.091 109.072 366.914 108.95 366.669 108.95C366.396 108.95 366.083 109.086 365.729 109.358C365.375 109.63 364.981 109.971 364.545 110.379C364.436 110.488 364.327 110.488 364.218 110.379C364.109 110.27 364.109 110.161 364.218 110.052C365.089 109.018 365.879 108.228 366.587 107.684C367.295 107.139 368.044 106.867 368.833 106.867C369.65 106.867 370.222 107.18 370.549 107.806C370.903 108.432 370.93 109.453 370.631 110.869L369.364 117.364C369.092 118.671 369.065 119.637 369.283 120.263C369.501 120.89 369.895 121.203 370.467 121.203C371.257 121.203 372.06 120.686 372.877 119.651C373.721 118.616 374.511 117.105 375.246 115.117C375.981 113.102 376.594 110.638 377.084 107.724L377.819 107.765C377.302 110.978 376.567 113.769 375.614 116.138C374.661 118.507 373.571 120.332 372.346 121.611C371.121 122.891 369.8 123.531 368.384 123.531ZM376.757 123.368C375.886 123.368 375.314 123.068 375.042 122.469C374.797 121.843 374.769 120.971 374.96 119.855L377.084 107.724C377.22 107.18 377.983 106.907 379.371 106.907C379.916 106.907 380.27 106.948 380.433 107.03C380.624 107.112 380.719 107.18 380.719 107.234C380.719 107.343 380.651 107.697 380.515 108.296C380.379 108.895 380.243 109.549 380.106 110.257L378.432 119.365C378.187 120.699 378.391 121.366 379.044 121.366C379.317 121.366 379.644 121.23 380.025 120.958C380.433 120.686 380.896 120.277 381.413 119.732C381.495 119.624 381.59 119.637 381.699 119.773C381.808 119.882 381.822 119.991 381.74 120.1C380.76 121.271 379.875 122.115 379.085 122.632C378.323 123.123 377.547 123.368 376.757 123.368ZM383.97 123.368C383.343 123.368 382.867 123.191 382.54 122.837C382.213 122.455 382.05 122.047 382.05 121.611C382.05 121.039 382.254 120.59 382.663 120.263C383.071 119.909 383.616 119.732 384.296 119.732C385.277 119.732 386.066 119.419 386.665 118.793C387.264 118.167 387.755 117.364 388.136 116.383C388.544 115.403 388.939 114.368 389.32 113.279C389.701 112.19 390.151 111.155 390.668 110.175C391.213 109.195 391.907 108.391 392.751 107.765C393.595 107.139 394.698 106.826 396.059 106.826C397.013 106.826 397.707 107.071 398.143 107.561C398.605 108.024 398.714 108.977 398.469 110.42L396.999 119.365C396.89 120.127 396.89 120.645 396.999 120.917C397.108 121.162 397.285 121.285 397.53 121.285C397.829 121.285 398.156 121.148 398.51 120.876C398.864 120.604 399.259 120.263 399.695 119.855C399.776 119.746 399.872 119.746 399.98 119.855C400.089 119.964 400.103 120.073 400.021 120.182C399.177 121.189 398.388 121.979 397.652 122.551C396.917 123.095 396.141 123.368 395.324 123.368C394.426 123.368 393.813 123.027 393.486 122.346C393.16 121.666 393.119 120.672 393.364 119.365L394.671 111.482C394.834 110.556 394.834 109.984 394.671 109.767C394.507 109.522 394.276 109.399 393.976 109.399C393.214 109.399 392.547 109.739 391.975 110.42C391.403 111.074 390.9 111.931 390.464 112.993C390.028 114.055 389.593 115.185 389.157 116.383C388.748 117.581 388.299 118.711 387.809 119.773C387.346 120.835 386.802 121.707 386.175 122.387C385.576 123.041 384.841 123.368 383.97 123.368ZM407.465 123.49C405.886 123.49 404.647 123.095 403.748 122.306C402.877 121.516 402.305 120.509 402.033 119.283C401.788 118.058 401.788 116.778 402.033 115.444C402.25 114.382 402.645 113.334 403.217 112.299C403.789 111.237 404.51 110.298 405.382 109.481C406.253 108.637 407.247 107.969 408.363 107.479C409.48 106.962 410.678 106.703 411.958 106.703C413.074 106.703 413.905 106.894 414.449 107.275C415.021 107.656 415.28 108.201 415.225 108.909C415.144 109.617 414.776 110.298 414.122 110.951C413.469 111.605 412.598 112.19 411.508 112.707C410.446 113.225 409.248 113.674 407.914 114.055C406.607 114.409 405.273 114.654 403.911 114.79L403.993 114.259C405.926 113.96 407.547 113.47 408.854 112.789C410.161 112.081 410.909 111.074 411.1 109.767C411.209 109.168 411.141 108.691 410.896 108.337C410.678 107.983 410.324 107.806 409.834 107.806C409.208 107.806 408.636 108.092 408.118 108.664C407.628 109.208 407.193 109.957 406.811 110.91C406.457 111.863 406.185 112.925 405.994 114.096C405.777 115.485 405.763 116.751 405.954 117.895C406.144 119.038 406.566 119.964 407.22 120.672C407.873 121.353 408.758 121.693 409.875 121.693C410.392 121.693 410.977 121.598 411.631 121.407C412.312 121.216 412.952 120.89 413.551 120.427C413.605 120.372 413.673 120.4 413.755 120.509C413.864 120.617 413.891 120.699 413.836 120.754C412.802 121.761 411.726 122.469 410.61 122.877C409.521 123.286 408.472 123.49 407.465 123.49ZM437.992 123.368C437.067 123.368 436.481 123.027 436.236 122.346C435.991 121.666 435.978 120.672 436.195 119.365L437.421 112.871C437.639 111.564 437.666 110.597 437.502 109.971C437.339 109.345 436.985 109.031 436.44 109.031C435.787 109.031 435.065 109.535 434.276 110.543C433.486 111.523 432.724 113.007 431.988 114.995C431.253 116.982 430.641 119.487 430.15 122.51L429.415 122.469C429.96 119.147 430.695 116.315 431.621 113.973C432.547 111.605 433.609 109.807 434.807 108.582C436.005 107.33 437.257 106.703 438.564 106.703C439.626 106.703 440.375 107.139 440.811 108.01C441.274 108.882 441.328 110.243 440.974 112.095L439.667 119.365C439.531 120.127 439.517 120.645 439.626 120.917C439.762 121.162 439.953 121.285 440.198 121.285C440.498 121.285 440.811 121.148 441.137 120.876C441.491 120.604 441.886 120.263 442.322 119.855C442.431 119.746 442.54 119.746 442.649 119.855C442.758 119.964 442.758 120.073 442.649 120.182C441.805 121.189 441.015 121.979 440.28 122.551C439.545 123.095 438.782 123.368 437.992 123.368ZM418.796 123.327C418.278 123.327 417.924 123.286 417.734 123.204C417.543 123.15 417.448 123.082 417.448 123C417.448 122.891 417.516 122.537 417.652 121.938C417.816 121.339 417.952 120.686 418.061 119.978L419.735 110.869C419.98 109.535 419.776 108.868 419.123 108.868C418.85 108.868 418.51 109.004 418.101 109.276C417.72 109.549 417.271 109.957 416.754 110.502C416.672 110.611 416.577 110.611 416.468 110.502C416.359 110.366 416.345 110.243 416.427 110.134C417.407 108.963 418.292 108.133 419.082 107.643C419.871 107.125 420.647 106.867 421.41 106.867C422.281 106.867 422.853 107.18 423.125 107.806C423.398 108.405 423.425 109.263 423.207 110.379L421.083 122.51C420.947 123.054 420.185 123.327 418.796 123.327ZM427.863 123.327C427.346 123.327 426.992 123.286 426.801 123.204C426.611 123.15 426.515 123.082 426.515 123C426.515 122.891 426.583 122.537 426.72 121.938C426.883 121.339 427.019 120.686 427.128 119.978L428.476 112.789C428.721 111.455 428.735 110.502 428.517 109.93C428.299 109.331 427.918 109.031 427.373 109.031C426.665 109.031 425.903 109.562 425.086 110.624C424.296 111.686 423.547 113.225 422.839 115.24C422.131 117.227 421.546 119.651 421.083 122.51L420.348 122.469C420.865 119.229 421.573 116.438 422.472 114.096C423.398 111.727 424.46 109.903 425.658 108.623C426.883 107.343 428.176 106.703 429.538 106.703C430.573 106.703 431.321 107.125 431.784 107.969C432.274 108.814 432.356 110.161 432.029 112.013L430.15 122.51C430.069 123.054 429.306 123.327 427.863 123.327ZM446.675 123.327C445.967 123.327 445.395 123.123 444.959 122.714C444.551 122.306 444.347 121.734 444.347 120.999C444.347 120.318 444.551 119.787 444.959 119.406C445.395 118.997 445.967 118.793 446.675 118.793C447.383 118.793 447.927 118.997 448.308 119.406C448.717 119.787 448.921 120.318 448.921 120.999C448.921 122.551 448.172 123.327 446.675 123.327Z" fill="#FFF9EE"/>
</svg>
