<svg width="670" height="596" viewBox="0 0 670 596" fill="none" xmlns="http://www.w3.org/2000/svg">
<path d="M145.962 38.5464C147.435 38.5464 149.013 38.6691 150.696 38.9146C152.414 39.1601 153.764 39.5107 154.746 39.9666C155.062 40.0718 155.272 40.2121 155.377 40.3874C155.483 40.5277 155.553 40.7907 155.588 41.1764L156.219 48.4878C156.219 48.593 156.131 48.6631 155.956 48.6982C155.816 48.7333 155.711 48.6807 155.64 48.5404C154.483 45.8403 152.905 43.7187 150.906 42.1758C148.943 40.6329 146.611 39.8614 143.911 39.8614C141.561 39.8614 139.562 40.4575 137.914 41.6498C136.301 42.8421 135.074 44.5077 134.232 46.6468C133.426 48.7508 133.022 51.2055 133.022 54.0108C133.022 56.4304 133.321 58.7097 133.917 60.8488C134.513 62.9528 135.354 64.8113 136.441 66.4244C137.529 68.0024 138.826 69.2473 140.334 70.159C141.842 71.0707 143.507 71.5266 145.331 71.5266C147.575 71.5266 149.574 70.7902 151.327 69.3174C153.116 67.8446 154.711 65.5653 156.114 62.4794C156.184 62.3391 156.307 62.2865 156.482 62.3216C156.657 62.3567 156.745 62.4268 156.745 62.532L155.956 69.6856C155.886 70.1064 155.798 70.3869 155.693 70.5272C155.623 70.6324 155.43 70.7551 155.114 70.8954C153.501 71.4915 151.871 71.9299 150.223 72.2104C148.61 72.4909 147.032 72.6312 145.489 72.6312C142.087 72.6312 139.177 72.1227 136.757 71.1058C134.337 70.0538 132.356 68.6862 130.813 67.003C129.305 65.2847 128.183 63.4262 127.447 61.4274C126.746 59.3935 126.395 57.3947 126.395 55.431C126.395 52.8361 126.921 50.5041 127.973 48.4352C129.06 46.3663 130.515 44.5954 132.339 43.1226C134.197 41.6498 136.284 40.5277 138.598 39.7562C140.948 38.9497 143.402 38.5464 145.962 38.5464ZM171.47 72.6838C169.261 72.6838 167.35 72.1753 165.737 71.1584C164.124 70.1415 162.879 68.7914 162.002 67.1082C161.126 65.3899 160.687 63.5489 160.687 61.5852C160.687 59.7617 161.038 58.1837 161.739 56.8512C162.441 55.5187 163.37 54.4316 164.527 53.59C165.684 52.7133 166.947 52.0646 168.314 51.6438C169.682 51.223 171.032 51.0126 172.364 51.0126C174.609 51.0126 176.52 51.5386 178.098 52.5906C179.711 53.6426 180.938 54.9927 181.78 56.6408C182.621 58.2889 183.042 60.0423 183.042 61.9008C183.042 64.0399 182.499 65.9335 181.412 67.5816C180.36 69.1947 178.957 70.4571 177.204 71.3688C175.45 72.2455 173.539 72.6838 171.47 72.6838ZM173.048 71.5792C174.451 71.5792 175.503 70.8954 176.204 69.5278C176.906 68.1602 177.256 66.2315 177.256 63.7418C177.256 61.1819 176.923 59.0429 176.257 57.3246C175.626 55.6063 174.802 54.3089 173.785 53.4322C172.768 52.5555 171.698 52.1172 170.576 52.1172C169.208 52.1172 168.156 52.7309 167.42 53.9582C166.719 55.1855 166.368 57.0791 166.368 59.639C166.368 62.0235 166.666 64.1275 167.262 65.951C167.858 67.7394 168.665 69.1245 169.682 70.1064C170.699 71.0883 171.821 71.5792 173.048 71.5792ZM196.469 72.6838C194.645 72.6838 192.945 72.263 191.367 71.4214C189.824 70.5447 188.579 69.1771 187.632 67.3186C186.72 65.4601 186.264 63.058 186.264 60.1124C186.264 55.6589 186.755 52.0471 187.737 49.2768C188.719 46.4715 190.122 44.2973 191.945 42.7544C193.769 41.1764 195.925 40.0192 198.415 39.2828C199.572 38.9321 200.624 38.5815 201.571 38.2308C202.518 37.8451 203.359 37.3191 204.096 36.6528C204.867 35.9865 205.516 35.0573 206.042 33.865C206.077 33.7598 206.182 33.7247 206.358 33.7598C206.533 33.7949 206.603 33.865 206.568 33.9702C206.287 35.8638 205.937 37.4067 205.516 38.599C205.13 39.7562 204.622 40.6855 203.991 41.3868C203.394 42.0881 202.64 42.6667 201.729 43.1226C200.817 43.5434 199.712 43.9642 198.415 44.385C196.907 44.8409 195.487 45.437 194.154 46.1734C192.822 46.9098 191.63 47.9267 190.578 49.2242C189.561 50.5217 188.754 52.2399 188.158 54.379C187.597 56.483 187.316 59.1656 187.316 62.4268L186.843 60.3228C187.509 58.1837 188.351 56.5181 189.368 55.3258C190.42 54.1335 191.472 53.2919 192.524 52.801C193.611 52.275 194.558 51.9594 195.364 51.8542C196.206 51.7139 196.784 51.6438 197.1 51.6438C199.204 51.6438 200.957 51.9594 202.36 52.5906C203.798 53.1867 204.937 53.9933 205.779 55.0102C206.656 56.0271 207.269 57.1317 207.62 58.324C208.006 59.4812 208.199 60.6209 208.199 61.743C208.199 64.0223 207.637 65.9861 206.515 67.6342C205.428 69.2473 203.991 70.4921 202.202 71.3688C200.449 72.2455 198.538 72.6838 196.469 72.6838ZM198.52 71.5792C199.853 71.5792 200.887 70.8954 201.624 69.5278C202.36 68.1602 202.728 66.1263 202.728 63.4262C202.728 61.0417 202.43 59.0604 201.834 57.4824C201.238 55.8693 200.466 54.6771 199.52 53.9056C198.573 53.0991 197.538 52.6958 196.416 52.6958C195.294 52.6958 194.4 53.0991 193.734 53.9056C193.102 54.6771 192.646 55.6765 192.366 56.9038C192.12 58.0961 191.998 59.3585 191.998 60.691C191.998 62.7599 192.261 64.6185 192.787 66.2666C193.313 67.9147 194.067 69.2122 195.049 70.159C196.03 71.1058 197.188 71.5792 198.52 71.5792ZM222.167 72.6312C219.888 72.6312 217.942 72.1578 216.329 71.211C214.751 70.2642 213.541 69.0193 212.699 67.4764C211.893 65.8984 211.489 64.2327 211.489 62.4794C211.489 60.4105 212.015 58.5344 213.067 56.8512C214.119 55.1329 215.54 53.7653 217.328 52.7484C219.151 51.7315 221.203 51.223 223.482 51.223C225.656 51.223 227.322 51.6964 228.479 52.6432C229.636 53.5549 230.215 54.8173 230.215 56.4304C230.215 56.8161 230.18 57.1668 230.11 57.4824C230.04 57.798 229.882 57.9558 229.636 57.9558H224.587C224.657 56.3077 224.464 54.9576 224.008 53.9056C223.552 52.8185 222.728 52.275 221.536 52.275C220.133 52.275 218.994 53.0114 218.117 54.4842C217.24 55.9219 216.802 57.8506 216.802 60.2702C216.802 62.2339 217.118 63.9522 217.749 65.425C218.38 66.8978 219.292 68.0375 220.484 68.844C221.676 69.6505 223.114 70.0538 224.797 70.0538C225.639 70.0538 226.533 69.9311 227.48 69.6856C228.462 69.4401 229.338 69.0719 230.11 68.581C230.18 68.5109 230.268 68.5459 230.373 68.6862C230.513 68.8265 230.548 68.9492 230.478 69.0544C229.18 70.3519 227.848 71.2811 226.48 71.8422C225.148 72.3682 223.71 72.6312 222.167 72.6312ZM214.961 58.061L214.908 57.0616L226.428 56.7986V57.9558L214.961 58.061ZM232.791 86.465C232.686 86.465 232.633 86.3598 232.633 86.1494C232.633 85.939 232.686 85.8338 232.791 85.8338C234.018 85.8338 234.807 85.6059 235.158 85.15C235.543 84.6941 235.736 83.7123 235.736 82.2044V55.957C235.736 54.4141 235.456 53.4322 234.895 53.0114C234.369 52.5555 233.492 52.3276 232.265 52.3276C232.195 52.3276 232.16 52.2224 232.16 52.012C232.16 51.8016 232.195 51.6964 232.265 51.6964C232.791 51.6964 233.492 51.6964 234.369 51.6964C235.245 51.6964 236.14 51.6964 237.051 51.6964C237.998 51.6964 238.805 51.6964 239.471 51.6964C239.962 51.6964 240.277 51.8016 240.418 52.012C240.558 52.1873 240.628 52.4854 240.628 52.9062V82.2044C240.628 83.1863 240.733 83.9402 240.944 84.4662C241.189 84.9922 241.645 85.3429 242.311 85.5182C242.978 85.7286 243.977 85.8338 245.31 85.8338C245.415 85.8338 245.467 85.939 245.467 86.1494C245.467 86.3598 245.415 86.465 245.31 86.465C244.328 86.465 243.223 86.4475 241.996 86.4124C240.768 86.3773 239.471 86.3598 238.103 86.3598C237.121 86.3598 236.157 86.3773 235.21 86.4124C234.299 86.4475 233.492 86.465 232.791 86.465ZM245.152 72.6838C243.784 72.6838 242.609 72.5786 241.628 72.3682C240.681 72.1578 239.541 71.8247 238.209 71.3688L240.05 68.055C240.821 69.0018 241.645 69.7908 242.522 70.422C243.433 71.0532 244.643 71.3688 246.151 71.3688C247.799 71.3688 249.097 70.6499 250.044 69.2122C250.99 67.7745 251.464 65.4776 251.464 62.3216C251.464 59.5163 250.815 57.4298 249.518 56.0622C248.22 54.6595 246.695 53.9582 244.941 53.9582C243.644 53.9582 242.522 54.2913 241.575 54.9576C240.628 55.6239 239.699 56.4655 238.787 57.4824L238.261 56.8512C240.05 54.7823 241.75 53.2919 243.363 52.3802C245.011 51.4685 246.695 51.0126 248.413 51.0126C249.886 51.0126 251.253 51.3983 252.516 52.1698C253.778 52.9062 254.795 53.9933 255.567 55.431C256.373 56.8687 256.776 58.6221 256.776 60.691C256.776 62.9353 256.408 64.8289 255.672 66.3718C254.97 67.9147 254.041 69.1596 252.884 70.1064C251.727 71.0181 250.464 71.6669 249.097 72.0526C247.764 72.4734 246.449 72.6838 245.152 72.6838ZM265.185 70.1064L264.238 69.1596L278.493 54.905L279.44 55.7992L265.185 70.1064ZM262.976 67.7394V55.957C262.976 54.4141 262.8 53.4322 262.45 53.0114C262.099 52.5555 261.328 52.3276 260.135 52.3276C260.03 52.3276 259.978 52.2224 259.978 52.012C259.978 51.8016 260.03 51.6964 260.135 51.6964C260.872 51.6964 261.696 51.7139 262.608 51.749C263.554 51.7841 264.519 51.8016 265.501 51.8016C266.447 51.8016 267.377 51.7841 268.288 51.749C269.2 51.7139 270.007 51.6964 270.708 51.6964C270.778 51.6964 270.813 51.8016 270.813 52.012C270.813 52.2224 270.778 52.3276 270.708 52.3276C269.516 52.3276 268.744 52.5731 268.394 53.064C268.043 53.5549 267.868 54.5543 267.868 56.0622V67.7394C267.868 69.2473 268.043 70.2291 268.394 70.685C268.744 71.1409 269.516 71.3688 270.708 71.3688C270.778 71.3688 270.813 71.474 270.813 71.6844C270.813 71.8948 270.778 72 270.708 72C269.972 72 269.147 71.9825 268.236 71.9474C267.359 71.9123 266.447 71.8948 265.501 71.8948C264.519 71.8948 263.554 71.9123 262.608 71.9474C261.696 71.9825 260.854 72 260.083 72C259.978 72 259.925 71.8948 259.925 71.6844C259.925 71.474 259.978 71.3688 260.083 71.3688C261.31 71.3688 262.099 71.1409 262.45 70.685C262.8 70.2291 262.976 69.2473 262.976 67.7394ZM277.125 67.7394V55.957C277.125 54.4141 276.95 53.4322 276.599 53.0114C276.248 52.5555 275.477 52.3276 274.285 52.3276C274.18 52.3276 274.127 52.2224 274.127 52.012C274.127 51.8016 274.18 51.6964 274.285 51.6964C275.021 51.6964 275.845 51.7139 276.757 51.749C277.704 51.7841 278.668 51.8016 279.65 51.8016C280.597 51.8016 281.526 51.7841 282.438 51.749C283.349 51.7139 284.156 51.6964 284.857 51.6964C284.927 51.6964 284.963 51.8016 284.963 52.012C284.963 52.2224 284.927 52.3276 284.857 52.3276C283.665 52.3276 282.894 52.5731 282.543 53.064C282.192 53.5549 282.017 54.5543 282.017 56.0622V67.7394C282.017 69.2473 282.192 70.2291 282.543 70.685C282.894 71.1409 283.665 71.3688 284.857 71.3688C284.927 71.3688 284.963 71.474 284.963 71.6844C284.963 71.8948 284.927 72 284.857 72C284.121 72 283.297 71.9825 282.385 71.9474C281.508 71.9123 280.597 71.8948 279.65 71.8948C278.668 71.8948 277.704 71.9123 276.757 71.9474C275.81 71.9825 274.969 72 274.232 72C274.127 72 274.074 71.8948 274.074 71.6844C274.074 71.474 274.127 71.3688 274.232 71.3688C275.459 71.3688 276.248 71.1409 276.599 70.685C276.95 70.2291 277.125 69.2473 277.125 67.7394ZM311.185 72.6312C308.766 72.6312 306.767 72.1227 305.189 71.1058C303.611 70.0538 302.436 68.7213 301.665 67.1082C300.928 65.4951 300.56 63.8645 300.56 62.2164C300.56 60.4631 300.928 58.9026 301.665 57.535C302.401 56.1674 303.365 55.0277 304.558 54.116C305.785 53.1692 307.135 52.4503 308.608 51.9594C310.081 51.4685 311.536 51.223 312.974 51.223C313.991 51.223 315.008 51.3808 316.024 51.6964C317.041 51.9769 317.883 52.4153 318.549 53.0114C319.216 53.5725 319.549 54.2913 319.549 55.168C319.549 55.7641 319.303 56.3252 318.812 56.8512C318.321 57.3421 317.602 57.5876 316.656 57.5876C315.779 57.5876 315.095 57.3597 314.604 56.9038C314.113 56.4479 313.728 55.7817 313.447 54.905C313.202 54.0634 312.921 53.4322 312.605 53.0114C312.325 52.5555 311.764 52.3276 310.922 52.3276C309.414 52.3276 308.205 53.0815 307.293 54.5894C306.416 56.0973 305.978 58.061 305.978 60.4806C305.978 62.2339 306.241 63.847 306.767 65.3198C307.293 66.7575 308.152 67.9147 309.344 68.7914C310.537 69.633 312.132 70.0538 314.131 70.0538C315.183 70.0538 316.06 69.9311 316.761 69.6856C317.497 69.4401 318.304 69.107 319.18 68.6862C319.251 68.6161 319.338 68.6511 319.443 68.7914C319.584 68.9317 319.619 69.0369 319.549 69.107C318.321 70.2291 317.059 71.1058 315.761 71.737C314.464 72.3331 312.939 72.6312 311.185 72.6312ZM328.323 51.749C329.164 51.749 330.093 51.7315 331.11 51.6964C332.162 51.6263 333.127 51.5912 334.003 51.5912C336.423 51.5912 338.264 51.9243 339.526 52.5906C340.824 53.2569 341.473 54.2563 341.473 55.5888C341.473 57.5175 339.719 59.4111 336.213 61.2696L335.581 60.8488C335.757 60.3579 335.897 59.8143 336.002 59.2182C336.107 58.587 336.16 57.8857 336.16 57.1142C336.16 55.4661 335.879 54.3089 335.318 53.6426C334.792 52.9763 333.933 52.6432 332.741 52.6432C331.934 52.6432 331.391 52.8536 331.11 53.2744C330.83 53.6952 330.69 54.6245 330.69 56.0622V67.7394C330.69 68.8265 330.9 69.6505 331.321 70.2116C331.742 70.7376 332.601 71.0006 333.898 71.0006C335.406 71.0006 336.511 70.6499 337.212 69.9486C337.913 69.2122 338.264 68.1251 338.264 66.6874C338.264 65.2497 337.878 64.0574 337.107 63.1106C336.37 62.1638 335.108 61.6904 333.32 61.6904H328.533L328.48 60.691H335.161C340.841 60.691 343.682 62.3216 343.682 65.5828C343.682 67.4764 342.858 69.0369 341.21 70.2642C339.561 71.4915 337.422 72.1052 334.792 72.1052C334.021 72.1052 332.986 72.0701 331.689 72C330.427 71.9299 329.304 71.8948 328.323 71.8948C327.341 71.8948 326.376 71.9123 325.43 71.9474C324.518 71.9825 323.676 72 322.905 72C322.8 72 322.747 71.8948 322.747 71.6844C322.747 71.474 322.8 71.3688 322.905 71.3688C324.132 71.3688 324.921 71.1409 325.272 70.685C325.622 70.2291 325.798 69.2473 325.798 67.7394V55.957C325.798 54.4141 325.622 53.4322 325.272 53.0114C324.921 52.5555 324.15 52.3276 322.957 52.3276C322.852 52.3276 322.8 52.2224 322.8 52.012C322.8 51.8016 322.852 51.6964 322.957 51.6964C323.694 51.6964 324.518 51.7139 325.43 51.749C326.376 51.749 327.341 51.749 328.323 51.749ZM357.625 72.6838C355.416 72.6838 353.505 72.1753 351.891 71.1584C350.278 70.1415 349.034 68.7914 348.157 67.1082C347.28 65.3899 346.842 63.5489 346.842 61.5852C346.842 59.7617 347.193 58.1837 347.894 56.8512C348.595 55.5187 349.524 54.4316 350.682 53.59C351.839 52.7133 353.101 52.0646 354.469 51.6438C355.836 51.223 357.187 51.0126 358.519 51.0126C360.763 51.0126 362.674 51.5386 364.252 52.5906C365.866 53.6426 367.093 54.9927 367.934 56.6408C368.776 58.2889 369.197 60.0423 369.197 61.9008C369.197 64.0399 368.653 65.9335 367.566 67.5816C366.514 69.1947 365.112 70.4571 363.358 71.3688C361.605 72.2455 359.694 72.6838 357.625 72.6838ZM359.203 71.5792C360.606 71.5792 361.658 70.8954 362.359 69.5278C363.06 68.1602 363.411 66.2315 363.411 63.7418C363.411 61.1819 363.078 59.0429 362.411 57.3246C361.78 55.6063 360.956 54.3089 359.939 53.4322C358.922 52.5555 357.853 52.1172 356.731 52.1172C355.363 52.1172 354.311 52.7309 353.575 53.9582C352.873 55.1855 352.523 57.0791 352.523 59.639C352.523 62.0235 352.821 64.1275 353.417 65.951C354.013 67.7394 354.82 69.1245 355.836 70.1064C356.853 71.0883 357.976 71.5792 359.203 71.5792ZM377.837 62.4794V61.217H387.62V62.4794H377.837ZM375.47 67.7394V55.957C375.47 54.4141 375.295 53.4322 374.944 53.0114C374.593 52.5555 373.822 52.3276 372.629 52.3276C372.524 52.3276 372.472 52.2224 372.472 52.012C372.472 51.8016 372.524 51.6964 372.629 51.6964C373.366 51.6964 374.19 51.7139 375.102 51.749C376.048 51.7841 377.013 51.8016 377.995 51.8016C378.941 51.8016 379.871 51.7841 380.782 51.749C381.694 51.7139 382.501 51.6964 383.202 51.6964C383.272 51.6964 383.307 51.8016 383.307 52.012C383.307 52.2224 383.272 52.3276 383.202 52.3276C382.01 52.3276 381.238 52.5731 380.888 53.064C380.537 53.5549 380.362 54.5543 380.362 56.0622V67.7394C380.362 69.2473 380.537 70.2291 380.888 70.685C381.238 71.1409 382.01 71.3688 383.202 71.3688C383.272 71.3688 383.307 71.474 383.307 71.6844C383.307 71.8948 383.272 72 383.202 72C382.466 72 381.642 71.9825 380.73 71.9474C379.853 71.9123 378.941 71.8948 377.995 71.8948C377.013 71.8948 376.048 71.9123 375.102 71.9474C374.19 71.9825 373.348 72 372.577 72C372.472 72 372.419 71.8948 372.419 71.6844C372.419 71.474 372.472 71.3688 372.577 71.3688C373.804 71.3688 374.593 71.1409 374.944 70.685C375.295 70.2291 375.47 69.2473 375.47 67.7394ZM395.931 72.6838C393.827 72.6838 392.004 72.1753 390.461 71.1584C388.953 70.1415 387.778 68.7914 386.937 67.1082C386.13 65.425 385.727 63.6191 385.727 61.6904C385.727 59.8319 386.06 58.2363 386.726 56.9038C387.393 55.5713 388.269 54.4667 389.356 53.59C390.443 52.7133 391.636 52.0646 392.933 51.6438C394.231 51.223 395.51 51.0126 396.773 51.0126C398.912 51.0126 400.735 51.5386 402.243 52.5906C403.751 53.6426 404.891 54.9927 405.662 56.6408C406.469 58.2889 406.872 60.0423 406.872 61.9008C406.872 64.0399 406.364 65.9335 405.347 67.5816C404.33 69.1947 402.997 70.4571 401.349 71.3688C399.701 72.2455 397.895 72.6838 395.931 72.6838ZM397.614 71.5792C398.947 71.5792 399.911 70.9129 400.507 69.5804C401.104 68.2479 401.402 66.4069 401.402 64.0574C401.402 61.1118 401.051 58.7799 400.35 57.0616C399.648 55.3083 398.789 54.0634 397.772 53.327C396.755 52.5555 395.773 52.1698 394.827 52.1698C393.634 52.1698 392.723 52.7484 392.091 53.9056C391.46 55.0277 391.145 56.8337 391.145 59.3234C391.145 62.0586 391.46 64.3379 392.091 66.1614C392.758 67.9498 393.582 69.2999 394.564 70.2116C395.546 71.1233 396.562 71.5792 397.614 71.5792ZM444.989 54.4316C443.622 56.6408 442.254 59.0253 440.887 61.5852C439.554 64.11 438.116 66.6348 436.573 69.1596C435.066 71.6493 433.452 74.0514 431.734 76.3658C429.981 78.6802 428.052 80.7141 425.948 82.4674C423.844 84.2558 421.53 85.676 419.005 86.728C416.445 87.78 413.605 88.306 410.484 88.306C409.432 88.306 408.31 88.1833 407.117 87.9378C405.925 87.7274 404.838 87.3592 403.856 86.8332C402.874 86.3072 402.068 85.6059 401.437 84.7292C400.77 83.8525 400.437 82.7479 400.437 81.4154C400.437 80.3985 400.665 79.5043 401.121 78.7328C401.542 77.9613 402.12 77.3126 402.857 76.7866C403.558 76.2606 404.365 75.8573 405.276 75.5768C406.188 75.2963 407.117 75.156 408.064 75.156C408.555 75.156 409.011 75.1735 409.432 75.2086C409.818 75.2437 410.168 75.2963 410.484 75.3664V75.7872C408.801 75.8924 407.451 76.4885 406.434 77.5756C405.382 78.6627 404.856 80.0478 404.856 81.731C404.856 83.5545 405.364 84.9922 406.381 86.0442C407.398 87.1313 409.046 87.6748 411.325 87.6748C413.394 87.6748 415.376 87.0962 417.269 85.939C419.163 84.8169 420.986 83.3265 422.74 81.468C424.458 79.6095 426.106 77.4879 427.684 75.1034C429.227 72.7539 430.717 70.3519 432.155 67.8972C433.558 65.4075 434.908 62.9879 436.205 60.6384C437.503 58.2889 438.73 56.22 439.887 54.4316H434.838L435.364 53.4848H440.518C441.535 51.7315 442.728 49.8028 444.095 47.6988C445.498 45.5948 447.058 43.6311 448.777 41.8076C450.53 39.9841 452.441 38.4587 454.51 37.2314C456.579 36.0041 458.788 35.3904 461.138 35.3904C461.874 35.3904 462.575 35.4781 463.242 35.6534C463.943 35.8287 464.557 36.0917 465.083 36.4424C465.644 36.7931 466.082 37.2489 466.398 37.81C466.748 38.336 466.924 38.9672 466.924 39.7036C466.924 40.966 466.468 41.9128 465.556 42.544C464.644 43.1752 463.575 43.4908 462.347 43.4908C462.067 43.4908 461.751 43.4557 461.401 43.3856C461.716 42.7544 461.979 42.0881 462.19 41.3868C462.4 40.6855 462.505 39.9315 462.505 39.125C462.505 38.1081 462.295 37.3366 461.874 36.8106C461.453 36.2846 460.892 36.0216 460.191 36.0216C459.314 36.0216 458.385 36.3723 457.403 37.0736C456.421 37.7399 455.457 38.6165 454.51 39.7036C453.563 40.7907 452.616 42.0005 451.67 43.333C450.758 44.6655 449.916 45.9805 449.145 47.278C448.373 48.5755 447.672 49.7853 447.041 50.9074C446.445 51.9945 445.954 52.8536 445.568 53.4848H459.139L458.56 54.4316H444.989ZM468.361 53.8004L473.831 53.4848C473.515 54.116 473.06 54.8875 472.463 55.7992C471.867 56.6759 471.219 57.6402 470.517 58.6922C469.816 59.7091 469.097 60.7787 468.361 61.9008C467.659 62.9879 467.011 64.0574 466.414 65.1094C465.818 66.1263 465.327 67.0907 464.942 68.0024C464.591 68.8791 464.416 69.633 464.416 70.2642C464.416 71.1409 464.854 71.5792 465.731 71.5792C466.572 71.5792 467.712 71.0883 469.15 70.1064C470.587 69.1245 472.095 67.8271 473.673 66.214C474.339 65.5477 475.006 64.8289 475.672 64.0574C476.373 63.2859 477.04 62.532 477.671 61.7956C478.302 61.0241 478.881 60.3228 479.407 59.6916C479.933 59.0253 480.353 58.4818 480.669 58.061L481.037 58.2714C480.126 59.4987 479.074 60.8663 477.881 62.3742C476.689 63.847 475.251 65.425 473.568 67.1082C471.885 68.7914 470.219 70.1765 468.571 71.2636C466.958 72.3156 465.345 72.8416 463.732 72.8416C462.61 72.8416 461.733 72.5611 461.102 72C460.506 71.4039 460.208 70.685 460.208 69.8434C460.208 69.5629 460.225 69.2999 460.26 69.0544C460.295 68.8089 460.348 68.6161 460.418 68.4758H460.313C459.226 69.7031 457.998 70.7376 456.631 71.5792C455.263 72.4208 453.79 72.8416 452.212 72.8416C451.371 72.8416 450.652 72.6838 450.056 72.3682C449.46 72.0526 448.969 71.6318 448.583 71.1058C448.232 70.5447 447.969 69.9311 447.794 69.2648C447.619 68.5635 447.531 67.8446 447.531 67.1082C447.531 65.3899 448.004 63.6717 448.951 61.9534C449.898 60.2351 451.09 58.6922 452.528 57.3246C453.966 55.9219 455.561 54.7998 457.315 53.9582C459.103 53.0815 460.804 52.6432 462.417 52.6432C463.644 52.6432 464.608 52.9062 465.31 53.4322C466.011 53.9582 466.59 54.7823 467.046 55.9044L468.361 53.8004ZM452.581 67.266C452.581 68.2829 452.738 69.1771 453.054 69.9486C453.405 70.685 454.124 71.0532 455.211 71.0532C455.947 71.0181 456.718 70.7201 457.525 70.159C458.332 69.5629 459.103 68.8265 459.839 67.9498C460.611 67.0731 461.33 66.1088 461.996 65.0568C462.697 63.9697 463.293 62.8827 463.784 61.7956C464.31 60.7085 464.714 59.6916 464.994 58.7448C465.31 57.7629 465.468 56.9389 465.468 56.2726C465.468 55.3258 465.292 54.5894 464.942 54.0634C464.591 53.5374 463.907 53.2744 462.89 53.2744C462.084 53.2744 461.26 53.5199 460.418 54.0108C459.611 54.5017 458.822 55.1505 458.051 55.957C457.315 56.7635 456.596 57.6753 455.894 58.6922C455.228 59.6741 454.65 60.691 454.159 61.743C453.668 62.795 453.282 63.8119 453.001 64.7938C452.721 65.7406 452.581 66.5647 452.581 67.266ZM487.694 53.4848C486.046 56.0797 484.626 58.3065 483.433 60.165C482.241 61.9885 481.259 63.5489 480.488 64.8464C479.751 66.1439 479.19 67.2134 478.805 68.055C478.454 68.8615 478.279 69.5278 478.279 70.0538C478.279 70.4746 478.349 70.8253 478.489 71.1058C478.664 71.3513 478.91 71.474 479.225 71.474C479.927 71.474 480.909 71.0707 482.171 70.2642C483.468 69.4577 485.082 68.0725 487.01 66.1088C487.782 65.3023 488.536 64.5133 489.272 63.7418C490.008 62.9353 490.692 62.1638 491.323 61.4274C491.99 60.691 492.568 60.0247 493.059 59.4286C493.585 58.8325 494.006 58.3591 494.322 58.0084L494.795 58.324C494.374 58.8851 493.848 59.5338 493.217 60.2702C492.621 60.9715 491.972 61.7255 491.271 62.532C490.569 63.3035 489.851 64.0749 489.114 64.8464C488.378 65.6179 487.659 66.3543 486.958 67.0556C484.924 69.0895 483.17 70.5097 481.698 71.3162C480.26 72.1227 478.927 72.526 477.7 72.526C476.543 72.526 475.649 72.2104 475.017 71.5792C474.386 70.948 474.071 70.1239 474.071 69.107C474.071 68.4057 474.211 67.6868 474.491 66.9504C474.737 66.1789 475.175 65.2321 475.806 64.11C476.438 62.9879 477.279 61.6027 478.331 59.9546C479.383 58.2714 480.698 56.2025 482.276 53.7478L487.694 53.4848ZM490.745 41.8076C491.411 41.8076 491.99 42.0531 492.481 42.544C493.007 43.0349 493.27 43.6135 493.27 44.2798C493.27 44.9811 492.989 45.6299 492.428 46.226C491.867 46.7871 491.236 47.0676 490.534 47.0676C489.763 47.0676 489.097 46.8747 488.536 46.489C487.975 46.0682 487.694 45.4545 487.694 44.648C487.694 43.8415 487.992 43.1752 488.588 42.6492C489.219 42.0881 489.938 41.8076 490.745 41.8076ZM484.211 72C486 68.9141 487.806 65.8458 489.629 62.795C491.488 59.7442 493.329 56.6408 495.152 53.4848L501.149 53.2744L494.205 63.058L494.311 63.1632C495.643 61.5151 496.818 60.2001 497.835 59.2182C498.887 58.2013 499.798 57.3772 500.57 56.746C501.341 56.1148 501.99 55.6414 502.516 55.3258C503.042 54.9751 503.428 54.6771 503.673 54.4316C504.059 54.0459 504.41 53.7478 504.725 53.5374C505.076 53.2919 505.479 53.1166 505.935 53.0114C506.391 52.8711 506.935 52.7835 507.566 52.7484C508.232 52.7133 509.056 52.6783 510.038 52.6432C509.372 53.59 508.758 54.5894 508.197 55.6414C507.636 56.6583 507.355 57.7629 507.355 58.9552C507.355 60.4631 508.109 61.217 509.617 61.217C510.108 61.217 510.581 61.1118 511.037 60.9014C511.528 60.691 511.984 60.428 512.405 60.1124C512.826 59.7968 513.229 59.4637 513.615 59.113C514 58.7273 514.351 58.3766 514.667 58.061L514.877 58.324C513.895 59.5513 512.738 60.5507 511.406 61.3222C510.073 62.0937 508.618 62.4794 507.04 62.4794C505.637 62.4794 504.532 62.1112 503.726 61.3748C502.919 60.6384 502.516 59.5513 502.516 58.1136C502.516 57.2019 502.779 56.3427 503.305 55.5362L503.2 55.431C501.727 56.4129 500.324 57.5525 498.992 58.85C497.659 60.1475 496.415 61.5151 495.257 62.9528C494.135 64.3905 493.083 65.8809 492.101 67.4238C491.155 68.9317 490.295 70.4045 489.524 71.8422L484.211 72ZM499.395 76.1554C499.22 76.1203 498.905 76.1028 498.449 76.1028C496.941 76.1028 495.784 76.6463 494.977 77.7334C494.135 78.8205 493.715 80.153 493.715 81.731C493.715 83.5895 494.293 85.0448 495.45 86.0968C496.573 87.1488 497.975 87.6748 499.658 87.6748C501.447 87.6748 503.13 87.2891 504.708 86.5176C506.286 85.7812 507.759 84.7818 509.126 83.5194C510.494 82.2921 511.774 80.8719 512.966 79.2588C514.194 77.6808 515.316 76.0502 516.333 74.367C517.385 72.6838 518.367 71.0357 519.278 69.4226C520.19 67.8095 521.032 66.3543 521.803 65.0568L521.698 64.9516C521.172 65.5828 520.506 66.3367 519.699 67.2134C518.928 68.055 518.051 68.8791 517.069 69.6856C516.087 70.4571 515.053 71.1233 513.966 71.6844C512.879 72.2455 511.774 72.526 510.652 72.526C509.495 72.526 508.671 72.1929 508.18 71.5266C507.654 70.8603 507.391 70.0713 507.391 69.1596C507.391 68.2829 507.636 67.2835 508.127 66.1614C508.618 65.0393 509.232 63.8119 509.968 62.4794C510.74 61.1118 511.599 59.6741 512.545 58.1662C513.492 56.6583 514.439 55.0979 515.386 53.4848L520.961 53.2744C518.016 57.8681 515.719 61.4975 514.071 64.1626C512.423 66.8277 511.599 68.7213 511.599 69.8434C511.599 70.2642 511.721 70.6149 511.967 70.8954C512.247 71.1409 512.581 71.2636 512.966 71.2636C513.597 71.2636 514.404 70.948 515.386 70.3168C516.368 69.6505 517.402 68.7739 518.489 67.6868C519.611 66.5997 520.734 65.3549 521.856 63.9522C522.978 62.5145 523.995 61.0417 524.906 59.5338C525.678 58.2714 526.362 57.1142 526.958 56.0622C527.554 55.0102 527.992 54.1511 528.273 53.4848L533.428 53.2744C531.534 56.5356 529.693 59.7968 527.905 63.058C526.151 66.2841 524.31 69.4927 522.382 72.6838C524.065 72.1929 525.731 71.4389 527.379 70.422C529.027 69.37 530.605 68.1602 532.113 66.7926C533.656 65.425 535.076 63.9697 536.373 62.4268C537.706 60.8839 538.898 59.376 539.95 57.9032L540.371 58.2714C539.179 59.9897 537.864 61.6729 536.426 63.321C534.988 64.9341 533.463 66.4244 531.85 67.792C530.272 69.1245 528.641 70.2817 526.958 71.2636C525.275 72.2455 523.591 72.9468 521.908 73.3676C520.646 75.5067 519.226 77.4879 517.648 79.3114C516.07 81.1349 514.334 82.7129 512.44 84.0454C510.547 85.3779 508.495 86.4124 506.286 87.1488C504.077 87.9203 501.71 88.306 499.185 88.306C497.923 88.306 496.695 88.1833 495.503 87.9378C494.311 87.7274 493.259 87.3417 492.347 86.7806C491.435 86.2546 490.699 85.5357 490.138 84.624C489.577 83.7473 489.296 82.6603 489.296 81.3628C489.296 80.3108 489.524 79.4166 489.98 78.6802C490.401 77.9438 490.979 77.3301 491.716 76.8392C492.417 76.3833 493.241 76.0327 494.188 75.7872C495.1 75.5768 496.047 75.4716 497.028 75.4716C497.449 75.4716 497.888 75.4891 498.343 75.5242C498.764 75.5593 499.115 75.6119 499.395 75.682V76.1554ZM539.816 72.5786C538.834 72.5786 538.045 72.2981 537.449 71.737C536.888 71.1409 536.607 70.3519 536.607 69.37C536.607 68.4583 536.888 67.7219 537.449 67.1608C538.045 66.5997 538.834 66.3192 539.816 66.3192C540.833 66.3192 541.604 66.5997 542.13 67.1608C542.656 67.7219 542.919 68.4583 542.919 69.37C542.919 70.3519 542.656 71.1409 542.13 71.737C541.604 72.2981 540.833 72.5786 539.816 72.5786Z" fill="#FFFEFB"/>
<rect x="5" y="5" width="660" height="586" rx="45" fill="#FFF9EE" fill-opacity="0.24" stroke="#526B4B" stroke-width="10"/>
</svg>
