<svg width="61" height="206" viewBox="0 0 61 206" fill="none" xmlns="http://www.w3.org/2000/svg">
<path d="M30.4865 0.0146484L32.5776 25.1349L56.5434 14.2937L34.6687 28.5727L56.5434 42.8517L32.5776 32.0104L30.4865 57.1307L28.3954 32.0104L4.42961 42.8517L26.3043 28.5727L4.42961 14.2937L28.3954 25.1349L30.4865 0.0146484Z" fill="#FDAEC3"/>
<path d="M30.4866 148.584L32.5777 173.704L56.5435 162.863L34.6688 177.142L56.5435 191.421L32.5777 180.58L30.4866 205.7L28.3955 180.58L4.42966 191.421L26.3043 177.142L4.42966 162.863L28.3955 173.704L30.4866 148.584Z" fill="#FDAEC3"/>
<path d="M30.4866 55.7705L32.5777 71.6202L56.5435 64.7799L34.6688 73.7893L56.5435 82.7986L32.5777 75.9583L30.4866 91.808L28.3955 75.9583L4.42966 82.7986L26.3043 73.7893L4.42966 64.7799L28.3955 71.6202L30.4866 55.7705Z" fill="#FDAEC3"/>
<path d="M30.4866 91.8086L32.5777 102.873L56.5435 98.0982L34.6688 104.388L56.5435 110.677L32.5777 105.902L30.4866 116.967L28.3955 105.902L4.42966 110.677L26.3043 104.388L4.42966 98.0982L28.3955 102.873L30.4866 91.8086Z" fill="#FDAEC3"/>
<path d="M30.4866 116.967L32.5777 132.667L56.5435 125.891L34.6688 134.816L56.5435 143.74L32.5777 136.964L30.4866 152.664L28.3955 136.964L4.42966 143.74L26.3043 134.816L4.42966 125.891L28.3955 132.667L30.4866 116.967Z" fill="#FDAEC3"/>
</svg>
