<svg width="48" height="48" viewBox="0 0 48 48" fill="none" xmlns="http://www.w3.org/2000/svg">
<path d="M21.0498 2.98453C21.6541 -0.28947 26.3459 -0.28946 26.9502 2.98455L29.515 16.8814C29.7513 18.1615 30.7862 19.1432 32.077 19.3117L45.2067 21.0252C48.689 21.4797 48.689 26.5203 45.2067 26.9748L32.077 28.6883C30.7862 28.8568 29.7513 29.8385 29.515 31.1186L26.9502 45.0155C26.3459 48.2895 21.6541 48.2895 21.0498 45.0155L18.485 31.1186C18.2487 29.8385 17.2138 28.8568 15.923 28.6883L2.79334 26.9748C-0.689009 26.5203 -0.689001 21.4797 2.79335 21.0252L15.923 19.3117C17.2138 19.1432 18.2487 18.1615 18.485 16.8814L21.0498 2.98453Z" fill="#F5D185"/>
</svg>
