<svg width="62" height="56" viewBox="0 0 62 56" fill="none" xmlns="http://www.w3.org/2000/svg">
<path d="M29.0332 1.65636C29.4361 -0.526313 32.5639 -0.526306 32.9668 1.65636L36.6472 21.5973C36.8047 22.4507 37.4946 23.1051 38.3551 23.2175L59.8044 26.0168C62.126 26.3198 62.126 29.6802 59.8044 29.9832L38.3551 32.7825C37.4946 32.8949 36.8047 33.5493 36.6472 34.4027L32.9668 54.3436C32.5639 56.5263 29.4361 56.5263 29.0332 54.3436L25.3528 34.4027C25.1953 33.5493 24.5054 32.8949 23.6449 32.7825L2.19556 29.9832C-0.126005 29.6802 -0.125999 26.3198 2.19557 26.0168L23.6449 23.2175C24.5054 23.1051 25.1953 22.4507 25.3528 21.5973L29.0332 1.65636Z" fill="#F5D185"/>
</svg>
