<svg width="76" height="66" viewBox="0 0 76 66" fill="none" xmlns="http://www.w3.org/2000/svg">
<path d="M37.0166 1.32818C37.218 0.236843 38.782 0.236846 38.9834 1.32818L43.7793 27.3132C43.858 27.7399 44.203 28.0671 44.6333 28.1232L74.4022 32.0084C75.563 32.1599 75.563 33.8401 74.4022 33.9916L44.6333 37.8768C44.203 37.9329 43.858 38.2601 43.7793 38.6868L38.9834 64.6718C38.782 65.7632 37.218 65.7632 37.0166 64.6718L32.2207 38.6868C32.142 38.2601 31.797 37.9329 31.3667 37.8768L1.59778 33.9916C0.436997 33.8401 0.437 32.1599 1.59778 32.0084L31.3667 28.1232C31.797 28.0671 32.142 27.7399 32.2207 27.3132L37.0166 1.32818Z" fill="#F5D185"/>
</svg>
