<svg width="103" height="34" viewBox="0 0 103 34" fill="none" xmlns="http://www.w3.org/2000/svg">
<path d="M86.859 5.4139C86.9256 5.03999 87.462 5.03999 87.5285 5.4139L89.245 15.0635C89.2709 15.209 89.3877 15.321 89.5341 15.3409L100.297 16.7983C100.689 16.8514 100.689 17.4189 100.297 17.4721L89.5341 18.9294C89.3877 18.9493 89.2709 19.0614 89.245 19.2068L87.5285 28.8564C87.462 29.2303 86.9256 29.2303 86.859 28.8564L85.1425 19.2068C85.1166 19.0614 84.9998 18.9493 84.8534 18.9294L74.0907 17.4721C73.6982 17.4189 73.6982 16.8514 74.0907 16.7983L84.8534 15.3409C84.9998 15.321 85.1166 15.209 85.1425 15.0635L86.859 5.4139Z" fill="#F5D185" fill-opacity="0.8"/>
<g filter="url(#filter0_f_305_915)">
<path d="M86.5243 7.29558C86.6573 6.54775 87.7302 6.54776 87.8632 7.29558L89.2016 14.8194C89.2533 15.1103 89.487 15.3345 89.7798 15.3741L97.8088 16.4614C98.5938 16.5676 98.5938 17.7027 97.8088 17.809L89.7798 18.8962C89.487 18.9358 89.2533 19.16 89.2016 19.4509L87.8632 26.9747C87.7302 27.7226 86.6573 27.7226 86.5243 26.9747L85.1859 19.4509C85.1342 19.16 84.9005 18.9358 84.6077 18.8962L76.5787 17.809C75.7938 17.7027 75.7938 16.5676 76.5787 16.4614L84.6077 15.3741C84.9005 15.3345 85.1342 15.1103 85.1859 14.8194L86.5243 7.29558Z" fill="#F5D185" fill-opacity="0.6"/>
</g>
<g filter="url(#filter1_f_305_915)">
<path d="M86.1896 9.54445C86.3891 8.42271 87.9984 8.42271 88.1979 9.54445L89.1582 14.9425C89.2358 15.3788 89.5863 15.7151 90.0255 15.7746L95.3208 16.4916C96.4982 16.6511 96.4982 18.3536 95.3208 18.513L90.0255 19.2301C89.5863 19.2896 89.2358 19.6258 89.1582 20.0622L88.1979 25.4602C87.9984 26.582 86.3891 26.582 86.1896 25.4602L85.2294 20.0622C85.1517 19.6258 84.8012 19.2896 84.3621 19.2301L79.0667 18.513C77.8893 18.3536 77.8893 16.6511 79.0667 16.4916L84.3621 15.7746C84.8012 15.7151 85.1517 15.3788 85.2294 14.9425L86.1896 9.54445Z" fill="#F5D185" fill-opacity="0.4"/>
</g>
<g filter="url(#filter2_f_305_915)">
<path d="M18.9935 3.25911C19.0633 2.89002 19.5919 2.89002 19.6617 3.25911L21.8048 14.5948C21.8322 14.7395 21.9497 14.8502 22.0959 14.8688L35.4606 16.5716C35.8567 16.622 35.8567 17.1956 35.4606 17.2461L22.0959 18.9488C21.9497 18.9675 21.8322 19.0781 21.8048 19.2229L19.6617 30.5586C19.5919 30.9277 19.0633 30.9277 18.9935 30.5586L16.8504 19.2229C16.823 19.0781 16.7055 18.9675 16.5593 18.9488L3.19455 17.2461C2.79854 17.1956 2.79854 16.622 3.19455 16.5716L16.5593 14.8688C16.7055 14.8502 16.823 14.7395 16.8504 14.5948L18.9935 3.25911Z" fill="#F5D185" fill-opacity="0.8"/>
<g filter="url(#filter3_f_305_915)">
<path d="M18.6595 5.02604C18.799 4.28785 19.8562 4.28785 19.9957 5.02604L21.7589 14.3519C21.8136 14.6415 22.0487 14.8628 22.3411 14.9001L32.8136 16.2343C33.6056 16.3352 33.6056 17.4824 32.8136 17.5833L22.3411 18.9176C22.0487 18.9548 21.8136 19.1762 21.7589 19.4658L19.9957 28.7916C19.8562 29.5298 18.799 29.5298 18.6595 28.7916L16.8963 19.4658C16.8416 19.1762 16.6065 18.9548 16.3141 18.9176L5.84162 17.5833C5.04959 17.4824 5.04959 16.3352 5.84161 16.2343L16.3141 14.9001C16.6065 14.8628 16.8416 14.6415 16.8963 14.3519L18.6595 5.02604Z" fill="#F5D185" fill-opacity="0.6"/>
</g>
<g filter="url(#filter4_f_305_915)">
<path d="M18.3255 7.20995C18.5348 6.10268 20.1205 6.10268 20.3298 7.20996L21.713 14.526C21.7952 14.9604 22.1478 15.2924 22.5863 15.3483L30.1666 16.3141C31.3546 16.4654 31.3546 18.1862 30.1666 18.3376L22.5863 19.3034C22.1478 19.3592 21.7952 19.6912 21.713 20.1256L20.3298 27.4417C20.1205 28.549 18.5348 28.549 18.3255 27.4417L16.9423 20.1256C16.8602 19.6912 16.5076 19.3592 16.069 19.3034L8.48874 18.3376C7.30071 18.1862 7.3007 16.4654 8.48874 16.3141L16.069 15.3483C16.5076 15.2924 16.8602 14.9604 16.9423 14.526L18.3255 7.20995Z" fill="#F5D185" fill-opacity="0.4"/>
</g>
</g>
<path d="M18.9925 5.32714C19.057 4.9503 19.5982 4.95031 19.6627 5.32714L21.2957 14.8684C21.3206 15.0142 21.4369 15.1271 21.5834 15.1477L31.896 16.5991C32.2862 16.654 32.2862 17.2175 31.896 17.2725L21.5834 18.7239C21.4369 18.7445 21.3206 18.8574 21.2957 19.0032L19.6627 28.5445C19.5982 28.9213 19.057 28.9213 18.9925 28.5445L17.3596 19.0032C17.3346 18.8574 17.2183 18.7445 17.0718 18.7239L6.75921 17.2725C6.36908 17.2175 6.36908 16.654 6.75921 16.5991L17.0718 15.1477C17.2183 15.1271 17.3346 15.0142 17.3596 14.8684L18.9925 5.32714Z" fill="#F5D185" fill-opacity="0.8"/>
<g filter="url(#filter5_f_305_915)">
<path d="M18.6574 7.28513C18.7864 6.53147 19.8688 6.53147 19.9978 7.28514L21.2538 14.6237C21.3037 14.9152 21.5363 15.1411 21.8292 15.1823L29.504 16.2625C30.2843 16.3723 30.2843 17.4993 29.504 17.6091L21.8292 18.6893C21.5363 18.7305 21.3037 18.9563 21.2538 19.2479L19.9978 26.5865C19.8688 27.3401 18.7864 27.3401 18.6574 26.5865L17.4014 19.2479C17.3515 18.9563 17.1189 18.7305 16.826 18.6893L9.15122 17.6091C8.37097 17.4993 8.37097 16.3723 9.15122 16.2625L16.826 15.1823C17.1189 15.1411 17.3515 14.9152 17.4014 14.6237L18.6574 7.28513Z" fill="#F5D185" fill-opacity="0.6"/>
</g>
<g filter="url(#filter6_f_305_915)">
<path d="M18.3223 9.61032C18.5158 8.47982 20.1395 8.47982 20.3329 9.61032L21.2119 14.7462C21.2868 15.1835 21.6357 15.5223 22.0751 15.5841L27.112 16.293C28.2824 16.4577 28.2824 18.1482 27.112 18.313L22.0751 19.0219C21.6357 19.0837 21.2868 19.4225 21.2119 19.8598L20.3329 24.9956C20.1394 26.1261 18.5158 26.1261 18.3223 24.9956L17.4433 19.8598C17.3685 19.4225 17.0195 19.0837 16.5802 19.0219L11.5432 18.313C10.3729 18.1482 10.3729 16.4577 11.5432 16.293L16.5802 15.5841C17.0195 15.5223 17.3685 15.1835 17.4433 14.7462L18.3223 9.61032Z" fill="#F5D185" fill-opacity="0.4"/>
</g>
<g filter="url(#filter7_f_305_915)">
<g filter="url(#filter8_f_305_915)">
<path d="M55.0312 3.25911C55.101 2.89002 55.6296 2.89002 55.6993 3.25911L57.8425 14.5948C57.8699 14.7395 57.9874 14.8502 58.1336 14.8688L71.4983 16.5716C71.8943 16.622 71.8943 17.1956 71.4983 17.2461L58.1336 18.9488C57.9874 18.9675 57.8699 19.0781 57.8425 19.2229L55.6993 30.5586C55.6296 30.9277 55.101 30.9277 55.0312 30.5586L52.8881 19.2229C52.8607 19.0781 52.7432 18.9675 52.597 18.9488L39.2322 17.2461C38.8362 17.1956 38.8362 16.622 39.2322 16.5716L52.597 14.8688C52.7432 14.8502 52.8607 14.7395 52.8881 14.5948L55.0312 3.25911Z" fill="#F5D185" fill-opacity="0.8"/>
<g filter="url(#filter9_f_305_915)">
<path d="M54.6972 5.02604C54.8367 4.28785 55.8938 4.28785 56.0334 5.02604L57.7966 14.3519C57.8513 14.6415 58.0864 14.8628 58.3788 14.9001L68.8513 16.2343C69.6433 16.3352 69.6433 17.4824 68.8513 17.5833L58.3788 18.9176C58.0864 18.9548 57.8513 19.1762 57.7966 19.4658L56.0334 28.7916C55.8938 29.5298 54.8367 29.5298 54.6972 28.7916L52.934 19.4658C52.8793 19.1762 52.6442 18.9548 52.3518 18.9176L41.8793 17.5833C41.0873 17.4824 41.0873 16.3352 41.8793 16.2343L52.3518 14.9001C52.6442 14.8628 52.8793 14.6415 52.934 14.3519L54.6972 5.02604Z" fill="#F5D185" fill-opacity="0.6"/>
</g>
<g filter="url(#filter10_f_305_915)">
<path d="M54.3629 7.20995C54.5723 6.10268 56.1579 6.10268 56.3673 7.20996L57.7505 14.526C57.8326 14.9604 58.1852 15.2924 58.6237 15.3483L66.204 16.3141C67.3921 16.4654 67.3921 18.1862 66.204 18.3376L58.6237 19.3034C58.1852 19.3592 57.8326 19.6912 57.7505 20.1256L56.3673 27.4417C56.1579 28.549 54.5723 28.549 54.3629 27.4417L52.9797 20.1256C52.8976 19.6912 52.545 19.3592 52.1065 19.3034L44.5262 18.3376C43.3382 18.1862 43.3381 16.4654 44.5262 16.3141L52.1065 15.3483C52.545 15.2924 52.8976 14.9604 52.9797 14.526L54.3629 7.20995Z" fill="#F5D185" fill-opacity="0.4"/>
</g>
</g>
<path d="M55.03 5.32714C55.0945 4.9503 55.6357 4.95031 55.7002 5.32714L57.3331 14.8684C57.3581 15.0142 57.4744 15.1271 57.6208 15.1477L67.9335 16.5991C68.3236 16.654 68.3236 17.2175 67.9335 17.2725L57.6208 18.7239C57.4744 18.7445 57.3581 18.8574 57.3331 19.0032L55.7002 28.5445C55.6357 28.9213 55.0945 28.9213 55.03 28.5445L53.397 19.0032C53.3721 18.8574 53.2557 18.7445 53.1093 18.7239L42.7967 17.2725C42.4065 17.2175 42.4065 16.654 42.7967 16.5991L53.1093 15.1477C53.2557 15.1271 53.3721 15.0142 53.397 14.8684L55.03 5.32714Z" fill="#F5D185" fill-opacity="0.8"/>
<g filter="url(#filter11_f_305_915)">
<path d="M54.6949 7.28513C54.8238 6.53147 55.9063 6.53147 56.0353 7.28514L57.2912 14.6237C57.3411 14.9152 57.5738 15.1411 57.8667 15.1823L65.5415 16.2625C66.3217 16.3723 66.3217 17.4993 65.5415 17.6091L57.8667 18.6893C57.5738 18.7305 57.3411 18.9563 57.2912 19.2479L56.0353 26.5865C55.9063 27.3401 54.8238 27.3401 54.6949 26.5865L53.4389 19.2479C53.389 18.9563 53.1563 18.7305 52.8634 18.6893L45.1887 17.6091C44.4084 17.4993 44.4084 16.3723 45.1887 16.2625L52.8634 15.1823C53.1563 15.1411 53.389 14.9152 53.4389 14.6237L54.6949 7.28513Z" fill="#F5D185" fill-opacity="0.6"/>
</g>
<g filter="url(#filter12_f_305_915)">
<path d="M54.3597 9.61032C54.5532 8.47982 56.1769 8.47982 56.3704 9.61032L57.2494 14.7462C57.3242 15.1835 57.6732 15.5223 58.1125 15.5841L63.1494 16.293C64.3198 16.4577 64.3198 18.1482 63.1494 18.313L58.1125 19.0219C57.6732 19.0837 57.3242 19.4225 57.2494 19.8598L56.3704 24.9956C56.1769 26.1261 54.5532 26.1261 54.3597 24.9956L53.4808 19.8598C53.4059 19.4225 53.0569 19.0837 52.6176 19.0219L47.5807 18.313C46.4103 18.1482 46.4103 16.4577 47.5807 16.293L52.6176 15.5841C53.0569 15.5223 53.4059 15.1835 53.4808 14.7462L54.3597 9.61032Z" fill="#F5D185" fill-opacity="0.4"/>
</g>
</g>
<defs>
<filter id="filter0_f_305_915" x="73.9501" y="4.69452" width="26.4873" height="24.8805" filterUnits="userSpaceOnUse" color-interpolation-filters="sRGB">
<feFlood flood-opacity="0" result="BackgroundImageFix"/>
<feBlend mode="normal" in="SourceGraphic" in2="BackgroundImageFix" result="shape"/>
<feGaussianBlur stdDeviation="1.01993" result="effect1_foregroundBlur_305_915"/>
</filter>
<filter id="filter1_f_305_915" x="75.4638" y="5.98331" width="23.4599" height="23.0383" filterUnits="userSpaceOnUse" color-interpolation-filters="sRGB">
<feFlood flood-opacity="0" result="BackgroundImageFix"/>
<feBlend mode="normal" in="SourceGraphic" in2="BackgroundImageFix" result="shape"/>
<feGaussianBlur stdDeviation="1.35991" result="effect1_foregroundBlur_305_915"/>
</filter>
<filter id="filter2_f_305_915" x="1.53765" y="1.62252" width="35.5799" height="30.5724" filterUnits="userSpaceOnUse" color-interpolation-filters="sRGB">
<feFlood flood-opacity="0" result="BackgroundImageFix"/>
<feBlend mode="normal" in="SourceGraphic" in2="BackgroundImageFix" result="shape"/>
<feGaussianBlur stdDeviation="0.679953" result="effect1_foregroundBlur_305_915"/>
</filter>
<filter id="filter3_f_305_915" x="3.20773" y="2.4328" width="32.2397" height="28.9528" filterUnits="userSpaceOnUse" color-interpolation-filters="sRGB">
<feFlood flood-opacity="0" result="BackgroundImageFix"/>
<feBlend mode="normal" in="SourceGraphic" in2="BackgroundImageFix" result="shape"/>
<feGaussianBlur stdDeviation="1.01993" result="effect1_foregroundBlur_305_915"/>
</filter>
<filter id="filter4_f_305_915" x="4.8779" y="3.66007" width="28.8995" height="27.3322" filterUnits="userSpaceOnUse" color-interpolation-filters="sRGB">
<feFlood flood-opacity="0" result="BackgroundImageFix"/>
<feBlend mode="normal" in="SourceGraphic" in2="BackgroundImageFix" result="shape"/>
<feGaussianBlur stdDeviation="1.35991" result="effect1_foregroundBlur_305_915"/>
</filter>
<filter id="filter5_f_305_915" x="6.52618" y="4.67987" width="25.6029" height="24.5114" filterUnits="userSpaceOnUse" color-interpolation-filters="sRGB">
<feFlood flood-opacity="0" result="BackgroundImageFix"/>
<feBlend mode="normal" in="SourceGraphic" in2="BackgroundImageFix" result="shape"/>
<feGaussianBlur stdDeviation="1.01993" result="effect1_foregroundBlur_305_915"/>
</filter>
<filter id="filter6_f_305_915" x="7.94565" y="6.04288" width="22.7639" height="22.5207" filterUnits="userSpaceOnUse" color-interpolation-filters="sRGB">
<feFlood flood-opacity="0" result="BackgroundImageFix"/>
<feBlend mode="normal" in="SourceGraphic" in2="BackgroundImageFix" result="shape"/>
<feGaussianBlur stdDeviation="1.35991" result="effect1_foregroundBlur_305_915"/>
</filter>
<filter id="filter7_f_305_915" x="36.2154" y="0.262609" width="38.2997" height="33.2922" filterUnits="userSpaceOnUse" color-interpolation-filters="sRGB">
<feFlood flood-opacity="0" result="BackgroundImageFix"/>
<feBlend mode="normal" in="SourceGraphic" in2="BackgroundImageFix" result="shape"/>
<feGaussianBlur stdDeviation="1.35991" result="effect1_foregroundBlur_305_915"/>
</filter>
<filter id="filter8_f_305_915" x="37.5753" y="1.62252" width="35.5799" height="30.5724" filterUnits="userSpaceOnUse" color-interpolation-filters="sRGB">
<feFlood flood-opacity="0" result="BackgroundImageFix"/>
<feBlend mode="normal" in="SourceGraphic" in2="BackgroundImageFix" result="shape"/>
<feGaussianBlur stdDeviation="0.679953" result="effect1_foregroundBlur_305_915"/>
</filter>
<filter id="filter9_f_305_915" x="39.2454" y="2.4328" width="32.2397" height="28.9528" filterUnits="userSpaceOnUse" color-interpolation-filters="sRGB">
<feFlood flood-opacity="0" result="BackgroundImageFix"/>
<feBlend mode="normal" in="SourceGraphic" in2="BackgroundImageFix" result="shape"/>
<feGaussianBlur stdDeviation="1.01993" result="effect1_foregroundBlur_305_915"/>
</filter>
<filter id="filter10_f_305_915" x="40.9153" y="3.66007" width="28.8995" height="27.3322" filterUnits="userSpaceOnUse" color-interpolation-filters="sRGB">
<feFlood flood-opacity="0" result="BackgroundImageFix"/>
<feBlend mode="normal" in="SourceGraphic" in2="BackgroundImageFix" result="shape"/>
<feGaussianBlur stdDeviation="1.35991" result="effect1_foregroundBlur_305_915"/>
</filter>
<filter id="filter11_f_305_915" x="42.5636" y="4.67987" width="25.6029" height="24.5114" filterUnits="userSpaceOnUse" color-interpolation-filters="sRGB">
<feFlood flood-opacity="0" result="BackgroundImageFix"/>
<feBlend mode="normal" in="SourceGraphic" in2="BackgroundImageFix" result="shape"/>
<feGaussianBlur stdDeviation="1.01993" result="effect1_foregroundBlur_305_915"/>
</filter>
<filter id="filter12_f_305_915" x="43.9831" y="6.04288" width="22.7639" height="22.5207" filterUnits="userSpaceOnUse" color-interpolation-filters="sRGB">
<feFlood flood-opacity="0" result="BackgroundImageFix"/>
<feBlend mode="normal" in="SourceGraphic" in2="BackgroundImageFix" result="shape"/>
<feGaussianBlur stdDeviation="1.35991" result="effect1_foregroundBlur_305_915"/>
</filter>
</defs>
</svg>
