<svg width="319" height="115" viewBox="0 0 319 115" fill="none" xmlns="http://www.w3.org/2000/svg">
<path d="M17.0897 25.84C16.743 27.4667 16.0764 28.64 15.0897 29.36C14.1297 30.0533 12.9564 30.4 11.5697 30.4C10.1564 30.4 8.99635 30.0933 8.08969 29.48C7.18302 28.84 6.51635 28 6.08969 26.96C5.66302 25.92 5.44969 24.8133 5.44969 23.64V13.08C5.44969 12.1733 5.40969 11.64 5.32969 11.48C5.24969 11.2933 4.99635 11.1733 4.56969 11.12L2.36969 10.84V9.72H5.44969V5.08L10.0497 4.16V9.72H16.4497V11.12H10.0497V24.44C10.0497 26.1467 10.263 27.3333 10.6897 28C11.1164 28.64 11.663 28.96 12.3297 28.96C13.023 28.96 13.5564 28.6933 13.9297 28.16C14.3297 27.6267 14.583 26.6533 14.6897 25.24L17.0897 25.84ZM38.1109 19.44V20.24C38.1109 23.3067 37.3109 25.7733 35.7109 27.64C34.1376 29.48 31.8843 30.4 28.9509 30.4C26.0176 30.4 23.7509 29.48 22.1509 27.64C20.5776 25.7733 19.7909 23.3067 19.7909 20.24V19.44C19.7909 16.3733 20.5776 13.92 22.1509 12.08C23.7509 10.24 26.0176 9.32 28.9509 9.32C31.8843 9.32 34.1376 10.24 35.7109 12.08C37.3109 13.92 38.1109 16.3733 38.1109 19.44ZM33.1909 18.64C33.1909 15.7867 32.8309 13.76 32.1109 12.56C31.3909 11.3333 30.3376 10.72 28.9509 10.72C27.5909 10.72 26.5376 11.3333 25.7909 12.56C25.0709 13.76 24.7109 15.7867 24.7109 18.64V21.04C24.7109 23.8667 25.0709 25.9067 25.7909 27.16C26.5376 28.3867 27.5909 29 28.9509 29C30.3376 29 31.3909 28.3867 32.1109 27.16C32.8309 25.9067 33.1909 23.8667 33.1909 21.04V18.64ZM63.7719 28.88V30H56.3319V26.48C55.5852 27.84 54.6252 28.84 53.4519 29.48C52.2785 30.0933 51.0919 30.4 49.8919 30.4C47.9985 30.4 46.4919 29.7733 45.3719 28.52C44.2519 27.24 43.6919 25.4667 43.6919 23.2V13.08C43.6919 12.1733 43.6519 11.64 43.5719 11.48C43.4919 11.2933 43.2385 11.1733 42.8119 11.12L40.6119 10.84V9.72H48.2919V23.16C48.2919 25 48.5452 26.3467 49.0519 27.2C49.5852 28.0267 50.3452 28.44 51.3319 28.44C51.7585 28.44 52.2519 28.3333 52.8119 28.12C53.3985 27.88 53.9852 27.4667 54.5719 26.88C55.1585 26.2667 55.6652 25.4 56.0919 24.28V13.08C56.0919 12.1733 56.0519 11.6267 55.9719 11.44C55.8919 11.2533 55.6385 11.1467 55.2119 11.12L52.2119 10.84V9.72H60.6919V26.64C60.6919 27.5467 60.7319 28.0933 60.8119 28.28C60.8919 28.44 61.1452 28.5467 61.5719 28.6L63.7719 28.88ZM65.3497 10.84V9.72H72.7897V13C74.4164 10.5467 76.3497 9.32 78.5897 9.32C79.4164 9.32 80.2164 9.58667 80.9897 10.12C81.763 10.6267 82.403 11.5867 82.9097 13L79.3497 14.92C78.9764 13.8267 78.5364 13.0933 78.0297 12.72C77.5497 12.32 77.0297 12.12 76.4697 12.12C75.883 12.12 75.3097 12.3067 74.7497 12.68C74.1897 13.0533 73.6164 13.7467 73.0297 14.76V26.64C73.0297 27.5467 73.0697 28.0933 73.1497 28.28C73.2297 28.44 73.483 28.5467 73.9097 28.6L76.9097 28.88V30H65.3497V28.88L67.5497 28.6C67.9764 28.5467 68.2297 28.44 68.3097 28.28C68.3897 28.0933 68.4297 27.5467 68.4297 26.64V13.08C68.4297 12.1733 68.3897 11.64 68.3097 11.48C68.2297 11.2933 67.9764 11.1733 67.5497 11.12L65.3497 10.84ZM112.252 19.44V20.24C112.252 23.3067 111.452 25.7733 109.852 27.64C108.278 29.48 106.025 30.4 103.092 30.4C100.158 30.4 97.8916 29.48 96.2916 27.64C94.7182 25.7733 93.9316 23.3067 93.9316 20.24V19.44C93.9316 16.3733 94.7182 13.92 96.2916 12.08C97.8916 10.24 100.158 9.32 103.092 9.32C106.025 9.32 108.278 10.24 109.852 12.08C111.452 13.92 112.252 16.3733 112.252 19.44ZM107.332 18.64C107.332 15.7867 106.972 13.76 106.252 12.56C105.532 11.3333 104.478 10.72 103.092 10.72C101.732 10.72 100.678 11.3333 99.9316 12.56C99.2116 13.76 98.8516 15.7867 98.8516 18.64V21.04C98.8516 23.8667 99.2116 25.9067 99.9316 27.16C100.678 28.3867 101.732 29 103.092 29C104.478 29 105.532 28.3867 106.252 27.16C106.972 25.9067 107.332 23.8667 107.332 21.04V18.64ZM126.793 28.88V30H115.233V28.88L117.433 28.6C117.859 28.5467 118.113 28.44 118.193 28.28C118.273 28.0933 118.313 27.5467 118.313 26.64V13.08C118.313 12.1733 118.273 11.64 118.193 11.48C118.113 11.2933 117.859 11.1733 117.433 11.12L115.233 10.84V9.72H118.313V7.56C118.313 6.28 118.526 5.06667 118.953 3.92C119.406 2.74667 120.153 1.8 121.193 1.08C122.259 0.359998 123.686 -2.38419e-06 125.473 -2.38419e-06C127.099 -2.38419e-06 128.433 0.279998 129.473 0.839999C130.539 1.4 131.299 2.14667 131.753 3.08C132.233 4.01333 132.379 5.02667 132.193 6.12L127.793 6.76C128.059 4.76 127.979 3.37333 127.553 2.6C127.153 1.8 126.459 1.4 125.473 1.4C124.939 1.4 124.473 1.54667 124.073 1.84C123.699 2.13333 123.406 2.66667 123.193 3.44C123.006 4.18667 122.913 5.29333 122.913 6.76V9.72H128.913V11.12H122.913V26.64C122.913 27.5467 122.953 28.0933 123.033 28.28C123.113 28.44 123.366 28.5467 123.793 28.6L126.793 28.88ZM152.949 25.84C152.602 27.4667 151.936 28.64 150.949 29.36C149.989 30.0533 148.816 30.4 147.429 30.4C146.016 30.4 144.856 30.0933 143.949 29.48C143.042 28.84 142.376 28 141.949 26.96C141.522 25.92 141.309 24.8133 141.309 23.64V13.08C141.309 12.1733 141.269 11.64 141.189 11.48C141.109 11.2933 140.856 11.1733 140.429 11.12L138.229 10.84V9.72H141.309V5.08L145.909 4.16V9.72H152.309V11.12H145.909V24.44C145.909 26.1467 146.122 27.3333 146.549 28C146.976 28.64 147.522 28.96 148.189 28.96C148.882 28.96 149.416 28.6933 149.789 28.16C150.189 27.6267 150.442 26.6533 150.549 25.24L152.949 25.84ZM177.77 28.88V30H167.01V28.88L169.21 28.6C169.637 28.5467 169.89 28.44 169.97 28.28C170.05 28.0933 170.09 27.5467 170.09 26.64V16.56C170.09 14.72 169.81 13.3867 169.25 12.56C168.717 11.7067 167.917 11.28 166.85 11.28C166.397 11.28 165.864 11.4 165.25 11.64C164.664 11.8533 164.064 12.2533 163.45 12.84C162.864 13.4267 162.344 14.2933 161.89 15.44V26.64C161.89 27.5467 161.93 28.0933 162.01 28.28C162.09 28.44 162.344 28.5467 162.77 28.6L164.97 28.88V30H154.21V28.88L156.41 28.6C156.837 28.5467 157.09 28.44 157.17 28.28C157.25 28.0933 157.29 27.5467 157.29 26.64V3.76C157.29 2.85333 157.25 2.32 157.17 2.16C157.09 1.97333 156.837 1.85333 156.41 1.8L154.21 1.52V0.4H161.89V12.84C162.664 11.6133 163.624 10.72 164.77 10.16C165.944 9.6 167.117 9.32 168.29 9.32C170.264 9.32 171.824 9.94667 172.97 11.2C174.117 12.4533 174.69 14.2267 174.69 16.52V26.64C174.69 27.5467 174.73 28.0933 174.81 28.28C174.89 28.44 175.144 28.5467 175.57 28.6L177.77 28.88ZM197.179 25.24C196.699 27.1067 195.805 28.44 194.499 29.24C193.192 30.0133 191.672 30.4 189.939 30.4C186.739 30.4 184.339 29.48 182.739 27.64C181.139 25.7733 180.339 23.3067 180.339 20.24V19.44C180.339 16.3733 181.085 13.92 182.579 12.08C184.099 10.24 186.285 9.32 189.139 9.32C190.739 9.32 192.152 9.64 193.379 10.28C194.632 10.8933 195.605 11.7867 196.299 12.96C197.019 14.1333 197.379 15.56 197.379 17.24C197.379 17.64 197.352 18.0667 197.299 18.52C197.272 18.9733 197.205 19.4267 197.099 19.88H185.259V21.04C185.259 23.8667 185.659 25.9067 186.459 27.16C187.259 28.3867 188.552 29 190.339 29C191.485 29 192.459 28.6667 193.259 28C194.059 27.3067 194.512 26.1467 194.619 24.52L197.179 25.24ZM189.139 10.72C187.832 10.72 186.859 11.32 186.219 12.52C185.579 13.72 185.259 15.7067 185.259 18.48H192.499C192.605 17.9467 192.672 17.4533 192.699 17C192.752 16.52 192.779 16.08 192.779 15.68C192.779 13.9733 192.445 12.72 191.779 11.92C191.112 11.12 190.232 10.72 189.139 10.72ZM220.816 28.88V30H209.256V28.88L211.456 28.6C211.883 28.5467 212.136 28.44 212.216 28.28C212.296 28.0933 212.336 27.5467 212.336 26.64V13.08C212.336 12.1733 212.296 11.64 212.216 11.48C212.136 11.2933 211.883 11.1733 211.456 11.12L209.256 10.84V9.72H212.336V7.56C212.336 6.28 212.549 5.06667 212.976 3.92C213.429 2.74667 214.176 1.8 215.216 1.08C216.283 0.359998 217.709 -2.38419e-06 219.496 -2.38419e-06C221.123 -2.38419e-06 222.456 0.279998 223.496 0.839999C224.563 1.4 225.323 2.14667 225.776 3.08C226.256 4.01333 226.403 5.02667 226.216 6.12L221.816 6.76C222.083 4.76 222.003 3.37333 221.576 2.6C221.176 1.8 220.483 1.4 219.496 1.4C218.963 1.4 218.496 1.54667 218.096 1.84C217.723 2.13333 217.429 2.66667 217.216 3.44C217.029 4.18667 216.936 5.29333 216.936 6.76V9.72H222.936V11.12H216.936V26.64C216.936 27.5467 216.976 28.0933 217.056 28.28C217.136 28.44 217.389 28.5467 217.816 28.6L220.816 28.88ZM242.877 19.44V20.24C242.877 23.3067 242.077 25.7733 240.477 27.64C238.903 29.48 236.65 30.4 233.717 30.4C230.783 30.4 228.517 29.48 226.917 27.64C225.343 25.7733 224.557 23.3067 224.557 20.24V19.44C224.557 16.3733 225.343 13.92 226.917 12.08C228.517 10.24 230.783 9.32 233.717 9.32C236.65 9.32 238.903 10.24 240.477 12.08C242.077 13.92 242.877 16.3733 242.877 19.44ZM237.957 18.64C237.957 15.7867 237.597 13.76 236.877 12.56C236.157 11.3333 235.103 10.72 233.717 10.72C232.357 10.72 231.303 11.3333 230.557 12.56C229.837 13.76 229.477 15.7867 229.477 18.64V21.04C229.477 23.8667 229.837 25.9067 230.557 27.16C231.303 28.3867 232.357 29 233.717 29C235.103 29 236.157 28.3867 236.877 27.16C237.597 25.9067 237.957 23.8667 237.957 21.04V18.64ZM245.858 10.84V9.72H253.298V13C254.924 10.5467 256.858 9.32 259.098 9.32C259.924 9.32 260.724 9.58667 261.498 10.12C262.271 10.6267 262.911 11.5867 263.418 13L259.858 14.92C259.484 13.8267 259.044 13.0933 258.538 12.72C258.058 12.32 257.538 12.12 256.978 12.12C256.391 12.12 255.818 12.3067 255.258 12.68C254.698 13.0533 254.124 13.7467 253.538 14.76V26.64C253.538 27.5467 253.578 28.0933 253.658 28.28C253.738 28.44 253.991 28.5467 254.418 28.6L257.418 28.88V30H245.858V28.88L248.058 28.6C248.484 28.5467 248.738 28.44 248.818 28.28C248.898 28.0933 248.938 27.5467 248.938 26.64V13.08C248.938 12.1733 248.898 11.64 248.818 11.48C248.738 11.2933 248.484 11.1733 248.058 11.12L245.858 10.84ZM281.788 25.24C281.308 27.1067 280.415 28.44 279.108 29.24C277.801 30.0133 276.281 30.4 274.548 30.4C271.348 30.4 268.948 29.48 267.348 27.64C265.748 25.7733 264.948 23.3067 264.948 20.24V19.44C264.948 16.3733 265.695 13.92 267.188 12.08C268.708 10.24 270.895 9.32 273.748 9.32C275.348 9.32 276.761 9.64 277.988 10.28C279.241 10.8933 280.215 11.7867 280.908 12.96C281.628 14.1333 281.988 15.56 281.988 17.24C281.988 17.64 281.961 18.0667 281.908 18.52C281.881 18.9733 281.815 19.4267 281.708 19.88H269.868V21.04C269.868 23.8667 270.268 25.9067 271.068 27.16C271.868 28.3867 273.161 29 274.948 29C276.095 29 277.068 28.6667 277.868 28C278.668 27.3067 279.121 26.1467 279.228 24.52L281.788 25.24ZM273.748 10.72C272.441 10.72 271.468 11.32 270.828 12.52C270.188 13.72 269.868 15.7067 269.868 18.48H277.108C277.215 17.9467 277.281 17.4533 277.308 17C277.361 16.52 277.388 16.08 277.388 15.68C277.388 13.9733 277.055 12.72 276.388 11.92C275.721 11.12 274.841 10.72 273.748 10.72ZM294.04 22.44L291.28 21.8C289.493 21.3733 288.16 20.6133 287.28 19.52C286.427 18.4 286 17.08 286 15.56C286 14.44 286.24 13.4133 286.72 12.48C287.227 11.52 288.013 10.76 289.08 10.2C290.147 9.61333 291.533 9.32 293.24 9.32C295.08 9.32 296.573 9.61333 297.72 10.2C298.867 10.7867 299.68 11.56 300.16 12.52C300.64 13.48 300.787 14.5067 300.6 15.6L296.2 16.4C296.573 14.5867 296.467 13.1867 295.88 12.2C295.32 11.2133 294.373 10.72 293.04 10.72C292.107 10.72 291.333 11 290.72 11.56C290.107 12.0933 289.8 12.8667 289.8 13.88C289.8 14.8133 290.067 15.64 290.6 16.36C291.133 17.0533 291.92 17.52 292.96 17.76L295.72 18.4C297.693 18.8533 299.12 19.5733 300 20.56C300.88 21.52 301.32 22.72 301.32 24.16C301.32 25.9467 300.653 27.44 299.32 28.64C298.013 29.8133 296.053 30.4 293.44 30.4C292.533 30.4 291.533 30.2667 290.44 30C289.373 29.7067 288.387 29.1867 287.48 28.44C286.6 27.6933 285.96 26.6267 285.56 25.24L288.16 24.2C288.347 25.96 288.947 27.2 289.96 27.92C291 28.64 292.16 29 293.44 29C294.64 29 295.613 28.7333 296.36 28.2C297.133 27.64 297.52 26.84 297.52 25.8C297.52 25.08 297.267 24.4267 296.76 23.84C296.28 23.2267 295.373 22.76 294.04 22.44ZM318.379 25.84C318.032 27.4667 317.365 28.64 316.379 29.36C315.419 30.0533 314.245 30.4 312.859 30.4C311.445 30.4 310.285 30.0933 309.379 29.48C308.472 28.84 307.805 28 307.379 26.96C306.952 25.92 306.739 24.8133 306.739 23.64V13.08C306.739 12.1733 306.699 11.64 306.619 11.48C306.539 11.2933 306.285 11.1733 305.859 11.12L303.659 10.84V9.72H306.739V5.08L311.339 4.16V9.72H317.739V11.12H311.339V24.44C311.339 26.1467 311.552 27.3333 311.979 28C312.405 28.64 312.952 28.96 313.619 28.96C314.312 28.96 314.845 28.6933 315.219 28.16C315.619 27.6267 315.872 26.6533 315.979 25.24L318.379 25.84ZM28.85 55.08L24.49 72H20.85L16.05 55.92L11.21 72H7.89L3.57 55.08C3.41 54.4667 3.27667 54.04 3.17 53.8C3.09 53.5333 2.98333 53.36 2.85 53.28C2.71667 53.2 2.51667 53.1467 2.25 53.12L0.05 52.84V51.72H10.69V52.84L8.49 53.12C8.06333 53.1733 7.82333 53.2933 7.77 53.48C7.71667 53.64 7.81 54.1733 8.05 55.08L11.17 67.12L15.77 51.72H19.29L24.05 67.8L27.29 55.08C27.53 54.1733 27.6233 53.64 27.57 53.48C27.5167 53.2933 27.2767 53.1733 26.85 53.12L24.65 52.84V51.72H32.37V52.84L30.17 53.12C29.9033 53.1467 29.7033 53.2 29.57 53.28C29.4367 53.36 29.3167 53.5333 29.21 53.8C29.13 54.04 29.01 54.4667 28.85 55.08ZM55.5828 70.88V72H44.8228V70.88L47.0228 70.6C47.4495 70.5467 47.7028 70.44 47.7828 70.28C47.8628 70.0933 47.9028 69.5467 47.9028 68.64V58.56C47.9028 56.72 47.6228 55.3867 47.0628 54.56C46.5295 53.7067 45.7295 53.28 44.6628 53.28C44.2095 53.28 43.6761 53.4 43.0628 53.64C42.4761 53.8533 41.8761 54.2533 41.2628 54.84C40.6761 55.4267 40.1561 56.2933 39.7028 57.44V68.64C39.7028 69.5467 39.7428 70.0933 39.8228 70.28C39.9028 70.44 40.1561 70.5467 40.5828 70.6L42.7828 70.88V72H32.0228V70.88L34.2228 70.6C34.6495 70.5467 34.9028 70.44 34.9828 70.28C35.0628 70.0933 35.1028 69.5467 35.1028 68.64V45.76C35.1028 44.8533 35.0628 44.32 34.9828 44.16C34.9028 43.9733 34.6495 43.8533 34.2228 43.8L32.0228 43.52V42.4H39.7028V54.84C40.4761 53.6133 41.4361 52.72 42.5828 52.16C43.7561 51.6 44.9295 51.32 46.1028 51.32C48.0761 51.32 49.6361 51.9467 50.7828 53.2C51.9295 54.4533 52.5028 56.2267 52.5028 58.52V68.64C52.5028 69.5467 52.5428 70.0933 52.6228 70.28C52.7028 70.44 52.9561 70.5467 53.3828 70.6L55.5828 70.88ZM74.9913 67.24C74.5113 69.1067 73.6179 70.44 72.3113 71.24C71.0046 72.0133 69.4846 72.4 67.7513 72.4C64.5513 72.4 62.1513 71.48 60.5513 69.64C58.9513 67.7733 58.1513 65.3067 58.1513 62.24V61.44C58.1513 58.3733 58.8979 55.92 60.3913 54.08C61.9113 52.24 64.0979 51.32 66.9513 51.32C68.5513 51.32 69.9646 51.64 71.1913 52.28C72.4446 52.8933 73.4179 53.7867 74.1113 54.96C74.8313 56.1333 75.1913 57.56 75.1913 59.24C75.1913 59.64 75.1646 60.0667 75.1113 60.52C75.0846 60.9733 75.0179 61.4267 74.9113 61.88H63.0713V63.04C63.0713 65.8667 63.4713 67.9067 64.2713 69.16C65.0713 70.3867 66.3646 71 68.1513 71C69.2979 71 70.2713 70.6667 71.0713 70C71.8713 69.3067 72.3246 68.1467 72.4313 66.52L74.9913 67.24ZM66.9513 52.72C65.6446 52.72 64.6713 53.32 64.0313 54.52C63.3913 55.72 63.0713 57.7067 63.0713 60.48H70.3113C70.4179 59.9467 70.4846 59.4533 70.5113 59C70.5646 58.52 70.5913 58.08 70.5913 57.68C70.5913 55.9733 70.2579 54.72 69.5913 53.92C68.9246 53.12 68.0446 52.72 66.9513 52.72ZM78.1231 52.84V51.72H85.5631V55C87.1898 52.5467 89.1231 51.32 91.3631 51.32C92.1898 51.32 92.9898 51.5867 93.7631 52.12C94.5365 52.6267 95.1765 53.5867 95.6831 55L92.1231 56.92C91.7498 55.8267 91.3098 55.0933 90.8031 54.72C90.3231 54.32 89.8031 54.12 89.2431 54.12C88.6565 54.12 88.0831 54.3067 87.5231 54.68C86.9631 55.0533 86.3898 55.7467 85.8031 56.76V68.64C85.8031 69.5467 85.8431 70.0933 85.9231 70.28C86.0031 70.44 86.2565 70.5467 86.6831 70.6L89.6831 70.88V72H78.1231V70.88L80.3231 70.6C80.7498 70.5467 81.0031 70.44 81.0831 70.28C81.1631 70.0933 81.2031 69.5467 81.2031 68.64V55.08C81.2031 54.1733 81.1631 53.64 81.0831 53.48C81.0031 53.2933 80.7498 53.1733 80.3231 53.12L78.1231 52.84ZM114.054 67.24C113.574 69.1067 112.68 70.44 111.374 71.24C110.067 72.0133 108.547 72.4 106.814 72.4C103.614 72.4 101.214 71.48 99.6138 69.64C98.0138 67.7733 97.2138 65.3067 97.2138 62.24V61.44C97.2138 58.3733 97.9604 55.92 99.4538 54.08C100.974 52.24 103.16 51.32 106.014 51.32C107.614 51.32 109.027 51.64 110.254 52.28C111.507 52.8933 112.48 53.7867 113.174 54.96C113.894 56.1333 114.254 57.56 114.254 59.24C114.254 59.64 114.227 60.0667 114.174 60.52C114.147 60.9733 114.08 61.4267 113.974 61.88H102.134V63.04C102.134 65.8667 102.534 67.9067 103.334 69.16C104.134 70.3867 105.427 71 107.214 71C108.36 71 109.334 70.6667 110.134 70C110.934 69.3067 111.387 68.1467 111.494 66.52L114.054 67.24ZM106.014 52.72C104.707 52.72 103.734 53.32 103.094 54.52C102.454 55.72 102.134 57.7067 102.134 60.48H109.374C109.48 59.9467 109.547 59.4533 109.574 59C109.627 58.52 109.654 58.08 109.654 57.68C109.654 55.9733 109.32 54.72 108.654 53.92C107.987 53.12 107.107 52.72 106.014 52.72ZM137.691 70.88V72H126.131V70.88L128.331 70.6C128.758 70.5467 129.011 70.44 129.091 70.28C129.171 70.0933 129.211 69.5467 129.211 68.64V55.08C129.211 54.1733 129.171 53.64 129.091 53.48C129.011 53.2933 128.758 53.1733 128.331 53.12L126.131 52.84V51.72H129.211V49.56C129.211 48.28 129.424 47.0667 129.851 45.92C130.304 44.7467 131.051 43.8 132.091 43.08C133.158 42.36 134.584 42 136.371 42C137.998 42 139.331 42.28 140.371 42.84C141.438 43.4 142.198 44.1467 142.651 45.08C143.131 46.0133 143.278 47.0267 143.091 48.12L138.691 48.76C138.958 46.76 138.878 45.3733 138.451 44.6C138.051 43.8 137.358 43.4 136.371 43.4C135.838 43.4 135.371 43.5467 134.971 43.84C134.598 44.1333 134.304 44.6667 134.091 45.44C133.904 46.1867 133.811 47.2933 133.811 48.76V51.72H139.811V53.12H133.811V68.64C133.811 69.5467 133.851 70.0933 133.931 70.28C134.011 70.44 134.264 70.5467 134.691 70.6L137.691 70.88ZM161.062 71C160.636 71.4 160.116 71.7333 159.502 72C158.916 72.2667 158.196 72.4 157.342 72.4C156.249 72.4 155.329 72.16 154.582 71.68C153.862 71.2 153.382 70.52 153.142 69.64C152.262 70.6 151.289 71.3067 150.222 71.76C149.182 72.1867 148.116 72.4 147.022 72.4C145.182 72.4 143.809 71.8933 142.902 70.88C141.996 69.84 141.542 68.5467 141.542 67C141.542 65.4267 142.116 64.16 143.262 63.2C144.409 62.2133 146.436 61.72 149.342 61.72H152.982V58.48C152.982 56.2667 152.689 54.76 152.102 53.96C151.542 53.1333 150.756 52.72 149.742 52.72C149.076 52.72 148.462 52.8933 147.902 53.24C147.342 53.56 146.942 54.1733 146.702 55.08C146.489 55.96 146.529 57.24 146.822 58.92L142.422 58.28C142.209 57.0533 142.342 55.92 142.822 54.88C143.329 53.8133 144.169 52.96 145.342 52.32C146.516 51.6533 148.009 51.32 149.822 51.32C151.876 51.32 153.462 51.6533 154.582 52.32C155.702 52.9867 156.476 53.8667 156.902 54.96C157.356 56.0533 157.582 57.2267 157.582 58.48V67.72C157.582 69.08 157.702 69.9333 157.942 70.28C158.182 70.6267 158.449 70.8 158.742 70.8C159.222 70.8 159.756 70.52 160.342 69.96L161.062 71ZM148.782 70.28C149.476 70.28 150.156 70.1067 150.822 69.76C151.516 69.3867 152.236 68.7067 152.982 67.72V63.12H149.982C148.676 63.12 147.729 63.4267 147.142 64.04C146.556 64.6533 146.262 65.6133 146.262 66.92C146.262 67.9867 146.476 68.8133 146.902 69.4C147.329 69.9867 147.956 70.28 148.782 70.28ZM167.546 48.28C166.719 48.28 166.052 48.0267 165.546 47.52C165.039 46.9867 164.786 46.3067 164.786 45.48C164.786 44.6533 165.039 43.9867 165.546 43.48C166.052 42.9733 166.719 42.72 167.546 42.72C168.346 42.72 169.012 42.9733 169.546 43.48C170.079 43.9867 170.346 44.6533 170.346 45.48C170.346 46.3067 170.079 46.9867 169.546 47.52C169.012 48.0267 168.346 48.28 167.546 48.28ZM162.186 52.84V51.72H169.866V68.64C169.866 69.5467 169.906 70.0933 169.986 70.28C170.066 70.44 170.319 70.5467 170.746 70.6L172.946 70.88V72H162.186V70.88L164.386 70.6C164.812 70.5467 165.066 70.44 165.146 70.28C165.226 70.0933 165.266 69.5467 165.266 68.64V55.08C165.266 54.1733 165.226 53.64 165.146 53.48C165.066 53.2933 164.812 53.1733 164.386 53.12L162.186 52.84ZM174.49 52.84V51.72H181.93V55C183.557 52.5467 185.49 51.32 187.73 51.32C188.557 51.32 189.357 51.5867 190.13 52.12C190.904 52.6267 191.544 53.5867 192.05 55L188.49 56.92C188.117 55.8267 187.677 55.0933 187.17 54.72C186.69 54.32 186.17 54.12 185.61 54.12C185.024 54.12 184.45 54.3067 183.89 54.68C183.33 55.0533 182.757 55.7467 182.17 56.76V68.64C182.17 69.5467 182.21 70.0933 182.29 70.28C182.37 70.44 182.624 70.5467 183.05 70.6L186.05 70.88V72H174.49V70.88L176.69 70.6C177.117 70.5467 177.37 70.44 177.45 70.28C177.53 70.0933 177.57 69.5467 177.57 68.64V55.08C177.57 54.1733 177.53 53.64 177.45 53.48C177.37 53.2933 177.117 53.1733 176.69 53.12L174.49 52.84ZM198.327 48.28C197.5 48.28 196.834 48.0267 196.327 47.52C195.82 46.9867 195.567 46.3067 195.567 45.48C195.567 44.6533 195.82 43.9867 196.327 43.48C196.834 42.9733 197.5 42.72 198.327 42.72C199.127 42.72 199.794 42.9733 200.327 43.48C200.86 43.9867 201.127 44.6533 201.127 45.48C201.127 46.3067 200.86 46.9867 200.327 47.52C199.794 48.0267 199.127 48.28 198.327 48.28ZM192.967 52.84V51.72H200.647V68.64C200.647 69.5467 200.687 70.0933 200.767 70.28C200.847 70.44 201.1 70.5467 201.527 70.6L203.727 70.88V72H192.967V70.88L195.167 70.6C195.594 70.5467 195.847 70.44 195.927 70.28C196.007 70.0933 196.047 69.5467 196.047 68.64V55.08C196.047 54.1733 196.007 53.64 195.927 53.48C195.847 53.2933 195.594 53.1733 195.167 53.12L192.967 52.84ZM223.312 67.24C222.832 69.1067 221.938 70.44 220.632 71.24C219.325 72.0133 217.805 72.4 216.072 72.4C212.872 72.4 210.472 71.48 208.872 69.64C207.272 67.7733 206.472 65.3067 206.472 62.24V61.44C206.472 58.3733 207.218 55.92 208.712 54.08C210.232 52.24 212.418 51.32 215.272 51.32C216.872 51.32 218.285 51.64 219.512 52.28C220.765 52.8933 221.738 53.7867 222.432 54.96C223.152 56.1333 223.512 57.56 223.512 59.24C223.512 59.64 223.485 60.0667 223.432 60.52C223.405 60.9733 223.338 61.4267 223.232 61.88H211.392V63.04C211.392 65.8667 211.792 67.9067 212.592 69.16C213.392 70.3867 214.685 71 216.472 71C217.618 71 218.592 70.6667 219.392 70C220.192 69.3067 220.645 68.1467 220.752 66.52L223.312 67.24ZM215.272 52.72C213.965 52.72 212.992 53.32 212.352 54.52C211.712 55.72 211.392 57.7067 211.392 60.48H218.632C218.738 59.9467 218.805 59.4533 218.832 59C218.885 58.52 218.912 58.08 218.912 57.68C218.912 55.9733 218.578 54.72 217.912 53.92C217.245 53.12 216.365 52.72 215.272 52.72ZM235.563 64.44L232.803 63.8C231.017 63.3733 229.683 62.6133 228.803 61.52C227.95 60.4 227.523 59.08 227.523 57.56C227.523 56.44 227.763 55.4133 228.243 54.48C228.75 53.52 229.537 52.76 230.603 52.2C231.67 51.6133 233.057 51.32 234.763 51.32C236.603 51.32 238.097 51.6133 239.243 52.2C240.39 52.7867 241.203 53.56 241.683 54.52C242.163 55.48 242.31 56.5067 242.123 57.6L237.723 58.4C238.097 56.5867 237.99 55.1867 237.403 54.2C236.843 53.2133 235.897 52.72 234.563 52.72C233.63 52.72 232.857 53 232.243 53.56C231.63 54.0933 231.323 54.8667 231.323 55.88C231.323 56.8133 231.59 57.64 232.123 58.36C232.657 59.0533 233.443 59.52 234.483 59.76L237.243 60.4C239.217 60.8533 240.643 61.5733 241.523 62.56C242.403 63.52 242.843 64.72 242.843 66.16C242.843 67.9467 242.177 69.44 240.843 70.64C239.537 71.8133 237.577 72.4 234.963 72.4C234.057 72.4 233.057 72.2667 231.963 72C230.897 71.7067 229.91 71.1867 229.003 70.44C228.123 69.6933 227.483 68.6267 227.083 67.24L229.683 66.2C229.87 67.96 230.47 69.2 231.483 69.92C232.523 70.64 233.683 71 234.963 71C236.163 71 237.137 70.7333 237.883 70.2C238.657 69.64 239.043 68.84 239.043 67.8C239.043 67.08 238.79 66.4267 238.283 65.84C237.803 65.2267 236.897 64.76 235.563 64.44ZM254.328 43.52V42.4H262.008V68.64C262.008 69.5467 262.048 70.0933 262.128 70.28C262.208 70.44 262.461 70.5467 262.888 70.6L265.088 70.88V72H254.328V70.88L256.528 70.6C256.954 70.5467 257.208 70.44 257.288 70.28C257.368 70.0933 257.408 69.5467 257.408 68.64V45.76C257.408 44.8533 257.368 44.32 257.288 44.16C257.208 43.9733 256.954 43.8533 256.528 43.8L254.328 43.52ZM271.999 48.28C271.172 48.28 270.505 48.0267 269.999 47.52C269.492 46.9867 269.239 46.3067 269.239 45.48C269.239 44.6533 269.492 43.9867 269.999 43.48C270.505 42.9733 271.172 42.72 271.999 42.72C272.799 42.72 273.465 42.9733 273.999 43.48C274.532 43.9867 274.799 44.6533 274.799 45.48C274.799 46.3067 274.532 46.9867 273.999 47.52C273.465 48.0267 272.799 48.28 271.999 48.28ZM266.639 52.84V51.72H274.319V68.64C274.319 69.5467 274.359 70.0933 274.439 70.28C274.519 70.44 274.772 70.5467 275.199 70.6L277.399 70.88V72H266.639V70.88L268.839 70.6C269.265 70.5467 269.519 70.44 269.599 70.28C269.679 70.0933 269.719 69.5467 269.719 68.64V55.08C269.719 54.1733 269.679 53.64 269.599 53.48C269.519 53.2933 269.265 53.1733 268.839 53.12L266.639 52.84ZM295.762 55.08L290.082 72H286.442L280.762 55.08C280.576 54.4667 280.416 54.04 280.282 53.8C280.176 53.5333 280.042 53.36 279.882 53.28C279.749 53.2 279.536 53.1467 279.242 53.12L277.042 52.84V51.72H287.842V52.84L285.642 53.12C285.242 53.1733 285.029 53.28 285.002 53.44C284.976 53.6 285.109 54.1467 285.402 55.08L289.802 68.36L294.242 55.08C294.536 54.1467 294.669 53.6 294.642 53.44C294.642 53.28 294.429 53.1733 294.002 53.12L291.802 52.84V51.72H299.442V52.84L297.242 53.12C296.976 53.1467 296.762 53.2 296.602 53.28C296.469 53.36 296.349 53.5333 296.242 53.8C296.136 54.04 295.976 54.4667 295.762 55.08ZM316.788 67.24C316.308 69.1067 315.415 70.44 314.108 71.24C312.801 72.0133 311.281 72.4 309.548 72.4C306.348 72.4 303.948 71.48 302.348 69.64C300.748 67.7733 299.948 65.3067 299.948 62.24V61.44C299.948 58.3733 300.695 55.92 302.188 54.08C303.708 52.24 305.895 51.32 308.748 51.32C310.348 51.32 311.761 51.64 312.988 52.28C314.241 52.8933 315.215 53.7867 315.908 54.96C316.628 56.1333 316.988 57.56 316.988 59.24C316.988 59.64 316.961 60.0667 316.908 60.52C316.881 60.9733 316.815 61.4267 316.708 61.88H304.868V63.04C304.868 65.8667 305.268 67.9067 306.068 69.16C306.868 70.3867 308.161 71 309.948 71C311.095 71 312.068 70.6667 312.868 70C313.668 69.3067 314.121 68.1467 314.228 66.52L316.788 67.24ZM308.748 52.72C307.441 52.72 306.468 53.32 305.828 54.52C305.188 55.72 304.868 57.7067 304.868 60.48H312.108C312.215 59.9467 312.281 59.4533 312.308 59C312.361 58.52 312.388 58.08 312.388 57.68C312.388 55.9733 312.055 54.72 311.388 53.92C310.721 53.12 309.841 52.72 308.748 52.72ZM98.4831 90.28C97.6565 90.28 96.9898 90.0267 96.4831 89.52C95.9765 88.9867 95.7231 88.3067 95.7231 87.48C95.7231 86.6533 95.9765 85.9867 96.4831 85.48C96.9898 84.9733 97.6565 84.72 98.4831 84.72C99.2831 84.72 99.9498 84.9733 100.483 85.48C101.016 85.9867 101.283 86.6533 101.283 87.48C101.283 88.3067 101.016 88.9867 100.483 89.52C99.9498 90.0267 99.2831 90.28 98.4831 90.28ZM93.1231 94.84V93.72H100.803V110.64C100.803 111.547 100.843 112.093 100.923 112.28C101.003 112.44 101.256 112.547 101.683 112.6L103.883 112.88V114H93.1231V112.88L95.3231 112.6C95.7498 112.547 96.0031 112.44 96.0831 112.28C96.1631 112.093 96.2031 111.547 96.2031 110.64V97.08C96.2031 96.1733 96.1631 95.64 96.0831 95.48C96.0031 95.2933 95.7498 95.1733 95.3231 95.12L93.1231 94.84ZM128.988 112.88V114H118.228V112.88L120.428 112.6C120.854 112.547 121.108 112.44 121.188 112.28C121.268 112.093 121.308 111.547 121.308 110.64V100.56C121.308 98.72 121.028 97.3867 120.468 96.56C119.934 95.7067 119.134 95.28 118.068 95.28C117.614 95.28 117.081 95.4 116.468 95.64C115.881 95.8533 115.281 96.2533 114.668 96.84C114.081 97.4267 113.561 98.2933 113.108 99.44V110.64C113.108 111.547 113.148 112.093 113.228 112.28C113.308 112.44 113.561 112.547 113.988 112.6L116.188 112.88V114H105.428V112.88L107.628 112.6C108.054 112.547 108.308 112.44 108.388 112.28C108.468 112.093 108.508 111.547 108.508 110.64V97.08C108.508 96.1733 108.468 95.64 108.388 95.48C108.308 95.2933 108.054 95.1733 107.628 95.12L105.428 94.84V93.72H112.868V97.24C113.641 95.88 114.628 94.8933 115.828 94.28C117.054 93.64 118.281 93.32 119.508 93.32C121.481 93.32 123.041 93.9467 124.188 95.2C125.334 96.4533 125.908 98.2267 125.908 100.52V110.64C125.908 111.547 125.948 112.093 126.028 112.28C126.108 112.44 126.361 112.547 126.788 112.6L128.988 112.88ZM158.775 103.44V104.24C158.775 107.307 157.975 109.773 156.375 111.64C154.802 113.48 152.548 114.4 149.615 114.4C146.682 114.4 144.415 113.48 142.815 111.64C141.242 109.773 140.455 107.307 140.455 104.24V103.44C140.455 100.373 141.242 97.92 142.815 96.08C144.415 94.24 146.682 93.32 149.615 93.32C152.548 93.32 154.802 94.24 156.375 96.08C157.975 97.92 158.775 100.373 158.775 103.44ZM153.855 102.64C153.855 99.7867 153.495 97.76 152.775 96.56C152.055 95.3333 151.002 94.72 149.615 94.72C148.255 94.72 147.202 95.3333 146.455 96.56C145.735 97.76 145.375 99.7867 145.375 102.64V105.04C145.375 107.867 145.735 109.907 146.455 111.16C147.202 112.387 148.255 113 149.615 113C151.002 113 152.055 112.387 152.775 111.16C153.495 109.907 153.855 107.867 153.855 105.04V102.64ZM184.436 112.88V114H176.996V110.48C176.249 111.84 175.289 112.84 174.116 113.48C172.943 114.093 171.756 114.4 170.556 114.4C168.663 114.4 167.156 113.773 166.036 112.52C164.916 111.24 164.356 109.467 164.356 107.2V97.08C164.356 96.1733 164.316 95.64 164.236 95.48C164.156 95.2933 163.903 95.1733 163.476 95.12L161.276 94.84V93.72H168.956V107.16C168.956 109 169.209 110.347 169.716 111.2C170.249 112.027 171.009 112.44 171.996 112.44C172.423 112.44 172.916 112.333 173.476 112.12C174.063 111.88 174.649 111.467 175.236 110.88C175.823 110.267 176.329 109.4 176.756 108.28V97.08C176.756 96.1733 176.716 95.6267 176.636 95.44C176.556 95.2533 176.303 95.1467 175.876 95.12L172.876 94.84V93.72H181.356V110.64C181.356 111.547 181.396 112.093 181.476 112.28C181.556 112.44 181.809 112.547 182.236 112.6L184.436 112.88ZM186.014 94.84V93.72H193.454V97C195.08 94.5467 197.014 93.32 199.254 93.32C200.08 93.32 200.88 93.5867 201.654 94.12C202.427 94.6267 203.067 95.5867 203.574 97L200.014 98.92C199.64 97.8267 199.2 97.0933 198.694 96.72C198.214 96.32 197.694 96.12 197.134 96.12C196.547 96.12 195.974 96.3067 195.414 96.68C194.854 97.0533 194.28 97.7467 193.694 98.76V110.64C193.694 111.547 193.734 112.093 193.814 112.28C193.894 112.44 194.147 112.547 194.574 112.6L197.574 112.88V114H186.014V112.88L188.214 112.6C188.64 112.547 188.894 112.44 188.974 112.28C189.054 112.093 189.094 111.547 189.094 110.64V97.08C189.094 96.1733 189.054 95.64 188.974 95.48C188.894 95.2933 188.64 95.1733 188.214 95.12L186.014 94.84ZM241.116 97.08L236.756 114H233.116L228.316 97.92L223.476 114H220.156L215.836 97.08C215.676 96.4667 215.542 96.04 215.436 95.8C215.356 95.5333 215.249 95.36 215.116 95.28C214.982 95.2 214.782 95.1467 214.516 95.12L212.316 94.84V93.72H222.956V94.84L220.756 95.12C220.329 95.1733 220.089 95.2933 220.036 95.48C219.982 95.64 220.076 96.1733 220.316 97.08L223.436 109.12L228.036 93.72H231.556L236.316 109.8L239.556 97.08C239.796 96.1733 239.889 95.64 239.836 95.48C239.782 95.2933 239.542 95.1733 239.116 95.12L236.916 94.84V93.72H244.636V94.84L242.436 95.12C242.169 95.1467 241.969 95.2 241.836 95.28C241.702 95.36 241.582 95.5333 241.476 95.8C241.396 96.04 241.276 96.4667 241.116 97.08ZM263.814 103.44V104.24C263.814 107.307 263.014 109.773 261.414 111.64C259.841 113.48 257.587 114.4 254.654 114.4C251.721 114.4 249.454 113.48 247.854 111.64C246.281 109.773 245.494 107.307 245.494 104.24V103.44C245.494 100.373 246.281 97.92 247.854 96.08C249.454 94.24 251.721 93.32 254.654 93.32C257.587 93.32 259.841 94.24 261.414 96.08C263.014 97.92 263.814 100.373 263.814 103.44ZM258.894 102.64C258.894 99.7867 258.534 97.76 257.814 96.56C257.094 95.3333 256.041 94.72 254.654 94.72C253.294 94.72 252.241 95.3333 251.494 96.56C250.774 97.76 250.414 99.7867 250.414 102.64V105.04C250.414 107.867 250.774 109.907 251.494 111.16C252.241 112.387 253.294 113 254.654 113C256.041 113 257.094 112.387 257.814 111.16C258.534 109.907 258.894 107.867 258.894 105.04V102.64ZM266.795 94.84V93.72H274.235V97C275.862 94.5467 277.795 93.32 280.035 93.32C280.862 93.32 281.662 93.5867 282.435 94.12C283.208 94.6267 283.848 95.5867 284.355 97L280.795 98.92C280.422 97.8267 279.982 97.0933 279.475 96.72C278.995 96.32 278.475 96.12 277.915 96.12C277.328 96.12 276.755 96.3067 276.195 96.68C275.635 97.0533 275.062 97.7467 274.475 98.76V110.64C274.475 111.547 274.515 112.093 274.595 112.28C274.675 112.44 274.928 112.547 275.355 112.6L278.355 112.88V114H266.795V112.88L268.995 112.6C269.422 112.547 269.675 112.44 269.755 112.28C269.835 112.093 269.875 111.547 269.875 110.64V97.08C269.875 96.1733 269.835 95.64 269.755 95.48C269.675 95.2933 269.422 95.1733 268.995 95.12L266.795 94.84ZM284.21 85.52V84.4H291.89V110.64C291.89 111.547 291.93 112.093 292.01 112.28C292.09 112.44 292.344 112.547 292.77 112.6L294.97 112.88V114H284.21V112.88L286.41 112.6C286.837 112.547 287.09 112.44 287.17 112.28C287.25 112.093 287.29 111.547 287.29 110.64V87.76C287.29 86.8533 287.25 86.32 287.17 86.16C287.09 85.9733 286.837 85.8533 286.41 85.8L284.21 85.52ZM318.362 112.88V114H310.922V110.68C310.175 111.907 309.335 112.84 308.402 113.48C307.495 114.093 306.415 114.4 305.162 114.4C302.922 114.4 301.135 113.52 299.802 111.76C298.495 109.973 297.842 107.48 297.842 104.28V103.48C297.842 100.387 298.602 97.92 300.122 96.08C301.668 94.24 303.775 93.32 306.442 93.32C308.042 93.32 309.455 93.72 310.682 94.52V87.76C310.682 86.8533 310.642 86.32 310.562 86.16C310.482 85.9733 310.228 85.8533 309.802 85.8L307.602 85.52V84.4H315.282V110.64C315.282 111.547 315.322 112.093 315.402 112.28C315.482 112.44 315.735 112.547 316.162 112.6L318.362 112.88ZM302.762 105.48C302.762 107.96 303.068 109.773 303.682 110.92C304.295 112.067 305.135 112.64 306.202 112.64C306.868 112.64 307.562 112.373 308.282 111.84C309.028 111.28 309.828 110.16 310.682 108.48V96.4C309.668 95.3867 308.428 94.88 306.962 94.88C305.495 94.88 304.428 95.5467 303.762 96.88C303.095 98.1867 302.762 99.9867 302.762 102.28V105.48Z" fill="#FFF9EE"/>
</svg>
