<svg width="155" height="104" viewBox="0 0 155 104" fill="none" xmlns="http://www.w3.org/2000/svg">
<path d="M78.8785 70.9014C78.8785 89.1776 93.6944 103.993 111.971 103.993H119.644C119.644 85.7172 104.828 70.9014 86.5519 70.9014H78.8785Z" fill="#6FAF5E"/>
<path d="M76.7328 69.3545C76.7328 31.2647 45.8549 0.386818 7.7651 0.386818L0.719055 0.386818C0.719055 38.4766 31.597 69.3545 69.6867 69.3545H76.7328Z" fill="#6FAF5E"/>
<path d="M78.8785 69.3545C78.8785 31.2647 109.756 0.386818 147.846 0.386818L154.892 0.386818C154.892 38.4766 124.014 69.3545 85.9246 69.3545H78.8785Z" fill="#6FAF5E"/>
<path d="M76.7328 70.9014C76.7328 89.1776 61.917 103.993 43.6407 103.993H35.9674C35.9674 85.7172 50.7832 70.9014 69.0595 70.9014H76.7328Z" fill="#6FAF5E"/>
</svg>
