<svg width="94" height="69" viewBox="0 0 94 69" fill="none" xmlns="http://www.w3.org/2000/svg">
<path d="M47.899 46.5742C47.899 58.6366 57.6775 68.415 69.7398 68.415H72.5081C72.5081 56.3527 62.7297 46.5742 50.6673 46.5742H47.899Z" fill="#FDAEC3"/>
<path d="M46.6035 45.5547C46.6035 20.4154 25.8552 0.0360222 0.71595 0.0360222C0.71595 25.1753 21.4642 45.5547 46.6035 45.5547Z" fill="#FDAEC3"/>
<path d="M47.899 45.5547C47.899 20.4154 68.6473 0.0360222 93.7866 0.0360222C93.7866 25.1753 73.0383 45.5547 47.899 45.5547Z" fill="#FDAEC3"/>
<path d="M46.6035 46.5742C46.6035 58.6366 36.8251 68.415 24.7627 68.415H21.9945C21.9945 56.3527 31.7729 46.5742 43.8353 46.5742H46.6035Z" fill="#FDAEC3"/>
</svg>
