<svg width="593" height="289" viewBox="0 0 593 289" fill="none" xmlns="http://www.w3.org/2000/svg">
<rect x="5" y="5" width="583" height="279" rx="45" fill="#FFF9EE" fill-opacity="0.24" stroke="#526B4B" stroke-width="10"/>
<path d="M117.991 45.982V45.466H120.141C120.973 43.832 121.876 42.327 122.85 40.951C123.854 39.575 124.972 38.3567 126.204 37.296C127.437 36.2067 128.799 35.2893 130.289 34.544C131.809 33.7987 133.5 33.2397 135.363 32.867V32.781C133.471 32.781 131.594 32.7523 129.73 32.695C127.896 32.6377 126.032 32.609 124.14 32.609C122.793 32.609 121.317 32.6663 119.711 32.781C118.106 32.867 116.486 33.039 114.852 33.297C113.218 33.555 111.642 33.899 110.122 34.329C108.632 34.759 107.299 35.3037 106.123 35.963C104.948 36.6223 104.002 37.4107 103.285 38.328C102.597 39.2167 102.253 40.2773 102.253 41.51C102.253 42.3413 102.483 43.058 102.941 43.66C103.4 44.262 103.973 44.7637 104.661 45.165C105.349 45.5377 106.095 45.81 106.897 45.982C107.729 46.154 108.503 46.24 109.219 46.24C110.71 46.24 112.086 46.0537 113.347 45.681C114.609 45.3083 115.684 44.7637 116.572 44.047C117.49 43.3017 118.192 42.413 118.679 41.381C119.195 40.3203 119.453 39.102 119.453 37.726C119.453 37.4107 119.453 37.167 119.453 36.995C119.453 36.823 119.439 36.6653 119.41 36.522H119.926C119.926 36.7513 119.926 36.9663 119.926 37.167C119.955 37.3677 119.969 37.5683 119.969 37.769C119.969 39.231 119.668 40.607 119.066 41.897C118.493 43.1583 117.705 44.262 116.701 45.208C115.698 46.1253 114.537 46.8563 113.218 47.401C111.928 47.9457 110.552 48.218 109.09 48.218C108.202 48.218 107.313 48.089 106.424 47.831C105.564 47.5443 104.776 47.143 104.059 46.627C103.371 46.111 102.812 45.466 102.382 44.692C101.952 43.918 101.737 43.0437 101.737 42.069C101.737 40.435 102.124 39.0877 102.898 38.027C103.701 36.9377 104.69 35.9917 105.865 35.189C107.614 33.985 109.463 33.0247 111.412 32.308C113.39 31.5627 115.411 31.0037 117.475 30.631C119.539 30.2297 121.618 29.9717 123.71 29.857C125.832 29.7137 127.881 29.642 129.859 29.642C131.035 29.642 132.253 29.6707 133.514 29.728C134.776 29.7853 135.98 29.857 137.126 29.943C138.302 30.0003 139.362 30.0577 140.308 30.115C141.283 30.1723 142.071 30.2153 142.673 30.244C143.447 30.2727 143.992 30.4017 144.307 30.631C144.651 30.8603 144.823 31.2617 144.823 31.835C144.823 32.3223 144.537 32.7093 143.963 32.996C143.419 33.2827 142.53 33.426 141.297 33.426C140.409 33.426 139.52 33.3973 138.631 33.34C137.771 33.254 136.883 33.211 135.965 33.211C135.077 33.211 134.231 33.426 133.428 33.856C132.626 34.2573 131.852 34.802 131.106 35.49C130.361 36.178 129.659 36.9663 128.999 37.855C128.369 38.715 127.767 39.6037 127.193 40.521C126.649 41.4097 126.147 42.2983 125.688 43.187C125.23 44.047 124.828 44.8067 124.484 45.466C125.029 45.4087 125.602 45.38 126.204 45.38C126.835 45.3513 127.423 45.2653 127.967 45.122C128.541 44.9787 129.057 44.7493 129.515 44.434C129.974 44.1187 130.318 43.66 130.547 43.058C131.321 43.0007 132.095 42.9577 132.869 42.929C133.672 42.9003 134.46 42.886 135.234 42.886C134.288 43.6027 133.328 44.348 132.353 45.122C131.407 45.8673 130.504 46.67 129.644 47.53C128.784 48.39 127.996 49.3073 127.279 50.282C126.591 51.2567 126.018 52.303 125.559 53.421H125.215C125.674 52.0163 126.219 50.669 126.849 49.379C127.48 48.0603 128.182 46.799 128.956 45.595C128.67 45.6523 128.311 45.7097 127.881 45.767C127.48 45.7957 127.05 45.8243 126.591 45.853C126.161 45.8817 125.731 45.9103 125.301 45.939C124.9 45.9677 124.556 45.982 124.269 45.982C123.123 47.8453 121.933 49.6513 120.7 51.4C119.496 53.1487 118.135 54.6967 116.615 56.044C115.125 57.3627 113.433 58.4233 111.541 59.226C109.649 60.0287 107.456 60.43 104.962 60.43C104.102 60.43 103.156 60.3153 102.124 60.086C101.121 59.8853 100.175 59.5557 99.2864 59.097C98.4264 58.6383 97.6954 58.0363 97.0934 57.291C96.5201 56.5457 96.2334 55.6427 96.2334 54.582C96.2334 53.7793 96.4771 53.077 96.9644 52.475C97.4518 51.8443 98.0824 51.529 98.8564 51.529C99.4871 51.529 100.017 51.7153 100.447 52.088C100.877 52.432 101.092 52.9337 101.092 53.593C101.092 54.023 100.963 54.4387 100.705 54.84C100.447 55.2127 100.046 55.4277 99.5014 55.485C99.5588 56.2877 99.7308 56.9757 100.017 57.549C100.333 58.1223 100.734 58.581 101.221 58.925C101.737 59.269 102.325 59.527 102.984 59.699C103.644 59.8423 104.332 59.914 105.048 59.914C106.969 59.914 108.66 59.4553 110.122 58.538C111.584 57.592 112.889 56.431 114.035 55.055C115.211 53.6503 116.257 52.131 117.174 50.497C118.12 48.863 119.023 47.358 119.883 45.982H117.991ZM148.001 45.122L152.473 44.864C152.215 45.38 151.842 46.0107 151.355 46.756C150.868 47.4727 150.337 48.261 149.764 49.121C149.191 49.9523 148.603 50.8267 148.001 51.744C147.428 52.6327 146.897 53.507 146.41 54.367C145.923 55.1983 145.521 55.9867 145.206 56.732C144.919 57.4487 144.776 58.065 144.776 58.581C144.776 59.2977 145.134 59.656 145.851 59.656C146.539 59.656 147.471 59.2547 148.646 58.452C149.821 57.6493 151.054 56.5887 152.344 55.27C152.889 54.7253 153.433 54.1377 153.978 53.507C154.551 52.8763 155.096 52.26 155.612 51.658C156.128 51.0273 156.601 50.454 157.031 49.938C157.461 49.3933 157.805 48.949 158.063 48.605L158.364 48.777C157.619 49.7803 156.759 50.8983 155.784 52.131C154.809 53.335 153.634 54.625 152.258 56.001C150.882 57.377 149.52 58.5093 148.173 59.398C146.854 60.258 145.536 60.688 144.217 60.688C143.3 60.688 142.583 60.4587 142.067 60C141.58 59.5127 141.336 58.925 141.336 58.237C141.336 58.0077 141.35 57.7927 141.379 57.592C141.408 57.3913 141.451 57.2337 141.508 57.119H141.422C140.533 58.1223 139.53 58.968 138.412 59.656C137.294 60.344 136.09 60.688 134.8 60.688C134.112 60.688 133.524 60.559 133.037 60.301C132.55 60.043 132.148 59.699 131.833 59.269C131.546 58.8103 131.331 58.3087 131.188 57.764C131.045 57.1907 130.973 56.603 130.973 56.001C130.973 54.5963 131.36 53.1917 132.134 51.787C132.908 50.3823 133.883 49.121 135.058 48.003C136.233 46.8563 137.538 45.939 138.971 45.251C140.433 44.5343 141.823 44.176 143.142 44.176C144.145 44.176 144.934 44.391 145.507 44.821C146.08 45.251 146.553 45.9247 146.926 46.842L148.001 45.122ZM135.101 56.13C135.101 56.9613 135.23 57.6923 135.488 58.323C135.775 58.925 136.362 59.226 137.251 59.226C137.853 59.1973 138.484 58.9537 139.143 58.495C139.802 58.0077 140.433 57.4057 141.035 56.689C141.666 55.9723 142.253 55.184 142.798 54.324C143.371 53.4353 143.859 52.5467 144.26 51.658C144.69 50.7693 145.02 49.938 145.249 49.164C145.507 48.3613 145.636 47.6877 145.636 47.143C145.636 46.369 145.493 45.767 145.206 45.337C144.919 44.907 144.36 44.692 143.529 44.692C142.87 44.692 142.196 44.8927 141.508 45.294C140.849 45.6953 140.204 46.2257 139.573 46.885C138.971 47.5443 138.383 48.2897 137.81 49.121C137.265 49.9237 136.792 50.755 136.391 51.615C135.99 52.475 135.674 53.3063 135.445 54.109C135.216 54.883 135.101 55.5567 135.101 56.13ZM163.806 44.864C162.459 46.9853 161.298 48.8057 160.323 50.325C159.348 51.8157 158.546 53.0913 157.915 54.152C157.313 55.2127 156.854 56.087 156.539 56.775C156.252 57.4343 156.109 57.979 156.109 58.409C156.109 58.753 156.166 59.0397 156.281 59.269C156.424 59.4697 156.625 59.57 156.883 59.57C157.456 59.57 158.259 59.2403 159.291 58.581C160.352 57.9217 161.67 56.7893 163.247 55.184C163.878 54.5247 164.494 53.8797 165.096 53.249C165.698 52.5897 166.257 51.959 166.773 51.357C167.318 50.755 167.791 50.2103 168.192 49.723C168.622 49.2357 168.966 48.8487 169.224 48.562L169.611 48.82C169.267 49.2787 168.837 49.809 168.321 50.411C167.834 50.9843 167.303 51.6007 166.73 52.26C166.157 52.8907 165.569 53.5213 164.967 54.152C164.365 54.7827 163.777 55.3847 163.204 55.958C161.541 57.6207 160.108 58.7817 158.904 59.441C157.729 60.1003 156.639 60.43 155.636 60.43C154.69 60.43 153.959 60.172 153.443 59.656C152.927 59.14 152.669 58.4663 152.669 57.635C152.669 57.0617 152.784 56.474 153.013 55.872C153.214 55.2413 153.572 54.4673 154.088 53.55C154.604 52.6327 155.292 51.5003 156.152 50.153C157.012 48.777 158.087 47.0857 159.377 45.079L163.806 44.864ZM166.3 35.318C166.845 35.318 167.318 35.5187 167.719 35.92C168.149 36.3213 168.364 36.7943 168.364 37.339C168.364 37.9123 168.135 38.4427 167.676 38.93C167.217 39.3887 166.701 39.618 166.128 39.618C165.497 39.618 164.953 39.4603 164.494 39.145C164.035 38.801 163.806 38.2993 163.806 37.64C163.806 36.9807 164.05 36.436 164.537 36.006C165.053 35.5473 165.641 35.318 166.3 35.318ZM160.959 60C162.421 57.4773 163.897 54.969 165.388 52.475C166.907 49.981 168.412 47.444 169.903 44.864L174.805 44.692L169.129 52.69L169.215 52.776C170.304 51.4287 171.265 50.3537 172.096 49.551C172.956 48.7197 173.701 48.046 174.332 47.53C174.963 47.014 175.493 46.627 175.923 46.369C176.353 46.0823 176.668 45.8387 176.869 45.638C177.184 45.3227 177.471 45.079 177.729 44.907C178.016 44.7063 178.345 44.563 178.718 44.477C179.091 44.3623 179.535 44.2907 180.051 44.262C180.596 44.2333 181.269 44.2047 182.072 44.176C181.527 44.95 181.026 45.767 180.567 46.627C180.108 47.4583 179.879 48.3613 179.879 49.336C179.879 50.5687 180.495 51.185 181.728 51.185C182.129 51.185 182.516 51.099 182.889 50.927C183.29 50.755 183.663 50.54 184.007 50.282C184.351 50.024 184.681 49.7517 184.996 49.465C185.311 49.1497 185.598 48.863 185.856 48.605L186.028 48.82C185.225 49.8233 184.279 50.6403 183.19 51.271C182.101 51.9017 180.911 52.217 179.621 52.217C178.474 52.217 177.571 51.916 176.912 51.314C176.253 50.712 175.923 49.8233 175.923 48.648C175.923 47.9027 176.138 47.2003 176.568 46.541L176.482 46.455C175.278 47.2577 174.131 48.1893 173.042 49.25C171.953 50.3107 170.935 51.4287 169.989 52.604C169.072 53.7793 168.212 54.9977 167.409 56.259C166.635 57.4917 165.933 58.6957 165.302 59.871L160.959 60ZM173.372 63.397C173.228 63.3683 172.97 63.354 172.598 63.354C171.365 63.354 170.419 63.7983 169.76 64.687C169.072 65.5757 168.728 66.665 168.728 67.955C168.728 69.4743 169.201 70.664 170.147 71.524C171.064 72.384 172.211 72.814 173.587 72.814C175.049 72.814 176.425 72.4987 177.715 71.868C179.005 71.266 180.209 70.449 181.327 69.417C182.445 68.4137 183.491 67.2527 184.466 65.934C185.469 64.644 186.386 63.311 187.218 61.935C188.078 60.559 188.88 59.2117 189.626 57.893C190.371 56.5743 191.059 55.3847 191.69 54.324L191.604 54.238C191.174 54.754 190.629 55.3703 189.97 56.087C189.339 56.775 188.622 57.4487 187.82 58.108C187.017 58.7387 186.171 59.2833 185.283 59.742C184.394 60.2007 183.491 60.43 182.574 60.43C181.628 60.43 180.954 60.1577 180.553 59.613C180.123 59.0683 179.908 58.4233 179.908 57.678C179.908 56.9613 180.108 56.1443 180.51 55.227C180.911 54.3097 181.413 53.3063 182.015 52.217C182.645 51.099 183.348 49.9237 184.122 48.691C184.896 47.4583 185.67 46.1827 186.444 44.864L191.002 44.692C188.594 48.4473 186.716 51.4143 185.369 53.593C184.021 55.7717 183.348 57.3197 183.348 58.237C183.348 58.581 183.448 58.8677 183.649 59.097C183.878 59.2977 184.15 59.398 184.466 59.398C184.982 59.398 185.641 59.14 186.444 58.624C187.246 58.0793 188.092 57.3627 188.981 56.474C189.898 55.5853 190.815 54.5677 191.733 53.421C192.65 52.2457 193.481 51.0417 194.227 49.809C194.857 48.777 195.416 47.831 195.904 46.971C196.391 46.111 196.749 45.4087 196.979 44.864L201.193 44.692C199.645 47.358 198.14 50.024 196.678 52.69C195.244 55.3273 193.739 57.9503 192.163 60.559C193.539 60.1577 194.9 59.5413 196.248 58.71C197.595 57.85 198.885 56.861 200.118 55.743C201.379 54.625 202.54 53.4353 203.601 52.174C204.69 50.9127 205.665 49.68 206.525 48.476L206.869 48.777C205.894 50.1817 204.819 51.5577 203.644 52.905C202.468 54.2237 201.221 55.442 199.903 56.56C198.613 57.6493 197.28 58.5953 195.904 59.398C194.528 60.2007 193.152 60.774 191.776 61.118C190.744 62.8667 189.583 64.4863 188.293 65.977C187.003 67.4677 185.584 68.7577 184.036 69.847C182.488 70.9363 180.811 71.782 179.005 72.384C177.199 73.0147 175.264 73.33 173.2 73.33C172.168 73.33 171.164 73.2297 170.19 73.029C169.215 72.857 168.355 72.5417 167.61 72.083C166.864 71.653 166.262 71.0653 165.804 70.32C165.345 69.6033 165.116 68.7147 165.116 67.654C165.116 66.794 165.302 66.063 165.675 65.461C166.019 64.859 166.492 64.3573 167.094 63.956C167.667 63.5833 168.341 63.2967 169.115 63.096C169.86 62.924 170.634 62.838 171.437 62.838C171.781 62.838 172.139 62.8523 172.512 62.881C172.856 62.9097 173.142 62.9527 173.372 63.01V63.397ZM223.597 60.559C221.791 60.559 220.228 60.1433 218.91 59.312C217.591 58.4807 216.573 57.377 215.857 56.001C215.14 54.5963 214.782 53.0913 214.782 51.486C214.782 49.9953 215.068 48.7053 215.642 47.616C216.215 46.5267 216.975 45.638 217.921 44.95C218.867 44.2333 219.899 43.703 221.017 43.359C222.135 43.015 223.238 42.843 224.328 42.843C226.162 42.843 227.725 43.273 229.015 44.133C230.333 44.993 231.337 46.0967 232.025 47.444C232.713 48.7913 233.057 50.2247 233.057 51.744C233.057 53.4927 232.612 55.0407 231.724 56.388C230.864 57.7067 229.717 58.7387 228.284 59.484C226.85 60.2007 225.288 60.559 223.597 60.559ZM224.887 59.656C226.033 59.656 226.893 59.097 227.467 57.979C228.04 56.861 228.327 55.2843 228.327 53.249C228.327 51.1563 228.054 49.4077 227.51 48.003C226.994 46.5983 226.32 45.5377 225.489 44.821C224.657 44.1043 223.783 43.746 222.866 43.746C221.748 43.746 220.888 44.2477 220.286 45.251C219.712 46.2543 219.426 47.8023 219.426 49.895C219.426 51.8443 219.669 53.5643 220.157 55.055C220.644 56.517 221.303 57.6493 222.135 58.452C222.966 59.2547 223.883 59.656 224.887 59.656ZM244.033 60.559C242.542 60.559 241.152 60.215 239.862 59.527C238.601 58.8103 237.583 57.6923 236.809 56.173C236.064 54.6537 235.691 52.69 235.691 50.282C235.691 46.6413 236.092 43.6887 236.895 41.424C237.698 39.1307 238.844 37.3533 240.335 36.092C241.826 34.802 243.589 33.856 245.624 33.254C246.57 32.9673 247.43 32.6807 248.204 32.394C248.978 32.0787 249.666 31.6487 250.268 31.104C250.899 30.5593 251.429 29.7997 251.859 28.825C251.888 28.739 251.974 28.7103 252.117 28.739C252.26 28.7677 252.318 28.825 252.289 28.911C252.06 30.459 251.773 31.7203 251.429 32.695C251.114 33.641 250.698 34.4007 250.182 34.974C249.695 35.5473 249.078 36.0203 248.333 36.393C247.588 36.737 246.685 37.081 245.624 37.425C244.391 37.7977 243.23 38.285 242.141 38.887C241.052 39.489 240.077 40.3203 239.217 41.381C238.386 42.4417 237.726 43.8463 237.239 45.595C236.78 47.315 236.551 49.508 236.551 52.174L236.164 50.454C236.709 48.7053 237.397 47.3437 238.228 46.369C239.088 45.3943 239.948 44.7063 240.808 44.305C241.697 43.875 242.471 43.617 243.13 43.531C243.818 43.4163 244.291 43.359 244.549 43.359C246.269 43.359 247.702 43.617 248.849 44.133C250.024 44.6203 250.956 45.2797 251.644 46.111C252.361 46.9423 252.862 47.8453 253.149 48.82C253.464 49.766 253.622 50.6977 253.622 51.615C253.622 53.4783 253.163 55.0837 252.246 56.431C251.357 57.7497 250.182 58.7673 248.72 59.484C247.287 60.2007 245.724 60.559 244.033 60.559ZM245.71 59.656C246.799 59.656 247.645 59.097 248.247 57.979C248.849 56.861 249.15 55.1983 249.15 52.991C249.15 51.0417 248.906 49.422 248.419 48.132C247.932 46.8133 247.301 45.8387 246.527 45.208C245.753 44.5487 244.907 44.219 243.99 44.219C243.073 44.219 242.342 44.5487 241.797 45.208C241.281 45.8387 240.908 46.6557 240.679 47.659C240.478 48.6337 240.378 49.6657 240.378 50.755C240.378 52.4463 240.593 53.9657 241.023 55.313C241.453 56.6603 242.069 57.721 242.872 58.495C243.675 59.269 244.621 59.656 245.71 59.656ZM257.301 60.387C255.782 60.387 255.022 59.7277 255.022 58.409C255.022 57.6923 255.223 57.205 255.624 56.947C256.054 56.689 256.498 56.56 256.957 56.56C257.272 56.56 257.53 56.603 257.731 56.689C257.932 56.7463 258.147 56.775 258.376 56.775C259.007 56.775 259.566 56.431 260.053 55.743C260.54 55.0263 260.942 54.1377 261.257 53.077C261.572 52.0163 261.816 50.8983 261.988 49.723C262.16 48.5477 262.246 47.487 262.246 46.541C262.246 45.4517 262.017 44.7207 261.558 44.348C261.099 43.9753 260.368 43.789 259.365 43.789C259.279 43.789 259.236 43.7173 259.236 43.574C259.236 43.402 259.279 43.316 259.365 43.316C259.594 43.316 260.024 43.3303 260.655 43.359C261.314 43.359 262.031 43.359 262.805 43.359C263.579 43.359 264.281 43.3733 264.912 43.402C265.571 43.402 266.03 43.402 266.288 43.402H273.942C274.028 43.402 274.071 43.488 274.071 43.66C274.071 43.832 274.028 43.918 273.942 43.918C273.283 43.918 272.781 44.004 272.437 44.176C272.122 44.348 271.907 44.649 271.792 45.079C271.677 45.509 271.62 46.1397 271.62 46.971V56.517C271.62 57.3483 271.677 57.979 271.792 58.409C271.907 58.839 272.122 59.1257 272.437 59.269C272.781 59.4123 273.283 59.484 273.942 59.484C274.028 59.484 274.071 59.57 274.071 59.742C274.071 59.914 274.028 60 273.942 60C273.34 60 272.666 59.9857 271.921 59.957C271.204 59.9283 270.459 59.914 269.685 59.914C268.882 59.914 268.094 59.9283 267.32 59.957C266.546 59.9857 265.858 60 265.256 60C265.17 60 265.127 59.914 265.127 59.742C265.127 59.57 265.17 59.484 265.256 59.484C265.944 59.484 266.446 59.4123 266.761 59.269C267.105 59.1257 267.334 58.839 267.449 58.409C267.564 57.979 267.621 57.3483 267.621 56.517V46.885C267.621 45.9963 267.607 45.38 267.578 45.036C267.549 44.6633 267.435 44.434 267.234 44.348C267.062 44.262 266.761 44.219 266.331 44.219H265.815C265.041 44.219 264.482 44.2763 264.138 44.391C263.823 44.5057 263.622 44.7493 263.536 45.122C263.479 45.466 263.407 46.0107 263.321 46.756C263.235 47.53 263.149 48.4903 263.063 49.637C262.977 50.7837 262.819 51.9877 262.59 53.249C262.389 54.4817 262.074 55.6427 261.644 56.732C261.243 57.7927 260.684 58.667 259.967 59.355C259.279 60.043 258.39 60.387 257.301 60.387ZM289.019 60.258C288.905 60.3153 288.761 60.344 288.589 60.344C288.073 60.344 287.557 60 287.041 59.312C286.525 58.624 286.267 57.635 286.267 56.345V49.035C286.267 47.917 286.196 46.9853 286.052 46.24C285.909 45.4947 285.68 44.9357 285.364 44.563C285.049 44.1903 284.619 44.004 284.074 44.004C283.644 44.004 283.257 44.1187 282.913 44.348C282.569 44.5487 282.297 44.8927 282.096 45.38C281.896 45.8387 281.767 46.4837 281.709 47.315C281.623 48.1463 281.365 48.7627 280.935 49.164C280.505 49.5367 279.918 49.723 279.172 49.723C278.456 49.723 277.94 49.5653 277.624 49.25C277.309 48.9347 277.151 48.5047 277.151 47.96C277.151 47.3293 277.452 46.7273 278.054 46.154C278.656 45.552 279.402 45.0217 280.29 44.563C281.208 44.0757 282.154 43.703 283.128 43.445C284.103 43.1583 284.977 43.015 285.751 43.015C287.013 43.015 288.088 43.402 288.976 44.176C289.865 44.9213 290.309 46.111 290.309 47.745V55.356C290.309 56.1873 290.453 56.8323 290.739 57.291C291.055 57.7497 291.485 57.979 292.029 57.979C292.431 57.979 292.846 57.8787 293.276 57.678C293.391 57.6207 293.477 57.678 293.534 57.85C293.62 57.9933 293.592 58.0937 293.448 58.151L289.019 60.258ZM279.989 60.301C279.101 60.301 278.384 60.0717 277.839 59.613C277.295 59.1257 277.022 58.4377 277.022 57.549C277.022 56.517 277.409 55.786 278.183 55.356C278.986 54.8973 280.219 54.3957 281.881 53.851L286.697 52.303L286.869 52.948L283.902 54.023C283.128 54.3097 282.569 54.625 282.225 54.969C281.91 55.313 281.752 55.7287 281.752 56.216C281.752 56.818 281.924 57.291 282.268 57.635C282.612 57.979 283.042 58.151 283.558 58.151C283.788 58.151 284.089 58.108 284.461 58.022C284.863 57.9073 285.293 57.7497 285.751 57.549L288.116 56.259L288.159 56.99L284.461 59.011C283.745 59.3837 282.985 59.699 282.182 59.957C281.38 60.1863 280.649 60.301 279.989 60.301ZM294.046 66.02C294.046 64.5867 294.003 63.5117 293.917 62.795C293.86 62.0783 293.788 61.4907 293.702 61.032C293.645 60.5733 293.616 60.0573 293.616 59.484C293.616 59.2547 293.645 59.1113 293.702 59.054C293.759 58.968 293.888 58.925 294.089 58.925C295.694 58.925 296.97 57.979 297.916 56.087C298.862 54.195 299.693 51.5433 300.41 48.132C300.668 46.8707 300.754 45.939 300.668 45.337C300.582 44.7063 300.281 44.2907 299.765 44.09C299.278 43.8893 298.561 43.789 297.615 43.789C297.558 43.789 297.529 43.7173 297.529 43.574C297.529 43.402 297.558 43.316 297.615 43.316C298.16 43.316 298.704 43.3303 299.249 43.359C299.822 43.359 300.353 43.359 300.84 43.359C301.356 43.359 301.8 43.3733 302.173 43.402C302.574 43.402 302.875 43.402 303.076 43.402H312.665C312.722 43.402 312.751 43.488 312.751 43.66C312.751 43.832 312.722 43.918 312.665 43.918C312.006 43.918 311.504 44.004 311.16 44.176C310.845 44.348 310.63 44.649 310.515 45.079C310.4 45.509 310.343 46.1397 310.343 46.971V56.517C310.343 57.3197 310.372 57.893 310.429 58.237C310.486 58.581 310.701 58.796 311.074 58.882C311.447 58.968 312.092 59.011 313.009 59.011C313.238 59.011 313.382 59.0397 313.439 59.097C313.496 59.1257 313.525 59.2547 313.525 59.484C313.525 59.9713 313.482 60.473 313.396 60.989C313.339 61.5337 313.267 62.193 313.181 62.967C313.095 63.7697 313.052 64.7873 313.052 66.02C313.052 66.1347 312.966 66.192 312.794 66.192C312.651 66.192 312.579 66.1347 312.579 66.02C312.579 64.042 312.106 62.537 311.16 61.505C310.214 60.473 308.852 59.957 307.075 59.957H299.98C298.203 59.957 296.855 60.473 295.938 61.505C295.021 62.537 294.562 64.042 294.562 66.02C294.562 66.1347 294.476 66.192 294.304 66.192C294.132 66.192 294.046 66.1347 294.046 66.02ZM295.508 59.828L296.325 58.882H302.388C303.621 58.882 304.509 58.8677 305.054 58.839C305.599 58.7817 305.943 58.5953 306.086 58.28C306.258 57.936 306.344 57.3483 306.344 56.517V46.885C306.344 45.939 306.315 45.294 306.258 44.95C306.229 44.5773 306.086 44.3623 305.828 44.305C305.599 44.2477 305.183 44.219 304.581 44.219H303.506C303.219 44.219 302.976 44.262 302.775 44.348C302.574 44.4053 302.388 44.649 302.216 45.079C302.073 45.4803 301.886 46.2113 301.657 47.272C301.284 49.1067 300.912 50.7263 300.539 52.131C300.166 53.507 299.751 54.711 299.292 55.743C298.833 56.7463 298.289 57.592 297.658 58.28C297.056 58.9393 296.339 59.4553 295.508 59.828ZM328.072 60.258C327.957 60.3153 327.814 60.344 327.642 60.344C327.126 60.344 326.61 60 326.094 59.312C325.578 58.624 325.32 57.635 325.32 56.345V49.035C325.32 47.917 325.248 46.9853 325.105 46.24C324.962 45.4947 324.732 44.9357 324.417 44.563C324.102 44.1903 323.672 44.004 323.127 44.004C322.697 44.004 322.31 44.1187 321.966 44.348C321.622 44.5487 321.35 44.8927 321.149 45.38C320.948 45.8387 320.819 46.4837 320.762 47.315C320.676 48.1463 320.418 48.7627 319.988 49.164C319.558 49.5367 318.97 49.723 318.225 49.723C317.508 49.723 316.992 49.5653 316.677 49.25C316.362 48.9347 316.204 48.5047 316.204 47.96C316.204 47.3293 316.505 46.7273 317.107 46.154C317.709 45.552 318.454 45.0217 319.343 44.563C320.26 44.0757 321.206 43.703 322.181 43.445C323.156 43.1583 324.03 43.015 324.804 43.015C326.065 43.015 327.14 43.402 328.029 44.176C328.918 44.9213 329.362 46.111 329.362 47.745V55.356C329.362 56.1873 329.505 56.8323 329.792 57.291C330.107 57.7497 330.537 57.979 331.082 57.979C331.483 57.979 331.899 57.8787 332.329 57.678C332.444 57.6207 332.53 57.678 332.587 57.85C332.673 57.9933 332.644 58.0937 332.501 58.151L328.072 60.258ZM319.042 60.301C318.153 60.301 317.437 60.0717 316.892 59.613C316.347 59.1257 316.075 58.4377 316.075 57.549C316.075 56.517 316.462 55.786 317.236 55.356C318.039 54.8973 319.271 54.3957 320.934 53.851L325.75 52.303L325.922 52.948L322.955 54.023C322.181 54.3097 321.622 54.625 321.278 54.969C320.963 55.313 320.805 55.7287 320.805 56.216C320.805 56.818 320.977 57.291 321.321 57.635C321.665 57.979 322.095 58.151 322.611 58.151C322.84 58.151 323.141 58.108 323.514 58.022C323.915 57.9073 324.345 57.7497 324.804 57.549L327.169 56.259L327.212 56.99L323.514 59.011C322.797 59.3837 322.038 59.699 321.235 59.957C320.432 60.1863 319.701 60.301 319.042 60.301ZM342.559 60.516C340.695 60.516 339.104 60.129 337.786 59.355C336.496 58.581 335.507 57.5633 334.819 56.302C334.159 55.012 333.83 53.6503 333.83 52.217C333.83 50.5257 334.26 48.992 335.12 47.616C335.98 46.2113 337.141 45.0933 338.603 44.262C340.093 43.4307 341.77 43.015 343.634 43.015C345.411 43.015 346.773 43.402 347.719 44.176C348.665 44.9213 349.138 45.9533 349.138 47.272C349.138 47.5873 349.109 47.874 349.052 48.132C348.994 48.39 348.865 48.519 348.665 48.519H344.537C344.594 47.1717 344.436 46.068 344.064 45.208C343.691 44.3193 343.017 43.875 342.043 43.875C340.896 43.875 339.964 44.477 339.248 45.681C338.531 46.8563 338.173 48.433 338.173 50.411C338.173 52.0163 338.431 53.421 338.947 54.625C339.463 55.829 340.208 56.7607 341.183 57.42C342.157 58.0793 343.333 58.409 344.709 58.409C345.397 58.409 346.128 58.3087 346.902 58.108C347.704 57.9073 348.421 57.6063 349.052 57.205C349.109 57.1477 349.181 57.1763 349.267 57.291C349.381 57.4057 349.41 57.506 349.353 57.592C348.292 58.6527 347.203 59.4123 346.085 59.871C344.995 60.301 343.82 60.516 342.559 60.516ZM336.668 48.605L336.625 47.788L346.042 47.573V48.519L336.668 48.605ZM355.027 60C354.941 60 354.898 59.914 354.898 59.742C354.898 59.57 354.941 59.484 355.027 59.484C356.031 59.484 356.676 59.2977 356.962 58.925C357.249 58.5523 357.392 57.7497 357.392 56.517V46.971C357.392 45.9677 357.321 45.2797 357.177 44.907C357.034 44.5343 356.719 44.348 356.231 44.348C355.285 44.348 354.497 44.7063 353.866 45.423C353.236 46.111 352.634 47.2863 352.06 48.949C352.032 49.035 351.931 49.078 351.759 49.078C351.616 49.078 351.544 49.035 351.544 48.949C351.544 48.5477 351.544 47.9457 351.544 47.143C351.544 46.3403 351.53 45.509 351.501 44.649C351.501 43.789 351.501 43.101 351.501 42.585C351.501 42.4417 351.587 42.37 351.759 42.37C351.931 42.37 352.017 42.4417 352.017 42.585C352.017 42.9577 352.591 43.2013 353.737 43.316C354.913 43.402 356.848 43.445 359.542 43.445C361.176 43.445 362.524 43.4307 363.584 43.402C364.645 43.3447 365.433 43.2587 365.949 43.144C366.465 43.0293 366.723 42.843 366.723 42.585C366.723 42.4417 366.809 42.37 366.981 42.37C367.153 42.37 367.239 42.4417 367.239 42.585C367.239 43.101 367.239 43.789 367.239 44.649C367.239 45.509 367.225 46.3403 367.196 47.143C367.196 47.9457 367.196 48.5477 367.196 48.949C367.196 49.035 367.11 49.078 366.938 49.078C366.795 49.078 366.709 49.035 366.68 48.949C366.136 47.2863 365.534 46.111 364.874 45.423C364.244 44.7063 363.47 44.348 362.552 44.348C362.094 44.348 361.778 44.5343 361.606 44.907C361.463 45.2797 361.391 45.9677 361.391 46.971V56.517C361.391 57.7497 361.535 58.5523 361.821 58.925C362.108 59.2977 362.739 59.484 363.713 59.484C363.799 59.484 363.842 59.57 363.842 59.742C363.842 59.914 363.799 60 363.713 60C363.111 60 362.438 59.9857 361.692 59.957C360.976 59.9283 360.23 59.914 359.456 59.914C358.654 59.914 357.865 59.9283 357.091 59.957C356.346 59.9857 355.658 60 355.027 60ZM382.048 55.528L382.65 44.348L383.51 44.477L382.908 55.528C382.851 56.8467 383.066 57.8357 383.553 58.495C384.04 59.1543 384.728 59.484 385.617 59.484C385.703 59.484 385.746 59.57 385.746 59.742C385.746 59.914 385.703 60 385.617 60C385.158 60 384.671 59.9857 384.155 59.957C383.639 59.9283 383.08 59.914 382.478 59.914C381.905 59.914 381.331 59.9283 380.758 59.957C380.213 59.9857 379.697 60 379.21 60C379.124 60 379.081 59.914 379.081 59.742C379.081 59.57 379.124 59.484 379.21 59.484C380.127 59.484 380.815 59.1543 381.274 58.495C381.733 57.8357 381.991 56.8467 382.048 55.528ZM402.129 59.484C402.215 59.484 402.258 59.57 402.258 59.742C402.258 59.914 402.215 60 402.129 60C401.527 60 400.839 59.9857 400.065 59.957C399.291 59.9283 398.531 59.914 397.786 59.914C397.012 59.914 396.31 59.9283 395.679 59.957C395.077 59.9857 394.489 60 393.916 60C393.859 60 393.83 59.914 393.83 59.742C393.83 59.57 393.859 59.484 393.916 59.484C394.719 59.484 395.249 59.2977 395.507 58.925C395.765 58.5523 395.851 57.7497 395.765 56.517L394.948 46.24L395.98 43.918L390.003 59.011C389.974 59.097 389.874 59.14 389.702 59.14C389.53 59.14 389.415 59.097 389.358 59.011L383.424 46.971C382.793 45.681 382.22 44.8497 381.704 44.477C381.217 44.1043 380.629 43.918 379.941 43.918C379.884 43.918 379.855 43.832 379.855 43.66C379.855 43.488 379.884 43.402 379.941 43.402C380.543 43.402 381.059 43.4163 381.489 43.445C381.919 43.445 382.263 43.445 382.521 43.445C382.922 43.445 383.295 43.445 383.639 43.445C383.983 43.4163 384.241 43.402 384.413 43.402C385.015 43.402 385.502 43.5167 385.875 43.746C386.248 43.9753 386.692 44.5917 387.208 45.595L391.508 54.453L389.659 57.807L394.905 44.477C395.02 44.133 395.192 43.875 395.421 43.703C395.679 43.5023 395.937 43.402 396.195 43.402C396.367 43.402 396.711 43.4163 397.227 43.445C397.743 43.445 398.245 43.445 398.732 43.445C399.334 43.445 399.836 43.445 400.237 43.445C400.638 43.4163 401.054 43.402 401.484 43.402C401.541 43.402 401.57 43.488 401.57 43.66C401.57 43.832 401.541 43.918 401.484 43.918C400.624 43.918 399.965 44.09 399.506 44.434C399.047 44.778 398.861 45.552 398.947 46.756L399.764 56.517C399.85 57.3483 399.936 57.979 400.022 58.409C400.137 58.839 400.352 59.1257 400.667 59.269C400.982 59.4123 401.47 59.484 402.129 59.484ZM416.801 60.258C416.687 60.3153 416.543 60.344 416.371 60.344C415.855 60.344 415.339 60 414.823 59.312C414.307 58.624 414.049 57.635 414.049 56.345V49.035C414.049 47.917 413.978 46.9853 413.834 46.24C413.691 45.4947 413.462 44.9357 413.146 44.563C412.831 44.1903 412.401 44.004 411.856 44.004C411.426 44.004 411.039 44.1187 410.695 44.348C410.351 44.5487 410.079 44.8927 409.878 45.38C409.678 45.8387 409.549 46.4837 409.491 47.315C409.405 48.1463 409.147 48.7627 408.717 49.164C408.287 49.5367 407.7 49.723 406.954 49.723C406.238 49.723 405.722 49.5653 405.406 49.25C405.091 48.9347 404.933 48.5047 404.933 47.96C404.933 47.3293 405.234 46.7273 405.836 46.154C406.438 45.552 407.184 45.0217 408.072 44.563C408.99 44.0757 409.936 43.703 410.91 43.445C411.885 43.1583 412.759 43.015 413.533 43.015C414.795 43.015 415.87 43.402 416.758 44.176C417.647 44.9213 418.091 46.111 418.091 47.745V55.356C418.091 56.1873 418.235 56.8323 418.521 57.291C418.837 57.7497 419.267 57.979 419.811 57.979C420.213 57.979 420.628 57.8787 421.058 57.678C421.173 57.6207 421.259 57.678 421.316 57.85C421.402 57.9933 421.374 58.0937 421.23 58.151L416.801 60.258ZM407.771 60.301C406.883 60.301 406.166 60.0717 405.621 59.613C405.077 59.1257 404.804 58.4377 404.804 57.549C404.804 56.517 405.191 55.786 405.965 55.356C406.768 54.8973 408.001 54.3957 409.663 53.851L414.479 52.303L414.651 52.948L411.684 54.023C410.91 54.3097 410.351 54.625 410.007 54.969C409.692 55.313 409.534 55.7287 409.534 56.216C409.534 56.818 409.706 57.291 410.05 57.635C410.394 57.979 410.824 58.151 411.34 58.151C411.57 58.151 411.871 58.108 412.243 58.022C412.645 57.9073 413.075 57.7497 413.533 57.549L415.898 56.259L415.941 56.99L412.243 59.011C411.527 59.3837 410.767 59.699 409.964 59.957C409.162 60.1863 408.431 60.301 407.771 60.301ZM435.803 43.402C436.004 43.402 436.118 43.4307 436.147 43.488C436.176 43.5167 436.19 43.617 436.19 43.789C436.161 44.649 436.118 45.595 436.061 46.627C436.004 47.6303 435.975 48.4187 435.975 48.992C435.975 49.0493 435.889 49.078 435.717 49.078C435.574 49.078 435.488 49.0493 435.459 48.992C434.886 47.2433 434.169 46.0107 433.309 45.294C432.449 44.5487 431.56 44.176 430.643 44.176C429.955 44.176 429.496 44.391 429.267 44.821C429.038 45.251 428.923 45.9677 428.923 46.971V56.517C428.923 57.7497 429.066 58.5523 429.353 58.925C429.64 59.2977 430.27 59.484 431.245 59.484C431.302 59.484 431.331 59.57 431.331 59.742C431.331 59.914 431.302 60 431.245 60C430.643 60 429.969 59.9857 429.224 59.957C428.507 59.9283 427.762 59.914 426.988 59.914C426.185 59.914 425.397 59.9283 424.623 59.957C423.878 59.9857 423.19 60 422.559 60C422.473 60 422.43 59.914 422.43 59.742C422.43 59.57 422.473 59.484 422.559 59.484C423.562 59.484 424.207 59.2977 424.494 58.925C424.781 58.5523 424.924 57.7497 424.924 56.517V46.885C424.924 45.6237 424.781 44.821 424.494 44.477C424.207 44.1043 423.577 43.918 422.602 43.918C422.516 43.918 422.473 43.832 422.473 43.66C422.473 43.488 422.516 43.402 422.602 43.402H435.803ZM442.813 58.452L442.039 57.678L453.692 46.025L454.466 46.756L442.813 58.452ZM441.007 56.517V46.885C441.007 45.6237 440.864 44.821 440.577 44.477C440.29 44.1043 439.66 43.918 438.685 43.918C438.599 43.918 438.556 43.832 438.556 43.66C438.556 43.488 438.599 43.402 438.685 43.402C439.287 43.402 439.961 43.4163 440.706 43.445C441.48 43.4737 442.268 43.488 443.071 43.488C443.845 43.488 444.605 43.4737 445.35 43.445C446.095 43.4163 446.755 43.402 447.328 43.402C447.385 43.402 447.414 43.488 447.414 43.66C447.414 43.832 447.385 43.918 447.328 43.918C446.353 43.918 445.723 44.1187 445.436 44.52C445.149 44.9213 445.006 45.7383 445.006 46.971V56.517C445.006 57.7497 445.149 58.5523 445.436 58.925C445.723 59.2977 446.353 59.484 447.328 59.484C447.385 59.484 447.414 59.57 447.414 59.742C447.414 59.914 447.385 60 447.328 60C446.726 60 446.052 59.9857 445.307 59.957C444.59 59.9283 443.845 59.914 443.071 59.914C442.268 59.914 441.48 59.9283 440.706 59.957C439.961 59.9857 439.273 60 438.642 60C438.556 60 438.513 59.914 438.513 59.742C438.513 59.57 438.556 59.484 438.642 59.484C439.645 59.484 440.29 59.2977 440.577 58.925C440.864 58.5523 441.007 57.7497 441.007 56.517ZM452.574 56.517V46.885C452.574 45.6237 452.431 44.821 452.144 44.477C451.857 44.1043 451.227 43.918 450.252 43.918C450.166 43.918 450.123 43.832 450.123 43.66C450.123 43.488 450.166 43.402 450.252 43.402C450.854 43.402 451.528 43.4163 452.273 43.445C453.047 43.4737 453.835 43.488 454.638 43.488C455.412 43.488 456.172 43.4737 456.917 43.445C457.662 43.4163 458.322 43.402 458.895 43.402C458.952 43.402 458.981 43.488 458.981 43.66C458.981 43.832 458.952 43.918 458.895 43.918C457.92 43.918 457.29 44.1187 457.003 44.52C456.716 44.9213 456.573 45.7383 456.573 46.971V56.517C456.573 57.7497 456.716 58.5523 457.003 58.925C457.29 59.2977 457.92 59.484 458.895 59.484C458.952 59.484 458.981 59.57 458.981 59.742C458.981 59.914 458.952 60 458.895 60C458.293 60 457.619 59.9857 456.874 59.957C456.157 59.9283 455.412 59.914 454.638 59.914C453.835 59.914 453.047 59.9283 452.273 59.957C451.499 59.9857 450.811 60 450.209 60C450.123 60 450.08 59.914 450.08 59.742C450.08 59.57 450.123 59.484 450.209 59.484C451.212 59.484 451.857 59.2977 452.144 58.925C452.431 58.5523 452.574 57.7497 452.574 56.517ZM470.383 60.516C468.519 60.516 466.928 60.129 465.61 59.355C464.32 58.581 463.331 57.5633 462.643 56.302C461.983 55.012 461.654 53.6503 461.654 52.217C461.654 50.5257 462.084 48.992 462.944 47.616C463.804 46.2113 464.965 45.0933 466.427 44.262C467.917 43.4307 469.594 43.015 471.458 43.015C473.235 43.015 474.597 43.402 475.543 44.176C476.489 44.9213 476.962 45.9533 476.962 47.272C476.962 47.5873 476.933 47.874 476.876 48.132C476.818 48.39 476.689 48.519 476.489 48.519H472.361C472.418 47.1717 472.26 46.068 471.888 45.208C471.515 44.3193 470.841 43.875 469.867 43.875C468.72 43.875 467.788 44.477 467.072 45.681C466.355 46.8563 465.997 48.433 465.997 50.411C465.997 52.0163 466.255 53.421 466.771 54.625C467.287 55.829 468.032 56.7607 469.007 57.42C469.981 58.0793 471.157 58.409 472.533 58.409C473.221 58.409 473.952 58.3087 474.726 58.108C475.528 57.9073 476.245 57.6063 476.876 57.205C476.933 57.1477 477.005 57.1763 477.091 57.291C477.205 57.4057 477.234 57.506 477.177 57.592C476.116 58.6527 475.027 59.4123 473.909 59.871C472.819 60.301 471.644 60.516 470.383 60.516ZM464.492 48.605L464.449 47.788L473.866 47.573V48.519L464.492 48.605ZM483.797 58.452L483.023 57.678L494.676 46.025L495.45 46.756L483.797 58.452ZM481.991 56.517V46.885C481.991 45.6237 481.848 44.821 481.561 44.477C481.275 44.1043 480.644 43.918 479.669 43.918C479.583 43.918 479.54 43.832 479.54 43.66C479.54 43.488 479.583 43.402 479.669 43.402C480.271 43.402 480.945 43.4163 481.69 43.445C482.464 43.4737 483.253 43.488 484.055 43.488C484.829 43.488 485.589 43.4737 486.334 43.445C487.08 43.4163 487.739 43.402 488.312 43.402C488.37 43.402 488.398 43.488 488.398 43.66C488.398 43.832 488.37 43.918 488.312 43.918C487.338 43.918 486.707 44.1187 486.42 44.52C486.134 44.9213 485.99 45.7383 485.99 46.971V56.517C485.99 57.7497 486.134 58.5523 486.42 58.925C486.707 59.2977 487.338 59.484 488.312 59.484C488.37 59.484 488.398 59.57 488.398 59.742C488.398 59.914 488.37 60 488.312 60C487.71 60 487.037 59.9857 486.291 59.957C485.575 59.9283 484.829 59.914 484.055 59.914C483.253 59.914 482.464 59.9283 481.69 59.957C480.945 59.9857 480.257 60 479.626 60C479.54 60 479.497 59.914 479.497 59.742C479.497 59.57 479.54 59.484 479.626 59.484C480.63 59.484 481.275 59.2977 481.561 58.925C481.848 58.5523 481.991 57.7497 481.991 56.517ZM493.558 56.517V46.885C493.558 45.6237 493.415 44.821 493.128 44.477C492.842 44.1043 492.211 43.918 491.236 43.918C491.15 43.918 491.107 43.832 491.107 43.66C491.107 43.488 491.15 43.402 491.236 43.402C491.838 43.402 492.512 43.4163 493.257 43.445C494.031 43.4737 494.82 43.488 495.622 43.488C496.396 43.488 497.156 43.4737 497.901 43.445C498.647 43.4163 499.306 43.402 499.879 43.402C499.937 43.402 499.965 43.488 499.965 43.66C499.965 43.832 499.937 43.918 499.879 43.918C498.905 43.918 498.274 44.1187 497.987 44.52C497.701 44.9213 497.557 45.7383 497.557 46.971V56.517C497.557 57.7497 497.701 58.5523 497.987 58.925C498.274 59.2977 498.905 59.484 499.879 59.484C499.937 59.484 499.965 59.57 499.965 59.742C499.965 59.914 499.937 60 499.879 60C499.277 60 498.604 59.9857 497.858 59.957C497.142 59.9283 496.396 59.914 495.622 59.914C494.82 59.914 494.031 59.9283 493.257 59.957C492.483 59.9857 491.795 60 491.193 60C491.107 60 491.064 59.914 491.064 59.742C491.064 59.57 491.107 59.484 491.193 59.484C492.197 59.484 492.842 59.2977 493.128 58.925C493.415 58.5523 493.558 57.7497 493.558 56.517ZM489.731 39.145C490.677 39.145 491.308 38.887 491.623 38.371C491.967 37.855 492.197 37.2673 492.311 36.608C492.455 35.9773 492.627 35.404 492.827 34.888C493.057 34.372 493.558 34.114 494.332 34.114C494.906 34.114 495.35 34.2717 495.665 34.587C495.981 34.9023 496.138 35.3037 496.138 35.791C496.138 36.5363 495.837 37.2243 495.235 37.855C494.633 38.457 493.845 38.9443 492.87 39.317C491.924 39.661 490.892 39.833 489.774 39.833C488.656 39.833 487.61 39.6467 486.635 39.274C485.661 38.9013 484.872 38.414 484.27 37.812C483.668 37.1813 483.367 36.5077 483.367 35.791C483.367 35.3037 483.525 34.9023 483.84 34.587C484.156 34.2717 484.614 34.114 485.216 34.114C486.076 34.114 486.621 34.4007 486.85 34.974C487.08 35.5187 487.252 36.1207 487.366 36.78C487.424 37.1527 487.51 37.5253 487.624 37.898C487.739 38.2707 487.954 38.5717 488.269 38.801C488.613 39.0303 489.101 39.145 489.731 39.145ZM505.777 60.473C504.975 60.473 504.33 60.2437 503.842 59.785C503.384 59.2977 503.154 58.6527 503.154 57.85C503.154 57.1047 503.384 56.5027 503.842 56.044C504.33 55.5853 504.975 55.356 505.777 55.356C506.609 55.356 507.239 55.5853 507.669 56.044C508.099 56.5027 508.314 57.1047 508.314 57.85C508.314 58.6527 508.099 59.2977 507.669 59.785C507.239 60.2437 506.609 60.473 505.777 60.473ZM505.777 48.39C504.975 48.39 504.33 48.1607 503.842 47.702C503.384 47.2147 503.154 46.5697 503.154 45.767C503.154 45.0217 503.384 44.4197 503.842 43.961C504.33 43.5023 504.975 43.273 505.777 43.273C506.609 43.273 507.239 43.5023 507.669 43.961C508.099 44.4197 508.314 45.0217 508.314 45.767C508.314 46.5697 508.099 47.2147 507.669 47.702C507.239 48.1607 506.609 48.39 505.777 48.39Z" fill="#FFF9EE"/>
<rect x="79" y="110" width="122" height="122" rx="20" fill="#FFF9EE"/>
<rect x="242" y="110" width="122" height="122" rx="20" fill="#FFF9EE"/>
<rect x="400" y="110" width="122" height="122" rx="20" fill="#FFF9EE"/>
<path fill-rule="evenodd" clip-rule="evenodd" d="M137.938 153.82L137.938 153.799L119.364 153.799L137.181 146.871L137.179 146.865C137.52 146.773 137.873 146.74 138.224 146.768C138.271 146.772 138.317 146.777 138.363 146.782L138.364 146.783C138.847 146.844 139.311 147.019 139.722 147.297L139.722 147.297C140.134 147.575 140.483 147.948 140.745 148.388L140.745 148.389C141.007 148.83 141.174 149.327 141.235 149.846L141.235 149.847C141.296 150.366 141.249 150.893 141.097 151.39L141.097 151.391C140.946 151.888 140.693 152.343 140.358 152.722L140.358 152.722C140.023 153.101 139.614 153.396 139.161 153.584L139.16 153.584C139.117 153.602 139.074 153.619 139.031 153.634C138.679 153.762 138.309 153.825 137.938 153.82ZM105.125 151.826V160.861L137.87 160.862C139.114 160.877 140.351 160.637 141.515 160.154L141.516 160.154C142.402 159.786 143.231 159.283 143.979 158.662C144.377 158.331 144.752 157.968 145.1 157.573L145.101 157.573C146.103 156.437 146.859 155.076 147.313 153.588L147.313 153.587C147.767 152.099 147.908 150.521 147.726 148.966L147.726 148.965C147.543 147.411 147.043 145.92 146.26 144.6L146.259 144.599C145.476 143.278 144.429 142.162 143.196 141.33L143.196 141.33C142.767 141.041 142.32 140.789 141.858 140.575C140.99 140.174 140.07 139.908 139.127 139.789L139.126 139.788C137.721 139.611 136.297 139.762 134.952 140.231L134.951 140.228L134.85 140.268L134.838 140.272L134.837 140.272L134.837 140.273L105.125 151.826ZM105.125 182.08V189.334L148.457 205.923L148.456 205.924C150.024 206.598 151.711 206.891 153.396 206.782C154.044 206.74 154.686 206.639 155.315 206.481C156.321 206.229 157.294 205.831 158.206 205.295C159.688 204.425 160.974 203.214 161.971 201.747C162.969 200.281 163.653 198.596 163.977 196.812C164.3 195.029 164.253 193.19 163.841 191.428C163.428 189.666 162.66 188.023 161.59 186.617C160.931 185.752 160.169 184.989 159.324 184.348C158.797 183.948 158.237 183.595 157.651 183.294C156.13 182.513 154.467 182.102 152.781 182.091V182.08L105.125 182.08ZM152.737 189.143L124.206 189.143L151.011 199.404L151.008 199.412C151.645 199.665 152.325 199.773 153.004 199.729C153.725 199.683 154.428 199.465 155.063 199.093C155.698 198.72 156.248 198.201 156.676 197.573C157.103 196.946 157.396 196.224 157.534 195.46C157.673 194.696 157.653 193.909 157.476 193.154C157.299 192.4 156.97 191.696 156.512 191.094C156.054 190.492 155.478 190.006 154.826 189.671C154.174 189.337 153.462 189.161 152.74 189.156L152.737 189.156L152.737 189.155L152.737 189.143ZM167.528 154.716L167.525 154.718L164.298 148.569L164.294 148.562L164.301 148.558C166.048 147.497 167.998 146.881 170.001 146.758C170.292 146.74 170.582 146.732 170.872 146.735C172.584 146.752 174.28 147.13 175.862 147.85C177.712 148.692 179.358 149.98 180.673 151.615C181.988 153.25 182.936 155.188 183.446 157.279C183.955 159.371 184.012 161.56 183.611 163.679C183.211 165.798 182.364 167.79 181.136 169.501C180.085 170.964 178.78 172.188 177.297 173.107C177.045 173.263 176.788 173.41 176.527 173.548C174.723 174.5 172.74 174.993 170.732 174.99V174.989H105.125V167.927H170.741L170.741 167.92C171.744 167.921 172.735 167.675 173.636 167.199C174.537 166.724 175.324 166.032 175.938 165.178C176.552 164.323 176.975 163.328 177.175 162.269C177.375 161.211 177.347 160.117 177.092 159.072C176.838 158.028 176.364 157.06 175.707 156.243C175.05 155.426 174.228 154.783 173.304 154.362C172.379 153.942 171.378 153.755 170.376 153.817C169.375 153.878 168.401 154.186 167.528 154.716Z" fill="#526B4B"/>
<path fill-rule="evenodd" clip-rule="evenodd" d="M325.656 188.455C325.656 199.724 316.524 211 302.934 211C289.345 211 280.213 199.724 280.213 188.455C280.213 176.766 286.382 162.21 293.633 149.537C296.911 143.81 300.2 138.82 302.772 135.135C305.393 139.108 308.794 144.518 312.183 150.622C315.716 156.987 319.153 163.959 321.685 170.745C324.264 177.655 325.656 183.722 325.656 188.455ZM273.721 188.455C273.721 166.708 290.377 140.484 298.535 128.943C301.182 125.199 302.934 123 302.934 123C302.934 123 304.613 125.287 307.166 129.118C315.262 141.268 332.148 168.947 332.148 188.455C332.148 205.325 319.068 219 302.934 219C286.8 219 273.721 205.325 273.721 188.455ZM288.322 175H295.306C293.992 178.696 293.197 182.201 293.197 185.182C293.197 189.76 296.831 195 302.934 195V203C293.971 203 286.705 195.023 286.705 185.182C286.705 181.898 287.325 178.44 288.322 175Z" fill="#526B4B"/>
<mask id="path-8-inside-1_290_367" fill="white">
<path fill-rule="evenodd" clip-rule="evenodd" d="M481.737 144.293C476.002 134.358 467.119 125.311 459.529 121C451.995 125.28 443.187 134.225 437.448 144.073C431.383 143.708 425.686 144.042 421.203 145.048C417.8 158.154 421.543 182.422 433.358 193.404C441.044 200.549 451.562 203.303 461.005 201.536C470.448 203.304 480.968 200.551 488.655 193.405C500.47 182.423 504.213 158.155 500.81 145.049C495.636 143.888 488.845 143.622 481.737 144.293Z"/>
</mask>
<path d="M481.737 144.293L475.437 147.929L477.772 151.973L482.42 151.534L481.737 144.293ZM459.529 121L463.122 114.675L459.529 112.634L455.936 114.675L459.529 121ZM437.448 144.073L437.012 151.334L441.479 151.603L443.733 147.735L437.448 144.073ZM421.203 145.048L419.611 137.951L415.279 138.923L414.163 143.22L421.203 145.048ZM433.358 193.404L438.31 188.077H438.31L433.358 193.404ZM461.005 201.536L462.343 194.387L461.005 194.136L459.667 194.386L461.005 201.536ZM488.655 193.405L493.608 198.733L488.655 193.405ZM500.81 145.049L507.85 143.221L506.734 138.924L502.402 137.952L500.81 145.049ZM488.036 140.656C481.775 129.811 472.031 119.736 463.122 114.675L455.936 127.325C462.207 130.887 470.228 138.905 475.437 147.929L488.036 140.656ZM455.936 114.675C447.09 119.701 437.425 129.666 431.164 140.411L443.733 147.735C448.949 138.784 456.901 130.859 463.122 127.325L455.936 114.675ZM437.885 136.812C431.356 136.42 424.943 136.755 419.611 137.951L422.796 152.146C426.43 151.33 431.41 150.997 437.012 151.334L437.885 136.812ZM414.163 143.22C412.098 151.173 412.311 161.721 414.468 171.578C416.615 181.384 420.976 191.826 428.405 198.732L438.31 188.077C433.925 184.001 430.507 176.817 428.679 168.467C426.863 160.168 426.906 152.03 428.244 146.877L414.163 143.22ZM428.405 198.732C437.814 207.478 450.677 210.868 462.342 208.686L459.667 194.386C452.447 195.737 444.275 193.621 438.31 188.077L428.405 198.732ZM483.703 188.077C477.738 193.623 469.564 195.738 462.343 194.387L459.666 208.686C471.333 210.87 484.198 207.48 493.608 198.733L483.703 188.077ZM493.77 146.877C495.108 152.03 495.15 160.169 493.334 168.468C491.506 176.818 488.088 184.001 483.703 188.077L493.608 198.733C501.037 191.827 505.398 181.385 507.545 171.579C509.703 161.722 509.915 151.174 507.85 143.221L493.77 146.877ZM482.42 151.534C489.017 150.912 495.001 151.2 499.217 152.146L502.402 137.952C496.271 136.576 488.673 136.332 481.054 137.051L482.42 151.534Z" fill="#526B4B" mask="url(#path-8-inside-1_290_367)"/>
<line x1="459.566" y1="159.524" x2="459.566" y2="221.352" stroke="#526B4B" stroke-width="7.27384"/>
</svg>
