<svg width="373" height="128" viewBox="0 0 373 128" fill="none" xmlns="http://www.w3.org/2000/svg">
<path d="M369 64C369 71.1355 364.793 78.5282 355.824 85.8055C346.887 93.056 333.712 99.7629 317.077 105.471C283.846 116.875 237.68 124 186.5 124C135.32 124 89.1536 116.875 55.9229 105.471C39.2881 99.7629 26.1129 93.056 17.1763 85.8055C8.20679 78.5282 4 71.1355 4 64C4 56.8645 8.20679 49.4718 17.1763 42.1945C26.1129 34.944 39.2881 28.2371 55.9229 22.5286C89.1536 11.125 135.32 4 186.5 4C237.68 4 283.846 11.125 317.077 22.5286C333.712 28.2371 346.887 34.944 355.824 42.1945C364.793 49.4718 369 56.8645 369 64Z" fill="#FFF9EE" fill-opacity="0.93" stroke="#F5D185" stroke-width="8"/>
<path d="M74.2417 46.33H74.9767C76.0267 46.33 77.0534 46.1433 78.0567 45.77C79.0601 45.3967 79.9701 44.86 80.7867 44.16C82.2567 42.8767 82.9917 41.255 82.9917 39.295C82.9917 38.4317 82.8401 37.685 82.5367 37.055C82.2567 36.425 81.8717 35.8883 81.3817 35.445C80.9151 35.025 80.3784 34.7333 79.7717 34.57C79.1651 34.3833 78.5234 34.29 77.8467 34.29C76.8667 34.29 75.8751 34.4883 74.8717 34.885C73.8917 35.2817 73.0284 35.8533 72.2817 36.6C71.6751 37.2067 71.1617 37.9183 70.7417 38.735C70.3217 39.5517 70.1117 40.3683 70.1117 41.185C70.1117 42.2817 70.3917 43.11 70.9517 43.67C71.1851 43.9033 71.4767 44.1017 71.8267 44.265C72.1767 44.405 72.5851 44.475 73.0517 44.475C73.6351 44.475 74.2417 44.3583 74.8717 44.125C75.5251 43.8917 76.1201 43.5067 76.6567 42.97C77.0067 42.62 77.3217 42.2117 77.6017 41.745C77.9051 41.255 78.1501 40.695 78.3367 40.065L78.7567 40.1C78.4067 41.3833 77.8117 42.445 76.9717 43.285C76.3651 43.915 75.6651 44.3933 74.8717 44.72C74.1017 45.0233 73.3434 45.175 72.5967 45.175C72.0601 45.175 71.5117 45.1167 70.9517 45C70.3917 44.8833 69.8901 44.65 69.4467 44.3C69.0034 43.95 68.6417 43.5183 68.3617 43.005C68.1051 42.4917 67.9767 41.9083 67.9767 41.255C67.9767 40.275 68.2801 39.3183 68.8867 38.385C69.4934 37.4517 70.3334 36.635 71.4067 35.935C72.5967 35.1417 73.7867 34.5817 74.9767 34.255C76.1901 33.905 77.4617 33.73 78.7917 33.73C79.6551 33.73 80.5534 33.8117 81.4867 33.975C82.4434 34.115 83.2717 34.4067 83.9717 34.85C84.5784 35.2233 85.1267 35.7367 85.6167 36.39C86.1067 37.02 86.3517 37.825 86.3517 38.805C86.3517 39.925 86.0717 40.9283 85.5117 41.815C84.9751 42.6783 84.2517 43.4483 83.3417 44.125C82.5951 44.6617 81.7667 45.1167 80.8567 45.49C79.9467 45.8633 78.9784 46.1433 77.9517 46.33V46.4C78.4884 46.4467 79.0717 46.5633 79.7017 46.75C80.3317 46.9367 80.8684 47.1933 81.3117 47.52C81.7784 47.87 82.1517 48.3133 82.4317 48.85C82.7117 49.3867 82.8517 49.9933 82.8517 50.67C82.8517 51.8833 82.5134 53.0733 81.8367 54.24C81.1601 55.3833 80.0401 56.445 78.4767 57.425C77.9401 57.775 77.3101 58.09 76.5867 58.37C75.8867 58.6267 75.1517 58.8483 74.3817 59.035C73.6117 59.2217 72.8301 59.3617 72.0367 59.455C71.2434 59.5483 70.4851 59.595 69.7617 59.595C69.2951 59.595 68.8051 59.5833 68.2917 59.56C67.8017 59.5367 67.3001 59.4783 66.7867 59.385C66.2734 59.2917 65.7717 59.1633 65.2817 59C64.7917 58.8367 64.3367 58.6267 63.9167 58.37C63.0067 57.7867 62.3884 57.145 62.0617 56.445C61.7584 55.745 61.6067 55.0917 61.6067 54.485C61.6067 53.995 61.7117 53.5167 61.9217 53.05C62.1551 52.5833 62.4351 52.21 62.7617 51.93C63.1584 51.6033 63.6134 51.37 64.1267 51.23C64.6401 51.0667 65.1651 50.985 65.7017 50.985C66.2384 50.985 66.7517 51.1017 67.2417 51.335C67.7317 51.5683 68.1634 51.86 68.5367 52.21L68.4317 52.49C68.2217 52.42 68.0001 52.3733 67.7667 52.35C67.5334 52.3033 67.3351 52.28 67.1717 52.28C66.5884 52.28 66.0284 52.5017 65.4917 52.945C64.9784 53.365 64.7217 54.03 64.7217 54.94C64.7217 55.6167 64.8734 56.2117 65.1767 56.725C65.5034 57.2383 65.9234 57.6817 66.4367 58.055C66.9267 58.405 67.4867 58.6733 68.1167 58.86C68.7701 59.0467 69.4001 59.14 70.0067 59.14C71.1967 59.14 72.3867 58.9067 73.5767 58.44C74.7667 57.95 75.8401 57.215 76.7967 56.235C77.4501 55.5583 77.9984 54.7183 78.4417 53.715C78.9084 52.7117 79.1417 51.685 79.1417 50.635C79.1417 49.9817 79.0601 49.3983 78.8967 48.885C78.7334 48.3717 78.4534 47.94 78.0567 47.59C77.4501 47.03 76.6217 46.75 75.5717 46.75C75.3617 46.75 75.1051 46.7733 74.8017 46.82C74.4984 46.8433 74.2184 46.89 73.9617 46.96L74.2417 46.33ZM90.1328 59.14C90.5995 59.14 91.1245 58.965 91.7078 58.615C92.3145 58.2417 92.9212 57.6817 93.5278 56.935C94.0178 56.3517 94.4845 55.6867 94.9278 54.94C95.3712 54.17 95.7678 53.4 96.1178 52.63C96.4678 51.86 96.7362 51.1017 96.9228 50.355C97.1328 49.6083 97.2378 48.9317 97.2378 48.325C97.2378 47.6483 97.0862 47.1817 96.7828 46.925C96.4795 46.6683 96.1062 46.54 95.6628 46.54C95.0095 46.54 94.2745 46.855 93.4578 47.485C92.6645 48.0917 91.8712 49.025 91.0778 50.285C90.6812 50.8917 90.3312 51.5333 90.0278 52.21C89.7245 52.8633 89.4562 53.505 89.2228 54.135C88.9895 54.7417 88.8145 55.3133 88.6978 55.85C88.5812 56.3867 88.5228 56.83 88.5228 57.18C88.5228 57.8567 88.6395 58.3583 88.8728 58.685C89.1295 58.9883 89.5495 59.14 90.1328 59.14ZM107.178 49.97C106.431 50.9733 105.591 51.9067 104.658 52.77C103.748 53.6333 102.791 54.38 101.788 55.01C100.831 55.6167 99.8395 56.1417 98.8128 56.585C97.7862 57.005 96.6778 57.3783 95.4878 57.705C94.4145 58.4517 93.3762 58.9417 92.3728 59.175C91.3928 59.4317 90.5528 59.56 89.8528 59.56C88.5928 59.56 87.5662 59.21 86.7728 58.51C85.9795 57.81 85.5828 56.76 85.5828 55.36C85.5828 54.3333 85.8162 53.295 86.2828 52.245C86.7728 51.195 87.5428 50.1917 88.5928 49.235C89.1762 48.7217 89.7828 48.2667 90.4128 47.87C91.0428 47.4733 91.6612 47.1467 92.2678 46.89C92.8978 46.6333 93.4928 46.4467 94.0528 46.33C94.6128 46.19 95.1028 46.12 95.5228 46.12C96.1995 46.12 96.7012 46.2367 97.0278 46.47C97.3545 46.68 97.6112 46.9133 97.7978 47.17C97.8445 47.03 97.8795 46.7617 97.9028 46.365C97.9262 45.9683 97.9378 45.665 97.9378 45.455C97.9378 44.125 97.7628 42.8533 97.4128 41.64C97.0862 40.4033 96.5495 39.3417 95.8028 38.455C95.0562 37.5683 94.1578 36.8917 93.1078 36.425C92.0578 35.9583 90.8328 35.725 89.4328 35.725C88.4528 35.725 87.5778 35.8533 86.8078 36.11C86.0612 36.3667 85.2795 36.705 84.4628 37.125L84.3228 36.81C85.5595 36.0867 86.7145 35.55 87.7878 35.2C88.8845 34.8267 90.0978 34.64 91.4278 34.64C92.7578 34.64 94.0062 34.8617 95.1728 35.305C96.3395 35.725 97.3662 36.4017 98.2528 37.335C99.1395 38.2917 99.8278 39.4233 100.318 40.73C100.831 42.0133 101.088 43.4017 101.088 44.895C101.088 46.2483 100.959 47.59 100.703 48.92C100.469 50.2267 100.014 51.545 99.3378 52.875C98.9178 53.6917 98.4395 54.45 97.9028 55.15C97.3662 55.8267 96.7478 56.4567 96.0478 57.04L96.0828 57.075C97.1095 56.795 98.0895 56.4567 99.0228 56.06C99.9562 55.64 100.843 55.1617 101.683 54.625C103.666 53.365 105.439 51.7083 107.003 49.655L107.178 49.97ZM121.699 49.83C120.975 50.81 120.194 51.7783 119.354 52.735C118.537 53.6917 117.557 54.695 116.414 55.745C114.804 57.1917 113.252 58.195 111.759 58.755C110.289 59.2917 108.9 59.56 107.594 59.56C106.264 59.56 105.214 59.1633 104.444 58.37C103.674 57.5767 103.289 56.55 103.289 55.29C103.289 54.17 103.627 53.0617 104.304 51.965C104.98 50.8683 105.832 49.8883 106.859 49.025C107.885 48.1617 109.005 47.4617 110.219 46.925C111.455 46.3883 112.622 46.12 113.719 46.12C114.722 46.12 115.504 46.3183 116.064 46.715C116.624 47.0883 116.904 47.625 116.904 48.325C116.904 48.885 116.705 49.3983 116.309 49.865C115.935 50.3317 115.445 50.7517 114.839 51.125C114.232 51.4983 113.544 51.825 112.774 52.105C112.027 52.385 111.28 52.63 110.534 52.84C109.787 53.05 109.087 53.225 108.434 53.365C107.78 53.505 107.244 53.6217 106.824 53.715C106.707 54.1817 106.649 54.6017 106.649 54.975C106.649 55.9783 106.929 56.795 107.489 57.425C108.049 58.055 108.83 58.37 109.834 58.37C110.814 58.37 111.887 58.0783 113.054 57.495C114.244 56.9117 115.434 56.06 116.624 54.94C117.534 54.0767 118.409 53.1783 119.249 52.245C120.089 51.2883 120.824 50.4017 121.454 49.585L121.699 49.83ZM114.104 47.45C114.104 47.1233 114.01 46.89 113.824 46.75C113.66 46.61 113.439 46.54 113.159 46.54C112.575 46.54 111.945 46.785 111.269 47.275C110.592 47.765 109.95 48.3717 109.344 49.095C108.76 49.795 108.235 50.5417 107.769 51.335C107.325 52.105 107.034 52.7817 106.894 53.365C107.85 53.1783 108.76 52.875 109.624 52.455C110.487 52.0117 111.245 51.5217 111.899 50.985C112.575 50.425 113.112 49.8417 113.509 49.235C113.905 48.605 114.104 48.01 114.104 47.45ZM135.952 49.97C135.088 51.02 134.155 52.1167 133.152 53.26C132.148 54.38 131.063 55.4067 129.897 56.34C128.753 57.2733 127.517 58.0433 126.187 58.65C124.88 59.2567 123.492 59.56 122.022 59.56C120.622 59.56 119.548 59.1867 118.802 58.44C118.055 57.67 117.682 56.55 117.682 55.08C117.682 53.96 118.008 52.8633 118.662 51.79C119.315 50.7167 120.155 49.76 121.182 48.92C122.208 48.08 123.34 47.4033 124.577 46.89C125.813 46.3767 127.015 46.12 128.182 46.12C129.255 46.12 130.107 46.3417 130.737 46.785C131.367 47.205 131.682 47.73 131.682 48.36C131.682 48.8033 131.588 49.2117 131.402 49.585C131.238 49.935 131.017 50.2383 130.737 50.495C130.457 50.7283 130.142 50.915 129.792 51.055C129.442 51.1717 129.092 51.23 128.742 51.23C128.438 51.23 128.17 51.2067 127.937 51.16C128.1 50.6233 128.275 50.075 128.462 49.515C128.648 48.955 128.742 48.395 128.742 47.835C128.742 47.4383 128.648 47.1233 128.462 46.89C128.275 46.6567 128.018 46.54 127.692 46.54C127.085 46.54 126.397 46.785 125.627 47.275C124.857 47.7417 124.133 48.3833 123.457 49.2C122.78 49.9933 122.208 50.915 121.742 51.965C121.275 52.9917 121.042 54.065 121.042 55.185C121.042 56.0717 121.31 56.83 121.847 57.46C122.383 58.0667 123.13 58.37 124.087 58.37C125.23 58.37 126.362 58.055 127.482 57.425C128.625 56.795 129.698 56.0367 130.702 55.15C131.728 54.24 132.662 53.3067 133.502 52.35C134.342 51.37 135.053 50.53 135.637 49.83L135.952 49.97ZM142.12 53.89C142.656 53.7733 143.275 53.575 143.975 53.295C144.698 53.015 145.41 52.6417 146.11 52.175C146.576 51.8483 147.066 51.4983 147.58 51.125C148.116 50.7283 148.723 50.1217 149.4 49.305L149.645 49.515C148.968 50.3317 148.35 50.9617 147.79 51.405C147.253 51.825 146.693 52.21 146.11 52.56C145.456 52.9567 144.791 53.3067 144.115 53.61C143.438 53.89 142.75 54.1117 142.05 54.275L141.91 54.66C141.746 55.0567 141.501 55.535 141.175 56.095C140.871 56.655 140.37 57.215 139.67 57.775C138.876 58.405 138.013 58.825 137.08 59.035C136.17 59.2683 135.4 59.3733 134.77 59.35C134.326 59.3267 133.906 59.28 133.51 59.21C133.113 59.14 132.728 58.9883 132.355 58.755C131.981 58.5217 131.69 58.2067 131.48 57.81C131.246 57.4133 131.13 56.9467 131.13 56.41C131.13 56.0133 131.2 55.5817 131.34 55.115C131.456 54.6483 131.666 54.1117 131.97 53.505C132.086 53.2717 132.226 53.015 132.39 52.735C132.553 52.455 132.716 52.1983 132.88 51.965C133.043 51.7083 133.183 51.4867 133.3 51.3C133.44 51.09 133.545 50.9383 133.615 50.845L136.24 46.82L140.055 46.54L136.135 52.28C135.295 53.5167 134.7 54.5317 134.35 55.325C134 56.095 133.825 56.7717 133.825 57.355C133.825 57.7283 133.918 58.09 134.105 58.44C134.291 58.7667 134.653 58.93 135.19 58.93C135.796 58.93 136.345 58.79 136.835 58.51C137.348 58.2067 137.78 57.7983 138.13 57.285C138.573 56.6317 138.865 56.025 139.005 55.465C139.168 54.8817 139.273 54.3917 139.32 53.995C139.25 53.9017 139.145 53.75 139.005 53.54C138.888 53.33 138.83 53.0267 138.83 52.63C138.83 52 139.016 51.545 139.39 51.265C139.763 50.9617 140.148 50.81 140.545 50.81C140.965 50.81 141.338 50.985 141.665 51.335C142.015 51.6617 142.19 52.1867 142.19 52.91C142.19 53.19 142.178 53.4467 142.155 53.68L142.12 53.89ZM176.64 50.005C176.033 50.8217 175.368 51.405 174.645 51.755C173.945 52.0817 173.257 52.245 172.58 52.245C172.043 52.245 171.53 52.1283 171.04 51.895C170.573 51.6617 170.177 51.405 169.85 51.125C169.43 52.525 168.823 53.75 168.03 54.8C167.26 55.85 166.385 56.725 165.405 57.425C164.448 58.125 163.41 58.65 162.29 59C161.193 59.3733 160.108 59.56 159.035 59.56C157.845 59.56 156.912 59.2333 156.235 58.58C155.558 57.9267 155.22 57.0867 155.22 56.06C155.22 55.6167 155.267 55.185 155.36 54.765C155.477 54.3217 155.675 53.82 155.955 53.26C156.142 52.91 156.387 52.4433 156.69 51.86C157.017 51.2767 157.308 50.7867 157.565 50.39L162.36 42.9C163.153 41.64 164.028 40.5317 164.985 39.575C165.942 38.6183 167.003 37.7433 168.17 36.95C169.29 36.2033 170.328 35.6317 171.285 35.235C172.242 34.8383 173.082 34.64 173.805 34.64C174.132 34.64 174.47 34.6633 174.82 34.71C175.193 34.7333 175.543 34.815 175.87 34.955C176.57 35.2583 176.92 35.7133 176.92 36.32C176.92 36.9967 176.722 37.6617 176.325 38.315C175.928 38.945 175.205 39.68 174.155 40.52C172.895 41.5 171.752 42.305 170.725 42.935C169.698 43.565 168.73 44.2067 167.82 44.86C167.703 44.9533 167.528 45.07 167.295 45.21C167.085 45.35 166.84 45.5133 166.56 45.7C166.28 45.8867 165.977 46.085 165.65 46.295C165.347 46.4817 165.043 46.68 164.74 46.89C164.017 47.3567 163.247 47.8583 162.43 48.395L160.715 50.985C160.435 51.405 160.108 51.93 159.735 52.56C159.362 53.19 159.07 53.7383 158.86 54.205C158.487 54.9517 158.23 55.5933 158.09 56.13C157.95 56.6433 157.88 57.0633 157.88 57.39C157.88 57.95 158.02 58.3817 158.3 58.685C158.58 58.9883 158.953 59.14 159.42 59.14C160.097 59.14 160.902 58.8133 161.835 58.16C162.792 57.4833 163.748 56.41 164.705 54.94C166.012 52.8867 166.77 51.0667 166.98 49.48C166.723 48.9667 166.595 48.4883 166.595 48.045C166.595 47.4617 166.747 46.995 167.05 46.645C167.353 46.295 167.715 46.12 168.135 46.12C168.858 46.12 169.372 46.4 169.675 46.96C170.002 47.4967 170.165 48.2083 170.165 49.095C170.165 49.3517 170.142 49.6083 170.095 49.865C170.048 50.1217 170.002 50.39 169.955 50.67C170.352 51.02 170.783 51.3 171.25 51.51C171.717 51.72 172.207 51.825 172.72 51.825C173.257 51.825 173.84 51.685 174.47 51.405C175.123 51.125 175.765 50.5883 176.395 49.795L176.64 50.005ZM162.885 47.485L162.955 47.52C163.585 47.1 164.203 46.6917 164.81 46.295C165.323 45.9683 165.837 45.6417 166.35 45.315C166.863 44.965 167.26 44.685 167.54 44.475C168.357 43.915 169.15 43.2967 169.92 42.62C170.69 41.92 171.378 41.1967 171.985 40.45C172.685 39.6567 173.198 38.8983 173.525 38.175C173.875 37.4517 174.05 36.775 174.05 36.145C174.05 35.4683 173.793 35.13 173.28 35.13C172.86 35.13 172.452 35.2467 172.055 35.48C171.682 35.69 171.262 36.0283 170.795 36.495C170.515 36.775 170.223 37.1133 169.92 37.51C169.617 37.8833 169.313 38.28 169.01 38.7C168.707 39.0967 168.427 39.4933 168.17 39.89C167.937 40.2633 167.738 40.5667 167.575 40.8L162.885 47.485ZM193.467 49.935C193 50.5417 192.44 51.09 191.787 51.58C191.157 52.07 190.457 52.315 189.687 52.315C189.15 52.315 188.683 52.1983 188.287 51.965C187.89 51.7317 187.528 51.405 187.202 50.985C186.922 52.1517 186.455 53.26 185.802 54.31C185.172 55.3367 184.402 56.2467 183.492 57.04C182.582 57.81 181.567 58.4283 180.447 58.895C179.327 59.3383 178.16 59.56 176.947 59.56C175.663 59.56 174.637 59.1983 173.867 58.475C173.097 57.7283 172.712 56.7133 172.712 55.43C172.712 54.1933 173.027 53.015 173.657 51.895C174.287 50.7517 175.103 49.76 176.107 48.92C177.11 48.0567 178.218 47.38 179.432 46.89C180.645 46.3767 181.835 46.12 183.002 46.12C184.262 46.12 185.253 46.4583 185.977 47.135C186.7 47.8117 187.143 48.6283 187.307 49.585C187.423 50.285 187.68 50.845 188.077 51.265C188.497 51.685 189.033 51.895 189.687 51.895C190.317 51.895 190.912 51.7083 191.472 51.335C192.032 50.9617 192.627 50.4017 193.257 49.655L193.467 49.935ZM177.192 59.14C177.775 59.14 178.358 58.9417 178.942 58.545C179.525 58.1483 180.085 57.635 180.622 57.005C181.158 56.375 181.648 55.6633 182.092 54.87C182.558 54.0767 182.955 53.2833 183.282 52.49C183.632 51.6967 183.9 50.9383 184.087 50.215C184.273 49.4917 184.367 48.885 184.367 48.395C184.367 47.8117 184.238 47.3567 183.982 47.03C183.748 46.7033 183.363 46.54 182.827 46.54C182.243 46.54 181.66 46.7383 181.077 47.135C180.493 47.5317 179.933 48.045 179.397 48.675C178.86 49.305 178.358 50.0167 177.892 50.81C177.448 51.6033 177.052 52.3967 176.702 53.19C176.375 53.9833 176.118 54.7417 175.932 55.465C175.745 56.1883 175.652 56.795 175.652 57.285C175.652 57.8683 175.768 58.3233 176.002 58.65C176.258 58.9767 176.655 59.14 177.192 59.14ZM183.542 61.765C183.426 61.7417 183.344 61.73 183.297 61.73C183.251 61.73 183.181 61.73 183.087 61.73C182.481 61.73 182.014 61.8 181.687 61.94C181.361 62.08 181.057 62.29 180.777 62.57C180.474 62.8733 180.229 63.2817 180.042 63.795C179.856 64.3083 179.762 64.845 179.762 65.405C179.762 66.595 180.112 67.5633 180.812 68.31C181.489 69.0567 182.457 69.43 183.717 69.43C185.117 69.43 186.506 69.0333 187.882 68.24C189.259 67.4467 190.682 66.21 192.152 64.53C192.526 64.11 192.946 63.5733 193.412 62.92C193.879 62.29 194.322 61.6133 194.742 60.89C195.162 60.19 195.512 59.49 195.792 58.79C196.072 58.09 196.212 57.4833 196.212 56.97C196.212 56.6433 196.201 56.4333 196.177 56.34C196.177 56.2233 196.154 56.1067 196.107 55.99C195.781 56.0833 195.442 56.1883 195.092 56.305C194.742 56.3983 194.462 56.445 194.252 56.445C193.972 56.445 193.774 56.3983 193.657 56.305C193.541 56.1883 193.482 56.0717 193.482 55.955C193.482 55.4883 193.891 55.255 194.707 55.255C194.964 55.255 195.302 55.29 195.722 55.36C196.142 55.43 196.434 55.4767 196.597 55.5C196.994 55.3133 197.414 55.0333 197.857 54.66C198.324 54.2867 198.756 53.82 199.152 53.26C199.922 52.1633 200.307 51.0317 200.307 49.865C200.307 49.1417 200.074 48.5 199.607 47.94C199.164 47.38 198.534 47.1 197.717 47.1C197.321 47.1 196.924 47.17 196.527 47.31C196.131 47.45 195.699 47.695 195.232 48.045C194.976 48.2783 194.696 48.5583 194.392 48.885C194.089 49.1883 193.786 49.5617 193.482 50.005L193.167 49.83C193.401 49.48 193.716 49.06 194.112 48.57C194.532 48.08 195.034 47.6367 195.617 47.24C196.294 46.7967 196.936 46.505 197.542 46.365C198.172 46.2017 198.744 46.12 199.257 46.12C199.724 46.12 200.167 46.1667 200.587 46.26C201.031 46.3533 201.439 46.5167 201.812 46.75C202.256 47.0067 202.617 47.38 202.897 47.87C203.177 48.3367 203.317 48.885 203.317 49.515C203.317 50.145 203.189 50.7983 202.932 51.475C202.676 52.1517 202.197 52.8167 201.497 53.47C200.961 53.9833 200.319 54.4267 199.572 54.8C198.849 55.1733 198.067 55.465 197.227 55.675V55.745C197.624 55.8617 197.986 56.06 198.312 56.34C198.662 56.62 198.837 57.0633 198.837 57.67C198.837 57.9967 198.802 58.335 198.732 58.685C198.662 59.035 198.569 59.3383 198.452 59.595C199.572 59.2683 200.681 58.7783 201.777 58.125C202.897 57.4717 203.971 56.7017 204.997 55.815C205.884 55.045 206.782 54.1583 207.692 53.155C208.626 52.1283 209.571 50.95 210.527 49.62L210.807 49.9C209.897 51.2067 208.987 52.3617 208.077 53.365C207.167 54.3683 206.222 55.2783 205.242 56.095C204.146 57.0283 203.037 57.8217 201.917 58.475C200.821 59.105 199.607 59.6183 198.277 60.015C197.601 61.3917 196.749 62.64 195.722 63.76C194.719 64.9033 193.657 65.8833 192.537 66.7C191.021 67.82 189.516 68.625 188.022 69.115C186.506 69.605 184.942 69.85 183.332 69.85C182.562 69.85 181.792 69.7683 181.022 69.605C180.252 69.465 179.564 69.22 178.957 68.87C178.327 68.52 177.814 68.0417 177.417 67.435C177.021 66.8517 176.822 66.105 176.822 65.195C176.822 64.565 176.951 64.005 177.207 63.515C177.464 63.0483 177.826 62.6517 178.292 62.325C178.736 62.0217 179.249 61.7767 179.832 61.59C180.392 61.4033 181.081 61.31 181.897 61.31C182.551 61.31 183.099 61.3567 183.542 61.45V61.765ZM221.871 54.38C221.428 54.94 220.903 55.57 220.296 56.27C219.69 56.9467 219.118 57.495 218.581 57.915C218.045 58.3583 217.508 58.7083 216.971 58.965C216.458 59.2217 215.828 59.35 215.081 59.35C214.358 59.35 213.786 59.1283 213.366 58.685C212.97 58.2417 212.771 57.6817 212.771 57.005C212.771 56.1417 212.993 55.29 213.436 54.45L213.366 54.38C212.736 55.1733 212.106 55.92 211.476 56.62C210.87 57.2967 210.286 57.8333 209.726 58.23C209.236 58.58 208.723 58.8483 208.186 59.035C207.673 59.245 207.09 59.35 206.436 59.35C205.62 59.35 204.92 59.0817 204.336 58.545C203.753 58.0083 203.461 57.2967 203.461 56.41C203.461 55.78 203.636 55.2317 203.986 54.765C204.336 54.2983 204.885 54.065 205.631 54.065C206.098 54.065 206.471 54.2167 206.751 54.52C207.031 54.8233 207.171 55.185 207.171 55.605C207.171 56.0017 207.043 56.3633 206.786 56.69C206.53 57.0167 206.145 57.1917 205.631 57.215C205.608 57.7517 205.713 58.1717 205.946 58.475C206.156 58.7783 206.46 58.93 206.856 58.93C207.393 58.93 207.895 58.8017 208.361 58.545C208.851 58.2883 209.306 57.9967 209.726 57.67C210.403 57.1333 211.243 56.2817 212.246 55.115C213.25 53.9483 214.405 52.3733 215.711 50.39C216.411 49.34 217.146 48.15 217.916 46.82L221.521 46.54L219.386 49.97C218.056 52.0933 217.03 53.7967 216.306 55.08C215.583 56.34 215.221 57.285 215.221 57.915C215.221 58.1483 215.303 58.3467 215.466 58.51C215.63 58.65 215.816 58.72 216.026 58.72C216.54 58.72 217.076 58.5217 217.636 58.125C218.196 57.7283 218.791 57.215 219.421 56.585C219.911 56.1183 220.425 55.5583 220.961 54.905C221.498 54.2517 222.011 53.5983 222.501 52.945C222.991 52.2683 223.435 51.6383 223.831 51.055C224.228 50.4483 224.531 49.97 224.741 49.62L226.421 46.82L230.026 46.54L227.086 51.23C226.503 52.1633 225.99 52.98 225.546 53.68C225.126 54.3567 224.776 54.9633 224.496 55.5C224.216 56.0133 224.006 56.4683 223.866 56.865C223.75 57.2617 223.691 57.6233 223.691 57.95C223.691 58.4633 223.925 58.72 224.391 58.72C224.905 58.72 225.651 58.37 226.631 57.67C227.611 56.97 228.766 55.9083 230.096 54.485C230.726 53.8083 231.391 53.0617 232.091 52.245C232.791 51.4283 233.526 50.53 234.296 49.55L234.576 49.76C233.806 50.74 233.071 51.6617 232.371 52.525C231.695 53.365 231.03 54.1233 230.376 54.8C227.53 57.8333 225.243 59.35 223.516 59.35C222.77 59.35 222.186 59.14 221.766 58.72C221.37 58.2767 221.171 57.7167 221.171 57.04C221.171 56.5733 221.253 56.1067 221.416 55.64C221.58 55.1733 221.755 54.7767 221.941 54.45L221.871 54.38ZM251.299 49.935C250.832 50.5417 250.272 51.09 249.619 51.58C248.989 52.07 248.289 52.315 247.519 52.315C246.982 52.315 246.515 52.1983 246.119 51.965C245.722 51.7317 245.36 51.405 245.034 50.985C244.754 52.1517 244.287 53.26 243.634 54.31C243.004 55.3367 242.234 56.2467 241.324 57.04C240.414 57.81 239.399 58.4283 238.279 58.895C237.159 59.3383 235.992 59.56 234.779 59.56C233.495 59.56 232.469 59.1983 231.699 58.475C230.929 57.7283 230.544 56.7133 230.544 55.43C230.544 54.1933 230.859 53.015 231.489 51.895C232.119 50.7517 232.935 49.76 233.939 48.92C234.942 48.0567 236.05 47.38 237.264 46.89C238.477 46.3767 239.667 46.12 240.834 46.12C242.094 46.12 243.085 46.4583 243.809 47.135C244.532 47.8117 244.975 48.6283 245.139 49.585C245.255 50.285 245.512 50.845 245.909 51.265C246.329 51.685 246.865 51.895 247.519 51.895C248.149 51.895 248.744 51.7083 249.304 51.335C249.864 50.9617 250.459 50.4017 251.089 49.655L251.299 49.935ZM235.024 59.14C235.607 59.14 236.19 58.9417 236.774 58.545C237.357 58.1483 237.917 57.635 238.454 57.005C238.99 56.375 239.48 55.6633 239.924 54.87C240.39 54.0767 240.787 53.2833 241.114 52.49C241.464 51.6967 241.732 50.9383 241.919 50.215C242.105 49.4917 242.199 48.885 242.199 48.395C242.199 47.8117 242.07 47.3567 241.814 47.03C241.58 46.7033 241.195 46.54 240.659 46.54C240.075 46.54 239.492 46.7383 238.909 47.135C238.325 47.5317 237.765 48.045 237.229 48.675C236.692 49.305 236.19 50.0167 235.724 50.81C235.28 51.6033 234.884 52.3967 234.534 53.19C234.207 53.9833 233.95 54.7417 233.764 55.465C233.577 56.1883 233.484 56.795 233.484 57.285C233.484 57.8683 233.6 58.3233 233.834 58.65C234.09 58.9767 234.487 59.14 235.024 59.14ZM265.874 56.2C265.874 55.08 266.178 53.995 266.784 52.945C267.391 51.8717 268.091 50.9267 268.884 50.11L268.849 50.075C268.336 50.4717 267.729 50.9967 267.029 51.65C266.353 52.3033 265.723 52.91 265.139 53.47C264.953 53.6333 264.743 53.8433 264.509 54.1C264.299 54.3333 264.066 54.59 263.809 54.87C263.576 55.15 263.331 55.4417 263.074 55.745C262.841 56.0483 262.619 56.3283 262.409 56.585C262.106 56.9817 261.826 57.4017 261.569 57.845C261.313 58.265 261.161 58.58 261.114 58.79L257.299 59L262.689 49.795L262.654 49.76C262.048 50.4367 261.499 51.02 261.009 51.51C260.519 52 260.018 52.4783 259.504 52.945C259.154 53.2717 258.746 53.645 258.279 54.065C257.813 54.4617 257.311 54.87 256.774 55.29C256.261 55.71 255.724 56.13 255.164 56.55C254.604 56.97 254.044 57.355 253.484 57.705C252.714 58.1717 251.921 58.5683 251.104 58.895C250.288 59.1983 249.448 59.35 248.584 59.35C247.184 59.35 246.204 59.0583 245.644 58.475C245.084 57.8917 244.804 57.2033 244.804 56.41C244.804 55.7567 244.979 55.2083 245.329 54.765C245.679 54.2983 246.216 54.065 246.939 54.065C247.359 54.065 247.721 54.205 248.024 54.485C248.351 54.7417 248.514 55.1033 248.514 55.57C248.514 55.99 248.374 56.375 248.094 56.725C247.814 57.0517 247.441 57.215 246.974 57.215C246.974 57.7983 247.126 58.23 247.429 58.51C247.756 58.79 248.153 58.93 248.619 58.93C249.296 58.93 250.054 58.7317 250.894 58.335C251.758 57.915 252.738 57.11 253.834 55.92C254.348 55.36 254.779 54.7767 255.129 54.17C255.503 53.5633 255.794 52.98 256.004 52.42C256.238 51.8367 256.401 51.2883 256.494 50.775C256.588 50.2617 256.634 49.8183 256.634 49.445C256.634 48.7917 256.506 48.2433 256.249 47.8C256.016 47.3333 255.573 47.1 254.919 47.1C254.616 47.1 254.336 47.1583 254.079 47.275C253.823 47.3683 253.496 47.5783 253.099 47.905C252.819 48.1617 252.528 48.4767 252.224 48.85C251.921 49.2 251.618 49.5733 251.314 49.97L251.034 49.795C251.338 49.375 251.653 48.955 251.979 48.535C252.329 48.115 252.668 47.7767 252.994 47.52C253.531 47.03 254.068 46.68 254.604 46.47C255.164 46.2367 255.736 46.12 256.319 46.12C257.229 46.12 257.988 46.4 258.594 46.96C259.201 47.4967 259.504 48.29 259.504 49.34C259.504 50.2733 259.201 51.265 258.594 52.315C258.244 52.945 257.871 53.4817 257.474 53.925C257.078 54.3683 256.669 54.7883 256.249 55.185L256.319 55.255C256.833 54.8583 257.323 54.4617 257.789 54.065C258.279 53.645 258.793 53.1783 259.329 52.665C260.006 52.035 260.811 51.23 261.744 50.25C262.701 49.2467 263.611 48.0917 264.474 46.785L268.219 46.54C267.729 47.2867 267.274 47.9867 266.854 48.64C266.481 49.2 266.108 49.7717 265.734 50.355C265.361 50.9383 265.081 51.405 264.894 51.755C264.498 52.455 264.054 53.1783 263.564 53.925C263.074 54.6717 262.643 55.395 262.269 56.095H262.304C262.794 55.4417 263.319 54.8233 263.879 54.24C264.439 53.6567 265.023 53.085 265.629 52.525C266.306 51.895 267.158 51.1133 268.184 50.18C269.234 49.2467 270.424 48.3717 271.754 47.555C273.224 46.645 274.671 46.19 276.094 46.19C276.934 46.19 277.646 46.4117 278.229 46.855C278.836 47.275 279.139 47.8467 279.139 48.57C279.139 49.2233 278.894 49.76 278.404 50.18C277.914 50.5767 277.331 50.775 276.654 50.775C276.281 50.775 275.978 50.74 275.744 50.67C275.861 50.4367 276.001 50.0867 276.164 49.62C276.328 49.13 276.409 48.5817 276.409 47.975C276.409 47.6483 276.339 47.345 276.199 47.065C276.059 46.785 275.779 46.645 275.359 46.645C274.846 46.645 274.298 46.82 273.714 47.17C273.131 47.52 272.478 48.1383 271.754 49.025C270.704 50.355 269.958 51.5917 269.514 52.735C269.071 53.8783 268.849 54.8583 268.849 55.675C268.849 56.4917 269.048 57.1217 269.444 57.565C269.864 58.0083 270.436 58.23 271.159 58.23C271.953 58.23 272.863 57.9733 273.889 57.46C274.939 56.9233 276.048 56.1067 277.214 55.01C278.591 53.75 280.131 52.0117 281.834 49.795L282.044 49.97C281.298 50.95 280.528 51.9183 279.734 52.875C278.941 53.8317 278.171 54.66 277.424 55.36C275.768 56.9233 274.274 58.02 272.944 58.65C271.638 59.2567 270.354 59.56 269.094 59.56C268.161 59.56 267.391 59.2683 266.784 58.685C266.178 58.1017 265.874 57.2733 265.874 56.2ZM299.399 49.76C298.582 50.81 297.812 51.7667 297.089 52.63C296.365 53.47 295.689 54.2283 295.059 54.905C293.519 56.5617 292.212 57.7167 291.139 58.37C290.065 59.0233 289.097 59.35 288.234 59.35C287.627 59.35 287.079 59.1983 286.589 58.895C286.099 58.5683 285.854 57.9967 285.854 57.18C285.854 56.7833 285.912 56.3633 286.029 55.92C286.169 55.4767 286.344 55.045 286.554 54.625C286.764 54.1817 286.985 53.75 287.219 53.33C287.382 53.0733 287.534 52.8283 287.674 52.595H282.354L282.319 52.665C281.899 53.365 281.479 54.0883 281.059 54.835C280.662 55.5583 280.3 56.2233 279.974 56.83C279.6 57.5533 279.25 58.2417 278.924 58.895L275.179 59.105L282.564 46.68L286.274 46.54C285.69 47.4267 285.142 48.255 284.629 49.025C284.185 49.7017 283.742 50.3783 283.299 51.055C283.042 51.4983 282.809 51.8717 282.599 52.175H287.954C288.024 52.035 288.14 51.8367 288.304 51.58C288.467 51.3 288.642 51.02 288.829 50.74C289.039 50.4133 289.249 50.075 289.459 49.725C289.902 49.0483 290.252 48.4883 290.509 48.045C290.765 47.6017 291.01 47.1933 291.244 46.82L294.849 46.54L292.469 50.32C291.979 51.1133 291.524 51.825 291.104 52.455C290.707 53.085 290.357 53.6567 290.054 54.17C289.704 54.73 289.424 55.2083 289.214 55.605C289.027 56.0017 288.875 56.3517 288.759 56.655C288.665 56.935 288.595 57.18 288.549 57.39C288.525 57.5767 288.514 57.74 288.514 57.88C288.514 58.1367 288.549 58.3467 288.619 58.51C288.712 58.65 288.91 58.72 289.214 58.72C289.657 58.72 290.345 58.405 291.279 57.775C292.235 57.1217 293.414 56.06 294.814 54.59C295.444 53.9133 296.132 53.1433 296.879 52.28C297.649 51.3933 298.395 50.4833 299.119 49.55L299.399 49.76ZM316.138 49.935C315.671 50.5417 315.111 51.09 314.458 51.58C313.828 52.07 313.128 52.315 312.358 52.315C311.821 52.315 311.354 52.1983 310.958 51.965C310.561 51.7317 310.199 51.405 309.873 50.985C309.593 52.1517 309.126 53.26 308.473 54.31C307.843 55.3367 307.073 56.2467 306.163 57.04C305.253 57.81 304.238 58.4283 303.118 58.895C301.998 59.3383 300.831 59.56 299.618 59.56C298.334 59.56 297.308 59.1983 296.538 58.475C295.768 57.7283 295.383 56.7133 295.383 55.43C295.383 54.1933 295.698 53.015 296.328 51.895C296.958 50.7517 297.774 49.76 298.778 48.92C299.781 48.0567 300.889 47.38 302.103 46.89C303.316 46.3767 304.506 46.12 305.673 46.12C306.933 46.12 307.924 46.4583 308.648 47.135C309.371 47.8117 309.814 48.6283 309.978 49.585C310.094 50.285 310.351 50.845 310.748 51.265C311.168 51.685 311.704 51.895 312.358 51.895C312.988 51.895 313.583 51.7083 314.143 51.335C314.703 50.9617 315.298 50.4017 315.928 49.655L316.138 49.935ZM299.863 59.14C300.446 59.14 301.029 58.9417 301.613 58.545C302.196 58.1483 302.756 57.635 303.293 57.005C303.829 56.375 304.319 55.6633 304.763 54.87C305.229 54.0767 305.626 53.2833 305.953 52.49C306.303 51.6967 306.571 50.9383 306.758 50.215C306.944 49.4917 307.038 48.885 307.038 48.395C307.038 47.8117 306.909 47.3567 306.653 47.03C306.419 46.7033 306.034 46.54 305.498 46.54C304.914 46.54 304.331 46.7383 303.748 47.135C303.164 47.5317 302.604 48.045 302.068 48.675C301.531 49.305 301.029 50.0167 300.563 50.81C300.119 51.6033 299.723 52.3967 299.373 53.19C299.046 53.9833 298.789 54.7417 298.603 55.465C298.416 56.1883 298.323 56.795 298.323 57.285C298.323 57.8683 298.439 58.3233 298.673 58.65C298.929 58.9767 299.326 59.14 299.863 59.14ZM178.759 92.005C178.152 92.8217 177.487 93.405 176.764 93.755C176.064 94.0817 175.376 94.245 174.699 94.245C174.162 94.245 173.649 94.1283 173.159 93.895C172.692 93.6617 172.296 93.405 171.969 93.125C171.549 94.525 170.942 95.75 170.149 96.8C169.379 97.85 168.504 98.725 167.524 99.425C166.567 100.125 165.529 100.65 164.409 101C163.312 101.373 162.227 101.56 161.154 101.56C159.964 101.56 159.031 101.233 158.354 100.58C157.677 99.9267 157.339 99.0867 157.339 98.06C157.339 97.6167 157.386 97.185 157.479 96.765C157.596 96.3217 157.794 95.82 158.074 95.26C158.261 94.91 158.506 94.4433 158.809 93.86C159.136 93.2767 159.427 92.7867 159.684 92.39L164.479 84.9C165.272 83.64 166.147 82.5317 167.104 81.575C168.061 80.6183 169.122 79.7433 170.289 78.95C171.409 78.2033 172.447 77.6317 173.404 77.235C174.361 76.8383 175.201 76.64 175.924 76.64C176.251 76.64 176.589 76.6633 176.939 76.71C177.312 76.7333 177.662 76.815 177.989 76.955C178.689 77.2583 179.039 77.7133 179.039 78.32C179.039 78.9967 178.841 79.6617 178.444 80.315C178.047 80.945 177.324 81.68 176.274 82.52C175.014 83.5 173.871 84.305 172.844 84.935C171.817 85.565 170.849 86.2067 169.939 86.86C169.822 86.9533 169.647 87.07 169.414 87.21C169.204 87.35 168.959 87.5133 168.679 87.7C168.399 87.8867 168.096 88.085 167.769 88.295C167.466 88.4817 167.162 88.68 166.859 88.89C166.136 89.3567 165.366 89.8583 164.549 90.395L162.834 92.985C162.554 93.405 162.227 93.93 161.854 94.56C161.481 95.19 161.189 95.7383 160.979 96.205C160.606 96.9517 160.349 97.5933 160.209 98.13C160.069 98.6433 159.999 99.0633 159.999 99.39C159.999 99.95 160.139 100.382 160.419 100.685C160.699 100.988 161.072 101.14 161.539 101.14C162.216 101.14 163.021 100.813 163.954 100.16C164.911 99.4833 165.867 98.41 166.824 96.94C168.131 94.8867 168.889 93.0667 169.099 91.48C168.842 90.9667 168.714 90.4883 168.714 90.045C168.714 89.4617 168.866 88.995 169.169 88.645C169.472 88.295 169.834 88.12 170.254 88.12C170.977 88.12 171.491 88.4 171.794 88.96C172.121 89.4967 172.284 90.2083 172.284 91.095C172.284 91.3517 172.261 91.6083 172.214 91.865C172.167 92.1217 172.121 92.39 172.074 92.67C172.471 93.02 172.902 93.3 173.369 93.51C173.836 93.72 174.326 93.825 174.839 93.825C175.376 93.825 175.959 93.685 176.589 93.405C177.242 93.125 177.884 92.5883 178.514 91.795L178.759 92.005ZM165.004 89.485L165.074 89.52C165.704 89.1 166.322 88.6917 166.929 88.295C167.442 87.9683 167.956 87.6417 168.469 87.315C168.982 86.965 169.379 86.685 169.659 86.475C170.476 85.915 171.269 85.2967 172.039 84.62C172.809 83.92 173.497 83.1967 174.104 82.45C174.804 81.6567 175.317 80.8983 175.644 80.175C175.994 79.4517 176.169 78.775 176.169 78.145C176.169 77.4683 175.912 77.13 175.399 77.13C174.979 77.13 174.571 77.2467 174.174 77.48C173.801 77.69 173.381 78.0283 172.914 78.495C172.634 78.775 172.342 79.1133 172.039 79.51C171.736 79.8833 171.432 80.28 171.129 80.7C170.826 81.0967 170.546 81.4933 170.289 81.89C170.056 82.2633 169.857 82.5667 169.694 82.8L165.004 89.485ZM193.066 91.97C192.203 93.02 191.269 94.1167 190.266 95.26C189.263 96.38 188.178 97.4067 187.011 98.34C185.868 99.2733 184.631 100.043 183.301 100.65C181.994 101.257 180.606 101.56 179.136 101.56C177.736 101.56 176.663 101.187 175.916 100.44C175.169 99.67 174.796 98.55 174.796 97.08C174.796 95.96 175.123 94.8633 175.776 93.79C176.429 92.7167 177.269 91.76 178.296 90.92C179.323 90.08 180.454 89.4033 181.691 88.89C182.928 88.3767 184.129 88.12 185.296 88.12C186.369 88.12 187.221 88.3417 187.851 88.785C188.481 89.205 188.796 89.73 188.796 90.36C188.796 90.8033 188.703 91.2117 188.516 91.585C188.353 91.935 188.131 92.2383 187.851 92.495C187.571 92.7283 187.256 92.915 186.906 93.055C186.556 93.1717 186.206 93.23 185.856 93.23C185.553 93.23 185.284 93.2067 185.051 93.16C185.214 92.6233 185.389 92.075 185.576 91.515C185.763 90.955 185.856 90.395 185.856 89.835C185.856 89.4383 185.763 89.1233 185.576 88.89C185.389 88.6567 185.133 88.54 184.806 88.54C184.199 88.54 183.511 88.785 182.741 89.275C181.971 89.7417 181.248 90.3833 180.571 91.2C179.894 91.9933 179.323 92.915 178.856 93.965C178.389 94.9917 178.156 96.065 178.156 97.185C178.156 98.0717 178.424 98.83 178.961 99.46C179.498 100.067 180.244 100.37 181.201 100.37C182.344 100.37 183.476 100.055 184.596 99.425C185.739 98.795 186.813 98.0367 187.816 97.15C188.843 96.24 189.776 95.3067 190.616 94.35C191.456 93.37 192.168 92.53 192.751 91.83L193.066 91.97ZM207.319 91.83C206.596 92.81 205.814 93.7783 204.974 94.735C204.157 95.6917 203.177 96.695 202.034 97.745C200.424 99.1917 198.872 100.195 197.379 100.755C195.909 101.292 194.521 101.56 193.214 101.56C191.884 101.56 190.834 101.163 190.064 100.37C189.294 99.5767 188.909 98.55 188.909 97.29C188.909 96.17 189.247 95.0617 189.924 93.965C190.601 92.8683 191.452 91.8883 192.479 91.025C193.506 90.1617 194.626 89.4617 195.839 88.925C197.076 88.3883 198.242 88.12 199.339 88.12C200.342 88.12 201.124 88.3183 201.684 88.715C202.244 89.0883 202.524 89.625 202.524 90.325C202.524 90.885 202.326 91.3983 201.929 91.865C201.556 92.3317 201.066 92.7517 200.459 93.125C199.852 93.4983 199.164 93.825 198.394 94.105C197.647 94.385 196.901 94.63 196.154 94.84C195.407 95.05 194.707 95.225 194.054 95.365C193.401 95.505 192.864 95.6217 192.444 95.715C192.327 96.1817 192.269 96.6017 192.269 96.975C192.269 97.9783 192.549 98.795 193.109 99.425C193.669 100.055 194.451 100.37 195.454 100.37C196.434 100.37 197.507 100.078 198.674 99.495C199.864 98.9117 201.054 98.06 202.244 96.94C203.154 96.0767 204.029 95.1783 204.869 94.245C205.709 93.2883 206.444 92.4017 207.074 91.585L207.319 91.83ZM199.724 89.45C199.724 89.1233 199.631 88.89 199.444 88.75C199.281 88.61 199.059 88.54 198.779 88.54C198.196 88.54 197.566 88.785 196.889 89.275C196.212 89.765 195.571 90.3717 194.964 91.095C194.381 91.795 193.856 92.5417 193.389 93.335C192.946 94.105 192.654 94.7817 192.514 95.365C193.471 95.1783 194.381 94.875 195.244 94.455C196.107 94.0117 196.866 93.5217 197.519 92.985C198.196 92.425 198.732 91.8417 199.129 91.235C199.526 90.605 199.724 90.01 199.724 89.45ZM208.902 96.8C209.392 96.0067 209.87 95.1783 210.337 94.315C210.827 93.4517 211.27 92.6117 211.667 91.795C212.063 90.9783 212.425 90.1967 212.752 89.45C213.078 88.7033 213.335 88.05 213.522 87.49C214.175 85.5533 214.758 84.1767 215.272 83.36C215.808 82.52 216.415 82.1 217.092 82.1C217.512 82.1 217.873 82.2517 218.177 82.555C218.503 82.8583 218.667 83.2433 218.667 83.71C218.667 84.1067 218.562 84.515 218.352 84.935C218.165 85.3317 217.873 85.7867 217.477 86.3C217.08 86.8133 216.578 87.4083 215.972 88.085C215.388 88.7383 214.7 89.52 213.907 90.43C213.113 91.34 212.297 92.3317 211.457 93.405C210.64 94.4783 209.87 95.645 209.147 96.905L208.902 96.8ZM207.327 97.5C207.863 97.5 208.318 97.6983 208.692 98.095C209.088 98.4683 209.287 98.9233 209.287 99.46C209.287 99.9967 209.088 100.463 208.692 100.86C208.318 101.233 207.863 101.42 207.327 101.42C206.79 101.42 206.323 101.233 205.927 100.86C205.553 100.463 205.367 99.9967 205.367 99.46C205.367 98.9233 205.553 98.4683 205.927 98.095C206.323 97.6983 206.79 97.5 207.327 97.5Z" fill="black"/>
</svg>
