<svg width="146" height="127" viewBox="0 0 146 127" fill="none" xmlns="http://www.w3.org/2000/svg">
<path d="M43.9205 101.013C127.932 104.473 141.419 23.2828 144.003 8.50499C144.003 8.50499 144.192 6.96285 145.474 0C13.8414 0 3.91017 64.1992 8.39223 79.5009C9.03432 81.6929 10.5305 83.5537 11.6059 85.5574C19.1312 99.5797 25.4951 103.687 20.3776 106.182L15.161 108L7.37113 111.644C6.48584 112.058 5.65216 112.579 4.88937 113.195L3.82788 114.052C1.10053 116.255 -0.0320462 119.871 0.982876 123.135C1.36088 124.35 2.32391 125.28 3.55381 125.617L6.4757 126.418C7.87386 126.801 9.34895 126.871 10.7971 126.622L13.9209 126.085C17.6399 125.445 20.9519 123.239 23.0049 120.034L25.2685 116.5C26.7558 114.001 29.7472 108.605 35.5145 103.61C37.8165 101.615 40.9285 100.89 43.9205 101.013Z" fill="#526B4B"/>
</svg>
