<svg width="250" height="200" viewBox="0 0 250 200" fill="none" xmlns="http://www.w3.org/2000/svg">
<path d="M16.9193 15.2258L4.83081 2.14218C3.56906 0.776564 1.28871 -0.316827 0.446447 1.34074C-4.70155 11.472 36.407 75.7152 34.6331 80.1065C15.7568 88.1171 42.4982 114.279 58.2285 126.358C43.3008 167.365 99.1632 154.011 82.7869 168.319C66.4146 182.624 107.345 197.087 125.644 199.789C153.252 199.948 215.788 200.171 245.065 199.789C272.996 199.425 176.67 79.9797 99.1487 53.2607C91.8947 50.7604 84.114 50.3397 76.674 48.464C66.0191 45.7779 53.5772 40.3729 47.1531 37.1923L31.8476 27.604C26.3454 24.1571 21.3254 19.9946 16.9193 15.2258Z" fill="#536C4C"/>
</svg>
