<svg width="250" height="200" viewBox="0 0 250 200" fill="none" xmlns="http://www.w3.org/2000/svg">
<path d="M233.081 15.2258L245.169 2.14218C246.431 0.776564 248.711 -0.316827 249.554 1.34074C254.702 11.472 213.593 75.7152 215.367 80.1065C234.243 88.1171 207.502 114.279 191.772 126.358C206.699 167.365 150.837 154.011 167.213 168.319C183.585 182.624 142.655 197.087 124.356 199.789C96.748 199.948 34.2122 200.171 4.93468 199.789C-22.9963 199.425 73.3296 79.9797 150.851 53.2607C158.105 50.7604 165.886 50.3397 173.326 48.464C183.981 45.7779 196.423 40.3729 202.847 37.1923L218.152 27.604C223.655 24.1571 228.675 19.9946 233.081 15.2258Z" fill="#536C4C"/>
</svg>
