<svg width="145" height="127" viewBox="0 0 145 127" fill="none" xmlns="http://www.w3.org/2000/svg">
<path d="M101.554 101.013C17.5423 104.473 4.05528 23.2828 1.47174 8.50499C1.47174 8.50499 1.28235 6.96285 0 0C131.633 0 141.564 64.1992 137.082 79.5009C136.44 81.6929 134.944 83.5537 133.868 85.5574C126.343 99.5797 119.979 103.687 125.097 106.182L130.313 108L138.103 111.644C138.988 112.058 139.822 112.579 140.585 113.195L141.646 114.052C144.374 116.255 145.506 119.871 144.491 123.135C144.113 124.35 143.15 125.28 141.92 125.617L138.999 126.418C137.6 126.801 136.125 126.871 134.677 126.622L131.553 126.085C127.834 125.445 124.522 123.239 122.469 120.034L120.206 116.5C118.718 114.001 115.727 108.605 109.96 103.61C107.658 101.615 104.546 100.89 101.554 101.013Z" fill="#526B4B"/>
</svg>
