<svg width="230" height="52" viewBox="0 0 230 52" fill="none" xmlns="http://www.w3.org/2000/svg">
<path d="M66.9765 35C66.9431 35 66.9265 34.95 66.9265 34.85C66.9265 34.75 66.9431 34.7 66.9765 34.7C67.5431 34.7 67.9598 34.6583 68.2265 34.575C68.5098 34.4917 68.7015 34.325 68.8015 34.075C68.9015 33.825 68.9515 33.4583 68.9515 32.975V21.4C68.9515 20.6833 68.8348 20.2167 68.6015 20C68.3681 19.7833 67.8348 19.675 67.0015 19.675C66.9681 19.675 66.9515 19.625 66.9515 19.525C66.9515 19.425 66.9681 19.375 67.0015 19.375C67.4515 19.375 67.9431 19.3917 68.4765 19.425C69.0098 19.4417 69.5681 19.45 70.1515 19.45C70.8181 19.45 71.4431 19.4417 72.0265 19.425C72.6098 19.3917 73.1348 19.375 73.6015 19.375C73.6348 19.375 73.6515 19.425 73.6515 19.525C73.6515 19.625 73.6348 19.675 73.6015 19.675C72.7848 19.675 72.2515 19.7917 72.0015 20.025C71.7681 20.2583 71.6515 20.7333 71.6515 21.45V32.975C71.6515 33.4583 71.6931 33.825 71.7765 34.075C71.8765 34.325 72.0681 34.4917 72.3515 34.575C72.6348 34.6583 73.0515 34.7 73.6015 34.7C73.6348 34.7 73.6515 34.75 73.6515 34.85C73.6515 34.95 73.6348 35 73.6015 35C73.1348 35 72.6098 34.9917 72.0265 34.975C71.4431 34.9583 70.8181 34.95 70.1515 34.95C69.5681 34.95 69.0015 34.9583 68.4515 34.975C67.9015 34.9917 67.4098 35 66.9765 35ZM57.4015 35C57.3515 35 57.3265 34.95 57.3265 34.85C57.3265 34.75 57.3515 34.7 57.4015 34.7C57.9015 34.6833 58.3598 34.5 58.7765 34.15C59.2098 33.8 59.6598 33.3 60.1265 32.65C60.5931 32 61.1348 31.2167 61.7515 30.3C62.2848 29.5 62.7515 28.8583 63.1515 28.375C63.5515 27.8917 63.9431 27.5333 64.3265 27.3C64.7098 27.05 65.1265 26.8833 65.5765 26.8C66.0431 26.7167 66.6015 26.675 67.2515 26.675C67.9181 26.675 68.8265 26.7 69.9765 26.75L69.9265 27.2C69.7431 27.1833 69.5681 27.1667 69.4015 27.15C69.2348 27.1333 69.0848 27.125 68.9515 27.125C68.5015 27.125 68.1098 27.175 67.7765 27.275C67.4431 27.3583 67.1265 27.525 66.8265 27.775C66.5431 28.025 66.2181 28.3917 65.8515 28.875C65.5015 29.3583 65.0765 30 64.5765 30.8C63.9098 31.85 63.3765 32.6667 62.9765 33.25C62.5931 33.8167 62.2931 34.225 62.0765 34.475C61.8765 34.725 61.7181 34.875 61.6015 34.925C61.5015 34.975 61.3848 35 61.2515 35H57.4015ZM66.3515 27.075L62.6265 22.475C62.1265 21.8583 61.6098 21.3417 61.0765 20.925C60.5598 20.5083 60.0265 20.2 59.4765 20C58.9265 19.7833 58.3765 19.675 57.8265 19.675C57.7931 19.675 57.7765 19.625 57.7765 19.525C57.7765 19.425 57.7931 19.375 57.8265 19.375C58.2431 19.375 58.6681 19.3917 59.1015 19.425C59.5515 19.4417 60.1598 19.45 60.9265 19.45C61.6098 19.45 62.2598 19.4417 62.8765 19.425C63.4931 19.3917 64.0765 19.375 64.6265 19.375C64.6598 19.375 64.6765 19.425 64.6765 19.525C64.6765 19.625 64.6598 19.675 64.6265 19.675C64.0098 19.675 63.5931 19.8417 63.3765 20.175C63.1598 20.4917 63.1265 20.9333 63.2765 21.5C63.4431 22.0667 63.7848 22.7083 64.3015 23.425L66.7765 26.85L66.3515 27.075ZM79.3515 35C79.2348 35 79.1181 34.975 79.0015 34.925C78.8848 34.875 78.7181 34.725 78.5015 34.475C78.3015 34.225 78.0015 33.8167 77.6015 33.25C77.2181 32.6667 76.6931 31.85 76.0265 30.8C75.5265 30 75.0931 29.3583 74.7265 28.875C74.3765 28.3917 74.0515 28.025 73.7515 27.775C73.4681 27.525 73.1598 27.3583 72.8265 27.275C72.4931 27.175 72.1015 27.125 71.6515 27.125C71.5181 27.125 71.3681 27.1333 71.2015 27.15C71.0515 27.1667 70.8848 27.1833 70.7015 27.2L70.6765 26.75C71.7765 26.7 72.6681 26.675 73.3515 26.675C74.0181 26.675 74.5765 26.7167 75.0265 26.8C75.4931 26.8833 75.9098 27.05 76.2765 27.3C76.6598 27.5333 77.0515 27.8917 77.4515 28.375C77.8515 28.8583 78.3181 29.5 78.8515 30.3C79.4848 31.2167 80.0265 32 80.4765 32.65C80.9431 33.3 81.3848 33.8 81.8015 34.15C82.2348 34.5 82.7015 34.6833 83.2015 34.7C83.2515 34.7 83.2765 34.75 83.2765 34.85C83.2765 34.95 83.2515 35 83.2015 35H79.3515ZM74.2515 27.075L73.8265 26.85L76.2265 23.55C76.7598 22.8167 77.1098 22.1583 77.2765 21.575C77.4598 20.9917 77.4431 20.5333 77.2265 20.2C77.0265 19.85 76.6181 19.675 76.0015 19.675C75.9515 19.675 75.9265 19.625 75.9265 19.525C75.9265 19.425 75.9515 19.375 76.0015 19.375C76.5348 19.375 77.1098 19.3917 77.7265 19.425C78.3598 19.4417 79.0098 19.45 79.6765 19.45C80.4431 19.45 81.0431 19.4417 81.4765 19.425C81.9265 19.3917 82.3598 19.375 82.7765 19.375C82.8098 19.375 82.8265 19.425 82.8265 19.525C82.8265 19.625 82.8098 19.675 82.7765 19.675C82.2265 19.675 81.6765 19.7833 81.1265 20C80.5765 20.2 80.0348 20.5083 79.5015 20.925C78.9848 21.3417 78.4765 21.8583 77.9765 22.475L74.2515 27.075ZM84.5073 32.4L84.8573 25.9L85.3573 25.975L85.0073 32.4C84.974 33.1667 85.099 33.7417 85.3823 34.125C85.6657 34.5083 86.0657 34.7 86.5823 34.7C86.6323 34.7 86.6573 34.75 86.6573 34.85C86.6573 34.95 86.6323 35 86.5823 35C86.3157 35 86.0323 34.9917 85.7323 34.975C85.4323 34.9583 85.1073 34.95 84.7573 34.95C84.424 34.95 84.0907 34.9583 83.7573 34.975C83.4407 34.9917 83.1407 35 82.8573 35C82.8073 35 82.7823 34.95 82.7823 34.85C82.7823 34.75 82.8073 34.7 82.8573 34.7C83.3907 34.7 83.7907 34.5083 84.0573 34.125C84.324 33.7417 84.474 33.1667 84.5073 32.4ZM96.1823 34.7C96.2323 34.7 96.2573 34.75 96.2573 34.85C96.2573 34.95 96.2323 35 96.1823 35C95.8323 35 95.4323 34.9917 94.9823 34.975C94.5323 34.9583 94.0907 34.95 93.6573 34.95C93.2073 34.95 92.799 34.9583 92.4323 34.975C92.0823 34.9917 91.7407 35 91.4073 35C91.374 35 91.3573 34.95 91.3573 34.85C91.3573 34.75 91.374 34.7 91.4073 34.7C91.874 34.7 92.1823 34.5917 92.3323 34.375C92.4823 34.1583 92.5323 33.6917 92.4823 32.975L92.0073 27L92.6073 25.65L89.1323 34.425C89.1157 34.475 89.0573 34.5 88.9573 34.5C88.8573 34.5 88.7907 34.475 88.7573 34.425L85.3073 27.425C84.9407 26.675 84.6073 26.1917 84.3073 25.975C84.024 25.7583 83.6823 25.65 83.2823 25.65C83.249 25.65 83.2323 25.6 83.2323 25.5C83.2323 25.4 83.249 25.35 83.2823 25.35C83.6323 25.35 83.9323 25.3583 84.1823 25.375C84.4323 25.375 84.6323 25.375 84.7823 25.375C85.0157 25.375 85.2323 25.375 85.4323 25.375C85.6323 25.3583 85.7823 25.35 85.8823 25.35C86.2323 25.35 86.5157 25.4167 86.7323 25.55C86.949 25.6833 87.2073 26.0417 87.5073 26.625L90.0073 31.775L88.9323 33.725L91.9823 25.975C92.049 25.775 92.149 25.625 92.2823 25.525C92.4323 25.4083 92.5823 25.35 92.7323 25.35C92.8323 25.35 93.0323 25.3583 93.3323 25.375C93.6323 25.375 93.924 25.375 94.2073 25.375C94.5573 25.375 94.849 25.375 95.0823 25.375C95.3157 25.3583 95.5573 25.35 95.8073 25.35C95.8407 25.35 95.8573 25.4 95.8573 25.5C95.8573 25.6 95.8407 25.65 95.8073 25.65C95.3073 25.65 94.924 25.75 94.6573 25.95C94.3907 26.15 94.2823 26.6 94.3323 27.3L94.8073 32.975C94.8573 33.4583 94.9073 33.825 94.9573 34.075C95.024 34.325 95.149 34.4917 95.3323 34.575C95.5157 34.6583 95.799 34.7 96.1823 34.7ZM99.9628 34.1L99.5128 33.65L106.288 26.875L106.738 27.3L99.9628 34.1ZM98.9128 32.975V27.375C98.9128 26.6417 98.8295 26.175 98.6628 25.975C98.4961 25.7583 98.1295 25.65 97.5628 25.65C97.5128 25.65 97.4878 25.6 97.4878 25.5C97.4878 25.4 97.5128 25.35 97.5628 25.35C97.9128 25.35 98.3045 25.3583 98.7378 25.375C99.1878 25.3917 99.6461 25.4 100.113 25.4C100.563 25.4 101.004 25.3917 101.438 25.375C101.871 25.3583 102.254 25.35 102.588 25.35C102.621 25.35 102.638 25.4 102.638 25.5C102.638 25.6 102.621 25.65 102.588 25.65C102.021 25.65 101.654 25.7667 101.488 26C101.321 26.2333 101.238 26.7083 101.238 27.425V32.975C101.238 33.6917 101.321 34.1583 101.488 34.375C101.654 34.5917 102.021 34.7 102.588 34.7C102.621 34.7 102.638 34.75 102.638 34.85C102.638 34.95 102.621 35 102.588 35C102.238 35 101.846 34.9917 101.413 34.975C100.996 34.9583 100.563 34.95 100.113 34.95C99.6461 34.95 99.1878 34.9583 98.7378 34.975C98.3045 34.9917 97.9045 35 97.5378 35C97.4878 35 97.4628 34.95 97.4628 34.85C97.4628 34.75 97.4878 34.7 97.5378 34.7C98.1211 34.7 98.4961 34.5917 98.6628 34.375C98.8295 34.1583 98.9128 33.6917 98.9128 32.975ZM105.638 32.975V27.375C105.638 26.6417 105.554 26.175 105.388 25.975C105.221 25.7583 104.854 25.65 104.288 25.65C104.238 25.65 104.213 25.6 104.213 25.5C104.213 25.4 104.238 25.35 104.288 25.35C104.638 25.35 105.029 25.3583 105.463 25.375C105.913 25.3917 106.371 25.4 106.838 25.4C107.288 25.4 107.729 25.3917 108.163 25.375C108.596 25.3583 108.979 25.35 109.313 25.35C109.346 25.35 109.363 25.4 109.363 25.5C109.363 25.6 109.346 25.65 109.313 25.65C108.746 25.65 108.379 25.7667 108.213 26C108.046 26.2333 107.963 26.7083 107.963 27.425V32.975C107.963 33.6917 108.046 34.1583 108.213 34.375C108.379 34.5917 108.746 34.7 109.313 34.7C109.346 34.7 109.363 34.75 109.363 34.85C109.363 34.95 109.346 35 109.313 35C108.963 35 108.571 34.9917 108.138 34.975C107.721 34.9583 107.288 34.95 106.838 34.95C106.371 34.95 105.913 34.9583 105.463 34.975C105.013 34.9917 104.613 35 104.263 35C104.213 35 104.188 34.95 104.188 34.85C104.188 34.75 104.213 34.7 104.263 34.7C104.846 34.7 105.221 34.5917 105.388 34.375C105.554 34.1583 105.638 33.6917 105.638 32.975ZM121.826 35.3C120.676 35.3 119.726 35.0583 118.976 34.575C118.226 34.075 117.668 33.4417 117.301 32.675C116.951 31.9083 116.776 31.1333 116.776 30.35C116.776 29.5167 116.951 28.775 117.301 28.125C117.651 27.475 118.109 26.9333 118.676 26.5C119.259 26.05 119.901 25.7083 120.601 25.475C121.301 25.2417 121.993 25.125 122.676 25.125C123.159 25.125 123.643 25.2 124.126 25.35C124.609 25.4833 125.009 25.6917 125.326 25.975C125.643 26.2417 125.801 26.5833 125.801 27C125.801 27.2833 125.684 27.55 125.451 27.8C125.218 28.0333 124.876 28.15 124.426 28.15C124.009 28.15 123.684 28.0417 123.451 27.825C123.218 27.6083 123.034 27.2917 122.901 26.875C122.784 26.475 122.651 26.175 122.501 25.975C122.368 25.7583 122.101 25.65 121.701 25.65C120.984 25.65 120.409 26.0083 119.976 26.725C119.559 27.4417 119.351 28.375 119.351 29.525C119.351 30.3583 119.476 31.125 119.726 31.825C119.976 32.5083 120.384 33.0583 120.951 33.475C121.518 33.875 122.276 34.075 123.226 34.075C123.726 34.075 124.143 34.0167 124.476 33.9C124.826 33.7833 125.209 33.625 125.626 33.425C125.659 33.3917 125.701 33.4083 125.751 33.475C125.818 33.5417 125.834 33.5917 125.801 33.625C125.218 34.1583 124.618 34.575 124.001 34.875C123.384 35.1583 122.659 35.3 121.826 35.3ZM129.896 30.475V29.875H134.546V30.475H129.896ZM128.771 32.975V27.375C128.771 26.6417 128.688 26.175 128.521 25.975C128.355 25.7583 127.988 25.65 127.421 25.65C127.371 25.65 127.346 25.6 127.346 25.5C127.346 25.4 127.371 25.35 127.421 25.35C127.771 25.35 128.163 25.3583 128.596 25.375C129.046 25.3917 129.505 25.4 129.971 25.4C130.421 25.4 130.863 25.3917 131.296 25.375C131.73 25.3583 132.113 25.35 132.446 25.35C132.48 25.35 132.496 25.4 132.496 25.5C132.496 25.6 132.48 25.65 132.446 25.65C131.88 25.65 131.513 25.7667 131.346 26C131.18 26.2333 131.096 26.7083 131.096 27.425V32.975C131.096 33.6917 131.18 34.1583 131.346 34.375C131.513 34.5917 131.88 34.7 132.446 34.7C132.48 34.7 132.496 34.75 132.496 34.85C132.496 34.95 132.48 35 132.446 35C132.096 35 131.705 34.9917 131.271 34.975C130.855 34.9583 130.421 34.95 129.971 34.95C129.505 34.95 129.046 34.9583 128.596 34.975C128.163 34.9917 127.763 35 127.396 35C127.346 35 127.321 34.95 127.321 34.85C127.321 34.75 127.346 34.7 127.396 34.7C127.98 34.7 128.355 34.5917 128.521 34.375C128.688 34.1583 128.771 33.6917 128.771 32.975ZM138.496 35.325C137.496 35.325 136.63 35.0833 135.896 34.6C135.18 34.1167 134.621 33.475 134.221 32.675C133.838 31.875 133.646 31.0167 133.646 30.1C133.646 29.2167 133.805 28.4583 134.121 27.825C134.438 27.1917 134.855 26.6667 135.371 26.25C135.888 25.8333 136.455 25.525 137.071 25.325C137.688 25.125 138.296 25.025 138.896 25.025C139.913 25.025 140.78 25.275 141.496 25.775C142.213 26.275 142.755 26.9167 143.121 27.7C143.505 28.4833 143.696 29.3167 143.696 30.2C143.696 31.2167 143.455 32.1167 142.971 32.9C142.488 33.6667 141.855 34.2667 141.071 34.7C140.288 35.1167 139.43 35.325 138.496 35.325ZM139.296 34.8C139.93 34.8 140.388 34.4833 140.671 33.85C140.955 33.2167 141.096 32.3417 141.096 31.225C141.096 29.825 140.93 28.7167 140.596 27.9C140.263 27.0667 139.855 26.475 139.371 26.125C138.888 25.7583 138.421 25.575 137.971 25.575C137.405 25.575 136.971 25.85 136.671 26.4C136.371 26.9333 136.221 27.7917 136.221 28.975C136.221 30.275 136.371 31.3583 136.671 32.225C136.988 33.075 137.38 33.7167 137.846 34.15C138.313 34.5833 138.796 34.8 139.296 34.8ZM144.476 38.5C144.476 37.6667 144.451 37.0417 144.401 36.625C144.368 36.2083 144.326 35.8667 144.276 35.6C144.243 35.3333 144.226 35.0333 144.226 34.7C144.226 34.5667 144.243 34.4833 144.276 34.45C144.309 34.4 144.384 34.375 144.501 34.375C145.434 34.375 146.176 33.825 146.726 32.725C147.276 31.625 147.759 30.0833 148.176 28.1C148.326 27.3667 148.376 26.825 148.326 26.475C148.276 26.1083 148.101 25.8667 147.801 25.75C147.518 25.6333 147.101 25.575 146.551 25.575C146.518 25.575 146.501 25.5333 146.501 25.45C146.501 25.35 146.518 25.3 146.551 25.3C146.868 25.3 147.184 25.3083 147.501 25.325C147.834 25.325 148.143 25.325 148.426 25.325C148.726 25.325 148.984 25.3333 149.201 25.35C149.434 25.35 149.609 25.35 149.726 25.35H155.301C155.334 25.35 155.351 25.4 155.351 25.5C155.351 25.6 155.334 25.65 155.301 25.65C154.918 25.65 154.626 25.7 154.426 25.8C154.243 25.9 154.118 26.075 154.051 26.325C153.984 26.575 153.951 26.9417 153.951 27.425V32.975C153.951 33.4417 153.968 33.775 154.001 33.975C154.034 34.175 154.159 34.3 154.376 34.35C154.593 34.4 154.968 34.425 155.501 34.425C155.634 34.425 155.718 34.4417 155.751 34.475C155.784 34.4917 155.801 34.5667 155.801 34.7C155.801 34.9833 155.776 35.275 155.726 35.575C155.693 35.8917 155.651 36.275 155.601 36.725C155.551 37.1917 155.526 37.7833 155.526 38.5C155.526 38.5667 155.476 38.6 155.376 38.6C155.293 38.6 155.251 38.5667 155.251 38.5C155.251 37.35 154.976 36.475 154.426 35.875C153.876 35.275 153.084 34.975 152.051 34.975H147.926C146.893 34.975 146.109 35.275 145.576 35.875C145.043 36.475 144.776 37.35 144.776 38.5C144.776 38.5667 144.726 38.6 144.626 38.6C144.526 38.6 144.476 38.5667 144.476 38.5ZM145.326 34.9L145.801 34.35H149.326C150.043 34.35 150.559 34.3417 150.876 34.325C151.193 34.2917 151.393 34.1833 151.476 34C151.576 33.8 151.626 33.4583 151.626 32.975V27.375C151.626 26.825 151.609 26.45 151.576 26.25C151.559 26.0333 151.476 25.9083 151.326 25.875C151.193 25.8417 150.951 25.825 150.601 25.825H149.976C149.809 25.825 149.668 25.85 149.551 25.9C149.434 25.9333 149.326 26.075 149.226 26.325C149.143 26.5583 149.034 26.9833 148.901 27.6C148.684 28.6667 148.468 29.6083 148.251 30.425C148.034 31.225 147.793 31.925 147.526 32.525C147.259 33.1083 146.943 33.6 146.576 34C146.226 34.3833 145.809 34.6833 145.326 34.9ZM164.259 35.15C164.192 35.1833 164.109 35.2 164.009 35.2C163.709 35.2 163.409 35 163.109 34.6C162.809 34.2 162.659 33.625 162.659 32.875V28.625C162.659 27.975 162.617 27.4333 162.534 27C162.45 26.5667 162.317 26.2417 162.134 26.025C161.95 25.8083 161.7 25.7 161.384 25.7C161.134 25.7 160.909 25.7667 160.709 25.9C160.509 26.0167 160.35 26.2167 160.234 26.5C160.117 26.7667 160.042 27.1417 160.009 27.625C159.959 28.1083 159.809 28.4667 159.559 28.7C159.309 28.9167 158.967 29.025 158.534 29.025C158.117 29.025 157.817 28.9333 157.634 28.75C157.45 28.5667 157.359 28.3167 157.359 28C157.359 27.6333 157.534 27.2833 157.884 26.95C158.234 26.6 158.667 26.2917 159.184 26.025C159.717 25.7417 160.267 25.525 160.834 25.375C161.4 25.2083 161.909 25.125 162.359 25.125C163.092 25.125 163.717 25.35 164.234 25.8C164.75 26.2333 165.009 26.925 165.009 27.875V32.3C165.009 32.7833 165.092 33.1583 165.259 33.425C165.442 33.6917 165.692 33.825 166.009 33.825C166.242 33.825 166.484 33.7667 166.734 33.65C166.8 33.6167 166.85 33.65 166.884 33.75C166.934 33.8333 166.917 33.8917 166.834 33.925L164.259 35.15ZM159.009 35.175C158.492 35.175 158.075 35.0417 157.759 34.775C157.442 34.4917 157.284 34.0917 157.284 33.575C157.284 32.975 157.509 32.55 157.959 32.3C158.425 32.0333 159.142 31.7417 160.109 31.425L162.909 30.525L163.009 30.9L161.284 31.525C160.834 31.6917 160.509 31.875 160.309 32.075C160.125 32.275 160.034 32.5167 160.034 32.8C160.034 33.15 160.134 33.425 160.334 33.625C160.534 33.825 160.784 33.925 161.084 33.925C161.217 33.925 161.392 33.9 161.609 33.85C161.842 33.7833 162.092 33.6917 162.359 33.575L163.734 32.825L163.759 33.25L161.609 34.425C161.192 34.6417 160.75 34.825 160.284 34.975C159.817 35.1083 159.392 35.175 159.009 35.175ZM168.331 19.625C168.314 19.5417 168.398 19.475 168.581 19.425C168.781 19.375 169.023 19.3417 169.306 19.325C169.589 19.2917 169.848 19.275 170.081 19.275C170.314 19.275 170.573 19.2917 170.856 19.325C171.139 19.3417 171.381 19.375 171.581 19.425C171.798 19.475 171.889 19.5417 171.856 19.625C171.556 20.675 171.314 21.8167 171.131 23.05C170.964 24.2667 170.831 25.5 170.731 26.75C170.631 27.9833 170.539 29.1583 170.456 30.275C170.456 30.325 170.381 30.3667 170.231 30.4C170.098 30.4167 169.956 30.4167 169.806 30.4C169.673 30.3667 169.606 30.325 169.606 30.275C169.539 29.1583 169.456 27.9833 169.356 26.75C169.273 25.5 169.148 24.2667 168.981 23.05C168.831 21.8167 168.614 20.675 168.331 19.625ZM169.931 35.275C169.464 35.275 169.089 35.1417 168.806 34.875C168.539 34.5917 168.406 34.2167 168.406 33.75C168.406 33.3167 168.539 32.9667 168.806 32.7C169.089 32.4333 169.464 32.3 169.931 32.3C170.414 32.3 170.781 32.4333 171.031 32.7C171.281 32.9667 171.406 33.3167 171.406 33.75C171.406 34.2167 171.281 34.5917 171.031 34.875C170.781 35.1417 170.414 35.275 169.931 35.275Z" fill="#526B4B"/>
<rect x="2.5" y="2.5" width="225" height="47" rx="23.5" stroke="#526B4B" stroke-width="5"/>
</svg>
