<svg width="390" height="103" viewBox="0 0 390 103" fill="none" xmlns="http://www.w3.org/2000/svg">
<rect x="2.5" y="2.5" width="385" height="98" rx="49" fill="#FDAEC3" stroke="#526B4B" stroke-width="5"/>
<path d="M103.78 63C103.535 63 103.304 62.9592 103.086 62.8775C102.895 62.7958 102.609 62.5507 102.228 62.1423C101.874 61.7338 101.357 61.0667 100.676 60.1409C99.9955 59.1879 99.056 57.8537 97.858 56.1382C96.9866 54.9129 96.2787 53.9054 95.7341 53.1158C95.1895 52.3261 94.6994 51.7271 94.2637 51.3186C93.8553 50.883 93.4196 50.5834 92.9567 50.4201C92.4938 50.2295 91.9084 50.1342 91.2004 50.1342C90.9553 50.1342 90.6967 50.1478 90.4244 50.175C90.1521 50.2022 89.8662 50.2295 89.5666 50.2567L89.5258 49.5215C91.4046 49.4398 92.8886 49.399 93.9778 49.399C94.9853 49.399 95.8294 49.4807 96.5101 49.644C97.1908 49.7802 97.8035 50.0661 98.3481 50.5018C98.9199 50.9102 99.5189 51.5092 100.145 52.2989C100.799 53.0613 101.575 54.0688 102.473 55.3213C103.562 56.819 104.502 58.0987 105.292 59.1607C106.108 60.2226 106.884 61.0395 107.62 61.6113C108.382 62.1831 109.199 62.4826 110.07 62.5099C110.152 62.5099 110.193 62.5916 110.193 62.7549C110.193 62.9183 110.152 63 110.07 63H103.78ZM83.4809 63C83.3992 63 83.3584 62.9183 83.3584 62.7549C83.3584 62.5916 83.3992 62.5099 83.4809 62.5099C84.3795 62.5099 85.0602 62.4418 85.5231 62.3057C85.986 62.1695 86.2855 61.8972 86.4217 61.4888C86.585 61.0803 86.6667 60.4813 86.6667 59.6916V40.7809C86.6667 39.9912 86.585 39.4058 86.4217 39.0246C86.2855 38.6162 85.986 38.3439 85.5231 38.2077C85.0874 38.0444 84.4203 37.9627 83.5217 37.9627C83.44 37.9627 83.3992 37.881 83.3992 37.7176C83.3992 37.5542 83.44 37.4725 83.5217 37.4725C84.2297 37.4725 85.0193 37.4998 85.8907 37.5542C86.762 37.5815 87.6878 37.5951 88.6681 37.5951C89.7845 37.5951 90.8192 37.5815 91.7722 37.5542C92.7525 37.4998 93.6102 37.4725 94.3454 37.4725C94.4271 37.4725 94.4679 37.5542 94.4679 37.7176C94.4679 37.881 94.4271 37.9627 94.3454 37.9627C93.474 37.9627 92.8069 38.0444 92.344 38.2077C91.8811 38.3711 91.568 38.657 91.4046 39.0655C91.2685 39.4739 91.2004 40.0729 91.2004 40.8626V59.6916C91.2004 60.4813 91.2685 61.0803 91.4046 61.4888C91.568 61.8972 91.8675 62.1695 92.3032 62.3057C92.7661 62.4418 93.4468 62.5099 94.3454 62.5099C94.4271 62.5099 94.4679 62.5916 94.4679 62.7549C94.4679 62.9183 94.4271 63 94.3454 63C93.583 63 92.7252 62.9864 91.7722 62.9592C90.8192 62.9319 89.7845 62.9183 88.6681 62.9183C87.6878 62.9183 86.7484 62.9319 85.8498 62.9592C84.9785 62.9864 84.1889 63 83.4809 63ZM94.5088 50.0525L93.7736 49.6849L98.2664 43.5174C99.4917 41.8292 100.036 40.4814 99.9002 39.4739C99.7912 38.4664 99.2467 37.9627 98.2664 37.9627C98.2119 37.9627 98.1847 37.881 98.1847 37.7176C98.1847 37.5542 98.2119 37.4725 98.2664 37.4725C98.9199 37.4725 99.6551 37.4998 100.472 37.5542C101.289 37.5815 102.242 37.5951 103.331 37.5951C104.584 37.5951 105.564 37.5815 106.272 37.5542C107.007 37.4998 107.715 37.4725 108.396 37.4725C108.477 37.4725 108.518 37.5542 108.518 37.7176C108.518 37.881 108.477 37.9627 108.396 37.9627C107.606 37.9627 106.735 38.1669 105.782 38.5753C104.829 38.9565 103.889 39.5011 102.963 40.2091C102.065 40.8898 101.262 41.6658 100.554 42.5372L94.5088 50.0525ZM125.361 47.2342C125.416 47.2342 125.443 47.3159 125.443 47.4793C125.443 47.6427 125.416 47.7244 125.361 47.7244C124.435 47.7244 123.659 48.1192 123.033 48.9088C122.407 49.6985 121.849 50.7604 121.359 52.0947L116.825 64.1436C115.845 66.7576 114.892 68.8135 113.966 70.3111C113.067 71.8359 112.155 72.9115 111.229 73.5377C110.303 74.164 109.323 74.4771 108.288 74.4771C107.499 74.4771 106.886 74.3002 106.451 73.9462C105.988 73.6194 105.756 73.1293 105.756 72.4758C105.756 71.8223 105.96 71.3322 106.369 71.0054C106.75 70.7059 107.199 70.5561 107.717 70.5561C108.18 70.5561 108.547 70.6378 108.819 70.8012C109.092 70.9918 109.364 71.1688 109.636 71.3322C109.909 71.5228 110.263 71.6181 110.698 71.6181C111.352 71.6181 111.951 71.3322 112.495 70.7603C113.04 70.2158 113.625 69.2627 114.252 67.9013C114.878 66.567 115.613 64.7291 116.457 62.3873L116.335 64.6338L109.391 50.6243C108.792 49.4262 108.316 48.6502 107.962 48.2962C107.635 47.915 107.227 47.7244 106.736 47.7244C106.655 47.7244 106.614 47.6427 106.614 47.4793C106.614 47.3159 106.655 47.2342 106.736 47.2342C107.281 47.2342 107.853 47.2479 108.452 47.2751C109.078 47.3023 109.664 47.3159 110.208 47.3159C111.188 47.3159 112.046 47.3023 112.781 47.2751C113.517 47.2479 114.184 47.2342 114.783 47.2342C114.864 47.2342 114.905 47.3159 114.905 47.4793C114.905 47.6427 114.864 47.7244 114.783 47.7244C113.83 47.7244 113.217 47.8333 112.945 48.0511C112.672 48.269 112.686 48.691 112.986 49.3173L118.173 59.9367L116.702 62.3465L120.256 52.0538C120.719 50.7196 120.746 49.6713 120.337 48.9088C119.956 48.1192 119.207 47.7244 118.091 47.7244C118.037 47.7244 118.009 47.6427 118.009 47.4793C118.009 47.3159 118.037 47.2342 118.091 47.2342C118.745 47.2342 119.357 47.2479 119.929 47.2751C120.528 47.3023 121.29 47.3159 122.216 47.3159C122.87 47.3159 123.401 47.3023 123.809 47.2751C124.245 47.2479 124.762 47.2342 125.361 47.2342ZM145.324 62.5099C145.379 62.5099 145.406 62.5916 145.406 62.7549C145.406 62.9183 145.379 63 145.324 63C144.752 63 144.112 62.9864 143.404 62.9592C142.724 62.9319 142.016 62.9183 141.28 62.9183C140.6 62.9183 139.933 62.9319 139.279 62.9592C138.626 62.9864 138.04 63 137.523 63C137.468 63 137.441 62.9183 137.441 62.7549C137.441 62.5916 137.468 62.5099 137.523 62.5099C138.285 62.5099 138.775 62.3329 138.993 61.9789C139.211 61.6249 139.32 60.8625 139.32 59.6916V50.5426C139.32 49.7257 139.306 49.1539 139.279 48.8272C139.252 48.4732 139.143 48.269 138.952 48.2145C138.789 48.1328 138.503 48.092 138.095 48.092H133.398C132.989 48.092 132.69 48.1328 132.499 48.2145C132.336 48.2962 132.227 48.514 132.172 48.868C132.145 49.1947 132.131 49.7802 132.131 50.6243V59.6916C132.131 60.8625 132.227 61.6249 132.417 61.9789C132.635 62.3329 133.112 62.5099 133.847 62.5099C133.929 62.5099 133.969 62.5916 133.969 62.7549C133.969 62.9183 133.929 63 133.847 63C133.357 63 132.799 62.9864 132.172 62.9592C131.546 62.9319 130.92 62.9183 130.293 62.9183C129.531 62.9183 128.782 62.9319 128.047 62.9592C127.339 62.9864 126.686 63 126.087 63C126.005 63 125.964 62.9183 125.964 62.7549C125.964 62.5916 126.005 62.5099 126.087 62.5099C127.04 62.5099 127.652 62.3329 127.925 61.9789C128.197 61.6249 128.333 60.8625 128.333 59.6916V50.5426C128.333 49.3445 128.197 48.5821 127.925 48.2553C127.652 47.9014 127.053 47.7244 126.127 47.7244C126.046 47.7244 126.005 47.6427 126.005 47.4793C126.005 47.3159 126.046 47.2342 126.127 47.2342H145.324C145.379 47.2342 145.406 47.3159 145.406 47.4793C145.406 47.6427 145.379 47.7244 145.324 47.7244C144.398 47.7244 143.799 47.915 143.527 48.2962C143.255 48.6774 143.118 49.4534 143.118 50.6243V59.6916C143.118 60.8625 143.255 61.6249 143.527 61.9789C143.799 62.3329 144.398 62.5099 145.324 62.5099ZM151.906 61.5296L151.171 60.7944L162.24 49.7257L162.975 50.4201L151.906 61.5296ZM150.191 59.6916V50.5426C150.191 49.3445 150.055 48.5821 149.782 48.2553C149.51 47.9014 148.911 47.7244 147.985 47.7244C147.904 47.7244 147.863 47.6427 147.863 47.4793C147.863 47.3159 147.904 47.2342 147.985 47.2342C148.557 47.2342 149.197 47.2479 149.905 47.2751C150.64 47.3023 151.389 47.3159 152.151 47.3159C152.887 47.3159 153.608 47.3023 154.316 47.2751C155.024 47.2479 155.65 47.2342 156.195 47.2342C156.249 47.2342 156.277 47.3159 156.277 47.4793C156.277 47.6427 156.249 47.7244 156.195 47.7244C155.269 47.7244 154.67 47.915 154.398 48.2962C154.125 48.6774 153.989 49.4534 153.989 50.6243V59.6916C153.989 60.8625 154.125 61.6249 154.398 61.9789C154.67 62.3329 155.269 62.5099 156.195 62.5099C156.249 62.5099 156.277 62.5916 156.277 62.7549C156.277 62.9183 156.249 63 156.195 63C155.623 63 154.983 62.9864 154.275 62.9592C153.595 62.9319 152.887 62.9183 152.151 62.9183C151.389 62.9183 150.64 62.9319 149.905 62.9592C149.197 62.9864 148.543 63 147.944 63C147.863 63 147.822 62.9183 147.822 62.7549C147.822 62.5916 147.863 62.5099 147.944 62.5099C148.897 62.5099 149.51 62.3329 149.782 61.9789C150.055 61.6249 150.191 60.8625 150.191 59.6916ZM161.178 59.6916V50.5426C161.178 49.3445 161.042 48.5821 160.769 48.2553C160.497 47.9014 159.898 47.7244 158.972 47.7244C158.891 47.7244 158.85 47.6427 158.85 47.4793C158.85 47.3159 158.891 47.2342 158.972 47.2342C159.544 47.2342 160.184 47.2479 160.892 47.2751C161.627 47.3023 162.376 47.3159 163.138 47.3159C163.874 47.3159 164.595 47.3023 165.303 47.2751C166.011 47.2479 166.637 47.2342 167.182 47.2342C167.236 47.2342 167.264 47.3159 167.264 47.4793C167.264 47.6427 167.236 47.7244 167.182 47.7244C166.256 47.7244 165.657 47.915 165.385 48.2962C165.112 48.6774 164.976 49.4534 164.976 50.6243V59.6916C164.976 60.8625 165.112 61.6249 165.385 61.9789C165.657 62.3329 166.256 62.5099 167.182 62.5099C167.236 62.5099 167.264 62.5916 167.264 62.7549C167.264 62.9183 167.236 63 167.182 63C166.61 63 165.97 62.9864 165.262 62.9592C164.582 62.9319 163.874 62.9183 163.138 62.9183C162.376 62.9183 161.627 62.9319 160.892 62.9592C160.157 62.9864 159.503 63 158.931 63C158.85 63 158.809 62.9183 158.809 62.7549C158.809 62.5916 158.85 62.5099 158.931 62.5099C159.884 62.5099 160.497 62.3329 160.769 61.9789C161.042 61.6249 161.178 60.8625 161.178 59.6916ZM172.866 63C172.784 63 172.743 62.9183 172.743 62.7549C172.743 62.5916 172.784 62.5099 172.866 62.5099C173.819 62.5099 174.431 62.3329 174.704 61.9789C174.976 61.6249 175.112 60.8625 175.112 59.6916V50.6243C175.112 49.6713 175.044 49.0178 174.908 48.6638C174.772 48.3098 174.472 48.1328 174.009 48.1328C173.111 48.1328 172.362 48.4732 171.763 49.1539C171.164 49.8074 170.592 50.9238 170.047 52.5031C170.02 52.5848 169.925 52.6256 169.761 52.6256C169.625 52.6256 169.557 52.5848 169.557 52.5031C169.557 52.1219 169.557 51.5501 169.557 50.7877C169.557 50.0252 169.544 49.2356 169.516 48.4187C169.516 47.6018 169.516 46.9483 169.516 46.4582C169.516 46.3221 169.598 46.254 169.761 46.254C169.925 46.254 170.007 46.3221 170.007 46.4582C170.007 46.8122 170.551 47.0436 171.64 47.1526C172.757 47.2342 174.595 47.2751 177.154 47.2751C178.706 47.2751 179.986 47.2615 180.994 47.2342C182.001 47.1798 182.75 47.0981 183.24 46.9892C183.73 46.8803 183.975 46.7033 183.975 46.4582C183.975 46.3221 184.057 46.254 184.22 46.254C184.384 46.254 184.465 46.3221 184.465 46.4582C184.465 46.9483 184.465 47.6018 184.465 48.4187C184.465 49.2356 184.452 50.0252 184.424 50.7877C184.424 51.5501 184.424 52.1219 184.424 52.5031C184.424 52.5848 184.343 52.6256 184.179 52.6256C184.043 52.6256 183.962 52.5848 183.934 52.5031C183.417 50.9238 182.845 49.8074 182.219 49.1539C181.62 48.4732 180.885 48.1328 180.013 48.1328C179.578 48.1328 179.278 48.3098 179.115 48.6638C178.979 49.0178 178.911 49.6713 178.911 50.6243V59.6916C178.911 60.8625 179.047 61.6249 179.319 61.9789C179.591 62.3329 180.19 62.5099 181.116 62.5099C181.198 62.5099 181.239 62.5916 181.239 62.7549C181.239 62.9183 181.198 63 181.116 63C180.544 63 179.904 62.9864 179.196 62.9592C178.516 62.9319 177.808 62.9183 177.073 62.9183C176.31 62.9183 175.561 62.9319 174.826 62.9592C174.118 62.9864 173.465 63 172.866 63ZM192.839 50.6243V59.6916C192.839 60.6174 192.989 61.3118 193.288 61.7747C193.615 62.2376 194.241 62.469 195.167 62.469C196.283 62.469 197.087 62.1695 197.577 61.5705C198.094 60.9714 198.353 60.0456 198.353 58.7931C198.353 57.5405 198.081 56.5194 197.536 55.7298C196.991 54.9401 196.038 54.5453 194.677 54.5453C194.214 54.5453 193.697 54.6134 193.125 54.7495C192.58 54.8584 191.995 55.0627 191.369 55.3622L191.123 54.5861C191.995 54.2049 192.866 53.9599 193.738 53.851C194.609 53.7148 195.412 53.6467 196.147 53.6467C200.341 53.6467 202.437 55.0627 202.437 57.8945C202.437 59.4738 201.838 60.74 200.64 61.693C199.442 62.6188 197.904 63.0817 196.025 63.0817C195.644 63.0817 195.153 63.0681 194.554 63.0408C193.955 63.0136 193.329 62.9864 192.676 62.9592C192.049 62.9319 191.491 62.9183 191.001 62.9183C190.239 62.9183 189.49 62.9319 188.755 62.9592C188.047 62.9864 187.393 63 186.794 63C186.712 63 186.672 62.9183 186.672 62.7549C186.672 62.5916 186.712 62.5099 186.794 62.5099C187.747 62.5099 188.36 62.3329 188.632 61.9789C188.904 61.6249 189.04 60.8625 189.04 59.6916V50.5426C189.04 49.3445 188.904 48.5821 188.632 48.2553C188.36 47.9014 187.761 47.7244 186.835 47.7244C186.753 47.7244 186.712 47.6427 186.712 47.4793C186.712 47.3159 186.753 47.2342 186.835 47.2342C187.407 47.2342 188.047 47.2479 188.755 47.2751C189.49 47.3023 190.239 47.3159 191.001 47.3159C191.818 47.3159 192.621 47.3023 193.411 47.2751C194.2 47.2479 194.908 47.2342 195.535 47.2342C195.589 47.2342 195.616 47.3159 195.616 47.4793C195.616 47.6427 195.589 47.7244 195.535 47.7244C194.364 47.7244 193.615 47.915 193.288 48.2962C192.989 48.6774 192.839 49.4534 192.839 50.6243ZM221.918 63.531C220.502 63.531 219.181 63.2042 217.956 62.5507C216.758 61.87 215.791 60.808 215.056 59.3649C214.348 57.9217 213.994 56.0565 213.994 53.7693C213.994 50.3111 214.375 47.5065 215.137 45.3554C215.9 43.1771 216.989 41.4889 218.405 40.2908C219.821 39.0655 221.496 38.1669 223.429 37.5951C224.327 37.3228 225.144 37.0505 225.879 36.7782C226.615 36.4787 227.268 36.0702 227.84 35.5529C228.439 35.0355 228.943 34.3139 229.351 33.3881C229.378 33.3065 229.46 33.2792 229.596 33.3065C229.732 33.3337 229.787 33.3881 229.76 33.4698C229.542 34.9402 229.269 36.1383 228.943 37.0641C228.643 37.9627 228.248 38.6842 227.758 39.2288C227.295 39.7734 226.71 40.2227 226.002 40.5767C225.294 40.9034 224.436 41.2302 223.429 41.5569C222.258 41.9109 221.155 42.3738 220.12 42.9456C219.086 43.5174 218.16 44.3071 217.343 45.3146C216.553 46.3221 215.927 47.6563 215.464 49.3173C215.029 50.951 214.811 53.0341 214.811 55.5664L214.443 53.9326C214.961 52.2717 215.614 50.9783 216.404 50.0525C217.221 49.1267 218.037 48.4732 218.854 48.092C219.698 47.6835 220.434 47.4385 221.06 47.3568C221.713 47.2479 222.163 47.1934 222.408 47.1934C224.041 47.1934 225.403 47.4385 226.492 47.9286C227.609 48.3915 228.493 49.0178 229.147 49.8074C229.828 50.5971 230.304 51.4548 230.577 52.3806C230.876 53.2791 231.026 54.1641 231.026 55.0354C231.026 56.8053 230.59 58.3302 229.719 59.61C228.875 60.8625 227.758 61.8291 226.37 62.5099C225.008 63.1906 223.524 63.531 221.918 63.531ZM223.51 62.6732C224.545 62.6732 225.348 62.1423 225.92 61.0803C226.492 60.0184 226.778 58.4391 226.778 56.3424C226.778 54.4908 226.547 52.9524 226.084 51.7271C225.621 50.4745 225.022 49.5487 224.287 48.9497C223.551 48.3234 222.748 48.0103 221.877 48.0103C221.005 48.0103 220.311 48.3234 219.794 48.9497C219.304 49.5487 218.95 50.3248 218.732 51.2778C218.541 52.2036 218.446 53.1838 218.446 54.2186C218.446 55.8251 218.65 57.2682 219.059 58.548C219.467 59.8278 220.052 60.8353 220.815 61.5705C221.577 62.3057 222.476 62.6732 223.51 62.6732ZM237.543 61.5296L236.808 60.7944L247.876 49.7257L248.612 50.4201L237.543 61.5296ZM235.828 59.6916V50.5426C235.828 49.3445 235.691 48.5821 235.419 48.2553C235.147 47.9014 234.548 47.7244 233.622 47.7244C233.54 47.7244 233.499 47.6427 233.499 47.4793C233.499 47.3159 233.54 47.2342 233.622 47.2342C234.194 47.2342 234.834 47.2479 235.542 47.2751C236.277 47.3023 237.026 47.3159 237.788 47.3159C238.523 47.3159 239.245 47.3023 239.953 47.2751C240.661 47.2479 241.287 47.2342 241.832 47.2342C241.886 47.2342 241.913 47.3159 241.913 47.4793C241.913 47.6427 241.886 47.7244 241.832 47.7244C240.906 47.7244 240.307 47.915 240.034 48.2962C239.762 48.6774 239.626 49.4534 239.626 50.6243V59.6916C239.626 60.8625 239.762 61.6249 240.034 61.9789C240.307 62.3329 240.906 62.5099 241.832 62.5099C241.886 62.5099 241.913 62.5916 241.913 62.7549C241.913 62.9183 241.886 63 241.832 63C241.26 63 240.62 62.9864 239.912 62.9592C239.231 62.9319 238.523 62.9183 237.788 62.9183C237.026 62.9183 236.277 62.9319 235.542 62.9592C234.834 62.9864 234.18 63 233.581 63C233.499 63 233.459 62.9183 233.459 62.7549C233.459 62.5916 233.499 62.5099 233.581 62.5099C234.534 62.5099 235.147 62.3329 235.419 61.9789C235.691 61.6249 235.828 60.8625 235.828 59.6916ZM246.815 59.6916V50.5426C246.815 49.3445 246.678 48.5821 246.406 48.2553C246.134 47.9014 245.535 47.7244 244.609 47.7244C244.527 47.7244 244.486 47.6427 244.486 47.4793C244.486 47.3159 244.527 47.2342 244.609 47.2342C245.181 47.2342 245.821 47.2479 246.529 47.2751C247.264 47.3023 248.013 47.3159 248.775 47.3159C249.51 47.3159 250.232 47.3023 250.94 47.2751C251.648 47.2479 252.274 47.2342 252.819 47.2342C252.873 47.2342 252.9 47.3159 252.9 47.4793C252.9 47.6427 252.873 47.7244 252.819 47.7244C251.893 47.7244 251.294 47.915 251.021 48.2962C250.749 48.6774 250.613 49.4534 250.613 50.6243V59.6916C250.613 60.8625 250.749 61.6249 251.021 61.9789C251.294 62.3329 251.893 62.5099 252.819 62.5099C252.873 62.5099 252.9 62.5916 252.9 62.7549C252.9 62.9183 252.873 63 252.819 63C252.247 63 251.607 62.9864 250.899 62.9592C250.218 62.9319 249.51 62.9183 248.775 62.9183C248.013 62.9183 247.264 62.9319 246.529 62.9592C245.793 62.9864 245.14 63 244.568 63C244.486 63 244.446 62.9183 244.446 62.7549C244.446 62.5916 244.486 62.5099 244.568 62.5099C245.521 62.5099 246.134 62.3329 246.406 61.9789C246.678 61.6249 246.815 60.8625 246.815 59.6916ZM256.378 63.3676C254.935 63.3676 254.214 62.7413 254.214 61.4888C254.214 60.808 254.404 60.3451 254.785 60.1001C255.194 59.855 255.616 59.7325 256.052 59.7325C256.351 59.7325 256.596 59.7733 256.787 59.855C256.977 59.9095 257.182 59.9367 257.399 59.9367C257.999 59.9367 258.53 59.61 258.992 58.9564C259.455 58.2757 259.837 57.4316 260.136 56.4241C260.436 55.4166 260.667 54.3547 260.83 53.2383C260.994 52.1219 261.075 51.1144 261.075 50.2158C261.075 49.1811 260.858 48.4868 260.422 48.1328C259.986 47.7788 259.292 47.6018 258.339 47.6018C258.257 47.6018 258.216 47.5338 258.216 47.3976C258.216 47.2342 258.257 47.1526 258.339 47.1526C258.557 47.1526 258.965 47.1662 259.564 47.1934C260.19 47.1934 260.871 47.1934 261.606 47.1934C262.342 47.1934 263.009 47.207 263.608 47.2342C264.234 47.2342 264.67 47.2342 264.915 47.2342H272.185C272.267 47.2342 272.308 47.3159 272.308 47.4793C272.308 47.6427 272.267 47.7244 272.185 47.7244C271.559 47.7244 271.082 47.8061 270.755 47.9694C270.456 48.1328 270.252 48.4187 270.143 48.8272C270.034 49.2356 269.979 49.8346 269.979 50.6243V59.6916C269.979 60.4813 270.034 61.0803 270.143 61.4888C270.252 61.8972 270.456 62.1695 270.755 62.3057C271.082 62.4418 271.559 62.5099 272.185 62.5099C272.267 62.5099 272.308 62.5916 272.308 62.7549C272.308 62.9183 272.267 63 272.185 63C271.613 63 270.973 62.9864 270.265 62.9592C269.585 62.9319 268.877 62.9183 268.141 62.9183C267.379 62.9183 266.63 62.9319 265.895 62.9592C265.16 62.9864 264.506 63 263.935 63C263.853 63 263.812 62.9183 263.812 62.7549C263.812 62.5916 263.853 62.5099 263.935 62.5099C264.588 62.5099 265.065 62.4418 265.364 62.3057C265.691 62.1695 265.909 61.8972 266.018 61.4888C266.126 61.0803 266.181 60.4813 266.181 59.6916V50.5426C266.181 49.6985 266.167 49.1131 266.14 48.7863C266.113 48.4323 266.004 48.2145 265.813 48.1328C265.65 48.0511 265.364 48.0103 264.956 48.0103H264.465C263.73 48.0103 263.199 48.0647 262.873 48.1737C262.573 48.2826 262.382 48.514 262.301 48.868C262.246 49.1947 262.178 49.7121 262.097 50.4201C262.015 51.1553 261.933 52.0674 261.851 53.1566C261.77 54.2458 261.62 55.3894 261.402 56.5875C261.212 57.7584 260.912 58.8611 260.504 59.8959C260.122 60.9033 259.591 61.7338 258.911 62.3873C258.257 63.0408 257.413 63.3676 256.378 63.3676ZM283.075 63.4901C281.305 63.4901 279.794 63.1225 278.542 62.3873C277.316 61.6521 276.377 60.6855 275.723 59.4874C275.097 58.2621 274.784 56.9687 274.784 55.6072C274.784 54.0007 275.192 52.544 276.009 51.2369C276.826 49.9027 277.929 48.8408 279.318 48.0511C280.734 47.2615 282.327 46.8666 284.096 46.8666C285.785 46.8666 287.078 47.2342 287.977 47.9694C288.875 48.6774 289.324 49.6576 289.324 50.9102C289.324 51.2097 289.297 51.482 289.243 51.7271C289.188 51.9721 289.066 52.0947 288.875 52.0947H284.954C285.009 50.8149 284.859 49.7666 284.505 48.9497C284.151 48.1056 283.511 47.6835 282.585 47.6835C281.496 47.6835 280.611 48.2553 279.93 49.399C279.25 50.5154 278.909 52.013 278.909 53.8918C278.909 55.4166 279.154 56.7509 279.644 57.8945C280.135 59.0381 280.843 59.9231 281.768 60.5494C282.694 61.1756 283.811 61.4888 285.118 61.4888C285.771 61.4888 286.465 61.3935 287.201 61.2029C287.963 61.0123 288.644 60.7264 289.243 60.3451C289.297 60.2907 289.365 60.3179 289.447 60.4268C289.556 60.5357 289.583 60.6311 289.529 60.7127C288.521 61.7202 287.486 62.4418 286.425 62.8775C285.39 63.2859 284.273 63.4901 283.075 63.4901ZM277.48 52.1764L277.439 51.4003L286.384 51.1961V52.0947L277.48 52.1764ZM294.919 63C294.837 63 294.796 62.9183 294.796 62.7549C294.796 62.5916 294.837 62.5099 294.919 62.5099C295.872 62.5099 296.484 62.3329 296.757 61.9789C297.029 61.6249 297.165 60.8625 297.165 59.6916V50.6243C297.165 49.6713 297.097 49.0178 296.961 48.6638C296.825 48.3098 296.525 48.1328 296.062 48.1328C295.164 48.1328 294.415 48.4732 293.816 49.1539C293.217 49.8074 292.645 50.9238 292.101 52.5031C292.073 52.5848 291.978 52.6256 291.815 52.6256C291.678 52.6256 291.61 52.5848 291.61 52.5031C291.61 52.1219 291.61 51.5501 291.61 50.7877C291.61 50.0252 291.597 49.2356 291.57 48.4187C291.57 47.6018 291.57 46.9483 291.57 46.4582C291.57 46.3221 291.651 46.254 291.815 46.254C291.978 46.254 292.06 46.3221 292.06 46.4582C292.06 46.8122 292.604 47.0436 293.693 47.1526C294.81 47.2342 296.648 47.2751 299.207 47.2751C300.759 47.2751 302.039 47.2615 303.047 47.2342C304.054 47.1798 304.803 47.0981 305.293 46.9892C305.783 46.8803 306.028 46.7033 306.028 46.4582C306.028 46.3221 306.11 46.254 306.273 46.254C306.437 46.254 306.518 46.3221 306.518 46.4582C306.518 46.9483 306.518 47.6018 306.518 48.4187C306.518 49.2356 306.505 50.0252 306.478 50.7877C306.478 51.5501 306.478 52.1219 306.478 52.5031C306.478 52.5848 306.396 52.6256 306.233 52.6256C306.096 52.6256 306.015 52.5848 305.987 52.5031C305.47 50.9238 304.898 49.8074 304.272 49.1539C303.673 48.4732 302.938 48.1328 302.066 48.1328C301.631 48.1328 301.331 48.3098 301.168 48.6638C301.032 49.0178 300.964 49.6713 300.964 50.6243V59.6916C300.964 60.8625 301.1 61.6249 301.372 61.9789C301.644 62.3329 302.243 62.5099 303.169 62.5099C303.251 62.5099 303.292 62.5916 303.292 62.7549C303.292 62.9183 303.251 63 303.169 63C302.597 63 301.958 62.9864 301.25 62.9592C300.569 62.9319 299.861 62.9183 299.126 62.9183C298.363 62.9183 297.614 62.9319 296.879 62.9592C296.171 62.9864 295.518 63 294.919 63Z" fill="#526B4B"/>
</svg>
