<svg width="846" height="183" viewBox="0 0 846 183" fill="none" xmlns="http://www.w3.org/2000/svg">
<path d="M103.336 82.222H109.141V133.843H103.336L98.7753 117.05C98.3607 115.392 97.877 114.217 97.3241 113.526C96.9095 112.697 96.0112 112.213 94.6291 112.075C93.247 111.798 90.8975 111.66 87.5805 111.66H66.2274V160.586C66.2274 165.285 66.4347 168.118 66.8493 169.086C67.2639 169.915 68.5769 170.468 70.7882 170.744L86.3366 172.195V178H25.387V172.195L36.7891 170.744C39.0004 170.468 40.3134 169.915 40.728 169.086C41.1427 168.118 41.35 165.285 41.35 160.586V54.4422C41.35 49.7431 41.1427 46.979 40.728 46.1497C40.3134 45.1823 39.0004 44.5603 36.7891 44.2839L25.387 42.8327V37.028H123.653V72.6856H117.848L111.214 49.674C110.799 48.0155 110.316 46.8408 109.763 46.1497C109.348 45.3205 108.45 44.8368 107.068 44.6986C105.686 44.4221 103.336 44.2839 100.019 44.2839H66.2274V104.404H87.5805C90.8975 104.404 93.247 104.335 94.6291 104.197C96.0112 103.921 96.9095 103.437 97.3241 102.746C97.877 101.917 98.3607 100.673 98.7753 99.0142L103.336 82.222ZM257.309 100.88V113.941C257.309 135.225 252.541 151.602 243.004 163.074C233.606 174.407 219.647 180.073 201.127 180.073C182.608 180.073 168.579 174.407 159.043 163.074C149.645 151.602 144.946 135.225 144.946 113.941V100.88C144.946 79.596 149.645 63.2875 159.043 51.9545C168.579 40.6214 182.608 34.9549 201.127 34.9549C219.647 34.9549 233.606 40.6214 243.004 51.9545C252.541 63.2875 257.309 79.596 257.309 100.88ZM230.773 90.5144C230.773 78.3522 229.736 68.8158 227.663 61.9054C225.59 54.8568 222.342 49.8122 217.92 46.7717C213.635 43.7311 208.038 42.2108 201.127 42.2108C194.355 42.2108 188.758 43.7311 184.335 46.7717C179.912 49.8122 176.665 54.8568 174.591 61.9054C172.518 68.8158 171.482 78.3522 171.482 90.5144V124.306C171.482 136.33 172.518 145.867 174.591 152.915C176.665 159.964 179.912 165.078 184.335 168.256C188.758 171.297 194.355 172.817 201.127 172.817C208.038 172.817 213.635 171.297 217.92 168.256C222.342 165.078 225.59 159.964 227.663 152.915C229.736 145.867 230.773 136.33 230.773 124.306V90.5144ZM402.447 172.195V178H362.435V172.195L373.838 170.744C375.358 170.468 376.463 170.191 377.154 169.915C377.846 169.5 378.467 168.602 379.02 167.22C379.573 165.838 380.333 163.626 381.301 160.586L420.897 37.028H438.726L478.53 160.586C479.497 163.626 480.258 165.838 480.81 167.22C481.363 168.602 481.985 169.5 482.676 169.915C483.505 170.191 484.611 170.468 485.993 170.744L497.395 172.195V178H440.177V172.195L451.579 170.744C453.791 170.468 454.966 169.915 455.104 169.086C455.38 168.118 454.758 165.285 453.238 160.586L445.36 134.879H397.471L389.386 160.586C388.004 165.285 387.382 168.118 387.52 169.086C387.658 169.915 388.833 170.468 391.044 170.744L402.447 172.195ZM399.959 127.623H443.08L421.727 58.7957L399.959 127.623ZM504.998 42.8327V37.028H561.801V42.8327L550.399 44.2839C548.188 44.5603 546.875 45.1823 546.46 46.1497C546.046 46.979 545.838 49.7431 545.838 54.4422V160.586C545.838 165.285 546.046 168.118 546.46 169.086C546.875 169.915 548.188 170.468 550.399 170.744L561.801 172.195V178H504.998V172.195L516.4 170.744C518.611 170.468 519.924 169.915 520.339 169.086C520.754 168.118 520.961 165.285 520.961 160.586V54.4422C520.961 49.7431 520.754 46.979 520.339 46.1497C519.924 45.1823 518.611 44.5603 516.4 44.2839L504.998 42.8327ZM579.703 42.8327V37.028H642.311C656.823 37.028 668.018 40.2759 675.896 46.7717C683.773 53.2674 687.712 61.9745 687.712 72.8929V77.6611C687.712 85.9536 685.432 93.0022 680.871 98.8069C676.31 104.612 669.745 108.758 661.176 111.246L687.09 160.586C688.749 163.626 689.993 165.838 690.822 167.22C691.651 168.602 692.411 169.5 693.102 169.915C693.932 170.191 695.037 170.468 696.419 170.744L705.748 172.195V178H666.981L635.677 113.733H620.543V160.586C620.543 165.285 620.751 168.118 621.165 169.086C621.58 169.915 622.893 170.468 625.104 170.744L636.506 172.195V178H579.703V172.195L591.105 170.744C593.316 170.468 594.629 169.915 595.044 169.086C595.459 168.118 595.666 165.285 595.666 160.586V54.4422C595.666 49.7431 595.459 46.979 595.044 46.1497C594.629 45.1823 593.316 44.5603 591.105 44.2839L579.703 42.8327ZM642.311 44.2839H620.543V106.477H642.311C648.392 106.477 653.022 104.612 656.201 100.88C659.518 97.0102 661.176 89.9616 661.176 79.7342V70.8198C661.176 60.5924 659.518 53.613 656.201 49.8813C653.022 46.1497 648.392 44.2839 642.311 44.2839ZM794.237 172.195V178H737.433V172.195L748.835 170.744C751.047 170.468 752.36 169.915 752.774 169.086C753.189 168.118 753.396 165.285 753.396 160.586V117.672L720.434 54.4422C718.775 51.2634 717.531 49.0521 716.702 47.8082C715.873 46.4261 715.043 45.5278 714.214 45.1132C713.523 44.6985 712.487 44.4221 711.105 44.2839L699.702 42.8327V37.028H758.786V42.8327L747.384 44.2839C745.311 44.5603 744.274 45.1823 744.274 46.1497C744.274 46.979 745.38 49.7431 747.591 54.4422L774.335 107.929L802.114 54.4422C804.464 49.8813 805.57 47.1172 805.431 46.1497C805.431 45.1823 804.395 44.5603 802.322 44.2839L790.92 42.8327V37.028H831.345V42.8327L819.943 44.2839C818.561 44.4221 817.455 44.6985 816.626 45.1132C815.935 45.5278 815.175 46.4261 814.346 47.8082C813.655 49.0521 812.48 51.2634 810.821 54.4422L778.274 117.258V160.586C778.274 165.285 778.481 168.118 778.895 169.086C779.31 169.915 780.623 170.468 782.834 170.744L794.237 172.195Z" fill="#F5EEE0"/>
<path d="M280.879 81.9373H275.074V133.558H280.879L285.44 116.766C285.854 115.107 286.338 113.932 286.891 113.241C287.306 112.412 288.204 111.928 289.586 111.79C290.968 111.514 293.318 111.376 296.635 111.376H317.988V160.301C317.988 165 317.78 167.833 317.366 168.801C316.951 169.63 315.638 170.183 313.427 170.459L297.879 171.911V177.715H358.828V171.911L347.426 170.459C345.215 170.183 343.902 169.63 343.487 168.801C343.072 167.833 342.865 165 342.865 160.301V54.1575C342.865 49.4585 343.072 46.6943 343.487 45.8651C343.902 44.8976 345.215 44.2757 347.426 43.9993L358.828 42.5481V36.7433H260.562V72.401H266.367L273.001 49.3894C273.416 47.7309 273.899 46.5561 274.452 45.8651C274.867 45.0358 275.765 44.5521 277.147 44.4139C278.529 44.1375 280.879 43.9993 284.196 43.9993H317.988V104.12H296.635C293.318 104.12 290.968 104.051 289.586 103.912C288.204 103.636 287.306 103.152 286.891 102.461C286.338 101.632 285.854 100.388 285.44 98.7296L280.879 81.9373Z" fill="#F5EEE0"/>
</svg>
