<svg width="602" height="197" viewBox="0 0 602 197" fill="none" xmlns="http://www.w3.org/2000/svg">
<path d="M598 98.5C598 110.317 590.683 122.239 575.898 133.677C561.168 145.074 539.602 155.511 512.595 164.348C458.625 182.01 383.815 193 301 193C218.185 193 143.375 182.01 89.4049 164.348C62.3982 155.511 40.8324 145.074 26.1018 133.677C11.3174 122.239 4 110.317 4 98.5C4 86.6831 11.3174 74.7615 26.1018 63.323C40.8324 51.9261 62.3982 41.4893 89.4049 32.6516C143.375 14.9904 218.185 4 301 4C383.815 4 458.625 14.9904 512.595 32.6516C539.602 41.4893 561.168 51.9261 575.898 63.323C590.683 74.7615 598 86.6831 598 98.5Z" fill="#FFF9EE" stroke="#FDAEC3" stroke-width="8"/>
<path d="M148.786 77.2989C147.724 78.2519 146.58 78.9871 145.355 79.5045C144.157 80.0218 143 80.2805 141.883 80.2805C140.603 80.2805 139.446 80.0899 138.411 79.7087C137.54 80.7979 136.573 81.887 135.512 82.9762C134.45 84.0381 133.306 84.9912 132.081 85.8353C130.883 86.6794 129.603 87.3601 128.241 87.8775C126.88 88.3948 125.464 88.6535 123.994 88.6535C122.632 88.6535 121.488 88.4493 120.563 88.0408C119.664 87.6324 118.929 87.0878 118.357 86.4071C117.812 85.6991 117.418 84.9095 117.173 84.0381C116.955 83.1396 116.846 82.2002 116.846 81.2199C116.846 79.7223 117.077 78.1838 117.54 76.6045C118.03 75.0252 118.697 73.5004 119.542 72.03C120.413 70.5324 121.434 69.1165 122.605 67.7822C123.776 66.4208 125.042 65.2227 126.403 64.188C127.765 63.1533 129.194 62.2955 130.692 61.6148C132.217 60.9341 133.742 60.5256 135.266 60.3895C136.138 59.5726 136.927 59.0553 137.635 58.8374C138.371 58.6196 139.065 58.5107 139.718 58.5107C141.352 58.5107 142.55 59.1233 143.313 60.3487C144.102 61.574 144.497 63.1397 144.497 65.0457C144.497 66.2438 144.32 67.4963 143.966 68.8033C143.639 70.0831 143.204 71.3493 142.659 72.6018C142.115 73.8272 141.502 75.0252 140.821 76.1961C140.141 77.3397 139.46 78.3744 138.779 79.3002C139.242 79.5181 139.718 79.6542 140.209 79.7087C140.726 79.7631 141.257 79.7904 141.801 79.7904C142.455 79.7904 143.095 79.7087 143.721 79.5453C144.375 79.3819 145.001 79.1641 145.6 78.8918C146.199 78.6195 146.744 78.32 147.234 77.9932C147.751 77.6665 148.187 77.3397 148.541 77.013L148.786 77.2989ZM131.345 69.5385C131.345 67.9592 131.645 66.4344 132.244 64.964C132.87 63.4664 133.714 62.1458 134.776 61.0022L134.695 60.9205C133.333 61.1928 132.053 61.7237 130.855 62.5134C129.657 63.2758 128.541 64.2152 127.506 65.3316C126.499 66.4208 125.586 67.6461 124.77 69.0076C123.98 70.369 123.299 71.7713 122.727 73.2145C122.183 74.6576 121.761 76.1008 121.461 77.544C121.162 78.9599 121.012 80.3077 121.012 81.5875C121.012 82.4044 121.08 83.194 121.216 83.9564C121.352 84.7189 121.57 85.3996 121.87 85.9986C122.196 86.5705 122.618 87.0334 123.136 87.3873C123.68 87.7413 124.348 87.9183 125.137 87.9183C126.335 87.9183 127.52 87.6324 128.691 87.0606C129.861 86.4615 130.964 85.7264 131.999 84.855C133.061 83.9837 134 83.0307 134.817 81.9959C135.661 80.934 136.342 79.9401 136.859 79.0143C136.015 78.5514 135.253 77.9932 134.572 77.3397C133.891 76.659 133.306 75.9102 132.816 75.0933C132.353 74.2492 131.985 73.3643 131.713 72.4385C131.468 71.4854 131.345 70.5188 131.345 69.5385ZM138.371 65.2499C138.425 65.0866 138.466 64.8551 138.493 64.5556C138.52 64.2561 138.534 63.9838 138.534 63.7387C138.534 63.3575 138.48 62.9899 138.371 62.6359C138.262 62.2547 138.085 61.9416 137.84 61.6965C137.595 61.4242 137.268 61.22 136.859 61.0838C136.478 60.9205 135.988 60.8524 135.389 60.8796C134.981 61.3153 134.627 61.8463 134.327 62.4725C134.028 63.0716 133.769 63.7251 133.551 64.433C133.36 65.1138 133.211 65.8217 133.102 66.5569C133.02 67.2649 132.979 67.932 132.979 68.5583C132.979 69.4569 133.047 70.3963 133.183 71.3765C133.32 72.3568 133.551 73.3098 133.878 74.2356C134.205 75.1342 134.627 75.9647 135.144 76.7271C135.689 77.4895 136.369 78.1022 137.186 78.5651C137.785 77.5848 138.33 76.5229 138.82 75.3792C139.337 74.2084 139.773 73.0239 140.127 71.8258C140.481 70.6005 140.753 69.3888 140.944 68.1907C141.134 66.9654 141.23 65.7945 141.23 64.6781C141.23 63.9701 141.175 63.303 141.066 62.6768C140.957 62.0505 140.78 61.5059 140.535 61.043C140.29 60.5529 139.964 60.1717 139.555 59.8994C139.147 59.6271 138.643 59.4909 138.044 59.4909C137.554 59.4909 137.132 59.5726 136.778 59.736C136.424 59.8994 136.111 60.1172 135.838 60.3895C136.437 60.4167 136.941 60.5256 137.35 60.7162C137.758 60.9069 138.085 61.1655 138.33 61.4923C138.575 61.7918 138.752 62.1458 138.861 62.5542C138.97 62.9627 139.024 63.3711 139.024 63.7795C139.024 64.1063 138.997 64.3922 138.942 64.6373C138.915 64.8551 138.874 65.0729 138.82 65.2908L138.371 65.2499ZM149.244 73.6229L153.614 73.4596C153.314 73.8952 152.947 74.4398 152.511 75.0933C152.076 75.7196 151.613 76.3867 151.123 77.0947C150.66 77.7754 150.183 78.4697 149.693 79.1777C149.23 79.8584 148.808 80.4711 148.427 81.0157L148.509 81.0974C149.108 80.4166 149.856 79.5725 150.755 78.5651C151.653 77.5576 152.607 76.6182 153.614 75.7468C154.513 74.9572 155.411 74.3037 156.31 73.7863C157.236 73.2417 158.216 72.9694 159.25 72.9694C160.013 72.9694 160.639 73.1873 161.129 73.6229C161.647 74.0314 161.905 74.5896 161.905 75.2975C161.905 75.7877 161.796 76.2369 161.579 76.6454C161.388 77.0266 161.116 77.367 160.762 77.6665C160.408 77.9388 160.013 78.1566 159.577 78.32C159.142 78.4834 158.679 78.5651 158.189 78.5651C157.78 78.5651 157.467 78.5378 157.249 78.4834C157.331 78.2928 157.426 78.0613 157.535 77.789C157.644 77.5167 157.739 77.2444 157.821 76.9721C157.93 76.6726 158.025 76.3867 158.107 76.1144C158.189 75.8421 158.229 75.6107 158.229 75.4201C158.229 75.1205 158.134 74.8619 157.943 74.644C157.78 74.399 157.508 74.2764 157.127 74.2764C156.5 74.2764 155.765 74.6032 154.921 75.2567C154.104 75.883 153.301 76.5909 152.511 77.3806C149.462 80.4303 146.82 83.9292 144.587 87.8775L140.626 88L149.244 73.6229ZM154.431 80.4439C153.886 80.6072 153.355 80.757 152.838 80.8932C152.348 81.0293 151.953 81.0974 151.653 81.0974C151.191 81.0974 150.959 80.8932 150.959 80.4847C150.959 80.2669 151.082 80.0763 151.327 79.9129C151.572 79.7495 151.98 79.6678 152.552 79.6678C152.852 79.6678 153.219 79.6815 153.655 79.7087C154.091 79.7359 154.54 79.8584 155.003 80.0763C155.629 80.3486 156.078 80.6889 156.351 81.0974C156.65 81.5058 156.8 82.0368 156.8 82.6903C156.8 83.126 156.745 83.5344 156.636 83.9156C156.555 84.2968 156.459 84.6508 156.351 84.9775C156.242 85.3043 156.133 85.6174 156.024 85.917C155.942 86.2165 155.901 86.516 155.901 86.8155C155.901 87.1423 155.969 87.3737 156.105 87.5099C156.242 87.6188 156.432 87.6732 156.677 87.6732C157.113 87.6732 157.603 87.5235 158.148 87.224C158.692 86.9244 159.237 86.5568 159.781 86.1212C160.353 85.6855 160.884 85.2362 161.374 84.7733C161.864 84.2832 162.3 83.8475 162.681 83.4663C163.444 82.6767 164.247 81.7917 165.091 80.8115C165.962 79.804 166.875 78.674 167.828 77.4214L168.195 77.6256C166.235 80.2124 164.492 82.2818 162.967 83.8339C161.306 85.5494 159.836 86.7883 158.556 87.5507C157.276 88.2859 156.133 88.6535 155.125 88.6535C154.227 88.6535 153.519 88.4629 153.001 88.0817C152.484 87.7005 152.225 87.0334 152.225 86.0803C152.225 85.6174 152.334 85.1001 152.552 84.5283C152.797 83.9292 153.029 83.4119 153.246 82.9762C153.41 82.6222 153.56 82.2818 153.696 81.9551C153.832 81.6828 153.968 81.4105 154.104 81.1382C154.24 80.8387 154.349 80.6072 154.431 80.4439ZM156.205 91.2267C156.069 91.1994 155.824 91.1858 155.47 91.1858C154.299 91.1858 153.401 91.6079 152.774 92.452C152.121 93.2961 151.794 94.3308 151.794 95.5561C151.794 96.9993 152.244 98.1293 153.142 98.9462C154.013 99.7631 155.103 100.171 156.41 100.171C157.798 100.171 159.105 99.872 160.331 99.2729C161.556 98.7011 162.7 97.9251 163.761 96.9448C164.823 95.9918 165.817 94.889 166.743 93.6365C167.696 92.4111 168.567 91.145 169.357 89.838C170.174 88.531 170.936 87.2512 171.644 85.9986C172.352 84.7461 173.006 83.6161 173.605 82.6086L173.523 82.5269C173.115 83.017 172.597 83.6025 171.971 84.2832C171.372 84.9367 170.691 85.5766 169.929 86.2029C169.167 86.8019 168.363 87.3193 167.519 87.7549C166.675 88.1906 165.817 88.4084 164.946 88.4084C164.047 88.4084 163.408 88.1498 163.026 87.6324C162.618 87.115 162.414 86.5024 162.414 85.7944C162.414 85.1137 162.604 84.3377 162.985 83.4663C163.367 82.595 163.843 81.642 164.415 80.6072C165.014 79.5453 165.681 78.4289 166.416 77.258C167.152 76.0872 167.887 74.8755 168.622 73.6229L172.951 73.4596C170.664 77.0266 168.881 79.8448 167.601 81.9143C166.321 83.9837 165.681 85.4541 165.681 86.3254C165.681 86.6522 165.776 86.9244 165.967 87.1423C166.185 87.3329 166.444 87.4282 166.743 87.4282C167.233 87.4282 167.86 87.1831 168.622 86.693C169.384 86.1756 170.188 85.4949 171.032 84.6508C171.903 83.8067 172.774 82.84 173.646 81.7509C174.517 80.6345 175.307 79.4908 176.015 78.32C176.614 77.3397 177.145 76.4412 177.608 75.6243C178.07 74.8074 178.411 74.1403 178.629 73.6229L182.631 73.4596C181.161 75.9919 179.731 78.5242 178.343 81.0565C176.981 83.5616 175.552 86.0531 174.054 88.531C175.361 88.1498 176.655 87.5643 177.934 86.7747C179.214 85.9578 180.439 85.0184 181.61 83.9564C182.808 82.8945 183.911 81.7645 184.919 80.5664C185.953 79.3683 186.879 78.1975 187.696 77.0538L188.023 77.3397C187.097 78.674 186.076 79.981 184.959 81.2608C183.843 82.5133 182.659 83.6705 181.406 84.7325C180.181 85.7672 178.915 86.6658 177.608 87.4282C176.301 88.1906 174.994 88.7352 173.687 89.0619C172.706 90.7229 171.604 92.2614 170.378 93.6773C169.153 95.0932 167.805 96.3185 166.335 97.3533C164.864 98.388 163.271 99.1912 161.556 99.7631C159.84 100.362 158.002 100.662 156.042 100.662C155.062 100.662 154.109 100.566 153.183 100.376C152.257 100.212 151.44 99.9128 150.732 99.4771C150.024 99.0687 149.453 98.5105 149.017 97.8025C148.581 97.1218 148.363 96.2777 148.363 95.2702C148.363 94.4533 148.54 93.759 148.894 93.1872C149.221 92.6154 149.67 92.1389 150.242 91.7576C150.787 91.4037 151.427 91.1314 152.162 90.9408C152.87 90.7774 153.605 90.6957 154.367 90.6957C154.694 90.6957 155.035 90.7093 155.388 90.7365C155.715 90.7638 155.988 90.8046 156.205 90.8591V91.2267ZM208.136 77.2172C207.183 78.4425 206.285 79.5589 205.441 80.5664C204.596 81.5467 203.807 82.4316 203.072 83.2213C201.274 85.1545 199.75 86.5024 198.497 87.2648C197.244 88.0272 196.114 88.4084 195.107 88.4084C194.399 88.4084 193.759 88.2314 193.187 87.8775C192.616 87.4963 192.33 86.8291 192.33 85.8761C192.33 85.4132 192.398 84.9231 192.534 84.4057C192.697 83.8884 192.901 83.3846 193.146 82.8945C193.392 82.3772 193.65 81.8734 193.923 81.3833C194.113 81.0838 194.29 80.7979 194.453 80.5256H188.245L188.204 80.6072C187.714 81.4241 187.224 82.2682 186.734 83.1396C186.271 83.9837 185.849 84.7597 185.468 85.4677C185.032 86.3118 184.624 87.115 184.242 87.8775L179.872 88.1225L188.49 73.6229L192.82 73.4596C192.139 74.4943 191.499 75.4609 190.9 76.3595C190.383 77.1491 189.865 77.9388 189.348 78.7284C189.048 79.2458 188.776 79.6815 188.531 80.0354H194.78C194.862 79.8721 194.998 79.6406 195.189 79.3411C195.379 79.0143 195.583 78.6876 195.801 78.3608C196.046 77.9796 196.291 77.5848 196.537 77.1764C197.054 76.3867 197.462 75.7332 197.762 75.2158C198.061 74.6985 198.347 74.222 198.62 73.7863L202.826 73.4596L200.049 77.8707C199.477 78.7965 198.946 79.627 198.456 80.3622C197.993 81.0974 197.585 81.7645 197.231 82.3635C196.822 83.017 196.496 83.5752 196.251 84.0381C196.033 84.501 195.856 84.9095 195.72 85.2635C195.611 85.5902 195.529 85.8761 195.475 86.1212C195.447 86.339 195.434 86.5296 195.434 86.693C195.434 86.9925 195.475 87.2376 195.556 87.4282C195.665 87.5916 195.897 87.6732 196.251 87.6732C196.768 87.6732 197.571 87.3057 198.66 86.5705C199.777 85.808 201.152 84.5691 202.786 82.8537C203.521 82.064 204.324 81.1654 205.195 80.158C206.094 79.1233 206.965 78.0613 207.809 76.9721L208.136 77.2172ZM222.483 73.4596C221.421 75.2295 220.427 76.8088 219.501 78.1975C218.603 79.5861 217.827 80.8251 217.173 81.9143C216.52 82.9762 216.002 83.902 215.621 84.6916C215.267 85.4813 215.09 86.1756 215.09 86.7747C215.09 87.3737 215.349 87.6732 215.866 87.6732C216.193 87.6732 216.588 87.5643 217.051 87.3465C217.514 87.1014 218.004 86.8019 218.521 86.4479C219.038 86.0667 219.569 85.6311 220.114 85.1409C220.659 84.6508 221.176 84.1607 221.666 83.6705C222.265 83.0443 222.851 82.418 223.422 81.7917C224.021 81.1382 224.566 80.5119 225.056 79.9129C225.573 79.3139 226.036 78.7693 226.445 78.2791C226.853 77.7618 227.194 77.3261 227.466 76.9721L227.793 77.2172C227.139 78.0885 226.309 79.1369 225.301 80.3622C224.294 81.5603 223.218 82.7447 222.075 83.9156C220.686 85.3315 219.406 86.4343 218.235 87.224C217.064 88.0136 215.907 88.4084 214.763 88.4084C213.947 88.4084 213.293 88.1634 212.803 87.6732C212.313 87.1831 212.068 86.5705 212.068 85.8353C212.068 85.3179 212.109 84.855 212.19 84.4466C212.299 84.0381 212.422 83.725 212.558 83.5072L212.476 83.4255C211.986 83.9428 211.455 84.501 210.883 85.1001C210.311 85.6719 209.699 86.2029 209.045 86.693C208.392 87.1831 207.684 87.5916 206.921 87.9183C206.186 88.2451 205.383 88.4084 204.512 88.4084C203.668 88.4084 203.028 88.1498 202.592 87.6324C202.156 87.0878 201.938 86.4615 201.938 85.7536C201.938 84.7189 202.497 83.2213 203.613 81.2608C204.729 79.3002 206.241 76.7543 208.147 73.6229L212.476 73.4596C210.325 76.7543 208.569 79.4636 207.207 81.5875C205.873 83.6842 205.206 85.2498 205.206 86.2846C205.206 86.6113 205.288 86.8836 205.451 87.1014C205.642 87.3193 205.887 87.4282 206.186 87.4282C206.704 87.4282 207.316 87.2104 208.024 86.7747C208.759 86.339 209.522 85.7536 210.311 85.0184C211.101 84.2832 211.877 83.4391 212.64 82.4861C213.429 81.533 214.137 80.5392 214.763 79.5045L218.276 73.7863L222.483 73.4596ZM244.393 77.4623C243.386 78.6876 242.297 79.9674 241.126 81.3016C239.955 82.6086 238.689 83.8067 237.327 84.8959C235.993 85.985 234.55 86.8836 232.998 87.5916C231.473 88.2995 229.853 88.6535 228.138 88.6535C226.504 88.6535 225.251 88.2178 224.38 87.3465C223.509 86.4479 223.073 85.1409 223.073 83.4255C223.073 82.1185 223.454 80.8387 224.217 79.5861C224.979 78.3336 225.959 77.2172 227.157 76.2369C228.355 75.2567 229.676 74.467 231.119 73.868C232.562 73.269 233.965 72.9694 235.326 72.9694C236.579 72.9694 237.573 73.2281 238.308 73.7455C239.043 74.2356 239.411 74.8483 239.411 75.5834C239.411 76.1008 239.302 76.5773 239.084 77.013C238.893 77.4214 238.634 77.7754 238.308 78.0749C237.981 78.3472 237.613 78.5651 237.205 78.7284C236.797 78.8646 236.388 78.9326 235.98 78.9326C235.626 78.9326 235.313 78.9054 235.04 78.851C235.231 78.2247 235.435 77.5848 235.653 76.9313C235.871 76.2778 235.98 75.6243 235.98 74.9708C235.98 74.5079 235.871 74.1403 235.653 73.868C235.435 73.5957 235.136 73.4596 234.754 73.4596C234.046 73.4596 233.243 73.7455 232.345 74.3173C231.446 74.8619 230.602 75.6107 229.812 76.5637C229.023 77.4895 228.355 78.5651 227.811 79.7904C227.266 80.9885 226.994 82.241 226.994 83.548C226.994 84.5827 227.307 85.4677 227.933 86.2029C228.56 86.9108 229.431 87.2648 230.547 87.2648C231.882 87.2648 233.202 86.8972 234.509 86.162C235.843 85.4268 237.096 84.5419 238.267 83.5072C239.465 82.4452 240.554 81.3561 241.534 80.2397C242.515 79.096 243.345 78.1158 244.026 77.2989L244.393 77.4623ZM251.591 82.0368C252.218 81.9006 252.939 81.6692 253.756 81.3424C254.6 81.0157 255.431 80.58 256.247 80.0354C256.792 79.6542 257.364 79.2458 257.963 78.8101C258.589 78.3472 259.297 77.6393 260.087 76.6862L260.373 76.9313C259.583 77.8843 258.861 78.6195 258.208 79.1369C257.582 79.627 256.928 80.0763 256.247 80.4847C255.485 80.9476 254.709 81.3561 253.919 81.71C253.13 82.0368 252.326 82.2955 251.51 82.4861L251.346 82.9354C251.156 83.3982 250.87 83.9564 250.488 84.61C250.135 85.2635 249.549 85.917 248.732 86.5705C247.806 87.3057 246.799 87.7958 245.71 88.0408C244.648 88.3131 243.749 88.4357 243.014 88.4084C242.497 88.3812 242.007 88.3268 241.544 88.2451C241.081 88.1634 240.631 87.9864 240.196 87.7141C239.76 87.4418 239.42 87.0742 239.175 86.6113C238.902 86.1484 238.766 85.6038 238.766 84.9775C238.766 84.5147 238.848 84.0109 239.011 83.4663C239.147 82.9217 239.393 82.2955 239.747 81.5875C239.883 81.3152 240.046 81.0157 240.237 80.6889C240.427 80.3622 240.618 80.0627 240.808 79.7904C240.999 79.4908 241.162 79.2322 241.299 79.0143C241.462 78.7693 241.585 78.5923 241.666 78.4834L244.729 73.7863L249.181 73.4596L244.607 80.158C243.627 81.6011 242.932 82.7856 242.524 83.7114C242.115 84.61 241.911 85.3996 241.911 86.0803C241.911 86.516 242.02 86.9381 242.238 87.3465C242.456 87.7277 242.878 87.9183 243.504 87.9183C244.212 87.9183 244.852 87.7549 245.424 87.4282C246.023 87.0742 246.527 86.5977 246.935 85.9986C247.452 85.2362 247.793 84.5283 247.956 83.8748C248.147 83.194 248.269 82.6222 248.324 82.1593C248.242 82.0504 248.12 81.8734 247.956 81.6283C247.82 81.3833 247.752 81.0293 247.752 80.5664C247.752 79.8312 247.97 79.3002 248.405 78.9735C248.841 78.6195 249.29 78.4425 249.753 78.4425C250.243 78.4425 250.679 78.6467 251.06 79.0552C251.469 79.4364 251.673 80.049 251.673 80.8932C251.673 81.2199 251.659 81.5194 251.632 81.7917L251.591 82.0368ZM291.876 77.5031C291.168 78.4561 290.392 79.1369 289.547 79.5453C288.731 79.9265 287.927 80.1171 287.138 80.1171C286.511 80.1171 285.912 79.981 285.34 79.7087C284.796 79.4364 284.333 79.1369 283.952 78.8101C283.462 80.4439 282.754 81.8734 281.828 83.0987C280.929 84.324 279.908 85.3451 278.765 86.162C277.648 86.9789 276.437 87.5916 275.13 88C273.85 88.4357 272.584 88.6535 271.331 88.6535C269.942 88.6535 268.853 88.2723 268.064 87.5099C267.274 86.7475 266.879 85.7672 266.879 84.5691C266.879 84.0518 266.933 83.548 267.042 83.0579C267.179 82.5405 267.41 81.9551 267.737 81.3016C267.955 80.8932 268.241 80.3486 268.594 79.6678C268.976 78.9871 269.316 78.4153 269.616 77.9524L275.211 69.2118C276.137 67.7414 277.158 66.448 278.274 65.3316C279.391 64.2152 280.63 63.1941 281.991 62.2683C283.298 61.397 284.51 60.7299 285.626 60.267C286.743 59.8041 287.723 59.5726 288.567 59.5726C288.948 59.5726 289.343 59.5998 289.752 59.6543C290.187 59.6815 290.596 59.7768 290.977 59.9402C291.794 60.2942 292.202 60.8252 292.202 61.5331C292.202 62.3228 291.971 63.0988 291.508 63.8612C291.045 64.5964 290.201 65.4541 288.976 66.4344C287.505 67.578 286.171 68.5174 284.973 69.2526C283.775 69.9878 282.645 70.7366 281.583 71.499C281.447 71.608 281.242 71.7441 280.97 71.9075C280.725 72.0709 280.439 72.2615 280.112 72.4793C279.786 72.6971 279.432 72.9286 279.051 73.1737C278.697 73.3915 278.343 73.6229 277.989 73.868C277.144 74.4126 276.246 74.998 275.293 75.6243L273.292 78.6467C272.965 79.1369 272.584 79.7495 272.148 80.4847C271.712 81.2199 271.372 81.8598 271.127 82.4044C270.691 83.2757 270.392 84.0245 270.228 84.6508C270.065 85.2498 269.983 85.74 269.983 86.1212C269.983 86.7747 270.147 87.2784 270.473 87.6324C270.8 87.9864 271.236 88.1634 271.78 88.1634C272.57 88.1634 273.509 87.7822 274.599 87.0197C275.715 86.2301 276.831 84.9775 277.948 83.2621C279.473 80.8659 280.358 78.742 280.603 76.8904C280.303 76.2914 280.153 75.7332 280.153 75.2158C280.153 74.5351 280.33 73.9905 280.684 73.5821C281.038 73.1736 281.46 72.9694 281.95 72.9694C282.795 72.9694 283.394 73.2962 283.748 73.9497C284.129 74.576 284.319 75.4065 284.319 76.4412C284.319 76.7407 284.292 77.0402 284.238 77.3397C284.183 77.6393 284.129 77.9524 284.074 78.2791C284.537 78.6876 285.041 79.0143 285.586 79.2594C286.13 79.5045 286.702 79.627 287.301 79.627C287.927 79.627 288.608 79.4636 289.343 79.1369C290.106 78.8101 290.854 78.1838 291.59 77.258L291.876 77.5031ZM275.824 74.5623L275.906 74.6032C276.641 74.1131 277.362 73.6365 278.07 73.1737C278.669 72.7924 279.268 72.4112 279.867 72.03C280.466 71.6216 280.929 71.2948 281.256 71.0498C282.209 70.3963 283.135 69.6747 284.033 68.885C284.932 68.0682 285.735 67.224 286.443 66.3527C287.26 65.4269 287.859 64.542 288.24 63.6979C288.649 62.8537 288.853 62.0641 288.853 61.3289C288.853 60.5393 288.554 60.1444 287.955 60.1444C287.464 60.1444 286.988 60.2806 286.525 60.5529C286.089 60.7979 285.599 61.1928 285.055 61.7373C284.728 62.0641 284.387 62.4589 284.033 62.9218C283.68 63.3575 283.326 63.8204 282.972 64.3105C282.618 64.7734 282.291 65.2363 281.991 65.6992C281.719 66.1349 281.488 66.4889 281.297 66.7612L275.824 74.5623ZM315.702 82.6086C315.184 83.2621 314.572 83.9973 313.864 84.8142C313.156 85.6038 312.489 86.2437 311.862 86.7338C311.236 87.2512 310.61 87.6596 309.983 87.9592C309.384 88.2587 308.649 88.4084 307.778 88.4084C306.934 88.4084 306.267 88.1498 305.776 87.6324C305.314 87.115 305.082 86.4615 305.082 85.6719C305.082 84.6644 305.341 83.6705 305.858 82.6903L305.776 82.6086C305.041 83.5344 304.306 84.4057 303.571 85.2226C302.863 86.0123 302.182 86.6385 301.529 87.1014C300.957 87.5099 300.358 87.823 299.732 88.0408C299.133 88.2859 298.452 88.4084 297.689 88.4084C296.736 88.4084 295.919 88.0953 295.239 87.469C294.558 86.8428 294.218 86.0123 294.218 84.9775C294.218 84.2424 294.422 83.6025 294.83 83.0579C295.239 82.5133 295.879 82.241 296.75 82.241C297.295 82.241 297.73 82.418 298.057 82.772C298.384 83.126 298.547 83.548 298.547 84.0381C298.547 84.501 298.397 84.9231 298.098 85.3043C297.798 85.6855 297.349 85.8897 296.75 85.917C296.723 86.5432 296.845 87.0334 297.118 87.3873C297.363 87.7413 297.717 87.9183 298.18 87.9183C298.806 87.9183 299.391 87.7686 299.936 87.469C300.508 87.1695 301.039 86.8291 301.529 86.4479C302.318 85.8217 303.299 84.8278 304.469 83.4663C305.64 82.1049 306.988 80.2669 308.513 77.9524C309.33 76.7271 310.188 75.3384 311.086 73.7863L315.293 73.4596L312.802 77.4623C311.25 79.9401 310.051 81.9279 309.207 83.4255C308.363 84.8959 307.941 85.9986 307.941 86.7338C307.941 87.0061 308.037 87.2376 308.227 87.4282C308.418 87.5916 308.636 87.6732 308.881 87.6732C309.48 87.6732 310.106 87.4418 310.759 86.9789C311.413 86.516 312.107 85.917 312.842 85.1818C313.414 84.6372 314.013 83.9837 314.64 83.2213C315.266 82.4588 315.865 81.6964 316.437 80.934C317.009 80.1443 317.526 79.4092 317.989 78.7284C318.452 78.0205 318.806 77.4623 319.051 77.0538L321.011 73.7863L325.218 73.4596L321.787 78.9326C321.107 80.0218 320.508 80.9748 319.99 81.7917C319.5 82.5814 319.092 83.2893 318.765 83.9156C318.438 84.5147 318.193 85.0456 318.03 85.5085C317.894 85.9714 317.825 86.3935 317.825 86.7747C317.825 87.3737 318.098 87.6732 318.642 87.6732C319.241 87.6732 320.113 87.2648 321.256 86.4479C322.4 85.6311 323.748 84.3921 325.3 82.7311C326.035 81.9415 326.811 81.0701 327.628 80.1171C328.445 79.1641 329.303 78.1158 330.201 76.9721L330.528 77.2172C329.629 78.3608 328.772 79.4364 327.955 80.4439C327.165 81.4241 326.389 82.3091 325.627 83.0987C322.305 86.6385 319.636 88.4084 317.621 88.4084C316.75 88.4084 316.069 88.1634 315.579 87.6732C315.116 87.1559 314.885 86.5024 314.885 85.7127C314.885 85.1682 314.98 84.6236 315.171 84.079C315.361 83.5344 315.565 83.0715 315.783 82.6903L315.702 82.6086ZM344.855 73.4596C343.793 75.2295 342.799 76.8088 341.874 78.1975C340.975 79.5861 340.199 80.8251 339.546 81.9143C338.892 82.9762 338.375 83.902 337.993 84.6916C337.639 85.4813 337.462 86.1756 337.462 86.7747C337.462 87.3737 337.721 87.6732 338.239 87.6732C338.565 87.6732 338.96 87.5643 339.423 87.3465C339.886 87.1014 340.376 86.8019 340.893 86.4479C341.411 86.0667 341.942 85.6311 342.486 85.1409C343.031 84.6508 343.548 84.1607 344.038 83.6705C344.637 83.0443 345.223 82.418 345.795 81.7917C346.394 81.1382 346.938 80.5119 347.428 79.9129C347.946 79.3139 348.409 78.7693 348.817 78.2791C349.226 77.7618 349.566 77.3261 349.838 76.9721L350.165 77.2172C349.511 78.0885 348.681 79.1369 347.673 80.3622C346.666 81.5603 345.59 82.7447 344.447 83.9156C343.058 85.3315 341.778 86.4343 340.607 87.224C339.437 88.0136 338.279 88.4084 337.136 88.4084C336.319 88.4084 335.665 88.1634 335.175 87.6732C334.685 87.1831 334.44 86.5705 334.44 85.8353C334.44 85.3179 334.481 84.855 334.563 84.4466C334.671 84.0381 334.794 83.725 334.93 83.5072L334.848 83.4255C334.358 83.9428 333.827 84.501 333.256 85.1001C332.684 85.6719 332.071 86.2029 331.418 86.693C330.764 87.1831 330.056 87.5916 329.294 87.9183C328.558 88.2451 327.755 88.4084 326.884 88.4084C326.04 88.4084 325.4 88.1498 324.964 87.6324C324.529 87.0878 324.311 86.4615 324.311 85.7536C324.311 84.7189 324.869 83.2213 325.985 81.2608C327.102 79.3002 328.613 76.7543 330.519 73.6229L334.848 73.4596C332.697 76.7543 330.941 79.4636 329.58 81.5875C328.245 83.6842 327.578 85.2498 327.578 86.2846C327.578 86.6113 327.66 86.8836 327.823 87.1014C328.014 87.3193 328.259 87.4282 328.558 87.4282C329.076 87.4282 329.689 87.2104 330.396 86.7747C331.132 86.339 331.894 85.7536 332.684 85.0184C333.473 84.2832 334.249 83.4391 335.012 82.4861C335.801 81.533 336.509 80.5392 337.136 79.5045L340.648 73.7863L344.855 73.4596ZM359.945 65.4541L350.51 79.8312L350.592 79.9129C351.163 79.2322 351.762 78.4834 352.389 77.6665C353.042 76.8496 353.737 76.1008 354.472 75.4201C355.234 74.7121 356.037 74.1267 356.882 73.6638C357.753 73.2009 358.692 72.9694 359.7 72.9694C360.68 72.9694 361.47 73.2962 362.069 73.9497C362.668 74.576 362.967 75.4065 362.967 76.4412C362.967 77.7754 362.681 79.0416 362.11 80.2397C361.538 81.4377 360.843 82.4725 360.026 83.3438L360.108 83.4255C361.034 83.2349 361.933 82.9354 362.804 82.5269C363.702 82.0912 364.56 81.5875 365.377 81.0157C366.194 80.4166 366.956 79.7768 367.664 79.096C368.372 78.3881 369.012 77.6801 369.584 76.9721L369.87 77.258C369.353 77.9115 368.74 78.5923 368.032 79.3002C367.324 80.0082 366.534 80.6889 365.663 81.3424C364.819 81.9687 363.879 82.5269 362.845 83.017C361.837 83.4799 360.762 83.8067 359.618 83.9973C359.073 84.4874 358.461 85.0048 357.78 85.5494C357.099 86.0939 356.378 86.5977 355.615 87.0606C354.853 87.5235 354.077 87.9047 353.287 88.2042C352.498 88.5037 351.722 88.6535 350.959 88.6535C350.387 88.6535 349.884 88.531 349.448 88.2859C349.039 88.0681 348.835 87.6869 348.835 87.1423C348.835 86.5705 349.108 86.1076 349.652 85.7536C350.224 85.3724 350.905 85.0729 351.694 84.855C352.484 84.61 353.301 84.4193 354.145 84.2832C355.016 84.1471 355.738 84.0381 356.31 83.9564C356.555 83.6297 356.827 83.2213 357.127 82.7311C357.453 82.2138 357.753 81.642 358.025 81.0157C358.325 80.3894 358.57 79.7223 358.76 79.0143C358.951 78.2791 359.046 77.5303 359.046 76.7679C359.046 76.4684 359.019 76.1825 358.965 75.9102C358.937 75.6107 358.856 75.352 358.719 75.1342C358.611 74.8891 358.447 74.6985 358.229 74.5623C358.012 74.4262 357.726 74.3581 357.372 74.3581C356.555 74.3581 355.602 74.8891 354.513 75.951C353.423 77.013 352.266 78.3881 351.041 80.0763C349.816 81.7373 348.563 83.6025 347.283 85.6719C346.031 87.7141 344.819 89.7154 343.648 91.676C342.477 93.6637 341.415 95.4881 340.462 97.149C339.482 98.8373 338.679 100.144 338.052 101.07L333.723 101.233C337.372 95.3519 341.02 89.4295 344.669 83.4663C348.291 77.5031 351.912 71.5671 355.534 65.6584L359.945 65.4541ZM350.387 87.0197C350.387 87.6188 350.769 87.9183 351.531 87.9183C351.912 87.9183 352.307 87.7958 352.715 87.5507C353.151 87.3057 353.573 87.0197 353.982 86.693C354.39 86.339 354.771 85.9714 355.125 85.5902C355.479 85.1818 355.779 84.8142 356.024 84.4874C355.67 84.5419 355.166 84.6236 354.513 84.7325C353.886 84.8414 353.26 84.9912 352.634 85.1818C352.035 85.3451 351.504 85.5766 351.041 85.8761C350.605 86.1756 350.387 86.5568 350.387 87.0197ZM393.56 82.6086C393.043 83.2621 392.43 83.9973 391.722 84.8142C391.014 85.6038 390.347 86.2437 389.721 86.7338C389.095 87.2512 388.468 87.6596 387.842 87.9592C387.243 88.2587 386.508 88.4084 385.637 88.4084C384.792 88.4084 384.125 88.1498 383.635 87.6324C383.172 87.115 382.941 86.4615 382.941 85.6719C382.941 84.6644 383.2 83.6705 383.717 82.6903L383.635 82.6086C382.9 83.5344 382.165 84.4057 381.43 85.2226C380.722 86.0123 380.041 86.6385 379.387 87.1014C378.816 87.5099 378.217 87.823 377.59 88.0408C376.991 88.2859 376.311 88.4084 375.548 88.4084C374.595 88.4084 373.778 88.0953 373.098 87.469C372.417 86.8428 372.076 86.0123 372.076 84.9775C372.076 84.2424 372.281 83.6025 372.689 83.0579C373.098 82.5133 373.737 82.241 374.609 82.241C375.153 82.241 375.589 82.418 375.916 82.772C376.242 83.126 376.406 83.548 376.406 84.0381C376.406 84.501 376.256 84.9231 375.957 85.3043C375.657 85.6855 375.208 85.8897 374.609 85.917C374.582 86.5432 374.704 87.0334 374.976 87.3873C375.221 87.7413 375.575 87.9183 376.038 87.9183C376.665 87.9183 377.25 87.7686 377.795 87.469C378.366 87.1695 378.897 86.8291 379.387 86.4479C380.177 85.8217 381.157 84.8278 382.328 83.4663C383.499 82.1049 384.847 80.2669 386.372 77.9524C387.189 76.7271 388.046 75.3384 388.945 73.7863L393.152 73.4596L390.66 77.4623C389.108 79.9401 387.91 81.9279 387.066 83.4255C386.222 84.8959 385.8 85.9986 385.8 86.7338C385.8 87.0061 385.895 87.2376 386.086 87.4282C386.276 87.5916 386.494 87.6732 386.739 87.6732C387.338 87.6732 387.965 87.4418 388.618 86.9789C389.272 86.516 389.966 85.917 390.701 85.1818C391.273 84.6372 391.872 83.9837 392.498 83.2213C393.125 82.4588 393.724 81.6964 394.296 80.934C394.867 80.1443 395.385 79.4092 395.848 78.7284C396.31 78.0205 396.664 77.4623 396.91 77.0538L398.87 73.7863L403.077 73.4596L399.646 78.9326C398.965 80.0218 398.366 80.9748 397.849 81.7917C397.359 82.5814 396.95 83.2893 396.624 83.9156C396.297 84.5147 396.052 85.0456 395.888 85.5085C395.752 85.9714 395.684 86.3935 395.684 86.7747C395.684 87.3737 395.957 87.6732 396.501 87.6732C397.1 87.6732 397.971 87.2648 399.115 86.4479C400.259 85.6311 401.607 84.3921 403.159 82.7311C403.894 81.9415 404.67 81.0701 405.487 80.1171C406.304 79.1641 407.161 78.1158 408.06 76.9721L408.387 77.2172C407.488 78.3608 406.63 79.4364 405.814 80.4439C405.024 81.4241 404.248 82.3091 403.485 83.0987C400.163 86.6385 397.495 88.4084 395.48 88.4084C394.609 88.4084 393.928 88.1634 393.438 87.6732C392.975 87.1559 392.743 86.5024 392.743 85.7127C392.743 85.1682 392.839 84.6236 393.029 84.079C393.22 83.5344 393.424 83.0715 393.642 82.6903L393.56 82.6086ZM419.61 73.868L423.858 73.6229C423.613 74.1131 423.259 74.7121 422.796 75.4201C422.333 76.1008 421.829 76.8496 421.284 77.6665C420.74 78.4561 420.182 79.2866 419.61 80.158C419.065 81.0021 418.561 81.8326 418.099 82.6494C417.636 83.4391 417.254 84.1879 416.955 84.8959C416.683 85.5766 416.547 86.162 416.547 86.6522C416.547 87.3329 416.887 87.6732 417.568 87.6732C418.221 87.6732 419.106 87.292 420.222 86.5296C421.339 85.7672 422.51 84.7597 423.735 83.5072C424.252 82.9898 424.77 82.4316 425.287 81.8326C425.832 81.2335 426.349 80.6481 426.839 80.0763C427.329 79.4772 427.779 78.9326 428.187 78.4425C428.595 77.9252 428.922 77.5031 429.167 77.1764L429.453 77.3397C428.745 78.2928 427.928 79.3547 427.003 80.5256C426.077 81.6692 424.96 82.8945 423.653 84.2015C422.346 85.5085 421.053 86.5841 419.773 87.4282C418.521 88.2451 417.268 88.6535 416.016 88.6535C415.144 88.6535 414.463 88.4357 413.973 88C413.51 87.5371 413.279 86.9789 413.279 86.3254C413.279 86.1076 413.293 85.9033 413.32 85.7127C413.347 85.5221 413.388 85.3724 413.442 85.2635H413.361C412.517 86.2165 411.564 87.0197 410.502 87.6732C409.44 88.3268 408.296 88.6535 407.071 88.6535C406.417 88.6535 405.859 88.531 405.396 88.2859C404.933 88.0408 404.552 87.7141 404.252 87.3057C403.98 86.87 403.776 86.3935 403.64 85.8761C403.504 85.3315 403.436 84.7733 403.436 84.2015C403.436 82.8673 403.803 81.533 404.538 80.1988C405.274 78.8646 406.199 77.6665 407.316 76.6045C408.432 75.5154 409.671 74.644 411.033 73.9905C412.421 73.3098 413.742 72.9694 414.994 72.9694C415.947 72.9694 416.696 73.1736 417.241 73.5821C417.785 73.9905 418.235 74.6304 418.589 75.5018L419.61 73.868ZM407.357 84.324C407.357 85.1137 407.479 85.808 407.724 86.4071C407.997 86.9789 408.555 87.2648 409.399 87.2648C409.971 87.2376 410.57 87.0061 411.196 86.5705C411.822 86.1076 412.421 85.5357 412.993 84.855C413.592 84.1743 414.15 83.4255 414.668 82.6086C415.212 81.7645 415.675 80.9204 416.056 80.0763C416.465 79.2322 416.778 78.4425 416.996 77.7073C417.241 76.9449 417.363 76.305 417.363 75.7877C417.363 75.0525 417.227 74.4807 416.955 74.0722C416.683 73.6638 416.152 73.4596 415.362 73.4596C414.736 73.4596 414.096 73.6502 413.442 74.0314C412.816 74.4126 412.203 74.9163 411.604 75.5426C411.033 76.1689 410.474 76.8768 409.93 77.6665C409.412 78.4289 408.963 79.2186 408.582 80.0354C408.201 80.8523 407.901 81.642 407.683 82.4044C407.466 83.1396 407.357 83.7795 407.357 84.324ZM428.945 77.2989C429.299 76.836 429.68 76.3731 430.089 75.9102C430.497 75.4201 430.865 75.0252 431.191 74.7257C431.845 74.1267 432.512 73.691 433.193 73.4187C433.901 73.1192 434.704 72.9694 435.602 72.9694C436.637 72.9694 437.536 73.2009 438.298 73.6638C439.061 74.0994 439.442 74.821 439.442 75.8285C439.442 76.4548 439.319 76.9858 439.074 77.4214C438.829 77.8571 438.502 78.2519 438.094 78.6059C437.686 78.9599 437.209 79.3002 436.664 79.627C436.147 79.9265 435.616 80.2669 435.072 80.6481C434.609 80.9748 434.105 81.3016 433.56 81.6283C433.043 81.9551 432.553 82.3227 432.09 82.7311C431.654 83.1123 431.287 83.5344 430.987 83.9973C430.715 84.433 430.579 84.9095 430.579 85.4268C430.579 86.1348 430.769 86.6658 431.15 87.0197C431.559 87.3737 432.076 87.5507 432.703 87.5507C433.737 87.5507 434.813 87.2376 435.929 86.6113C437.046 85.9578 438.148 85.1545 439.238 84.2015C440.381 83.1668 441.47 82.0504 442.505 80.8523C443.54 79.627 444.452 78.4425 445.242 77.2989L445.609 77.4623C444.656 78.7693 443.676 80.0218 442.668 81.2199C441.661 82.418 440.613 83.5208 439.523 84.5283C438.162 85.7536 436.76 86.7475 435.317 87.5099C433.873 88.2723 432.335 88.6535 430.701 88.6535C429.394 88.6535 428.428 88.3404 427.801 87.7141C427.202 87.0878 426.903 86.2982 426.903 85.3451C426.903 84.6916 427.052 84.1062 427.352 83.5889C427.679 83.0443 428.087 82.5541 428.577 82.1185C429.095 81.6556 429.666 81.2199 430.293 80.8115C430.919 80.403 431.545 79.9946 432.172 79.5861C432.634 79.2866 433.097 78.9871 433.56 78.6876C434.023 78.3881 434.432 78.0749 434.786 77.7482C435.167 77.3942 435.466 77.013 435.684 76.6045C435.929 76.1961 436.052 75.7196 436.052 75.175C436.052 74.6576 435.902 74.2628 435.602 73.9905C435.303 73.7182 434.935 73.5821 434.5 73.5821C433.574 73.5821 432.594 74.0586 431.559 75.0116C431.259 75.3111 430.905 75.6924 430.497 76.1553C430.116 76.5909 429.735 77.0402 429.353 77.5031L428.945 77.2989ZM460.168 73.4596C459.106 75.2295 458.112 76.8088 457.186 78.1975C456.287 79.5861 455.511 80.8251 454.858 81.9143C454.204 82.9762 453.687 83.902 453.306 84.6916C452.952 85.4813 452.775 86.1756 452.775 86.7747C452.775 87.3737 453.033 87.6732 453.551 87.6732C453.878 87.6732 454.272 87.5643 454.735 87.3465C455.198 87.1014 455.688 86.8019 456.206 86.4479C456.723 86.0667 457.254 85.6311 457.799 85.1409C458.343 84.6508 458.861 84.1607 459.351 83.6705C459.95 83.0443 460.535 82.418 461.107 81.7917C461.706 81.1382 462.251 80.5119 462.741 79.9129C463.258 79.3139 463.721 78.7693 464.129 78.2791C464.538 77.7618 464.878 77.3261 465.15 76.9721L465.477 77.2172C464.824 78.0885 463.993 79.1369 462.986 80.3622C461.978 81.5603 460.903 82.7447 459.759 83.9156C458.37 85.3315 457.091 86.4343 455.92 87.224C454.749 88.0136 453.592 88.4084 452.448 88.4084C451.631 88.4084 450.978 88.1634 450.488 87.6732C449.997 87.1831 449.752 86.5705 449.752 85.8353C449.752 85.3179 449.793 84.855 449.875 84.4466C449.984 84.0381 450.106 83.725 450.242 83.5072L450.161 83.4255C449.671 83.9428 449.14 84.501 448.568 85.1001C447.996 85.6719 447.383 86.2029 446.73 86.693C446.076 87.1831 445.368 87.5916 444.606 87.9183C443.871 88.2451 443.068 88.4084 442.196 88.4084C441.352 88.4084 440.712 88.1498 440.277 87.6324C439.841 87.0878 439.623 86.4615 439.623 85.7536C439.623 84.7189 440.181 83.2213 441.298 81.2608C442.414 79.3002 443.925 76.7543 445.831 73.6229L450.161 73.4596C448.01 76.7543 446.253 79.4636 444.892 81.5875C443.558 83.6842 442.891 85.2498 442.891 86.2846C442.891 86.6113 442.972 86.8836 443.136 87.1014C443.326 87.3193 443.571 87.4282 443.871 87.4282C444.388 87.4282 445.001 87.2104 445.709 86.7747C446.444 86.339 447.206 85.7536 447.996 85.0184C448.786 84.2832 449.562 83.4391 450.324 82.4861C451.114 81.533 451.822 80.5392 452.448 79.5045L455.961 73.7863L460.168 73.4596ZM479.832 73.4596C478.77 75.2295 477.776 76.8088 476.85 78.1975C475.951 79.5861 475.175 80.8251 474.522 81.9143C473.868 82.9762 473.351 83.902 472.97 84.6916C472.616 85.4813 472.439 86.1756 472.439 86.7747C472.439 87.3737 472.698 87.6732 473.215 87.6732C473.542 87.6732 473.937 87.5643 474.399 87.3465C474.862 87.1014 475.352 86.8019 475.87 86.4479C476.387 86.0667 476.918 85.6311 477.463 85.1409C478.007 84.6508 478.525 84.1607 479.015 83.6705C479.614 83.0443 480.199 82.418 480.771 81.7917C481.37 81.1382 481.915 80.5119 482.405 79.9129C482.922 79.3139 483.385 78.7693 483.794 78.2791C484.202 77.7618 484.542 77.3261 484.815 76.9721L485.141 77.2172C484.488 78.0885 483.657 79.1369 482.65 80.3622C481.642 81.5603 480.567 82.7447 479.423 83.9156C478.035 85.3315 476.755 86.4343 475.584 87.224C474.413 88.0136 473.256 88.4084 472.112 88.4084C471.295 88.4084 470.642 88.1634 470.152 87.6732C469.662 87.1831 469.416 86.5705 469.416 85.8353C469.416 85.3179 469.457 84.855 469.539 84.4466C469.648 84.0381 469.77 83.725 469.907 83.5072L469.825 83.4255C469.335 83.9428 468.804 84.501 468.232 85.1001C467.66 85.6719 467.048 86.2029 466.394 86.693C465.741 87.1831 465.033 87.5916 464.27 87.9183C463.535 88.2451 462.732 88.4084 461.86 88.4084C461.016 88.4084 460.376 88.1498 459.941 87.6324C459.505 87.0878 459.287 86.4615 459.287 85.7536C459.287 84.7189 459.845 83.2213 460.962 81.2608C462.078 79.3002 463.589 76.7543 465.495 73.6229L469.825 73.4596C467.674 76.7543 465.917 79.4636 464.556 81.5875C463.222 83.6842 462.555 85.2498 462.555 86.2846C462.555 86.6113 462.636 86.8836 462.8 87.1014C462.99 87.3193 463.235 87.4282 463.535 87.4282C464.052 87.4282 464.665 87.2104 465.373 86.7747C466.108 86.339 466.871 85.7536 467.66 85.0184C468.45 84.2832 469.226 83.4391 469.988 82.4861C470.778 81.533 471.486 80.5392 472.112 79.5045L475.625 73.7863L479.832 73.4596ZM186.904 125.46C185.842 127.229 184.848 128.809 183.922 130.197C183.024 131.586 182.248 132.825 181.594 133.914C180.941 134.976 180.423 135.902 180.042 136.692C179.688 137.481 179.511 138.176 179.511 138.775C179.511 139.374 179.77 139.673 180.287 139.673C180.614 139.673 181.009 139.564 181.472 139.346C181.935 139.101 182.425 138.802 182.942 138.448C183.46 138.067 183.991 137.631 184.535 137.141C185.08 136.651 185.597 136.161 186.087 135.671C186.686 135.044 187.272 134.418 187.843 133.792C188.443 133.138 188.987 132.512 189.477 131.913C189.995 131.314 190.457 130.769 190.866 130.279C191.274 129.762 191.615 129.326 191.887 128.972L192.214 129.217C191.56 130.089 190.73 131.137 189.722 132.362C188.715 133.56 187.639 134.745 186.496 135.916C185.107 137.332 183.827 138.434 182.656 139.224C181.485 140.014 180.328 140.408 179.185 140.408C178.368 140.408 177.714 140.163 177.224 139.673C176.734 139.183 176.489 138.57 176.489 137.835C176.489 137.318 176.53 136.855 176.611 136.447C176.72 136.038 176.843 135.725 176.979 135.507L176.897 135.425C176.407 135.943 175.876 136.501 175.304 137.1C174.733 137.672 174.12 138.203 173.466 138.693C172.813 139.183 172.105 139.592 171.343 139.918C170.607 140.245 169.804 140.408 168.933 140.408C168.089 140.408 167.449 140.15 167.013 139.632C166.577 139.088 166.36 138.462 166.36 137.754C166.36 136.719 166.918 135.221 168.034 133.261C169.151 131.3 170.662 128.754 172.568 125.623L176.897 125.46C174.746 128.754 172.99 131.464 171.628 133.588C170.294 135.684 169.627 137.25 169.627 138.285C169.627 138.611 169.709 138.884 169.872 139.101C170.063 139.319 170.308 139.428 170.607 139.428C171.125 139.428 171.737 139.21 172.445 138.775C173.18 138.339 173.943 137.754 174.733 137.018C175.522 136.283 176.298 135.439 177.061 134.486C177.85 133.533 178.558 132.539 179.185 131.504L182.697 125.786L186.904 125.46ZM223.869 129.503C223.161 130.456 222.385 131.137 221.541 131.545C220.724 131.927 219.921 132.117 219.131 132.117C218.505 132.117 217.906 131.981 217.334 131.709C216.789 131.436 216.326 131.137 215.945 130.81C215.455 132.444 214.747 133.873 213.821 135.099C212.923 136.324 211.901 137.345 210.758 138.162C209.641 138.979 208.43 139.592 207.123 140C205.843 140.436 204.577 140.654 203.324 140.654C201.936 140.654 200.846 140.272 200.057 139.51C199.267 138.747 198.872 137.767 198.872 136.569C198.872 136.052 198.927 135.548 199.036 135.058C199.172 134.541 199.403 133.955 199.73 133.302C199.948 132.893 200.234 132.349 200.588 131.668C200.969 130.987 201.309 130.415 201.609 129.952L207.204 121.212C208.13 119.741 209.151 118.448 210.268 117.332C211.384 116.215 212.623 115.194 213.985 114.268C215.292 113.397 216.503 112.73 217.62 112.267C218.736 111.804 219.716 111.573 220.56 111.573C220.942 111.573 221.336 111.6 221.745 111.654C222.181 111.682 222.589 111.777 222.97 111.94C223.787 112.294 224.196 112.825 224.196 113.533C224.196 114.323 223.964 115.099 223.501 115.861C223.038 116.596 222.194 117.454 220.969 118.434C219.498 119.578 218.164 120.517 216.966 121.253C215.768 121.988 214.638 122.737 213.576 123.499C213.44 123.608 213.236 123.744 212.963 123.907C212.718 124.071 212.432 124.261 212.106 124.479C211.779 124.697 211.425 124.929 211.044 125.174C210.69 125.391 210.336 125.623 209.982 125.868C209.138 126.413 208.239 126.998 207.286 127.624L205.285 130.647C204.958 131.137 204.577 131.75 204.141 132.485C203.705 133.22 203.365 133.86 203.12 134.404C202.684 135.276 202.385 136.025 202.221 136.651C202.058 137.25 201.976 137.74 201.976 138.121C201.976 138.775 202.14 139.278 202.467 139.632C202.793 139.986 203.229 140.163 203.774 140.163C204.563 140.163 205.503 139.782 206.592 139.02C207.708 138.23 208.825 136.978 209.941 135.262C211.466 132.866 212.351 130.742 212.596 128.89C212.296 128.291 212.147 127.733 212.147 127.216C212.147 126.535 212.324 125.991 212.678 125.582C213.032 125.174 213.454 124.969 213.944 124.969C214.788 124.969 215.387 125.296 215.741 125.95C216.122 126.576 216.313 127.406 216.313 128.441C216.313 128.741 216.285 129.04 216.231 129.34C216.176 129.639 216.122 129.952 216.068 130.279C216.53 130.688 217.034 131.014 217.579 131.259C218.123 131.504 218.695 131.627 219.294 131.627C219.921 131.627 220.601 131.464 221.336 131.137C222.099 130.81 222.848 130.184 223.583 129.258L223.869 129.503ZM207.817 126.562L207.899 126.603C208.634 126.113 209.356 125.637 210.064 125.174C210.663 124.792 211.262 124.411 211.861 124.03C212.46 123.622 212.923 123.295 213.249 123.05C214.202 122.396 215.128 121.675 216.027 120.885C216.925 120.068 217.729 119.224 218.437 118.353C219.253 117.427 219.852 116.542 220.234 115.698C220.642 114.854 220.846 114.064 220.846 113.329C220.846 112.539 220.547 112.144 219.948 112.144C219.458 112.144 218.981 112.281 218.518 112.553C218.083 112.798 217.592 113.193 217.048 113.737C216.721 114.064 216.381 114.459 216.027 114.922C215.673 115.357 215.319 115.82 214.965 116.311C214.611 116.773 214.284 117.236 213.985 117.699C213.712 118.135 213.481 118.489 213.29 118.761L207.817 126.562ZM243.505 129.421C242.961 130.129 242.307 130.769 241.545 131.341C240.809 131.913 239.993 132.199 239.094 132.199C238.468 132.199 237.923 132.063 237.46 131.79C236.997 131.518 236.575 131.137 236.194 130.647C235.867 132.008 235.323 133.302 234.56 134.527C233.825 135.725 232.927 136.787 231.865 137.713C230.803 138.611 229.618 139.333 228.311 139.877C227.004 140.395 225.643 140.654 224.227 140.654C222.729 140.654 221.531 140.231 220.633 139.387C219.734 138.516 219.285 137.332 219.285 135.834C219.285 134.391 219.652 133.016 220.387 131.709C221.123 130.374 222.076 129.217 223.247 128.237C224.417 127.229 225.711 126.44 227.127 125.868C228.543 125.269 229.931 124.969 231.293 124.969C232.763 124.969 233.92 125.364 234.765 126.154C235.609 126.944 236.126 127.897 236.317 129.013C236.453 129.83 236.752 130.483 237.215 130.973C237.705 131.464 238.332 131.709 239.094 131.709C239.829 131.709 240.524 131.491 241.177 131.055C241.831 130.62 242.525 129.966 243.26 129.095L243.505 129.421ZM224.513 140.163C225.193 140.163 225.874 139.932 226.555 139.469C227.236 139.006 227.889 138.407 228.515 137.672C229.142 136.937 229.713 136.106 230.231 135.18C230.775 134.255 231.238 133.329 231.62 132.403C232.028 131.477 232.341 130.592 232.559 129.748C232.777 128.904 232.886 128.196 232.886 127.624C232.886 126.944 232.736 126.413 232.436 126.031C232.164 125.65 231.715 125.46 231.089 125.46C230.408 125.46 229.727 125.691 229.046 126.154C228.366 126.617 227.712 127.216 227.086 127.951C226.46 128.686 225.874 129.517 225.33 130.443C224.812 131.368 224.349 132.294 223.941 133.22C223.56 134.146 223.26 135.031 223.042 135.875C222.824 136.719 222.716 137.427 222.716 137.999C222.716 138.679 222.852 139.21 223.124 139.592C223.424 139.973 223.886 140.163 224.513 140.163ZM238.05 137.917C238.023 138.38 238.159 138.829 238.459 139.265C238.758 139.7 239.207 139.918 239.807 139.918C240.351 139.918 240.95 139.755 241.604 139.428C242.284 139.074 242.911 138.639 243.482 138.121C244.218 137.468 245.157 136.474 246.301 135.14C247.472 133.778 248.819 131.913 250.344 129.544C250.725 128.972 251.093 128.373 251.447 127.747C251.828 127.121 252.223 126.467 252.632 125.786L256.838 125.46C255.994 126.848 255.191 128.128 254.429 129.299C253.693 130.47 253.013 131.545 252.386 132.526C251.461 133.996 250.725 135.248 250.181 136.283C249.664 137.291 249.418 138.094 249.446 138.693C249.446 138.965 249.5 139.197 249.609 139.387C249.718 139.578 249.922 139.673 250.222 139.673C250.794 139.673 251.61 139.306 252.672 138.57C253.762 137.808 255.055 136.651 256.553 135.099C257.342 134.309 258.159 133.411 259.003 132.403C259.875 131.368 260.814 130.225 261.821 128.972L262.148 129.217C261.195 130.47 260.269 131.613 259.371 132.648C258.499 133.683 257.669 134.622 256.879 135.466C255.164 137.263 253.693 138.543 252.468 139.306C251.27 140.041 250.181 140.408 249.201 140.408C248.302 140.408 247.621 140.15 247.158 139.632C246.723 139.088 246.505 138.421 246.505 137.631C246.505 137.141 246.6 136.624 246.791 136.079C246.981 135.534 247.186 135.071 247.403 134.69L247.322 134.609C246.587 135.534 245.947 136.283 245.402 136.855C244.885 137.427 244.327 137.985 243.728 138.53C242.366 139.782 240.923 140.408 239.398 140.408C238.363 140.408 237.465 140.123 236.702 139.551C235.913 138.952 235.518 138.094 235.518 136.978C235.518 136.215 235.722 135.575 236.131 135.058C236.539 134.513 237.179 134.241 238.05 134.241C238.54 134.241 238.962 134.418 239.316 134.772C239.67 135.099 239.847 135.534 239.847 136.079C239.847 136.487 239.684 136.896 239.357 137.304C239.058 137.713 238.622 137.917 238.05 137.917ZM276.571 135.425C276.19 135.834 275.7 136.351 275.101 136.978C274.502 137.604 273.835 138.189 273.099 138.734C272.473 139.197 271.779 139.592 271.016 139.918C270.281 140.245 269.532 140.408 268.77 140.408C267.817 140.408 267.123 140.15 266.687 139.632C266.278 139.088 266.074 138.421 266.074 137.631C266.074 137.141 266.115 136.746 266.197 136.447C266.306 136.147 266.428 135.834 266.564 135.507L266.483 135.425C265.965 135.997 265.462 136.528 264.971 137.018C264.481 137.481 263.978 137.931 263.46 138.366C262.616 139.074 261.786 139.592 260.969 139.918C260.152 140.245 259.389 140.408 258.682 140.408C257.783 140.408 257.102 140.177 256.639 139.714C256.176 139.224 255.945 138.557 255.945 137.713C255.945 137.086 256.136 136.351 256.517 135.507C256.898 134.636 257.402 133.669 258.028 132.607L262.153 125.623L266.442 125.46L262.725 131.219C262.289 131.899 261.881 132.539 261.5 133.138C261.119 133.71 260.792 134.241 260.52 134.731C260.057 135.575 259.716 136.283 259.498 136.855C259.308 137.4 259.212 137.863 259.212 138.244C259.212 138.598 259.294 138.884 259.458 139.101C259.621 139.319 259.893 139.428 260.274 139.428C260.792 139.428 261.513 139.142 262.439 138.57C263.392 137.971 264.577 136.869 265.993 135.262C266.864 134.255 267.599 133.288 268.198 132.362C268.824 131.409 269.478 130.374 270.159 129.258L272.283 125.786L276.571 125.46L273.14 130.769C272.841 131.205 272.473 131.777 272.037 132.485C271.602 133.165 271.221 133.792 270.894 134.364C270.458 135.126 270.077 135.861 269.75 136.569C269.451 137.25 269.301 137.849 269.301 138.366C269.301 138.666 269.383 138.924 269.546 139.142C269.737 139.333 269.982 139.428 270.281 139.428C270.69 139.428 271.221 139.265 271.874 138.938C272.528 138.584 273.249 138.053 274.039 137.345C274.774 136.692 275.55 135.902 276.367 134.976C277.184 134.023 278.028 132.839 278.899 131.423C279.471 130.497 280.029 129.598 280.574 128.727C281.118 127.856 281.718 126.875 282.371 125.786L286.578 125.46C285.924 126.494 285.325 127.461 284.781 128.359C284.236 129.231 283.705 130.061 283.188 130.851C282.725 131.559 282.248 132.321 281.758 133.138C281.268 133.928 280.833 134.649 280.451 135.303C280.016 136.065 279.689 136.746 279.471 137.345C279.28 137.917 279.185 138.38 279.185 138.734C279.185 139.006 279.24 139.238 279.349 139.428C279.457 139.592 279.662 139.673 279.961 139.673C280.533 139.673 281.404 139.265 282.575 138.448C283.773 137.604 285.108 136.379 286.578 134.772C287.313 133.955 288.103 133.07 288.947 132.117C289.791 131.164 290.662 130.116 291.561 128.972L291.888 129.217C290.009 131.668 288.293 133.71 286.741 135.344C285.135 137.032 283.719 138.298 282.494 139.142C281.268 139.986 280.057 140.408 278.858 140.408C278.014 140.408 277.347 140.163 276.857 139.673C276.394 139.183 276.163 138.543 276.163 137.754C276.163 137.263 276.19 136.882 276.244 136.61C276.326 136.338 276.462 135.97 276.653 135.507L276.571 135.425ZM308.451 129.299C307.607 130.443 306.695 131.573 305.715 132.689C304.762 133.805 303.618 134.976 302.284 136.202C300.405 137.89 298.594 139.061 296.852 139.714C295.136 140.34 293.516 140.654 291.991 140.654C290.439 140.654 289.214 140.191 288.315 139.265C287.417 138.339 286.968 137.141 286.968 135.671C286.968 134.364 287.362 133.07 288.152 131.79C288.942 130.511 289.936 129.367 291.134 128.359C292.332 127.352 293.639 126.535 295.055 125.909C296.498 125.283 297.859 124.969 299.139 124.969C300.31 124.969 301.222 125.201 301.876 125.664C302.529 126.099 302.856 126.726 302.856 127.543C302.856 128.196 302.624 128.795 302.161 129.34C301.726 129.884 301.154 130.374 300.446 130.81C299.738 131.246 298.935 131.627 298.036 131.954C297.165 132.28 296.294 132.566 295.422 132.811C294.551 133.057 293.734 133.261 292.972 133.424C292.209 133.588 291.583 133.724 291.093 133.833C290.957 134.377 290.889 134.867 290.889 135.303C290.889 136.474 291.215 137.427 291.869 138.162C292.522 138.897 293.435 139.265 294.605 139.265C295.749 139.265 297.002 138.924 298.363 138.244C299.752 137.563 301.14 136.569 302.529 135.262C303.591 134.255 304.612 133.206 305.592 132.117C306.573 131.001 307.43 129.966 308.166 129.013L308.451 129.299ZM299.588 126.522C299.588 126.14 299.479 125.868 299.262 125.705C299.071 125.541 298.812 125.46 298.486 125.46C297.805 125.46 297.07 125.745 296.28 126.317C295.49 126.889 294.742 127.597 294.034 128.441C293.353 129.258 292.74 130.129 292.196 131.055C291.678 131.954 291.338 132.743 291.174 133.424C292.291 133.206 293.353 132.852 294.36 132.362C295.368 131.845 296.253 131.273 297.015 130.647C297.805 129.993 298.431 129.313 298.894 128.605C299.357 127.869 299.588 127.175 299.588 126.522ZM337.378 110.837C336.997 111.464 336.629 112.063 336.275 112.635C335.949 113.179 335.595 113.683 335.213 114.146C334.669 114.772 334.097 115.262 333.498 115.616C332.926 115.97 332.273 116.147 331.538 116.147C330.83 116.147 330.176 116.052 329.577 115.861C329.005 115.671 328.365 115.466 327.657 115.249C326.922 115.031 326.282 114.84 325.738 114.677C325.193 114.513 324.717 114.432 324.308 114.432C323.709 114.432 323.219 114.622 322.838 115.004C322.484 115.385 322.239 116.025 322.103 116.923L320.714 129.176C320.578 130.02 320.428 130.769 320.265 131.423C320.128 132.076 319.843 132.839 319.407 133.71C318.998 134.472 318.427 135.303 317.691 136.202C318.59 135.875 319.434 135.534 320.224 135.18C321.041 134.826 321.898 134.336 322.797 133.71C323.587 133.138 324.39 132.457 325.207 131.668C326.051 130.851 326.8 129.993 327.453 129.095L327.78 129.421C327.045 130.347 326.269 131.219 325.452 132.035C324.635 132.825 323.791 133.506 322.919 134.078C322.266 134.513 321.599 134.895 320.918 135.221C320.265 135.548 319.666 135.834 319.121 136.079C318.576 136.297 318.127 136.46 317.773 136.569C317.474 136.678 317.297 136.732 317.242 136.732C316.398 137.686 315.254 138.543 313.811 139.306C313.022 139.741 312.191 140.068 311.32 140.286C310.476 140.531 309.577 140.654 308.624 140.654C306.99 140.654 305.738 140.218 304.866 139.346C303.995 138.475 303.559 137.223 303.559 135.589C303.559 134.255 303.968 132.88 304.785 131.464C305.602 130.048 306.827 128.727 308.461 127.502C309.523 126.712 310.68 126.099 311.932 125.664C313.185 125.201 314.342 124.969 315.404 124.969C315.949 124.969 316.48 125.024 316.997 125.133C317.542 125.242 318.045 125.446 318.508 125.745C318.89 125.991 319.23 126.317 319.529 126.726C319.829 127.107 320.06 127.611 320.224 128.237H320.305L321.694 116.311C321.776 115.711 321.885 115.112 322.021 114.513C322.157 113.887 322.47 113.302 322.96 112.757C323.396 112.294 323.927 111.981 324.553 111.818C325.179 111.654 325.724 111.573 326.187 111.573C326.84 111.573 327.48 111.668 328.107 111.859C328.76 112.022 329.386 112.213 329.985 112.43C330.639 112.648 331.252 112.866 331.823 113.084C332.395 113.302 332.913 113.411 333.376 113.411C333.866 113.411 334.274 113.343 334.601 113.206C334.955 113.043 335.295 112.812 335.622 112.512C335.84 112.294 336.058 112.036 336.275 111.736C336.493 111.436 336.738 111.096 337.011 110.715L337.378 110.837ZM315.282 125.46C314.574 125.46 313.784 125.786 312.913 126.44C312.069 127.066 311.211 128.005 310.34 129.258C309.877 129.912 309.441 130.633 309.033 131.423C308.651 132.185 308.297 132.961 307.971 133.751C307.671 134.513 307.426 135.248 307.235 135.956C307.072 136.664 306.99 137.25 306.99 137.713C306.99 138.502 307.113 139.115 307.358 139.551C307.63 139.959 308.12 140.163 308.828 140.163C309.618 140.163 310.476 139.796 311.401 139.061C312.355 138.325 313.28 137.209 314.179 135.711C315.077 134.241 315.799 132.784 316.344 131.341C316.888 129.898 317.16 128.686 317.16 127.706C317.16 126.208 316.534 125.46 315.282 125.46ZM344.509 129.462C343.502 130.688 342.412 131.967 341.241 133.302C340.071 134.609 338.804 135.807 337.443 136.896C336.109 137.985 334.666 138.884 333.114 139.592C331.589 140.3 329.969 140.654 328.253 140.654C326.619 140.654 325.367 140.218 324.495 139.346C323.624 138.448 323.188 137.141 323.188 135.425C323.188 134.118 323.57 132.839 324.332 131.586C325.095 130.334 326.075 129.217 327.273 128.237C328.471 127.257 329.792 126.467 331.235 125.868C332.678 125.269 334.08 124.969 335.442 124.969C336.694 124.969 337.688 125.228 338.423 125.745C339.158 126.236 339.526 126.848 339.526 127.583C339.526 128.101 339.417 128.577 339.199 129.013C339.009 129.421 338.75 129.775 338.423 130.075C338.096 130.347 337.729 130.565 337.32 130.728C336.912 130.865 336.504 130.933 336.095 130.933C335.741 130.933 335.428 130.905 335.156 130.851C335.346 130.225 335.551 129.585 335.768 128.931C335.986 128.278 336.095 127.624 336.095 126.971C336.095 126.508 335.986 126.14 335.768 125.868C335.551 125.596 335.251 125.46 334.87 125.46C334.162 125.46 333.359 125.745 332.46 126.317C331.561 126.862 330.717 127.611 329.928 128.564C329.138 129.489 328.471 130.565 327.926 131.79C327.382 132.988 327.109 134.241 327.109 135.548C327.109 136.583 327.423 137.468 328.049 138.203C328.675 138.911 329.546 139.265 330.663 139.265C331.997 139.265 333.318 138.897 334.625 138.162C335.959 137.427 337.212 136.542 338.382 135.507C339.58 134.445 340.67 133.356 341.65 132.24C342.63 131.096 343.461 130.116 344.141 129.299L344.509 129.462ZM354.933 132.403C355.451 131.75 356.063 131.001 356.771 130.157C357.479 129.285 358.242 128.468 359.059 127.706C359.903 126.944 360.774 126.304 361.673 125.786C362.599 125.242 363.511 124.969 364.409 124.969C365.281 124.969 365.975 125.242 366.492 125.786C367.037 126.331 367.309 126.957 367.309 127.665C367.309 128.591 367.01 129.544 366.411 130.524C365.812 131.477 365.144 132.43 364.409 133.383C363.674 134.336 363.007 135.262 362.408 136.161C361.809 137.059 361.509 137.876 361.509 138.611C361.509 138.911 361.577 139.17 361.714 139.387C361.85 139.578 362.068 139.673 362.367 139.673C363.483 139.673 365.308 138.407 367.84 135.875C368.875 134.84 369.882 133.751 370.863 132.607C371.87 131.436 372.741 130.374 373.477 129.421L373.803 129.585C373.477 129.993 373.095 130.456 372.66 130.973C372.251 131.491 371.802 132.049 371.312 132.648C370.822 133.22 370.291 133.819 369.719 134.445C369.174 135.071 368.616 135.671 368.044 136.242C367.282 137.005 366.588 137.658 365.961 138.203C365.335 138.72 364.75 139.142 364.205 139.469C363.688 139.796 363.184 140.027 362.694 140.163C362.231 140.327 361.754 140.408 361.264 140.408C360.311 140.408 359.562 140.15 359.018 139.632C358.5 139.088 358.242 138.407 358.242 137.59C358.242 136.719 358.541 135.779 359.14 134.772C359.739 133.764 360.407 132.784 361.142 131.831C361.877 130.878 362.544 129.993 363.143 129.176C363.742 128.332 364.042 127.652 364.042 127.134C364.042 126.753 363.933 126.467 363.715 126.276C363.497 126.059 363.238 125.95 362.939 125.95C362.367 125.95 361.7 126.222 360.938 126.767C360.202 127.284 359.426 127.965 358.609 128.809C357.793 129.653 356.976 130.592 356.159 131.627C355.369 132.662 354.607 133.696 353.872 134.731C353.164 135.766 352.524 136.732 351.952 137.631C351.407 138.53 350.972 139.265 350.645 139.837L346.315 140C347.241 138.53 348.14 137.141 349.011 135.834C349.91 134.5 350.699 133.288 351.38 132.199C352.088 131.082 352.646 130.102 353.055 129.258C353.49 128.414 353.708 127.747 353.708 127.257C353.708 126.93 353.613 126.63 353.422 126.358C353.232 126.086 352.932 125.95 352.524 125.95C351.952 125.95 351.285 126.222 350.522 126.767C349.787 127.284 349.011 127.965 348.194 128.809C347.377 129.653 346.547 130.592 345.703 131.627C344.886 132.662 344.11 133.696 343.375 134.731C342.639 135.766 341.986 136.732 341.414 137.631C340.842 138.53 340.393 139.265 340.066 139.837L335.941 140C337.439 137.604 338.923 135.221 340.393 132.852C341.863 130.456 343.307 128.019 344.722 125.541L349.501 125.296L344.069 132.73L344.151 132.811C344.722 132.158 345.362 131.382 346.07 130.483C346.806 129.585 347.595 128.727 348.439 127.91C349.283 127.093 350.182 126.399 351.135 125.827C352.115 125.255 353.15 124.969 354.239 124.969C355.002 124.969 355.641 125.174 356.159 125.582C356.703 125.991 356.976 126.603 356.976 127.42C356.976 127.801 356.908 128.21 356.771 128.645C356.635 129.081 356.458 129.517 356.24 129.952C356.05 130.361 355.818 130.783 355.546 131.219C355.301 131.627 355.07 131.995 354.852 132.321L354.933 132.403ZM394.743 129.503C394.035 130.456 393.259 131.137 392.415 131.545C391.598 131.927 390.795 132.117 390.005 132.117C389.379 132.117 388.78 131.981 388.208 131.709C387.664 131.436 387.201 131.137 386.819 130.81C386.329 132.444 385.621 133.873 384.696 135.099C383.797 136.324 382.776 137.345 381.632 138.162C380.516 138.979 379.304 139.592 377.997 140C376.717 140.436 375.451 140.654 374.199 140.654C372.81 140.654 371.721 140.272 370.931 139.51C370.142 138.747 369.747 137.767 369.747 136.569C369.747 136.052 369.801 135.548 369.91 135.058C370.046 134.541 370.278 133.955 370.604 133.302C370.822 132.893 371.108 132.349 371.462 131.668C371.843 130.987 372.184 130.415 372.483 129.952L378.079 121.212C379.005 119.741 380.026 118.448 381.142 117.332C382.259 116.215 383.498 115.194 384.859 114.268C386.166 113.397 387.378 112.73 388.494 112.267C389.61 111.804 390.591 111.573 391.435 111.573C391.816 111.573 392.211 111.6 392.619 111.654C393.055 111.682 393.463 111.777 393.845 111.94C394.662 112.294 395.07 112.825 395.07 113.533C395.07 114.323 394.839 115.099 394.376 115.861C393.913 116.596 393.069 117.454 391.843 118.434C390.373 119.578 389.039 120.517 387.841 121.253C386.642 121.988 385.512 122.737 384.451 123.499C384.314 123.608 384.11 123.744 383.838 123.907C383.593 124.071 383.307 124.261 382.98 124.479C382.653 124.697 382.299 124.929 381.918 125.174C381.564 125.391 381.21 125.623 380.856 125.868C380.012 126.413 379.114 126.998 378.161 127.624L376.159 130.647C375.832 131.137 375.451 131.75 375.016 132.485C374.58 133.22 374.24 133.86 373.994 134.404C373.559 135.276 373.259 136.025 373.096 136.651C372.933 137.25 372.851 137.74 372.851 138.121C372.851 138.775 373.014 139.278 373.341 139.632C373.668 139.986 374.103 140.163 374.648 140.163C375.438 140.163 376.377 139.782 377.466 139.02C378.583 138.23 379.699 136.978 380.815 135.262C382.34 132.866 383.225 130.742 383.47 128.89C383.171 128.291 383.021 127.733 383.021 127.216C383.021 126.535 383.198 125.991 383.552 125.582C383.906 125.174 384.328 124.969 384.818 124.969C385.662 124.969 386.261 125.296 386.615 125.95C386.996 126.576 387.187 127.406 387.187 128.441C387.187 128.741 387.16 129.04 387.105 129.34C387.051 129.639 386.996 129.952 386.942 130.279C387.405 130.688 387.909 131.014 388.453 131.259C388.998 131.504 389.57 131.627 390.169 131.627C390.795 131.627 391.476 131.464 392.211 131.137C392.973 130.81 393.722 130.184 394.457 129.258L394.743 129.503ZM378.692 126.562L378.773 126.603C379.508 126.113 380.23 125.637 380.938 125.174C381.537 124.792 382.136 124.411 382.735 124.03C383.334 123.622 383.797 123.295 384.124 123.05C385.077 122.396 386.003 121.675 386.901 120.885C387.8 120.068 388.603 119.224 389.311 118.353C390.128 117.427 390.727 116.542 391.108 115.698C391.517 114.854 391.721 114.064 391.721 113.329C391.721 112.539 391.421 112.144 390.822 112.144C390.332 112.144 389.856 112.281 389.393 112.553C388.957 112.798 388.467 113.193 387.922 113.737C387.596 114.064 387.255 114.459 386.901 114.922C386.547 115.357 386.193 115.82 385.839 116.311C385.485 116.773 385.158 117.236 384.859 117.699C384.587 118.135 384.355 118.489 384.165 118.761L378.692 126.562ZM406.088 125.868L410.336 125.623C410.091 126.113 409.737 126.712 409.274 127.42C408.811 128.101 408.307 128.85 407.763 129.666C407.218 130.456 406.66 131.287 406.088 132.158C405.544 133.002 405.04 133.833 404.577 134.649C404.114 135.439 403.733 136.188 403.433 136.896C403.161 137.577 403.025 138.162 403.025 138.652C403.025 139.333 403.365 139.673 404.046 139.673C404.7 139.673 405.584 139.292 406.701 138.53C407.817 137.767 408.988 136.76 410.213 135.507C410.731 134.99 411.248 134.432 411.766 133.833C412.31 133.234 412.827 132.648 413.318 132.076C413.808 131.477 414.257 130.933 414.665 130.443C415.074 129.925 415.401 129.503 415.646 129.176L415.932 129.34C415.224 130.293 414.407 131.355 413.481 132.526C412.555 133.669 411.439 134.895 410.132 136.202C408.825 137.509 407.531 138.584 406.252 139.428C404.999 140.245 403.747 140.654 402.494 140.654C401.623 140.654 400.942 140.436 400.452 140C399.989 139.537 399.757 138.979 399.757 138.325C399.757 138.108 399.771 137.903 399.798 137.713C399.826 137.522 399.866 137.372 399.921 137.263H399.839C398.995 138.216 398.042 139.02 396.98 139.673C395.918 140.327 394.774 140.654 393.549 140.654C392.896 140.654 392.337 140.531 391.875 140.286C391.412 140.041 391.03 139.714 390.731 139.306C390.459 138.87 390.254 138.393 390.118 137.876C389.982 137.332 389.914 136.773 389.914 136.202C389.914 134.867 390.282 133.533 391.017 132.199C391.752 130.865 392.678 129.666 393.794 128.605C394.911 127.515 396.15 126.644 397.511 125.991C398.9 125.31 400.22 124.969 401.473 124.969C402.426 124.969 403.175 125.174 403.719 125.582C404.264 125.991 404.713 126.63 405.067 127.502L406.088 125.868ZM393.835 136.324C393.835 137.114 393.958 137.808 394.203 138.407C394.475 138.979 395.033 139.265 395.877 139.265C396.449 139.238 397.048 139.006 397.674 138.57C398.301 138.108 398.9 137.536 399.472 136.855C400.071 136.174 400.629 135.425 401.146 134.609C401.691 133.764 402.154 132.92 402.535 132.076C402.943 131.232 403.256 130.443 403.474 129.707C403.719 128.945 403.842 128.305 403.842 127.788C403.842 127.052 403.706 126.481 403.433 126.072C403.161 125.664 402.63 125.46 401.84 125.46C401.214 125.46 400.574 125.65 399.921 126.031C399.295 126.413 398.682 126.916 398.083 127.543C397.511 128.169 396.953 128.877 396.408 129.666C395.891 130.429 395.442 131.219 395.06 132.035C394.679 132.852 394.38 133.642 394.162 134.404C393.944 135.14 393.835 135.779 393.835 136.324ZM417.833 135.099C418.405 134.173 418.963 133.206 419.508 132.199C420.08 131.191 420.597 130.211 421.06 129.258C421.523 128.305 421.945 127.393 422.326 126.522C422.707 125.65 423.007 124.888 423.224 124.234C423.987 121.974 424.668 120.368 425.267 119.415C425.893 118.434 426.601 117.944 427.391 117.944C427.881 117.944 428.303 118.121 428.657 118.475C429.038 118.829 429.229 119.279 429.229 119.823C429.229 120.286 429.106 120.763 428.861 121.253C428.643 121.716 428.303 122.247 427.84 122.846C427.377 123.445 426.792 124.139 426.084 124.929C425.403 125.691 424.6 126.603 423.674 127.665C422.748 128.727 421.795 129.884 420.815 131.137C419.862 132.389 418.963 133.751 418.119 135.221L417.833 135.099ZM415.995 135.916C416.621 135.916 417.152 136.147 417.588 136.61C418.051 137.046 418.282 137.577 418.282 138.203C418.282 138.829 418.051 139.374 417.588 139.837C417.152 140.272 416.621 140.49 415.995 140.49C415.369 140.49 414.824 140.272 414.361 139.837C413.926 139.374 413.708 138.829 413.708 138.203C413.708 137.577 413.926 137.046 414.361 136.61C414.824 136.147 415.369 135.916 415.995 135.916Z" fill="black"/>
</svg>
