<svg width="537" height="556" viewBox="0 0 537 556" fill="none" xmlns="http://www.w3.org/2000/svg">
<rect x="5" y="5" width="527" height="546" rx="45" fill="#FFF9EE" fill-opacity="0.24" stroke="#526B4B" stroke-width="10"/>
<path d="M73.0532 62.58C73.1232 62.58 73.1582 62.65 73.1582 62.79C73.1582 62.93 73.1232 63 73.0532 63C72.4465 63 71.7582 62.9883 70.9882 62.965C70.2415 62.9417 69.4482 62.93 68.6082 62.93C67.6515 62.93 66.7649 62.9417 65.9482 62.965C65.1315 62.9883 64.3965 63 63.7432 63C63.6732 63 63.6382 62.93 63.6382 62.79C63.6382 62.65 63.6732 62.58 63.7432 62.58C64.5132 62.58 65.0849 62.5217 65.4582 62.405C65.8549 62.2883 66.1115 62.055 66.2282 61.705C66.3682 61.355 66.4382 60.8417 66.4382 60.165V44.38C66.4382 43.6567 66.4032 43.1433 66.3332 42.84C66.2865 42.5367 66.1465 42.3617 65.9132 42.315C65.6799 42.245 65.2715 42.21 64.6882 42.21H57.5132C56.8832 42.21 56.4282 42.245 56.1482 42.315C55.8915 42.385 55.7282 42.5717 55.6582 42.875C55.6115 43.155 55.5882 43.6567 55.5882 44.38V60.165C55.5882 60.8417 55.6465 61.355 55.7632 61.705C55.9032 62.055 56.1599 62.2883 56.5332 62.405C56.9299 62.5217 57.5132 62.58 58.2832 62.58C58.3532 62.58 58.3882 62.65 58.3882 62.79C58.3882 62.93 58.3532 63 58.2832 63C57.6299 63 56.8949 62.9883 56.0782 62.965C55.2615 62.9417 54.3749 62.93 53.4182 62.93C52.5782 62.93 51.7732 62.9417 51.0032 62.965C50.2332 62.9883 49.5449 63 48.9382 63C48.8915 63 48.8682 62.93 48.8682 62.79C48.8682 62.65 48.8915 62.58 48.9382 62.58C49.7315 62.58 50.3149 62.5217 50.6882 62.405C51.0849 62.2883 51.3532 62.055 51.4932 61.705C51.6332 61.355 51.7032 60.8417 51.7032 60.165V44.38C51.7032 43.3767 51.5399 42.6533 51.2132 42.21C50.8865 41.7667 50.1515 41.545 49.0082 41.545C48.9382 41.545 48.9032 41.475 48.9032 41.335C48.9032 41.195 48.9382 41.125 49.0082 41.125C49.4282 41.125 50.2449 41.1367 51.4582 41.16C52.6715 41.1833 54.1299 41.2067 55.8332 41.23C57.5365 41.23 59.3099 41.23 61.1532 41.23C62.6232 41.23 64.0349 41.23 65.3882 41.23C66.7415 41.2067 67.9665 41.195 69.0632 41.195C70.1832 41.1717 71.0932 41.16 71.7932 41.16C72.4932 41.1367 72.9132 41.125 73.0532 41.125C73.1232 41.125 73.1582 41.195 73.1582 41.335C73.1582 41.475 73.1232 41.545 73.0532 41.545C71.9099 41.545 71.1632 41.7667 70.8132 42.21C70.4865 42.6533 70.3232 43.3767 70.3232 44.38V60.165C70.3232 60.8417 70.3932 61.355 70.5332 61.705C70.6732 62.055 70.9299 62.2883 71.3032 62.405C71.6999 62.5217 72.2832 62.58 73.0532 62.58ZM82.4674 63.455C80.9974 63.455 79.7257 63.1167 78.6524 62.44C77.579 61.7633 76.7507 60.865 76.1674 59.745C75.584 58.6017 75.2924 57.3767 75.2924 56.07C75.2924 54.8567 75.5257 53.8067 75.9924 52.92C76.459 52.0333 77.0774 51.31 77.8474 50.75C78.6174 50.1667 79.4574 49.735 80.3674 49.455C81.2774 49.175 82.1757 49.035 83.0624 49.035C84.5557 49.035 85.8274 49.385 86.8774 50.085C87.9507 50.785 88.7674 51.6833 89.3274 52.78C89.8874 53.8767 90.1674 55.0433 90.1674 56.28C90.1674 57.7033 89.8057 58.9633 89.0824 60.06C88.3824 61.1333 87.449 61.9733 86.2824 62.58C85.1157 63.1633 83.844 63.455 82.4674 63.455ZM83.5174 62.72C84.4507 62.72 85.1507 62.265 85.6174 61.355C86.084 60.445 86.3174 59.1617 86.3174 57.505C86.3174 55.8017 86.0957 54.3783 85.6524 53.235C85.2324 52.0917 84.684 51.2283 84.0074 50.645C83.3307 50.0617 82.619 49.77 81.8724 49.77C80.9624 49.77 80.2624 50.1783 79.7724 50.995C79.3057 51.8117 79.0724 53.0717 79.0724 54.775C79.0724 56.3617 79.2707 57.7617 79.6674 58.975C80.064 60.165 80.6007 61.0867 81.2774 61.74C81.954 62.3933 82.7007 62.72 83.5174 62.72ZM93.2214 63.315C91.9847 63.315 91.3664 62.7783 91.3664 61.705C91.3664 61.1217 91.5297 60.725 91.8564 60.515C92.2064 60.305 92.5681 60.2 92.9414 60.2C93.1981 60.2 93.4081 60.235 93.5714 60.305C93.7347 60.3517 93.9097 60.375 94.0964 60.375C94.6097 60.375 95.0647 60.095 95.4614 59.535C95.8581 58.9517 96.1847 58.2283 96.4414 57.365C96.6981 56.5017 96.8964 55.5917 97.0364 54.635C97.1764 53.6783 97.2464 52.815 97.2464 52.045C97.2464 51.1583 97.0597 50.5633 96.6864 50.26C96.3131 49.9567 95.7181 49.805 94.9014 49.805C94.8314 49.805 94.7964 49.7467 94.7964 49.63C94.7964 49.49 94.8314 49.42 94.9014 49.42C95.0881 49.42 95.4381 49.4317 95.9514 49.455C96.4881 49.455 97.0714 49.455 97.7014 49.455C98.3314 49.455 98.9031 49.4667 99.4164 49.49C99.9531 49.49 100.326 49.49 100.536 49.49H106.766C106.836 49.49 106.871 49.56 106.871 49.7C106.871 49.84 106.836 49.91 106.766 49.91C106.23 49.91 105.821 49.98 105.541 50.12C105.285 50.26 105.11 50.505 105.016 50.855C104.923 51.205 104.876 51.7183 104.876 52.395V60.165C104.876 60.8417 104.923 61.355 105.016 61.705C105.11 62.055 105.285 62.2883 105.541 62.405C105.821 62.5217 106.23 62.58 106.766 62.58C106.836 62.58 106.871 62.65 106.871 62.79C106.871 62.93 106.836 63 106.766 63C106.276 63 105.728 62.9883 105.121 62.965C104.538 62.9417 103.931 62.93 103.301 62.93C102.648 62.93 102.006 62.9417 101.376 62.965C100.746 62.9883 100.186 63 99.6964 63C99.6264 63 99.5914 62.93 99.5914 62.79C99.5914 62.65 99.6264 62.58 99.6964 62.58C100.256 62.58 100.665 62.5217 100.921 62.405C101.201 62.2883 101.388 62.055 101.481 61.705C101.575 61.355 101.621 60.8417 101.621 60.165V52.325C101.621 51.6017 101.61 51.1 101.586 50.82C101.563 50.5167 101.47 50.33 101.306 50.26C101.166 50.19 100.921 50.155 100.571 50.155H100.151C99.5214 50.155 99.0664 50.2017 98.7864 50.295C98.5297 50.3883 98.3664 50.5867 98.2964 50.89C98.2497 51.17 98.1914 51.6133 98.1214 52.22C98.0514 52.85 97.9814 53.6317 97.9114 54.565C97.8414 55.4983 97.7131 56.4783 97.5264 57.505C97.3631 58.5083 97.1064 59.4533 96.7564 60.34C96.4297 61.2033 95.9747 61.915 95.3914 62.475C94.8314 63.035 94.1081 63.315 93.2214 63.315ZM123.309 49.49C123.355 49.49 123.379 49.56 123.379 49.7C123.379 49.84 123.355 49.91 123.309 49.91C122.515 49.91 121.85 50.2483 121.314 50.925C120.777 51.6017 120.299 52.5117 119.879 53.655L115.994 63.98C115.154 66.22 114.337 67.9817 113.544 69.265C112.774 70.5717 111.992 71.4933 111.199 72.03C110.405 72.5667 109.565 72.835 108.679 72.835C108.002 72.835 107.477 72.6833 107.104 72.38C106.707 72.1 106.509 71.68 106.509 71.12C106.509 70.56 106.684 70.14 107.034 69.86C107.36 69.6033 107.745 69.475 108.189 69.475C108.585 69.475 108.9 69.545 109.134 69.685C109.367 69.8483 109.6 70 109.834 70.14C110.067 70.3033 110.37 70.385 110.744 70.385C111.304 70.385 111.817 70.14 112.284 69.65C112.75 69.1833 113.252 68.3667 113.789 67.2C114.325 66.0567 114.955 64.4817 115.679 62.475L115.574 64.4L109.624 52.395C109.11 51.3683 108.702 50.7033 108.399 50.4C108.119 50.0733 107.769 49.91 107.349 49.91C107.279 49.91 107.244 49.84 107.244 49.7C107.244 49.56 107.279 49.49 107.349 49.49C107.815 49.49 108.305 49.5017 108.819 49.525C109.355 49.5483 109.857 49.56 110.324 49.56C111.164 49.56 111.899 49.5483 112.529 49.525C113.159 49.5017 113.73 49.49 114.244 49.49C114.314 49.49 114.349 49.56 114.349 49.7C114.349 49.84 114.314 49.91 114.244 49.91C113.427 49.91 112.902 50.0033 112.669 50.19C112.435 50.3767 112.447 50.7383 112.704 51.275L117.149 60.375L115.889 62.44L118.934 53.62C119.33 52.4767 119.354 51.5783 119.004 50.925C118.677 50.2483 118.035 49.91 117.079 49.91C117.032 49.91 117.009 49.84 117.009 49.7C117.009 49.56 117.032 49.49 117.079 49.49C117.639 49.49 118.164 49.5017 118.654 49.525C119.167 49.5483 119.82 49.56 120.614 49.56C121.174 49.56 121.629 49.5483 121.979 49.525C122.352 49.5017 122.795 49.49 123.309 49.49ZM132.225 60.165V52.325C132.225 51.2983 132.143 50.645 131.98 50.365C131.84 50.0617 131.502 49.91 130.965 49.91C130.895 49.91 130.86 49.84 130.86 49.7C130.86 49.56 130.895 49.49 130.965 49.49C131.362 49.49 131.817 49.5017 132.33 49.525C132.867 49.5483 133.392 49.56 133.905 49.56C134.535 49.56 135.153 49.5483 135.76 49.525C136.367 49.5017 136.903 49.49 137.37 49.49C137.44 49.49 137.475 49.56 137.475 49.7C137.475 49.84 137.44 49.91 137.37 49.91C136.577 49.91 136.063 50.0733 135.83 50.4C135.62 50.7267 135.515 51.3917 135.515 52.395V60.165C135.515 61.1683 135.62 61.8217 135.83 62.125C136.063 62.4283 136.577 62.58 137.37 62.58C137.44 62.58 137.475 62.65 137.475 62.79C137.475 62.93 137.44 63 137.37 63C136.88 63 136.332 62.9883 135.725 62.965C135.142 62.9417 134.535 62.93 133.905 62.93C133.252 62.93 132.61 62.9417 131.98 62.965C131.35 62.9883 130.79 63 130.3 63C130.253 63 130.23 62.93 130.23 62.79C130.23 62.65 130.253 62.58 130.3 62.58C131.117 62.58 131.642 62.4283 131.875 62.125C132.108 61.8217 132.225 61.1683 132.225 60.165ZM127.43 52.395C127.43 52.5817 127.43 52.7567 127.43 52.92C127.43 53.06 127.43 53.2 127.43 53.34C127.43 54.39 127.593 55.1483 127.92 55.615C128.27 56.0583 128.818 56.28 129.565 56.28C130.358 56.28 130.988 56.21 131.455 56.07C131.945 55.9067 132.412 55.7083 132.855 55.475L132.995 55.825C132.085 56.6183 131.187 57.1783 130.3 57.505C129.413 57.8317 128.62 57.995 127.92 57.995C126.777 57.995 125.867 57.6683 125.19 57.015C124.537 56.3617 124.21 55.3933 124.21 54.11V52.325C124.21 51.2983 124.14 50.645 124 50.365C123.883 50.0617 123.592 49.91 123.125 49.91C123.078 49.91 123.055 49.84 123.055 49.7C123.055 49.56 123.078 49.49 123.125 49.49C123.522 49.49 123.953 49.5017 124.42 49.525C124.887 49.5483 125.377 49.56 125.89 49.56C126.403 49.56 126.905 49.5483 127.395 49.525C127.908 49.5017 128.363 49.49 128.76 49.49C128.807 49.49 128.83 49.56 128.83 49.7C128.83 49.84 128.807 49.91 128.76 49.91C128.2 49.91 127.838 50.0733 127.675 50.4C127.512 50.7267 127.43 51.3917 127.43 52.395ZM143.048 61.74L142.418 61.11L151.903 51.625L152.533 52.22L143.048 61.74ZM141.578 60.165V52.325C141.578 51.2983 141.461 50.645 141.228 50.365C140.994 50.0617 140.481 49.91 139.688 49.91C139.618 49.91 139.583 49.84 139.583 49.7C139.583 49.56 139.618 49.49 139.688 49.49C140.178 49.49 140.726 49.5017 141.333 49.525C141.963 49.5483 142.604 49.56 143.258 49.56C143.888 49.56 144.506 49.5483 145.113 49.525C145.719 49.5017 146.256 49.49 146.723 49.49C146.769 49.49 146.793 49.56 146.793 49.7C146.793 49.84 146.769 49.91 146.723 49.91C145.929 49.91 145.416 50.0733 145.183 50.4C144.949 50.7267 144.833 51.3917 144.833 52.395V60.165C144.833 61.1683 144.949 61.8217 145.183 62.125C145.416 62.4283 145.929 62.58 146.723 62.58C146.769 62.58 146.793 62.65 146.793 62.79C146.793 62.93 146.769 63 146.723 63C146.233 63 145.684 62.9883 145.078 62.965C144.494 62.9417 143.888 62.93 143.258 62.93C142.604 62.93 141.963 62.9417 141.333 62.965C140.726 62.9883 140.166 63 139.653 63C139.583 63 139.548 62.93 139.548 62.79C139.548 62.65 139.583 62.58 139.653 62.58C140.469 62.58 140.994 62.4283 141.228 62.125C141.461 61.8217 141.578 61.1683 141.578 60.165ZM150.993 60.165V52.325C150.993 51.2983 150.876 50.645 150.643 50.365C150.409 50.0617 149.896 49.91 149.103 49.91C149.033 49.91 148.998 49.84 148.998 49.7C148.998 49.56 149.033 49.49 149.103 49.49C149.593 49.49 150.141 49.5017 150.748 49.525C151.378 49.5483 152.019 49.56 152.673 49.56C153.303 49.56 153.921 49.5483 154.528 49.525C155.134 49.5017 155.671 49.49 156.138 49.49C156.184 49.49 156.208 49.56 156.208 49.7C156.208 49.84 156.184 49.91 156.138 49.91C155.344 49.91 154.831 50.0733 154.598 50.4C154.364 50.7267 154.248 51.3917 154.248 52.395V60.165C154.248 61.1683 154.364 61.8217 154.598 62.125C154.831 62.4283 155.344 62.58 156.138 62.58C156.184 62.58 156.208 62.65 156.208 62.79C156.208 62.93 156.184 63 156.138 63C155.648 63 155.099 62.9883 154.493 62.965C153.909 62.9417 153.303 62.93 152.673 62.93C152.019 62.93 151.378 62.9417 150.748 62.965C150.118 62.9883 149.558 63 149.068 63C148.998 63 148.963 62.93 148.963 62.79C148.963 62.65 148.998 62.58 149.068 62.58C149.884 62.58 150.409 62.4283 150.643 62.125C150.876 61.8217 150.993 61.1683 150.993 60.165ZM183.071 62.58C183.118 62.58 183.141 62.65 183.141 62.79C183.141 62.93 183.118 63 183.071 63C182.581 63 182.033 62.9883 181.426 62.965C180.843 62.9417 180.236 62.93 179.606 62.93C179.023 62.93 178.451 62.9417 177.891 62.965C177.331 62.9883 176.83 63 176.386 63C176.34 63 176.316 62.93 176.316 62.79C176.316 62.65 176.34 62.58 176.386 62.58C177.04 62.58 177.46 62.4283 177.646 62.125C177.833 61.8217 177.926 61.1683 177.926 60.165V52.325C177.926 51.625 177.915 51.135 177.891 50.855C177.868 50.5517 177.775 50.3767 177.611 50.33C177.471 50.26 177.226 50.225 176.876 50.225H172.851C172.501 50.225 172.245 50.26 172.081 50.33C171.941 50.4 171.848 50.5867 171.801 50.89C171.778 51.17 171.766 51.6717 171.766 52.395V60.165C171.766 61.1683 171.848 61.8217 172.011 62.125C172.198 62.4283 172.606 62.58 173.236 62.58C173.306 62.58 173.341 62.65 173.341 62.79C173.341 62.93 173.306 63 173.236 63C172.816 63 172.338 62.9883 171.801 62.965C171.265 62.9417 170.728 62.93 170.191 62.93C169.538 62.93 168.896 62.9417 168.266 62.965C167.66 62.9883 167.1 63 166.586 63C166.516 63 166.481 62.93 166.481 62.79C166.481 62.65 166.516 62.58 166.586 62.58C167.403 62.58 167.928 62.4283 168.161 62.125C168.395 61.8217 168.511 61.1683 168.511 60.165V52.325C168.511 51.2983 168.395 50.645 168.161 50.365C167.928 50.0617 167.415 49.91 166.621 49.91C166.551 49.91 166.516 49.84 166.516 49.7C166.516 49.56 166.551 49.49 166.621 49.49H183.071C183.118 49.49 183.141 49.56 183.141 49.7C183.141 49.84 183.118 49.91 183.071 49.91C182.278 49.91 181.765 50.0733 181.531 50.4C181.298 50.7267 181.181 51.3917 181.181 52.395V60.165C181.181 61.1683 181.298 61.8217 181.531 62.125C181.765 62.4283 182.278 62.58 183.071 62.58ZM184.862 72.625C184.792 72.625 184.757 72.555 184.757 72.415C184.757 72.275 184.792 72.205 184.862 72.205C185.678 72.205 186.203 72.0533 186.437 71.75C186.693 71.4467 186.822 70.7933 186.822 69.79V52.325C186.822 51.2983 186.635 50.645 186.262 50.365C185.912 50.0617 185.328 49.91 184.512 49.91C184.465 49.91 184.442 49.84 184.442 49.7C184.442 49.56 184.465 49.49 184.512 49.49C184.862 49.49 185.328 49.49 185.912 49.49C186.495 49.49 187.09 49.49 187.697 49.49C188.327 49.49 188.863 49.49 189.307 49.49C189.633 49.49 189.843 49.56 189.937 49.7C190.03 49.8167 190.077 50.015 190.077 50.295V69.79C190.077 70.4433 190.147 70.945 190.287 71.295C190.45 71.645 190.753 71.8783 191.197 71.995C191.64 72.135 192.305 72.205 193.192 72.205C193.262 72.205 193.297 72.275 193.297 72.415C193.297 72.555 193.262 72.625 193.192 72.625C192.538 72.625 191.803 72.6133 190.987 72.59C190.17 72.5667 189.307 72.555 188.397 72.555C187.743 72.555 187.102 72.5667 186.472 72.59C185.865 72.6133 185.328 72.625 184.862 72.625ZM193.087 63.455C192.177 63.455 191.395 63.385 190.742 63.245C190.112 63.105 189.353 62.8833 188.467 62.58L189.692 60.375C190.205 61.005 190.753 61.53 191.337 61.95C191.943 62.37 192.748 62.58 193.752 62.58C194.848 62.58 195.712 62.1017 196.342 61.145C196.972 60.1883 197.287 58.66 197.287 56.56C197.287 54.6933 196.855 53.305 195.992 52.395C195.128 51.4617 194.113 50.995 192.947 50.995C192.083 50.995 191.337 51.2167 190.707 51.66C190.077 52.1033 189.458 52.6633 188.852 53.34L188.502 52.92C189.692 51.5433 190.823 50.5517 191.897 49.945C192.993 49.3383 194.113 49.035 195.257 49.035C196.237 49.035 197.147 49.2917 197.987 49.805C198.827 50.295 199.503 51.0183 200.017 51.975C200.553 52.9317 200.822 54.0983 200.822 55.475C200.822 56.9683 200.577 58.2283 200.087 59.255C199.62 60.2817 199.002 61.11 198.232 61.74C197.462 62.3467 196.622 62.7783 195.712 63.035C194.825 63.315 193.95 63.455 193.087 63.455ZM210.127 63.42C208.61 63.42 207.315 63.105 206.242 62.475C205.192 61.845 204.387 61.0167 203.827 59.99C203.29 58.94 203.022 57.8317 203.022 56.665C203.022 55.2883 203.372 54.04 204.072 52.92C204.772 51.7767 205.717 50.8667 206.907 50.19C208.12 49.5133 209.485 49.175 211.002 49.175C212.449 49.175 213.557 49.49 214.327 50.12C215.097 50.7267 215.482 51.5667 215.482 52.64C215.482 52.8967 215.459 53.13 215.412 53.34C215.365 53.55 215.26 53.655 215.097 53.655H211.737C211.784 52.5583 211.655 51.66 211.352 50.96C211.049 50.2367 210.5 49.875 209.707 49.875C208.774 49.875 208.015 50.365 207.432 51.345C206.849 52.3017 206.557 53.585 206.557 55.195C206.557 56.5017 206.767 57.645 207.187 58.625C207.607 59.605 208.214 60.3633 209.007 60.9C209.8 61.4367 210.757 61.705 211.877 61.705C212.437 61.705 213.032 61.6233 213.662 61.46C214.315 61.2967 214.899 61.0517 215.412 60.725C215.459 60.6783 215.517 60.7017 215.587 60.795C215.68 60.8883 215.704 60.97 215.657 61.04C214.794 61.9033 213.907 62.5217 212.997 62.895C212.11 63.245 211.154 63.42 210.127 63.42ZM205.332 53.725L205.297 53.06L212.962 52.885V53.655L205.332 53.725ZM217.056 67.9C217.056 66.7333 217.021 65.8583 216.951 65.275C216.904 64.6917 216.846 64.2133 216.776 63.84C216.729 63.4667 216.706 63.0467 216.706 62.58C216.706 62.3933 216.729 62.2767 216.776 62.23C216.822 62.16 216.927 62.125 217.091 62.125C218.397 62.125 219.436 61.355 220.206 59.815C220.976 58.275 221.652 56.1167 222.236 53.34C222.446 52.3133 222.516 51.555 222.446 51.065C222.376 50.5517 222.131 50.2133 221.711 50.05C221.314 49.8867 220.731 49.805 219.961 49.805C219.914 49.805 219.891 49.7467 219.891 49.63C219.891 49.49 219.914 49.42 219.961 49.42C220.404 49.42 220.847 49.4317 221.291 49.455C221.757 49.455 222.189 49.455 222.586 49.455C223.006 49.455 223.367 49.4667 223.671 49.49C223.997 49.49 224.242 49.49 224.406 49.49H232.211C232.257 49.49 232.281 49.56 232.281 49.7C232.281 49.84 232.257 49.91 232.211 49.91C231.674 49.91 231.266 49.98 230.986 50.12C230.729 50.26 230.554 50.505 230.461 50.855C230.367 51.205 230.321 51.7183 230.321 52.395V60.165C230.321 60.8183 230.344 61.285 230.391 61.565C230.437 61.845 230.612 62.02 230.916 62.09C231.219 62.16 231.744 62.195 232.491 62.195C232.677 62.195 232.794 62.2183 232.841 62.265C232.887 62.2883 232.911 62.3933 232.911 62.58C232.911 62.9767 232.876 63.385 232.806 63.805C232.759 64.2483 232.701 64.785 232.631 65.415C232.561 66.0683 232.526 66.8967 232.526 67.9C232.526 67.9933 232.456 68.04 232.316 68.04C232.199 68.04 232.141 67.9933 232.141 67.9C232.141 66.29 231.756 65.065 230.986 64.225C230.216 63.385 229.107 62.965 227.661 62.965H221.886C220.439 62.965 219.342 63.385 218.596 64.225C217.849 65.065 217.476 66.29 217.476 67.9C217.476 67.9933 217.406 68.04 217.266 68.04C217.126 68.04 217.056 67.9933 217.056 67.9ZM218.246 62.86L218.911 62.09H223.846C224.849 62.09 225.572 62.0783 226.016 62.055C226.459 62.0083 226.739 61.8567 226.856 61.6C226.996 61.32 227.066 60.8417 227.066 60.165V52.325C227.066 51.555 227.042 51.03 226.996 50.75C226.972 50.4467 226.856 50.2717 226.646 50.225C226.459 50.1783 226.121 50.155 225.631 50.155H224.756C224.522 50.155 224.324 50.19 224.161 50.26C223.997 50.3067 223.846 50.505 223.706 50.855C223.589 51.1817 223.437 51.7767 223.251 52.64C222.947 54.1333 222.644 55.4517 222.341 56.595C222.037 57.715 221.699 58.695 221.326 59.535C220.952 60.3517 220.509 61.04 219.996 61.6C219.506 62.1367 218.922 62.5567 218.246 62.86ZM241.776 63.42C240.166 63.42 238.836 63.0817 237.786 62.405C236.736 61.705 235.955 60.8183 235.441 59.745C234.951 58.6717 234.706 57.5867 234.706 56.49C234.706 55.3233 234.951 54.285 235.441 53.375C235.931 52.465 236.573 51.7067 237.366 51.1C238.183 50.47 239.081 49.9917 240.061 49.665C241.041 49.3383 242.01 49.175 242.966 49.175C243.643 49.175 244.32 49.28 244.996 49.49C245.673 49.6767 246.233 49.9683 246.676 50.365C247.12 50.7383 247.341 51.2167 247.341 51.8C247.341 52.1967 247.178 52.57 246.851 52.92C246.525 53.2467 246.046 53.41 245.416 53.41C244.833 53.41 244.378 53.2583 244.051 52.955C243.725 52.6517 243.468 52.2083 243.281 51.625C243.118 51.065 242.931 50.645 242.721 50.365C242.535 50.0617 242.161 49.91 241.601 49.91C240.598 49.91 239.793 50.4117 239.186 51.415C238.603 52.4183 238.311 53.725 238.311 55.335C238.311 56.5017 238.486 57.575 238.836 58.555C239.186 59.5117 239.758 60.2817 240.551 60.865C241.345 61.425 242.406 61.705 243.736 61.705C244.436 61.705 245.02 61.6233 245.486 61.46C245.976 61.2967 246.513 61.075 247.096 60.795C247.143 60.7483 247.201 60.7717 247.271 60.865C247.365 60.9583 247.388 61.0283 247.341 61.075C246.525 61.8217 245.685 62.405 244.821 62.825C243.958 63.2217 242.943 63.42 241.776 63.42ZM249.155 63C249.085 63 249.05 62.93 249.05 62.79C249.05 62.65 249.085 62.58 249.155 62.58C249.971 62.58 250.496 62.4283 250.73 62.125C250.963 61.8217 251.08 61.1683 251.08 60.165V52.325C251.08 51.2983 250.963 50.645 250.73 50.365C250.52 50.0617 250.006 49.91 249.19 49.91C249.143 49.91 249.12 49.84 249.12 49.7C249.12 49.56 249.143 49.49 249.19 49.49C249.68 49.49 250.228 49.5017 250.835 49.525C251.465 49.5483 252.106 49.56 252.76 49.56C253.483 49.56 254.183 49.5483 254.86 49.525C255.536 49.5017 256.131 49.49 256.645 49.49C256.691 49.49 256.715 49.56 256.715 49.7C256.715 49.84 256.691 49.91 256.645 49.91C255.688 49.91 255.058 50.0617 254.755 50.365C254.475 50.645 254.335 51.3217 254.335 52.395V60.165C254.335 61.1683 254.451 61.8217 254.685 62.125C254.918 62.4283 255.431 62.58 256.225 62.58C256.295 62.58 256.33 62.65 256.33 62.79C256.33 62.93 256.295 63 256.225 63C255.735 63 255.186 62.9883 254.58 62.965C253.996 62.9417 253.39 62.93 252.76 62.93C252.106 62.93 251.465 62.9417 250.835 62.965C250.228 62.9883 249.668 63 249.155 63ZM261.02 63C260.88 63 260.74 62.9767 260.6 62.93C260.46 62.8833 260.285 62.7667 260.075 62.58C259.888 62.37 259.631 62.0433 259.305 61.6C259.001 61.1333 258.605 60.48 258.115 59.64C257.555 58.7067 257.088 58.0067 256.715 57.54C256.365 57.05 256.015 56.7233 255.665 56.56C255.338 56.3733 254.918 56.28 254.405 56.28C254.008 56.28 253.565 56.315 253.075 56.385L253.04 55.755C253.296 55.7317 253.635 55.7083 254.055 55.685C254.475 55.6617 254.883 55.65 255.28 55.65C255.676 55.6267 255.921 55.615 256.015 55.615C257.065 55.615 257.87 55.7083 258.43 55.895C259.013 56.0583 259.515 56.3733 259.935 56.84C260.355 57.3067 260.868 58.0067 261.475 58.94C261.988 59.71 262.396 60.3633 262.7 60.9C263.003 61.4367 263.33 61.845 263.68 62.125C264.053 62.405 264.555 62.5567 265.185 62.58C265.255 62.58 265.29 62.65 265.29 62.79C265.29 62.93 265.255 63 265.185 63H261.02ZM256.015 56.315V55.615C256.225 55.615 256.435 55.4983 256.645 55.265C256.855 55.0317 257.041 54.7633 257.205 54.46C257.368 54.1567 257.496 53.9117 257.59 53.725C258.22 52.4417 258.78 51.4733 259.27 50.82C259.783 50.1667 260.261 49.7233 260.705 49.49C261.148 49.2567 261.603 49.14 262.07 49.14C262.793 49.14 263.306 49.3033 263.61 49.63C263.936 49.9567 264.1 50.365 264.1 50.855C264.1 51.3683 263.948 51.8 263.645 52.15C263.365 52.4767 262.921 52.64 262.315 52.64C261.988 52.64 261.72 52.5933 261.51 52.5C261.323 52.4067 261.136 52.3133 260.95 52.22C260.786 52.1267 260.541 52.08 260.215 52.08C259.981 52.08 259.771 52.1267 259.585 52.22C259.398 52.3133 259.211 52.5 259.025 52.78C258.838 53.06 258.605 53.4683 258.325 54.005C257.951 54.7983 257.566 55.3817 257.17 55.755C256.796 56.1283 256.411 56.315 256.015 56.315ZM276.299 63.21C276.206 63.2567 276.089 63.28 275.949 63.28C275.529 63.28 275.109 63 274.689 62.44C274.269 61.88 274.059 61.075 274.059 60.025V54.075C274.059 53.165 274.001 52.4067 273.884 51.8C273.768 51.1933 273.581 50.7383 273.324 50.435C273.068 50.1317 272.718 49.98 272.274 49.98C271.924 49.98 271.609 50.0733 271.329 50.26C271.049 50.4233 270.828 50.7033 270.664 51.1C270.501 51.4733 270.396 51.9983 270.349 52.675C270.279 53.3517 270.069 53.8533 269.719 54.18C269.369 54.4833 268.891 54.635 268.284 54.635C267.701 54.635 267.281 54.5067 267.024 54.25C266.768 53.9933 266.639 53.6433 266.639 53.2C266.639 52.6867 266.884 52.1967 267.374 51.73C267.864 51.24 268.471 50.8083 269.194 50.435C269.941 50.0383 270.711 49.735 271.504 49.525C272.298 49.2917 273.009 49.175 273.639 49.175C274.666 49.175 275.541 49.49 276.264 50.12C276.988 50.7267 277.349 51.695 277.349 53.025V59.22C277.349 59.8967 277.466 60.4217 277.699 60.795C277.956 61.1683 278.306 61.355 278.749 61.355C279.076 61.355 279.414 61.2733 279.764 61.11C279.858 61.0633 279.928 61.11 279.974 61.25C280.044 61.3667 280.021 61.4483 279.904 61.495L276.299 63.21ZM268.949 63.245C268.226 63.245 267.643 63.0583 267.199 62.685C266.756 62.2883 266.534 61.7283 266.534 61.005C266.534 60.165 266.849 59.57 267.479 59.22C268.133 58.8467 269.136 58.4383 270.489 57.995L274.409 56.735L274.549 57.26L272.134 58.135C271.504 58.3683 271.049 58.625 270.769 58.905C270.513 59.185 270.384 59.5233 270.384 59.92C270.384 60.41 270.524 60.795 270.804 61.075C271.084 61.355 271.434 61.495 271.854 61.495C272.041 61.495 272.286 61.46 272.589 61.39C272.916 61.2967 273.266 61.1683 273.639 61.005L275.564 59.955L275.599 60.55L272.589 62.195C272.006 62.4983 271.388 62.755 270.734 62.965C270.081 63.1517 269.486 63.245 268.949 63.245ZM286.446 62.685C287.239 62.685 287.822 62.405 288.196 61.845C288.592 61.285 288.791 60.5267 288.791 59.57C288.791 58.4033 288.487 57.4933 287.881 56.84C287.297 56.1633 286.282 55.825 284.836 55.825C284.742 55.825 284.672 55.7667 284.626 55.65C284.602 55.51 284.672 55.44 284.836 55.44C286.142 55.44 287.041 55.195 287.531 54.705C288.044 54.215 288.301 53.4917 288.301 52.535C288.301 51.695 288.126 51.03 287.776 50.54C287.426 50.0267 286.936 49.77 286.306 49.77C285.489 49.77 284.742 50.1433 284.066 50.89C283.389 51.6133 282.771 52.4883 282.211 53.515C282.164 53.5617 282.071 53.5733 281.931 53.55C281.814 53.5267 281.767 53.48 281.791 53.41L282.561 48.755C282.584 48.685 282.666 48.6733 282.806 48.72C282.946 48.7433 283.004 48.7783 282.981 48.825C282.887 49.2217 282.911 49.4783 283.051 49.595C283.191 49.7117 283.342 49.77 283.506 49.77C283.809 49.77 284.101 49.7117 284.381 49.595C284.684 49.455 285.069 49.3267 285.536 49.21C286.026 49.0933 286.679 49.035 287.496 49.035C288.849 49.035 289.922 49.2683 290.716 49.735C291.509 50.2017 291.906 50.925 291.906 51.905C291.906 52.815 291.404 53.6317 290.401 54.355C289.397 55.055 288.067 55.51 286.411 55.72L286.481 55.44C287.741 55.37 288.826 55.4867 289.736 55.79C290.646 56.0933 291.346 56.56 291.836 57.19C292.326 57.7967 292.571 58.5433 292.571 59.43C292.571 60.3167 292.302 61.0633 291.766 61.67C291.229 62.2533 290.494 62.6967 289.561 63C288.627 63.28 287.566 63.42 286.376 63.42C285.442 63.42 284.602 63.35 283.856 63.21C283.132 63.07 282.526 62.8717 282.036 62.615C281.872 62.545 281.767 62.475 281.721 62.405C281.674 62.3117 281.639 62.1833 281.616 62.02L281.336 58.695C281.336 58.625 281.394 58.5783 281.511 58.555C281.627 58.5317 281.709 58.5667 281.756 58.66C282.222 59.85 282.852 60.8183 283.646 61.565C284.439 62.3117 285.372 62.685 286.446 62.685ZM304.805 63.21C304.712 63.2567 304.595 63.28 304.455 63.28C304.035 63.28 303.615 63 303.195 62.44C302.775 61.88 302.565 61.075 302.565 60.025V54.075C302.565 53.165 302.507 52.4067 302.39 51.8C302.273 51.1933 302.087 50.7383 301.83 50.435C301.573 50.1317 301.223 49.98 300.78 49.98C300.43 49.98 300.115 50.0733 299.835 50.26C299.555 50.4233 299.333 50.7033 299.17 51.1C299.007 51.4733 298.902 51.9983 298.855 52.675C298.785 53.3517 298.575 53.8533 298.225 54.18C297.875 54.4833 297.397 54.635 296.79 54.635C296.207 54.635 295.787 54.5067 295.53 54.25C295.273 53.9933 295.145 53.6433 295.145 53.2C295.145 52.6867 295.39 52.1967 295.88 51.73C296.37 51.24 296.977 50.8083 297.7 50.435C298.447 50.0383 299.217 49.735 300.01 49.525C300.803 49.2917 301.515 49.175 302.145 49.175C303.172 49.175 304.047 49.49 304.77 50.12C305.493 50.7267 305.855 51.695 305.855 53.025V59.22C305.855 59.8967 305.972 60.4217 306.205 60.795C306.462 61.1683 306.812 61.355 307.255 61.355C307.582 61.355 307.92 61.2733 308.27 61.11C308.363 61.0633 308.433 61.11 308.48 61.25C308.55 61.3667 308.527 61.4483 308.41 61.495L304.805 63.21ZM297.455 63.245C296.732 63.245 296.148 63.0583 295.705 62.685C295.262 62.2883 295.04 61.7283 295.04 61.005C295.04 60.165 295.355 59.57 295.985 59.22C296.638 58.8467 297.642 58.4383 298.995 57.995L302.915 56.735L303.055 57.26L300.64 58.135C300.01 58.3683 299.555 58.625 299.275 58.905C299.018 59.185 298.89 59.5233 298.89 59.92C298.89 60.41 299.03 60.795 299.31 61.075C299.59 61.355 299.94 61.495 300.36 61.495C300.547 61.495 300.792 61.46 301.095 61.39C301.422 61.2967 301.772 61.1683 302.145 61.005L304.07 59.955L304.105 60.55L301.095 62.195C300.512 62.4983 299.893 62.755 299.24 62.965C298.587 63.1517 297.992 63.245 297.455 63.245ZM312.992 56.665V55.825H322.407V56.665H312.992ZM311.417 60.165V52.325C311.417 51.2983 311.3 50.645 311.067 50.365C310.833 50.0617 310.32 49.91 309.527 49.91C309.457 49.91 309.422 49.84 309.422 49.7C309.422 49.56 309.457 49.49 309.527 49.49C310.017 49.49 310.565 49.5017 311.172 49.525C311.802 49.5483 312.443 49.56 313.097 49.56C313.727 49.56 314.345 49.5483 314.952 49.525C315.558 49.5017 316.095 49.49 316.562 49.49C316.608 49.49 316.632 49.56 316.632 49.7C316.632 49.84 316.608 49.91 316.562 49.91C315.768 49.91 315.255 50.0733 315.022 50.4C314.788 50.7267 314.672 51.3917 314.672 52.395V60.165C314.672 61.1683 314.788 61.8217 315.022 62.125C315.255 62.4283 315.768 62.58 316.562 62.58C316.608 62.58 316.632 62.65 316.632 62.79C316.632 62.93 316.608 63 316.562 63C316.072 63 315.523 62.9883 314.917 62.965C314.333 62.9417 313.727 62.93 313.097 62.93C312.443 62.93 311.802 62.9417 311.172 62.965C310.565 62.9883 310.005 63 309.492 63C309.422 63 309.387 62.93 309.387 62.79C309.387 62.65 309.422 62.58 309.492 62.58C310.308 62.58 310.833 62.4283 311.067 62.125C311.3 61.8217 311.417 61.1683 311.417 60.165ZM320.832 60.165V52.325C320.832 51.2983 320.715 50.645 320.482 50.365C320.248 50.0617 319.735 49.91 318.942 49.91C318.872 49.91 318.837 49.84 318.837 49.7C318.837 49.56 318.872 49.49 318.942 49.49C319.432 49.49 319.98 49.5017 320.587 49.525C321.217 49.5483 321.858 49.56 322.512 49.56C323.142 49.56 323.76 49.5483 324.367 49.525C324.973 49.5017 325.51 49.49 325.977 49.49C326.023 49.49 326.047 49.56 326.047 49.7C326.047 49.84 326.023 49.91 325.977 49.91C325.183 49.91 324.67 50.0733 324.437 50.4C324.203 50.7267 324.087 51.3917 324.087 52.395V60.165C324.087 61.1683 324.203 61.8217 324.437 62.125C324.67 62.4283 325.183 62.58 325.977 62.58C326.023 62.58 326.047 62.65 326.047 62.79C326.047 62.93 326.023 63 325.977 63C325.487 63 324.938 62.9883 324.332 62.965C323.748 62.9417 323.142 62.93 322.512 62.93C321.858 62.93 321.217 62.9417 320.587 62.965C319.957 62.9883 319.397 63 318.907 63C318.837 63 318.802 62.93 318.802 62.79C318.802 62.65 318.837 62.58 318.907 62.58C319.723 62.58 320.248 62.4283 320.482 62.125C320.715 61.8217 320.832 61.1683 320.832 60.165ZM331.617 61.74L330.987 61.11L340.472 51.625L341.102 52.22L331.617 61.74ZM330.147 60.165V52.325C330.147 51.2983 330.03 50.645 329.797 50.365C329.564 50.0617 329.05 49.91 328.257 49.91C328.187 49.91 328.152 49.84 328.152 49.7C328.152 49.56 328.187 49.49 328.257 49.49C328.747 49.49 329.295 49.5017 329.902 49.525C330.532 49.5483 331.174 49.56 331.827 49.56C332.457 49.56 333.075 49.5483 333.682 49.525C334.289 49.5017 334.825 49.49 335.292 49.49C335.339 49.49 335.362 49.56 335.362 49.7C335.362 49.84 335.339 49.91 335.292 49.91C334.499 49.91 333.985 50.0733 333.752 50.4C333.519 50.7267 333.402 51.3917 333.402 52.395V60.165C333.402 61.1683 333.519 61.8217 333.752 62.125C333.985 62.4283 334.499 62.58 335.292 62.58C335.339 62.58 335.362 62.65 335.362 62.79C335.362 62.93 335.339 63 335.292 63C334.802 63 334.254 62.9883 333.647 62.965C333.064 62.9417 332.457 62.93 331.827 62.93C331.174 62.93 330.532 62.9417 329.902 62.965C329.295 62.9883 328.735 63 328.222 63C328.152 63 328.117 62.93 328.117 62.79C328.117 62.65 328.152 62.58 328.222 62.58C329.039 62.58 329.564 62.4283 329.797 62.125C330.03 61.8217 330.147 61.1683 330.147 60.165ZM339.562 60.165V52.325C339.562 51.2983 339.445 50.645 339.212 50.365C338.979 50.0617 338.465 49.91 337.672 49.91C337.602 49.91 337.567 49.84 337.567 49.7C337.567 49.56 337.602 49.49 337.672 49.49C338.162 49.49 338.71 49.5017 339.317 49.525C339.947 49.5483 340.589 49.56 341.242 49.56C341.872 49.56 342.49 49.5483 343.097 49.525C343.704 49.5017 344.24 49.49 344.707 49.49C344.754 49.49 344.777 49.56 344.777 49.7C344.777 49.84 344.754 49.91 344.707 49.91C343.914 49.91 343.4 50.0733 343.167 50.4C342.934 50.7267 342.817 51.3917 342.817 52.395V60.165C342.817 61.1683 342.934 61.8217 343.167 62.125C343.4 62.4283 343.914 62.58 344.707 62.58C344.754 62.58 344.777 62.65 344.777 62.79C344.777 62.93 344.754 63 344.707 63C344.217 63 343.669 62.9883 343.062 62.965C342.479 62.9417 341.872 62.93 341.242 62.93C340.589 62.93 339.947 62.9417 339.317 62.965C338.687 62.9883 338.127 63 337.637 63C337.567 63 337.532 62.93 337.532 62.79C337.532 62.65 337.567 62.58 337.637 62.58C338.454 62.58 338.979 62.4283 339.212 62.125C339.445 61.8217 339.562 61.1683 339.562 60.165ZM354.058 63.42C352.541 63.42 351.246 63.105 350.173 62.475C349.123 61.845 348.318 61.0167 347.758 59.99C347.221 58.94 346.953 57.8317 346.953 56.665C346.953 55.2883 347.303 54.04 348.003 52.92C348.703 51.7767 349.648 50.8667 350.838 50.19C352.051 49.5133 353.416 49.175 354.933 49.175C356.379 49.175 357.488 49.49 358.258 50.12C359.028 50.7267 359.413 51.5667 359.413 52.64C359.413 52.8967 359.389 53.13 359.343 53.34C359.296 53.55 359.191 53.655 359.028 53.655H355.668C355.714 52.5583 355.586 51.66 355.283 50.96C354.979 50.2367 354.431 49.875 353.638 49.875C352.704 49.875 351.946 50.365 351.363 51.345C350.779 52.3017 350.488 53.585 350.488 55.195C350.488 56.5017 350.698 57.645 351.118 58.625C351.538 59.605 352.144 60.3633 352.938 60.9C353.731 61.4367 354.688 61.705 355.808 61.705C356.368 61.705 356.963 61.6233 357.593 61.46C358.246 61.2967 358.829 61.0517 359.343 60.725C359.389 60.6783 359.448 60.7017 359.518 60.795C359.611 60.8883 359.634 60.97 359.588 61.04C358.724 61.9033 357.838 62.5217 356.928 62.895C356.041 63.245 355.084 63.42 354.058 63.42ZM349.263 53.725L349.228 53.06L356.893 52.885V53.655L349.263 53.725ZM376.96 63.455C375.49 63.455 374.218 63.1167 373.145 62.44C372.071 61.7633 371.243 60.865 370.66 59.745C370.076 58.6017 369.785 57.3767 369.785 56.07C369.785 54.8567 370.018 53.8067 370.485 52.92C370.951 52.0333 371.57 51.31 372.34 50.75C373.11 50.1667 373.95 49.735 374.86 49.455C375.77 49.175 376.668 49.035 377.555 49.035C379.048 49.035 380.32 49.385 381.37 50.085C382.443 50.785 383.26 51.6833 383.82 52.78C384.38 53.8767 384.66 55.0433 384.66 56.28C384.66 57.7033 384.298 58.9633 383.575 60.06C382.875 61.1333 381.941 61.9733 380.775 62.58C379.608 63.1633 378.336 63.455 376.96 63.455ZM378.01 62.72C378.943 62.72 379.643 62.265 380.11 61.355C380.576 60.445 380.81 59.1617 380.81 57.505C380.81 55.8017 380.588 54.3783 380.145 53.235C379.725 52.0917 379.176 51.2283 378.5 50.645C377.823 50.0617 377.111 49.77 376.365 49.77C375.455 49.77 374.755 50.1783 374.265 50.995C373.798 51.8117 373.565 53.0717 373.565 54.775C373.565 56.3617 373.763 57.7617 374.16 58.975C374.556 60.165 375.093 61.0867 375.77 61.74C376.446 62.3933 377.193 62.72 378.01 62.72ZM389.534 63C389.464 63 389.429 62.93 389.429 62.79C389.429 62.65 389.464 62.58 389.534 62.58C390.35 62.58 390.875 62.4283 391.109 62.125C391.342 61.8217 391.459 61.1683 391.459 60.165V52.395C391.459 51.5783 391.4 51.0183 391.284 50.715C391.167 50.4117 390.91 50.26 390.514 50.26C389.744 50.26 389.102 50.5517 388.589 51.135C388.075 51.695 387.585 52.6517 387.119 54.005C387.095 54.075 387.014 54.11 386.874 54.11C386.757 54.11 386.699 54.075 386.699 54.005C386.699 53.6783 386.699 53.1883 386.699 52.535C386.699 51.8817 386.687 51.205 386.664 50.505C386.664 49.805 386.664 49.245 386.664 48.825C386.664 48.7083 386.734 48.65 386.874 48.65C387.014 48.65 387.084 48.7083 387.084 48.825C387.084 49.1283 387.55 49.3267 388.484 49.42C389.44 49.49 391.015 49.525 393.209 49.525C394.539 49.525 395.635 49.5133 396.499 49.49C397.362 49.4433 398.004 49.3733 398.424 49.28C398.844 49.1867 399.054 49.035 399.054 48.825C399.054 48.7083 399.124 48.65 399.264 48.65C399.404 48.65 399.474 48.7083 399.474 48.825C399.474 49.245 399.474 49.805 399.474 50.505C399.474 51.205 399.462 51.8817 399.439 52.535C399.439 53.1883 399.439 53.6783 399.439 54.005C399.439 54.075 399.369 54.11 399.229 54.11C399.112 54.11 399.042 54.075 399.019 54.005C398.575 52.6517 398.085 51.695 397.549 51.135C397.035 50.5517 396.405 50.26 395.659 50.26C395.285 50.26 395.029 50.4117 394.889 50.715C394.772 51.0183 394.714 51.5783 394.714 52.395V60.165C394.714 61.1683 394.83 61.8217 395.064 62.125C395.297 62.4283 395.81 62.58 396.604 62.58C396.674 62.58 396.709 62.65 396.709 62.79C396.709 62.93 396.674 63 396.604 63C396.114 63 395.565 62.9883 394.959 62.965C394.375 62.9417 393.769 62.93 393.139 62.93C392.485 62.93 391.844 62.9417 391.214 62.965C390.607 62.9883 390.047 63 389.534 63ZM424.735 51.31C423.825 52.78 422.915 54.3667 422.005 56.07C421.119 57.75 420.162 59.43 419.135 61.11C418.132 62.7667 417.059 64.365 415.915 65.905C414.749 67.445 413.465 68.7983 412.065 69.965C410.665 71.155 409.125 72.1 407.445 72.8C405.742 73.5 403.852 73.85 401.775 73.85C401.075 73.85 400.329 73.7683 399.535 73.605C398.742 73.465 398.019 73.22 397.365 72.87C396.712 72.52 396.175 72.0533 395.755 71.47C395.312 70.8867 395.09 70.1517 395.09 69.265C395.09 68.5883 395.242 67.9933 395.545 67.48C395.825 66.9667 396.21 66.535 396.7 66.185C397.167 65.835 397.704 65.5667 398.31 65.38C398.917 65.1933 399.535 65.1 400.165 65.1C400.492 65.1 400.795 65.1117 401.075 65.135C401.332 65.1583 401.565 65.1933 401.775 65.24V65.52C400.655 65.59 399.757 65.9867 399.08 66.71C398.38 67.4333 398.03 68.355 398.03 69.475C398.03 70.6883 398.369 71.645 399.045 72.345C399.722 73.0683 400.819 73.43 402.335 73.43C403.712 73.43 405.03 73.045 406.29 72.275C407.55 71.5283 408.764 70.5367 409.93 69.3C411.074 68.0633 412.17 66.6517 413.22 65.065C414.247 63.5017 415.239 61.9033 416.195 60.27C417.129 58.6133 418.027 57.0033 418.89 55.44C419.754 53.8767 420.57 52.5 421.34 51.31H417.98L418.33 50.68H421.76C422.437 49.5133 423.23 48.23 424.14 46.83C425.074 45.43 426.112 44.1233 427.255 42.91C428.422 41.6967 429.694 40.6817 431.07 39.865C432.447 39.0483 433.917 38.64 435.48 38.64C435.97 38.64 436.437 38.6983 436.88 38.815C437.347 38.9317 437.755 39.1067 438.105 39.34C438.479 39.5733 438.77 39.8767 438.98 40.25C439.214 40.6 439.33 41.02 439.33 41.51C439.33 42.35 439.027 42.98 438.42 43.4C437.814 43.82 437.102 44.03 436.285 44.03C436.099 44.03 435.889 44.0067 435.655 43.96C435.865 43.54 436.04 43.0967 436.18 42.63C436.32 42.1633 436.39 41.6617 436.39 41.125C436.39 40.4483 436.25 39.935 435.97 39.585C435.69 39.235 435.317 39.06 434.85 39.06C434.267 39.06 433.649 39.2933 432.995 39.76C432.342 40.2033 431.7 40.7867 431.07 41.51C430.44 42.2333 429.81 43.0383 429.18 43.925C428.574 44.8117 428.014 45.6867 427.5 46.55C426.987 47.4133 426.52 48.2183 426.1 48.965C425.704 49.6883 425.377 50.26 425.12 50.68H434.15L433.765 51.31H424.735ZM440.287 50.89L443.927 50.68C443.717 51.1 443.413 51.6133 443.017 52.22C442.62 52.8033 442.188 53.445 441.722 54.145C441.255 54.8217 440.777 55.5333 440.287 56.28C439.82 57.0033 439.388 57.715 438.992 58.415C438.595 59.0917 438.268 59.7333 438.012 60.34C437.778 60.9233 437.662 61.425 437.662 61.845C437.662 62.4283 437.953 62.72 438.537 62.72C439.097 62.72 439.855 62.3933 440.812 61.74C441.768 61.0867 442.772 60.2233 443.822 59.15C444.265 58.7067 444.708 58.2283 445.152 57.715C445.618 57.2017 446.062 56.7 446.482 56.21C446.902 55.6967 447.287 55.23 447.637 54.81C447.987 54.3667 448.267 54.005 448.477 53.725L448.722 53.865C448.115 54.6817 447.415 55.5917 446.622 56.595C445.828 57.575 444.872 58.625 443.752 59.745C442.632 60.865 441.523 61.7867 440.427 62.51C439.353 63.21 438.28 63.56 437.207 63.56C436.46 63.56 435.877 63.3733 435.457 63C435.06 62.6033 434.862 62.125 434.862 61.565C434.862 61.3783 434.873 61.2033 434.897 61.04C434.92 60.8767 434.955 60.7483 435.002 60.655H434.932C434.208 61.4717 433.392 62.16 432.482 62.72C431.572 63.28 430.592 63.56 429.542 63.56C428.982 63.56 428.503 63.455 428.107 63.245C427.71 63.035 427.383 62.755 427.127 62.405C426.893 62.0317 426.718 61.6233 426.602 61.18C426.485 60.7133 426.427 60.235 426.427 59.745C426.427 58.6017 426.742 57.4583 427.372 56.315C428.002 55.1717 428.795 54.145 429.752 53.235C430.708 52.3017 431.77 51.555 432.937 50.995C434.127 50.4117 435.258 50.12 436.332 50.12C437.148 50.12 437.79 50.295 438.257 50.645C438.723 50.995 439.108 51.5433 439.412 52.29L440.287 50.89ZM429.787 59.85C429.787 60.5267 429.892 61.1217 430.102 61.635C430.335 62.125 430.813 62.37 431.537 62.37C432.027 62.3467 432.54 62.1483 433.077 61.775C433.613 61.3783 434.127 60.8883 434.617 60.305C435.13 59.7217 435.608 59.08 436.052 58.38C436.518 57.6567 436.915 56.9333 437.242 56.21C437.592 55.4867 437.86 54.81 438.047 54.18C438.257 53.5267 438.362 52.9783 438.362 52.535C438.362 51.905 438.245 51.415 438.012 51.065C437.778 50.715 437.323 50.54 436.647 50.54C436.11 50.54 435.562 50.7033 435.002 51.03C434.465 51.3567 433.94 51.7883 433.427 52.325C432.937 52.8617 432.458 53.4683 431.992 54.145C431.548 54.7983 431.163 55.475 430.837 56.175C430.51 56.875 430.253 57.5517 430.067 58.205C429.88 58.835 429.787 59.3833 429.787 59.85ZM453.151 50.68C452.054 52.4067 451.109 53.8883 450.316 55.125C449.523 56.3383 448.869 57.3767 448.356 58.24C447.866 59.1033 447.493 59.815 447.236 60.375C447.003 60.9117 446.886 61.355 446.886 61.705C446.886 61.985 446.933 62.2183 447.026 62.405C447.143 62.5683 447.306 62.65 447.516 62.65C447.983 62.65 448.636 62.3817 449.476 61.845C450.339 61.3083 451.413 60.3867 452.696 59.08C453.209 58.5433 453.711 58.0183 454.201 57.505C454.691 56.9683 455.146 56.455 455.566 55.965C456.009 55.475 456.394 55.0317 456.721 54.635C457.071 54.2383 457.351 53.9233 457.561 53.69L457.876 53.9C457.596 54.2733 457.246 54.705 456.826 55.195C456.429 55.6617 455.998 56.1633 455.531 56.7C455.064 57.2133 454.586 57.7267 454.096 58.24C453.606 58.7533 453.128 59.2433 452.661 59.71C451.308 61.0633 450.141 62.0083 449.161 62.545C448.204 63.0817 447.318 63.35 446.501 63.35C445.731 63.35 445.136 63.14 444.716 62.72C444.296 62.3 444.086 61.7517 444.086 61.075C444.086 60.6083 444.179 60.13 444.366 59.64C444.529 59.1267 444.821 58.4967 445.241 57.75C445.661 57.0033 446.221 56.0817 446.921 54.985C447.621 53.865 448.496 52.4883 449.546 50.855L453.151 50.68ZM455.181 42.91C455.624 42.91 456.009 43.0733 456.336 43.4C456.686 43.7267 456.861 44.1117 456.861 44.555C456.861 45.0217 456.674 45.4533 456.301 45.85C455.928 46.2233 455.508 46.41 455.041 46.41C454.528 46.41 454.084 46.2817 453.711 46.025C453.338 45.745 453.151 45.3367 453.151 44.8C453.151 44.2633 453.349 43.82 453.746 43.47C454.166 43.0967 454.644 42.91 455.181 42.91ZM450.834 63C452.024 60.9467 453.225 58.905 454.439 56.875C455.675 54.845 456.9 52.78 458.114 50.68L462.104 50.54L457.484 57.05L457.554 57.12C458.44 56.0233 459.222 55.1483 459.899 54.495C460.599 53.8183 461.205 53.27 461.719 52.85C462.232 52.43 462.664 52.115 463.014 51.905C463.364 51.6717 463.62 51.4733 463.784 51.31C464.04 51.0533 464.274 50.855 464.484 50.715C464.717 50.5517 464.985 50.435 465.289 50.365C465.592 50.2717 465.954 50.2133 466.374 50.19C466.817 50.1667 467.365 50.1433 468.019 50.12C467.575 50.75 467.167 51.415 466.794 52.115C466.42 52.7917 466.234 53.5267 466.234 54.32C466.234 55.3233 466.735 55.825 467.739 55.825C468.065 55.825 468.38 55.755 468.684 55.615C469.01 55.475 469.314 55.3 469.594 55.09C469.874 54.88 470.142 54.6583 470.399 54.425C470.655 54.1683 470.889 53.935 471.099 53.725L471.239 53.9C470.585 54.7167 469.815 55.3817 468.929 55.895C468.042 56.4083 467.074 56.665 466.024 56.665C465.09 56.665 464.355 56.42 463.819 55.93C463.282 55.44 463.014 54.7167 463.014 53.76C463.014 53.1533 463.189 52.5817 463.539 52.045L463.469 51.975C462.489 52.6283 461.555 53.3867 460.669 54.25C459.782 55.1133 458.954 56.0233 458.184 56.98C457.437 57.9367 456.737 58.9283 456.084 59.955C455.454 60.9583 454.882 61.9383 454.369 62.895L450.834 63ZM460.937 65.765C460.82 65.7417 460.61 65.73 460.307 65.73C459.304 65.73 458.534 66.0917 457.997 66.815C457.437 67.5383 457.157 68.425 457.157 69.475C457.157 70.7117 457.542 71.68 458.312 72.38C459.059 73.08 459.992 73.43 461.112 73.43C462.302 73.43 463.422 73.1733 464.472 72.66C465.522 72.17 466.502 71.505 467.412 70.665C468.322 69.8483 469.174 68.9033 469.967 67.83C470.784 66.78 471.53 65.695 472.207 64.575C472.907 63.455 473.56 62.3583 474.167 61.285C474.774 60.2117 475.334 59.2433 475.847 58.38L475.777 58.31C475.427 58.73 474.984 59.2317 474.447 59.815C473.934 60.375 473.35 60.9233 472.697 61.46C472.044 61.9733 471.355 62.4167 470.632 62.79C469.909 63.1633 469.174 63.35 468.427 63.35C467.657 63.35 467.109 63.1283 466.782 62.685C466.432 62.2417 466.257 61.7167 466.257 61.11C466.257 60.5267 466.42 59.8617 466.747 59.115C467.074 58.3683 467.482 57.5517 467.972 56.665C468.485 55.755 469.057 54.7983 469.687 53.795C470.317 52.7917 470.947 51.7533 471.577 50.68L475.287 50.54C473.327 53.5967 471.799 56.0117 470.702 57.785C469.605 59.5583 469.057 60.8183 469.057 61.565C469.057 61.845 469.139 62.0783 469.302 62.265C469.489 62.4283 469.71 62.51 469.967 62.51C470.387 62.51 470.924 62.3 471.577 61.88C472.23 61.4367 472.919 60.8533 473.642 60.13C474.389 59.4067 475.135 58.5783 475.882 57.645C476.629 56.6883 477.305 55.7083 477.912 54.705C478.425 53.865 478.88 53.095 479.277 52.395C479.674 51.695 479.965 51.1233 480.152 50.68L483.582 50.54C482.322 52.71 481.097 54.88 479.907 57.05C478.74 59.1967 477.515 61.3317 476.232 63.455C477.352 63.1283 478.46 62.6267 479.557 61.95C480.654 61.25 481.704 60.445 482.707 59.535C483.734 58.625 484.679 57.6567 485.542 56.63C486.429 55.6033 487.222 54.6 487.922 53.62L488.202 53.865C487.409 55.0083 486.534 56.1283 485.577 57.225C484.62 58.2983 483.605 59.29 482.532 60.2C481.482 61.0867 480.397 61.8567 479.277 62.51C478.157 63.1633 477.037 63.63 475.917 63.91C475.077 65.3333 474.132 66.6517 473.082 67.865C472.032 69.0783 470.877 70.1283 469.617 71.015C468.357 71.9017 466.992 72.59 465.522 73.08C464.052 73.5933 462.477 73.85 460.797 73.85C459.957 73.85 459.14 73.7683 458.347 73.605C457.554 73.465 456.854 73.2083 456.247 72.835C455.64 72.485 455.15 72.0067 454.777 71.4C454.404 70.8167 454.217 70.0933 454.217 69.23C454.217 68.53 454.369 67.935 454.672 67.445C454.952 66.955 455.337 66.5467 455.827 66.22C456.294 65.9167 456.842 65.6833 457.472 65.52C458.079 65.38 458.709 65.31 459.362 65.31C459.642 65.31 459.934 65.3217 460.237 65.345C460.517 65.3683 460.75 65.4033 460.937 65.45V65.765ZM489.863 58.8C490.353 58.0067 490.831 57.1783 491.298 56.315C491.788 55.4517 492.231 54.6117 492.628 53.795C493.024 52.9783 493.386 52.1967 493.713 51.45C494.039 50.7033 494.296 50.05 494.483 49.49C495.136 47.5533 495.719 46.1767 496.233 45.36C496.769 44.52 497.376 44.1 498.053 44.1C498.473 44.1 498.834 44.2517 499.138 44.555C499.464 44.8583 499.628 45.2433 499.628 45.71C499.628 46.1067 499.523 46.515 499.313 46.935C499.126 47.3317 498.834 47.7867 498.438 48.3C498.041 48.8133 497.539 49.4083 496.933 50.085C496.349 50.7383 495.661 51.52 494.868 52.43C494.074 53.34 493.258 54.3317 492.418 55.405C491.601 56.4783 490.831 57.645 490.108 58.905L489.863 58.8ZM488.288 59.5C488.824 59.5 489.279 59.6983 489.653 60.095C490.049 60.4683 490.248 60.9233 490.248 61.46C490.248 61.9967 490.049 62.4633 489.653 62.86C489.279 63.2333 488.824 63.42 488.288 63.42C487.751 63.42 487.284 63.2333 486.888 62.86C486.514 62.4633 486.328 61.9967 486.328 61.46C486.328 60.9233 486.514 60.4683 486.888 60.095C487.284 59.6983 487.751 59.5 488.288 59.5Z" fill="#FFF9EE"/>
<path d="M165.364 176.831L122.802 104.51C120.534 100.656 124.079 95.9904 128.399 97.1429L171.059 108.522C172.409 108.882 173.835 108.83 175.155 108.373L214.411 94.7741C215.86 94.272 217.434 94.2599 218.891 94.7397L260.112 108.314C261.608 108.806 263.225 108.78 264.704 108.24L301.535 94.7823C302.926 94.2739 304.443 94.22 305.867 94.6285L354.162 108.48C355.512 108.867 356.947 108.839 358.281 108.4L390.215 97.884C394.492 96.4757 398.305 100.995 396.197 104.973L358.604 175.95C354.195 184.273 355.808 194.5 362.266 201.356C393.095 234.088 476.178 331.931 457.219 417.813C447.24 463.019 423.876 500.441 396.185 515.515C368.493 530.589 187.65 528.356 159.393 515.515C131.136 502.674 95.5169 466.737 86.4906 417.813C70.2791 329.943 137.532 234.571 163.383 201.828C169.036 194.667 169.991 184.695 165.364 176.831Z" fill="#FFF9EE" stroke="#FDAEC3" stroke-width="10"/>
<path d="M154.429 184C142.913 194.783 367 194.549 367 184C367 173.451 165.946 173.217 154.429 184Z" stroke="#F5D185" stroke-width="10"/>
</svg>
