<svg width="1323" height="96" viewBox="0 0 1323 96" fill="none" xmlns="http://www.w3.org/2000/svg">
<path d="M22.84 5.32C22.84 4.54666 22.76 3.96 22.6 3.56C22.44 3.16 22.1067 2.88 21.6 2.72C21.12 2.56 20.36 2.48 19.32 2.48C19.24 2.48 19.2 2.4 19.2 2.24C19.2 2.08 19.24 2 19.32 2C19.96 2 20.68 2.02667 21.48 2.08C22.28 2.10667 23.1733 2.12 24.16 2.12C25.04 2.12 25.8933 2.10667 26.72 2.08C27.5467 2.02667 28.2667 2 28.88 2C28.96 2 29 2.08 29 2.24C29 2.4 28.96 2.48 28.88 2.48C27.8933 2.48 27.1467 2.56 26.64 2.72C26.1333 2.85333 25.8 3.12 25.64 3.52C25.48 3.89333 25.4 4.46667 25.4 5.24V23.76C25.4 24.5333 25.48 25.12 25.64 25.52C25.8 25.92 26.1333 26.1867 26.64 26.32C27.1467 26.4533 27.8933 26.52 28.88 26.52C28.96 26.52 29 26.6 29 26.76C29 26.92 28.96 27 28.88 27C28.2667 27 27.5467 26.9867 26.72 26.96C25.8933 26.9333 25.04 26.92 24.16 26.92C23.1733 26.92 22.28 26.9333 21.48 26.96C20.68 26.9867 19.96 27 19.32 27C19.24 27 19.2 26.92 19.2 26.76C19.2 26.6 19.24 26.52 19.32 26.52C20.36 26.52 21.12 26.4533 21.6 26.32C22.1067 26.1867 22.44 25.92 22.6 25.52C22.76 25.12 22.84 24.5333 22.84 23.76V5.32ZM6.08 14.4V13.56H23.96V14.4H6.08ZM4.92 23.76V5.24C4.92 4.46667 4.82667 3.89333 4.64 3.52C4.48 3.12 4.14667 2.85333 3.64 2.72C3.16 2.56 2.42667 2.48 1.44 2.48C1.38667 2.48 1.36 2.4 1.36 2.24C1.36 2.08 1.38667 2 1.44 2C2.08 2 2.8 2.02667 3.6 2.08C4.42667 2.10667 5.28 2.12 6.16 2.12C7.14667 2.12 8.04 2.10667 8.84 2.08C9.64 2.02667 10.36 2 11 2C11.0533 2 11.08 2.08 11.08 2.24C11.08 2.4 11.0533 2.48 11 2.48C10.0133 2.48 9.26667 2.56 8.76 2.72C8.25333 2.88 7.90667 3.16 7.72 3.56C7.56 3.96 7.48 4.54666 7.48 5.32V23.76C7.48 24.5333 7.56 25.12 7.72 25.52C7.88 25.92 8.21333 26.1867 8.72 26.32C9.25333 26.4533 10.0133 26.52 11 26.52C11.0533 26.52 11.08 26.6 11.08 26.76C11.08 26.92 11.0533 27 11 27C10.3333 27 9.6 26.9867 8.8 26.96C8.02667 26.9333 7.14667 26.92 6.16 26.92C5.28 26.92 4.42667 26.9333 3.6 26.96C2.77333 26.9867 2.04 27 1.4 27C1.34667 27 1.32 26.92 1.32 26.76C1.32 26.6 1.34667 26.52 1.4 26.52C2.38667 26.52 3.13333 26.4533 3.64 26.32C4.14667 26.1867 4.48 25.92 4.64 25.52C4.82667 25.12 4.92 24.5333 4.92 23.76ZM36.1516 6.68C36.1516 7.77333 36.4182 8.72 36.9516 9.52C37.5116 10.2933 38.2182 10.9733 39.0716 11.56C39.9249 12.1467 40.8316 12.7333 41.7916 13.32C42.7782 13.88 43.7249 14.48 44.6316 15.12C45.5649 15.76 46.3249 16.52 46.9116 17.4C47.5249 18.28 47.8316 19.36 47.8316 20.64C47.8316 21.92 47.5116 23.08 46.8716 24.12C46.2316 25.1333 45.2982 25.9467 44.0716 26.56C42.8716 27.1733 41.3782 27.48 39.5916 27.48C38.9516 27.48 38.3116 27.4267 37.6716 27.32C37.0582 27.24 36.4316 27.0933 35.7916 26.88C35.1782 26.6667 34.5649 26.4 33.9516 26.08C33.8182 26 33.7249 25.9067 33.6716 25.8C33.6449 25.6667 33.6182 25.5067 33.5916 25.32L33.0716 19.88C33.0449 19.7467 33.0982 19.68 33.2316 19.68C33.3916 19.6533 33.4849 19.6933 33.5116 19.8C33.6982 20.6 33.9649 21.4133 34.3116 22.24C34.6582 23.0667 35.1116 23.8267 35.6716 24.52C36.2316 25.2133 36.9116 25.7733 37.7116 26.2C38.5116 26.6267 39.4449 26.84 40.5116 26.84C41.2849 26.84 42.0316 26.6933 42.7516 26.4C43.4982 26.1067 44.0982 25.6267 44.5516 24.96C45.0316 24.2933 45.2716 23.3867 45.2716 22.24C45.2716 20.9333 44.9782 19.8533 44.3916 19C43.8316 18.12 43.1116 17.36 42.2316 16.72C41.3516 16.08 40.4182 15.48 39.4316 14.92C38.4982 14.3333 37.5916 13.7333 36.7116 13.12C35.8582 12.5067 35.1516 11.7867 34.5916 10.96C34.0582 10.1067 33.7916 9.05333 33.7916 7.8C33.7916 6.38667 34.1516 5.22666 34.8716 4.32C35.5916 3.38666 36.5249 2.69333 37.6716 2.24C38.8182 1.78667 40.0049 1.56 41.2316 1.56C41.9782 1.56 42.7516 1.64 43.5516 1.8C44.3516 1.93333 45.1382 2.17333 45.9116 2.52C46.1249 2.6 46.2716 2.70667 46.3516 2.84C46.4582 2.94667 46.5116 3.06667 46.5116 3.2L46.7916 7.76C46.7916 7.86667 46.7249 7.93333 46.5916 7.96C46.4582 7.96 46.3649 7.90667 46.3116 7.8C46.2582 7.26667 46.1116 6.68 45.8716 6.04C45.6316 5.37333 45.2849 4.74667 44.8316 4.16C44.3782 3.57333 43.8049 3.09333 43.1116 2.72C42.4182 2.34666 41.5782 2.16 40.5916 2.16C39.5516 2.16 38.6982 2.38666 38.0316 2.84C37.3916 3.26667 36.9116 3.82667 36.5916 4.52C36.2982 5.18667 36.1516 5.90667 36.1516 6.68ZM68.48 27H51.72C51.6667 27 51.64 26.92 51.64 26.76C51.64 26.6 51.6667 26.52 51.72 26.52C52.7067 26.52 53.44 26.4533 53.92 26.32C54.4 26.1867 54.72 25.92 54.88 25.52C55.0667 25.12 55.16 24.5333 55.16 23.76V5.24C55.16 4.46667 55.0667 3.89333 54.88 3.52C54.72 3.12 54.4 2.85333 53.92 2.72C53.44 2.56 52.7067 2.48 51.72 2.48C51.6667 2.48 51.64 2.4 51.64 2.24C51.64 2.08 51.6667 2 51.72 2H67.8C68.04 2 68.16 2.12 68.16 2.36L68.24 7.28C68.24 7.36 68.16 7.41333 68 7.44C67.8667 7.44 67.8 7.4 67.8 7.32C67.72 5.88 67.28 4.77333 66.48 4C65.7067 3.22667 64.6933 2.84 63.44 2.84H61C60.0933 2.84 59.4 2.90667 58.92 3.04C58.4667 3.17333 58.1467 3.42666 57.96 3.8C57.8 4.17333 57.72 4.72 57.72 5.44V23.6C57.72 24.2933 57.8 24.8267 57.96 25.2C58.1467 25.5733 58.4533 25.8267 58.88 25.96C59.3333 26.0933 60 26.16 60.88 26.16H64.08C65.36 26.16 66.4267 25.7067 67.28 24.8C68.16 23.8667 68.7333 22.6133 69 21.04C69 20.96 69.08 20.9333 69.24 20.96C69.4 20.9867 69.48 21.04 69.48 21.12C69.3733 21.8133 69.28 22.6533 69.2 23.64C69.1467 24.6267 69.12 25.5467 69.12 26.4C69.12 26.8 68.9067 27 68.48 27ZM66.24 17.68C66.24 16.5067 65.9467 15.6667 65.36 15.16C64.8 14.6533 63.8533 14.4 62.52 14.4H56.52V13.56H62.64C63.92 13.56 64.8267 13.3467 65.36 12.92C65.92 12.4667 66.2 11.7467 66.2 10.76C66.2 10.7067 66.28 10.68 66.44 10.68C66.6 10.68 66.68 10.7067 66.68 10.76C66.68 11.56 66.6667 12.1867 66.64 12.64C66.64 13.0667 66.64 13.52 66.64 14C66.64 14.6133 66.6533 15.2133 66.68 15.8C66.7067 16.3867 66.72 17.0133 66.72 17.68C66.72 17.7333 66.64 17.76 66.48 17.76C66.32 17.76 66.24 17.7333 66.24 17.68ZM89.3794 13.76L89.9794 12.92H98.2194L98.4994 13.76H89.3794ZM108.819 26.52C108.926 26.52 108.979 26.6 108.979 26.76C108.979 26.92 108.926 27 108.819 27C108.046 27 107.259 26.9733 106.459 26.92C105.659 26.8667 104.886 26.84 104.139 26.84C103.313 26.84 102.593 26.8667 101.979 26.92C101.366 26.9733 100.686 27 99.9394 27C99.8327 27 99.7794 26.92 99.7794 26.76C99.7794 26.6 99.8327 26.52 99.9394 26.52C101.353 26.52 102.233 26.32 102.579 25.92C102.926 25.4933 102.833 24.7067 102.299 23.56L93.4194 4.8L94.4194 3.56L86.6594 21.92C85.9927 23.5467 85.9527 24.72 86.5394 25.44C87.126 26.16 88.286 26.52 90.0194 26.52C90.1527 26.52 90.2194 26.6 90.2194 26.76C90.2194 26.92 90.1527 27 90.0194 27C89.2194 27 88.486 26.9733 87.8194 26.92C87.1527 26.8667 86.3127 26.84 85.2994 26.84C84.3394 26.84 83.566 26.8667 82.9794 26.92C82.4194 26.9733 81.726 27 80.8994 27C80.7927 27 80.7394 26.92 80.7394 26.76C80.7394 26.6 80.7927 26.52 80.8994 26.52C81.6194 26.52 82.246 26.3867 82.7794 26.12C83.3127 25.8267 83.806 25.3333 84.2594 24.64C84.7394 23.92 85.2594 22.8933 85.8194 21.56L94.2594 1.64C94.3127 1.56 94.406 1.52 94.5394 1.52C94.6727 1.52 94.7527 1.56 94.7794 1.64L104.219 21.52C104.833 22.8267 105.379 23.8533 105.859 24.6C106.339 25.32 106.806 25.8267 107.259 26.12C107.739 26.3867 108.259 26.52 108.819 26.52ZM131.105 27C130.652 27 129.919 26.4667 128.905 25.4C127.919 24.3333 126.705 22.8133 125.265 20.84C123.852 18.84 122.265 16.4667 120.505 13.72L122.745 13C125.012 16.36 126.932 19.0267 128.505 21C130.105 22.9467 131.505 24.36 132.705 25.24C133.932 26.0933 135.105 26.52 136.225 26.52C136.305 26.52 136.345 26.6 136.345 26.76C136.345 26.92 136.305 27 136.225 27C134.892 27 133.799 27 132.945 27C132.119 27 131.505 27 131.105 27ZM120.225 1.88C122.412 1.88 124.079 2.33333 125.225 3.24C126.399 4.12 126.985 5.33333 126.985 6.88C126.985 7.89333 126.759 8.85333 126.305 9.76C125.852 10.64 125.239 11.4267 124.465 12.12C123.692 12.7867 122.785 13.32 121.745 13.72C120.732 14.12 119.665 14.32 118.545 14.32C118.279 14.32 117.972 14.32 117.625 14.32C117.305 14.2933 117.012 14.2667 116.745 14.24V23.76C116.745 24.5333 116.812 25.12 116.945 25.52C117.105 25.92 117.425 26.1867 117.905 26.32C118.412 26.4533 119.159 26.52 120.145 26.52C120.225 26.52 120.265 26.6 120.265 26.76C120.265 26.92 120.225 27 120.145 27C119.505 27 118.785 26.9867 117.985 26.96C117.212 26.9333 116.359 26.92 115.425 26.92C114.545 26.92 113.692 26.9333 112.865 26.96C112.065 26.9867 111.332 27 110.665 27C110.612 27 110.585 26.92 110.585 26.76C110.585 26.6 110.612 26.52 110.665 26.52C111.652 26.52 112.385 26.4533 112.865 26.32C113.372 26.1867 113.719 25.92 113.905 25.52C114.092 25.12 114.185 24.5333 114.185 23.76V5.24C114.185 4.46667 114.092 3.89333 113.905 3.52C113.745 3.12 113.425 2.85333 112.945 2.72C112.465 2.56 111.732 2.48 110.745 2.48C110.665 2.48 110.625 2.4 110.625 2.24C110.625 2.08 110.665 2 110.745 2C111.385 2 112.105 2.02667 112.905 2.08C113.705 2.10667 114.545 2.12 115.425 2.12C116.119 2.12 116.932 2.08 117.865 2C118.799 1.92 119.585 1.88 120.225 1.88ZM124.265 8.28C124.265 6.81333 124.039 5.66667 123.585 4.84C123.159 3.98667 122.585 3.38667 121.865 3.04C121.145 2.66667 120.319 2.48 119.385 2.48C118.745 2.48 118.225 2.53333 117.825 2.64C117.425 2.74667 117.145 3 116.985 3.4C116.825 3.8 116.745 4.44 116.745 5.32V13.24C117.119 13.2933 117.519 13.3333 117.945 13.36C118.372 13.3867 118.759 13.4 119.105 13.4C120.945 13.4 122.265 13.0133 123.065 12.24C123.865 11.44 124.265 10.12 124.265 8.28ZM140.098 2.72C138.445 2.72 137.191 3.14666 136.338 4C135.511 4.85333 134.911 6.30667 134.538 8.36C134.538 8.41333 134.458 8.44 134.298 8.44C134.165 8.44 134.098 8.41333 134.098 8.36C134.151 8.01333 134.205 7.53333 134.258 6.92C134.311 6.28 134.365 5.6 134.418 4.88C134.498 4.16 134.551 3.46667 134.578 2.8C134.631 2.10667 134.658 1.54667 134.658 1.12C134.658 0.986666 134.725 0.92 134.858 0.92C135.018 0.92 135.098 0.986666 135.098 1.12C135.098 1.38667 135.231 1.58667 135.498 1.72C135.765 1.82667 136.058 1.90667 136.378 1.96C136.725 1.98667 137.018 2 137.258 2C139.551 2.08 142.231 2.12 145.298 2.12C147.191 2.12 148.685 2.10667 149.778 2.08C150.898 2.02667 151.978 2 153.018 2C153.925 2 154.618 1.94667 155.098 1.84C155.605 1.70667 155.925 1.42667 156.058 0.999999C156.085 0.893332 156.165 0.839998 156.298 0.839998C156.431 0.839998 156.498 0.893332 156.498 0.999999C156.471 1.4 156.431 1.94666 156.378 2.64C156.325 3.33333 156.285 4.05333 156.258 4.8C156.231 5.54667 156.205 6.24 156.178 6.88C156.151 7.52 156.138 8.01333 156.138 8.36C156.138 8.41333 156.058 8.44 155.898 8.44C155.738 8.44 155.658 8.41333 155.658 8.36C155.578 6.28 155.151 4.82667 154.378 4C153.605 3.14666 152.325 2.72 150.538 2.72C149.418 2.72 148.578 2.77333 148.018 2.88C147.458 2.98667 147.085 3.22667 146.898 3.6C146.738 3.94667 146.658 4.52 146.658 5.32V23.76C146.658 24.5333 146.751 25.12 146.938 25.52C147.125 25.92 147.485 26.1867 148.018 26.32C148.578 26.4533 149.418 26.52 150.538 26.52C150.618 26.52 150.658 26.6 150.658 26.76C150.658 26.92 150.618 27 150.538 27C149.845 27 149.058 26.9867 148.178 26.96C147.298 26.9333 146.338 26.92 145.298 26.92C144.311 26.92 143.378 26.9333 142.498 26.96C141.618 26.9867 140.818 27 140.098 27C140.045 27 140.018 26.92 140.018 26.76C140.018 26.6 140.045 26.52 140.098 26.52C141.191 26.52 142.018 26.4533 142.578 26.32C143.165 26.1867 143.551 25.92 143.738 25.52C143.925 25.12 144.018 24.5333 144.018 23.76V5.24C144.018 4.44 143.925 3.86667 143.738 3.52C143.551 3.14667 143.178 2.92 142.618 2.84C142.058 2.76 141.218 2.72 140.098 2.72ZM175.825 13.76L176.425 12.92H184.665L184.945 13.76H175.825ZM195.265 26.52C195.371 26.52 195.425 26.6 195.425 26.76C195.425 26.92 195.371 27 195.265 27C194.491 27 193.705 26.9733 192.905 26.92C192.105 26.8667 191.331 26.84 190.585 26.84C189.758 26.84 189.038 26.8667 188.425 26.92C187.811 26.9733 187.131 27 186.385 27C186.278 27 186.225 26.92 186.225 26.76C186.225 26.6 186.278 26.52 186.385 26.52C187.798 26.52 188.678 26.32 189.025 25.92C189.371 25.4933 189.278 24.7067 188.745 23.56L179.865 4.8L180.865 3.56L173.105 21.92C172.438 23.5467 172.398 24.72 172.985 25.44C173.571 26.16 174.731 26.52 176.465 26.52C176.598 26.52 176.665 26.6 176.665 26.76C176.665 26.92 176.598 27 176.465 27C175.665 27 174.931 26.9733 174.265 26.92C173.598 26.8667 172.758 26.84 171.745 26.84C170.785 26.84 170.011 26.8667 169.425 26.92C168.865 26.9733 168.171 27 167.345 27C167.238 27 167.185 26.92 167.185 26.76C167.185 26.6 167.238 26.52 167.345 26.52C168.065 26.52 168.691 26.3867 169.225 26.12C169.758 25.8267 170.251 25.3333 170.705 24.64C171.185 23.92 171.705 22.8933 172.265 21.56L180.705 1.64C180.758 1.56 180.851 1.52 180.985 1.52C181.118 1.52 181.198 1.56 181.225 1.64L190.665 21.52C191.278 22.8267 191.825 23.8533 192.305 24.6C192.785 25.32 193.251 25.8267 193.705 26.12C194.185 26.3867 194.705 26.52 195.265 26.52ZM218.231 5.32C218.231 4.54666 218.151 3.96 217.991 3.56C217.831 3.16 217.497 2.88 216.991 2.72C216.511 2.56 215.751 2.48 214.711 2.48C214.631 2.48 214.591 2.4 214.591 2.24C214.591 2.08 214.631 2 214.711 2C215.351 2 216.071 2.02667 216.871 2.08C217.671 2.10667 218.564 2.12 219.551 2.12C220.431 2.12 221.284 2.10667 222.111 2.08C222.937 2.02667 223.657 2 224.271 2C224.351 2 224.391 2.08 224.391 2.24C224.391 2.4 224.351 2.48 224.271 2.48C223.284 2.48 222.537 2.56 222.031 2.72C221.524 2.85333 221.191 3.12 221.031 3.52C220.871 3.89333 220.791 4.46667 220.791 5.24V23.76C220.791 24.5333 220.871 25.12 221.031 25.52C221.191 25.92 221.524 26.1867 222.031 26.32C222.537 26.4533 223.284 26.52 224.271 26.52C224.351 26.52 224.391 26.6 224.391 26.76C224.391 26.92 224.351 27 224.271 27C223.657 27 222.937 26.9867 222.111 26.96C221.284 26.9333 220.431 26.92 219.551 26.92C218.564 26.92 217.671 26.9333 216.871 26.96C216.071 26.9867 215.351 27 214.711 27C214.631 27 214.591 26.92 214.591 26.76C214.591 26.6 214.631 26.52 214.711 26.52C215.751 26.52 216.511 26.4533 216.991 26.32C217.497 26.1867 217.831 25.92 217.991 25.52C218.151 25.12 218.231 24.5333 218.231 23.76V5.32ZM201.471 14.4V13.56H219.351V14.4H201.471ZM200.311 23.76V5.24C200.311 4.46667 200.217 3.89333 200.031 3.52C199.871 3.12 199.537 2.85333 199.031 2.72C198.551 2.56 197.817 2.48 196.831 2.48C196.777 2.48 196.751 2.4 196.751 2.24C196.751 2.08 196.777 2 196.831 2C197.471 2 198.191 2.02667 198.991 2.08C199.817 2.10667 200.671 2.12 201.551 2.12C202.537 2.12 203.431 2.10667 204.231 2.08C205.031 2.02667 205.751 2 206.391 2C206.444 2 206.471 2.08 206.471 2.24C206.471 2.4 206.444 2.48 206.391 2.48C205.404 2.48 204.657 2.56 204.151 2.72C203.644 2.88 203.297 3.16 203.111 3.56C202.951 3.96 202.871 4.54666 202.871 5.32V23.76C202.871 24.5333 202.951 25.12 203.111 25.52C203.271 25.92 203.604 26.1867 204.111 26.32C204.644 26.4533 205.404 26.52 206.391 26.52C206.444 26.52 206.471 26.6 206.471 26.76C206.471 26.92 206.444 27 206.391 27C205.724 27 204.991 26.9867 204.191 26.96C203.417 26.9333 202.537 26.92 201.551 26.92C200.671 26.92 199.817 26.9333 198.991 26.96C198.164 26.9867 197.431 27 196.791 27C196.737 27 196.711 26.92 196.711 26.76C196.711 26.6 196.737 26.52 196.791 26.52C197.777 26.52 198.524 26.4533 199.031 26.32C199.537 26.1867 199.871 25.92 200.031 25.52C200.217 25.12 200.311 24.5333 200.311 23.76ZM237.862 27.16C237.089 27.16 236.129 27.12 234.982 27.04C233.862 26.96 232.822 26.92 231.862 26.92C230.982 26.92 230.129 26.9333 229.302 26.96C228.502 26.9867 227.782 27 227.142 27C227.089 27 227.062 26.92 227.062 26.76C227.062 26.6 227.089 26.52 227.142 26.52C228.102 26.52 228.836 26.4533 229.342 26.32C229.849 26.1867 230.182 25.92 230.342 25.52C230.502 25.12 230.582 24.5333 230.582 23.76V5.24C230.582 4.46667 230.502 3.89333 230.342 3.52C230.182 3.12 229.849 2.85333 229.342 2.72C228.862 2.56 228.142 2.48 227.182 2.48C227.129 2.48 227.102 2.4 227.102 2.24C227.102 2.08 227.129 2 227.182 2C227.822 2 228.542 2.02667 229.342 2.08C230.142 2.10667 230.982 2.12 231.862 2.12C232.742 2.12 233.689 2.09333 234.702 2.04C235.716 1.96 236.582 1.92 237.302 1.92C240.129 1.92 242.596 2.45333 244.702 3.52C246.836 4.58667 248.489 6.04 249.662 7.88C250.836 9.72 251.422 11.7867 251.422 14.08C251.422 16.08 251.062 17.8933 250.342 19.52C249.649 21.12 248.662 22.4933 247.382 23.64C246.129 24.76 244.676 25.6267 243.022 26.24C241.396 26.8533 239.676 27.16 237.862 27.16ZM237.462 26.56C239.596 26.56 241.476 26.12 243.102 25.24C244.729 24.3333 246.009 23.0133 246.942 21.28C247.902 19.5467 248.382 17.44 248.382 14.96C248.382 12.64 247.942 10.5467 247.062 8.68C246.182 6.78667 244.942 5.29333 243.342 4.2C241.769 3.08 239.876 2.52 237.662 2.52C236.062 2.52 234.916 2.68 234.222 3C233.529 3.32 233.182 4.09333 233.182 5.32V23.32C233.182 24.44 233.449 25.2667 233.982 25.8C234.542 26.3067 235.702 26.56 237.462 26.56ZM12.12 72.16C11.3467 72.16 10.3867 72.12 9.24 72.04C8.12 71.96 7.08 71.92 6.12 71.92C5.24 71.92 4.38667 71.9333 3.56 71.96C2.76 71.9867 2.04 72 1.4 72C1.34667 72 1.32 71.92 1.32 71.76C1.32 71.6 1.34667 71.52 1.4 71.52C2.36 71.52 3.09333 71.4533 3.6 71.32C4.10667 71.1867 4.44 70.92 4.6 70.52C4.76 70.12 4.84 69.5333 4.84 68.76V50.24C4.84 49.4667 4.76 48.8933 4.6 48.52C4.44 48.12 4.10667 47.8533 3.6 47.72C3.12 47.56 2.4 47.48 1.44 47.48C1.38667 47.48 1.36 47.4 1.36 47.24C1.36 47.08 1.38667 47 1.44 47C2.08 47 2.8 47.0267 3.6 47.08C4.4 47.1067 5.24 47.12 6.12 47.12C7 47.12 7.94667 47.0933 8.96 47.04C9.97333 46.96 10.84 46.92 11.56 46.92C14.3867 46.92 16.8533 47.4533 18.96 48.52C21.0933 49.5867 22.7467 51.04 23.92 52.88C25.0933 54.72 25.68 56.7867 25.68 59.08C25.68 61.08 25.32 62.8933 24.6 64.52C23.9067 66.12 22.92 67.4933 21.64 68.64C20.3867 69.76 18.9333 70.6267 17.28 71.24C15.6533 71.8533 13.9333 72.16 12.12 72.16ZM11.72 71.56C13.8533 71.56 15.7333 71.12 17.36 70.24C18.9867 69.3333 20.2667 68.0133 21.2 66.28C22.16 64.5467 22.64 62.44 22.64 59.96C22.64 57.64 22.2 55.5467 21.32 53.68C20.44 51.7867 19.2 50.2933 17.6 49.2C16.0267 48.08 14.1333 47.52 11.92 47.52C10.32 47.52 9.17333 47.68 8.48 48C7.78667 48.32 7.44 49.0933 7.44 50.32V68.32C7.44 69.44 7.70667 70.2667 8.24 70.8C8.8 71.3067 9.96 71.56 11.72 71.56ZM46.1363 72H29.3763C29.3229 72 29.2963 71.92 29.2963 71.76C29.2963 71.6 29.3229 71.52 29.3763 71.52C30.3629 71.52 31.0963 71.4533 31.5763 71.32C32.0563 71.1867 32.3763 70.92 32.5363 70.52C32.7229 70.12 32.8163 69.5333 32.8163 68.76V50.24C32.8163 49.4667 32.7229 48.8933 32.5363 48.52C32.3763 48.12 32.0563 47.8533 31.5763 47.72C31.0963 47.56 30.3629 47.48 29.3763 47.48C29.3229 47.48 29.2963 47.4 29.2963 47.24C29.2963 47.08 29.3229 47 29.3763 47H45.4563C45.6963 47 45.8163 47.12 45.8163 47.36L45.8963 52.28C45.8963 52.36 45.8163 52.4133 45.6563 52.44C45.5229 52.44 45.4563 52.4 45.4563 52.32C45.3763 50.88 44.9363 49.7733 44.1363 49C43.3629 48.2267 42.3496 47.84 41.0963 47.84H38.6563C37.7496 47.84 37.0563 47.9067 36.5763 48.04C36.1229 48.1733 35.8029 48.4267 35.6163 48.8C35.4563 49.1733 35.3763 49.72 35.3763 50.44V68.6C35.3763 69.2933 35.4563 69.8267 35.6163 70.2C35.8029 70.5733 36.1096 70.8267 36.5363 70.96C36.9896 71.0933 37.6563 71.16 38.5363 71.16H41.7363C43.0163 71.16 44.0829 70.7067 44.9363 69.8C45.8163 68.8667 46.3896 67.6133 46.6563 66.04C46.6563 65.96 46.7363 65.9333 46.8963 65.96C47.0563 65.9867 47.1363 66.04 47.1363 66.12C47.0296 66.8133 46.9363 67.6533 46.8563 68.64C46.8029 69.6267 46.7763 70.5467 46.7763 71.4C46.7763 71.8 46.5629 72 46.1363 72ZM43.8963 62.68C43.8963 61.5067 43.6029 60.6667 43.0163 60.16C42.4563 59.6533 41.5096 59.4 40.1763 59.4H34.1763V58.56H40.2963C41.5763 58.56 42.4829 58.3467 43.0163 57.92C43.5763 57.4667 43.8563 56.7467 43.8563 55.76C43.8563 55.7067 43.9363 55.68 44.0963 55.68C44.2563 55.68 44.3363 55.7067 44.3363 55.76C44.3363 56.56 44.3229 57.1867 44.2963 57.64C44.2963 58.0667 44.2963 58.52 44.2963 59C44.2963 59.6133 44.3096 60.2133 44.3363 60.8C44.3629 61.3867 44.3763 62.0133 44.3763 62.68C44.3763 62.7333 44.2963 62.76 44.1363 62.76C43.9763 62.76 43.8963 62.7333 43.8963 62.68ZM54.9406 51.68C54.9406 52.7733 55.2073 53.72 55.7406 54.52C56.3006 55.2933 57.0073 55.9733 57.8606 56.56C58.714 57.1467 59.6206 57.7333 60.5806 58.32C61.5673 58.88 62.514 59.48 63.4206 60.12C64.354 60.76 65.114 61.52 65.7006 62.4C66.314 63.28 66.6206 64.36 66.6206 65.64C66.6206 66.92 66.3006 68.08 65.6606 69.12C65.0206 70.1333 64.0873 70.9467 62.8606 71.56C61.6606 72.1733 60.1673 72.48 58.3806 72.48C57.7406 72.48 57.1006 72.4267 56.4606 72.32C55.8473 72.24 55.2206 72.0933 54.5806 71.88C53.9673 71.6667 53.354 71.4 52.7406 71.08C52.6073 71 52.514 70.9067 52.4606 70.8C52.434 70.6667 52.4073 70.5067 52.3806 70.32L51.8606 64.88C51.834 64.7467 51.8873 64.68 52.0206 64.68C52.1806 64.6533 52.274 64.6933 52.3006 64.8C52.4873 65.6 52.754 66.4133 53.1006 67.24C53.4473 68.0667 53.9006 68.8267 54.4606 69.52C55.0206 70.2133 55.7006 70.7733 56.5006 71.2C57.3006 71.6267 58.234 71.84 59.3006 71.84C60.074 71.84 60.8206 71.6933 61.5406 71.4C62.2873 71.1067 62.8873 70.6267 63.3406 69.96C63.8206 69.2933 64.0606 68.3867 64.0606 67.24C64.0606 65.9333 63.7673 64.8533 63.1806 64C62.6206 63.12 61.9006 62.36 61.0206 61.72C60.1406 61.08 59.2073 60.48 58.2206 59.92C57.2873 59.3333 56.3806 58.7333 55.5006 58.12C54.6473 57.5067 53.9406 56.7867 53.3806 55.96C52.8473 55.1067 52.5806 54.0533 52.5806 52.8C52.5806 51.3867 52.9406 50.2267 53.6606 49.32C54.3806 48.3867 55.314 47.6933 56.4606 47.24C57.6073 46.7867 58.794 46.56 60.0206 46.56C60.7673 46.56 61.5406 46.64 62.3406 46.8C63.1406 46.9333 63.9273 47.1733 64.7006 47.52C64.914 47.6 65.0606 47.7067 65.1406 47.84C65.2473 47.9467 65.3006 48.0667 65.3006 48.2L65.5806 52.76C65.5806 52.8667 65.514 52.9333 65.3806 52.96C65.2473 52.96 65.154 52.9067 65.1006 52.8C65.0473 52.2667 64.9006 51.68 64.6606 51.04C64.4206 50.3733 64.074 49.7467 63.6206 49.16C63.1673 48.5733 62.594 48.0933 61.9006 47.72C61.2073 47.3467 60.3673 47.16 59.3806 47.16C58.3406 47.16 57.4873 47.3867 56.8206 47.84C56.1806 48.2667 55.7006 48.8267 55.3806 49.52C55.0873 50.1867 54.9406 50.9067 54.9406 51.68ZM76.7491 68.76C76.7491 69.5333 76.8291 70.12 76.9891 70.52C77.1491 70.92 77.4691 71.1867 77.9491 71.32C78.4557 71.4533 79.1891 71.52 80.1491 71.52C80.2291 71.52 80.2691 71.6 80.2691 71.76C80.2691 71.92 80.2291 72 80.1491 72C79.5091 72 78.7891 71.9867 77.9891 71.96C77.2157 71.9333 76.3491 71.92 75.3891 71.92C74.5091 71.92 73.6557 71.9333 72.8291 71.96C72.0291 71.9867 71.3091 72 70.6691 72C70.5891 72 70.5491 71.92 70.5491 71.76C70.5491 71.6 70.5891 71.52 70.6691 71.52C71.6291 71.52 72.3624 71.4533 72.8691 71.32C73.3757 71.1867 73.7091 70.92 73.8691 70.52C74.0291 70.12 74.1091 69.5333 74.1091 68.76V50.24C74.1091 49.4667 74.0291 48.8933 73.8691 48.52C73.7091 48.12 73.3757 47.8533 72.8691 47.72C72.3624 47.56 71.6291 47.48 70.6691 47.48C70.5891 47.48 70.5491 47.4 70.5491 47.24C70.5491 47.08 70.5891 47 70.6691 47C71.3091 47 72.0291 47.0267 72.8291 47.08C73.6557 47.1067 74.5091 47.12 75.3891 47.12C76.3491 47.12 77.2291 47.1067 78.0291 47.08C78.8291 47.0267 79.5357 47 80.1491 47C80.2291 47 80.2691 47.08 80.2691 47.24C80.2691 47.4 80.2291 47.48 80.1491 47.48C79.1891 47.48 78.4557 47.56 77.9491 47.72C77.4691 47.88 77.1491 48.16 76.9891 48.56C76.8291 48.96 76.7491 49.5467 76.7491 50.32V68.76ZM86.8703 67.64V47.92L87.7903 48V67.64C87.7903 69.0267 88.0303 70.0267 88.5103 70.64C88.9903 71.2267 89.7903 71.52 90.9103 71.52C90.9903 71.52 91.0303 71.6 91.0303 71.76C91.0303 71.92 90.9903 72 90.9103 72C90.377 72 89.8303 71.9867 89.2703 71.96C88.7103 71.9333 88.0836 71.92 87.3903 71.92C86.7236 71.92 86.0836 71.9333 85.4703 71.96C84.857 71.9867 84.2703 72 83.7103 72C83.657 72 83.6303 71.92 83.6303 71.76C83.6303 71.6 83.657 71.52 83.7103 71.52C84.8836 71.52 85.697 71.2267 86.1503 70.64C86.6303 70.0267 86.8703 69.0267 86.8703 67.64ZM107.03 72.48C107.03 72.5333 106.964 72.56 106.83 72.56C106.697 72.5867 106.604 72.5867 106.55 72.56L88.1503 50.28C87.2436 49.1867 86.4303 48.4533 85.7103 48.08C85.017 47.68 84.3503 47.48 83.7103 47.48C83.6303 47.48 83.5903 47.4 83.5903 47.24C83.5903 47.08 83.6303 47 83.7103 47C84.1903 47 84.6703 47.0133 85.1503 47.04C85.657 47.0667 86.1103 47.08 86.5103 47.08C86.9903 47.08 87.4436 47.0667 87.8703 47.04C88.297 47.0133 88.617 47 88.8303 47C89.177 47 89.417 47.16 89.5503 47.48C89.6836 47.7733 90.0703 48.3067 90.7103 49.08L106.71 68.72L107.03 72.48ZM107.03 51.4V72.48L106.11 71.24V51.4C106.11 50.0133 105.87 49.0133 105.39 48.4C104.937 47.7867 104.164 47.48 103.07 47.48C103.017 47.48 102.99 47.4 102.99 47.24C102.99 47.08 103.017 47 103.07 47C103.604 47 104.15 47.0267 104.71 47.08C105.297 47.1067 105.924 47.12 106.59 47.12C107.23 47.12 107.857 47.1067 108.47 47.08C109.11 47.0267 109.697 47 110.23 47C110.31 47 110.35 47.08 110.35 47.24C110.35 47.4 110.31 47.48 110.23 47.48C109.084 47.48 108.257 47.7867 107.75 48.4C107.27 49.0133 107.03 50.0133 107.03 51.4ZM127.333 72.48C124.346 72.48 121.786 71.92 119.653 70.8C117.519 69.6533 115.893 68.12 114.773 66.2C113.653 64.28 113.093 62.1467 113.093 59.8C113.093 57.8267 113.466 56.04 114.213 54.44C114.986 52.8133 116.053 51.4133 117.413 50.24C118.799 49.0667 120.413 48.16 122.253 47.52C124.119 46.88 126.146 46.56 128.333 46.56C129.586 46.56 130.813 46.68 132.013 46.92C133.213 47.16 134.199 47.52 134.973 48C135.213 48.16 135.346 48.2933 135.373 48.4C135.399 48.5067 135.426 48.68 135.453 48.92L135.933 53.4C135.933 53.4533 135.853 53.5067 135.693 53.56C135.559 53.5867 135.479 53.5467 135.453 53.44C134.866 51.4933 133.813 50.0133 132.293 49C130.773 47.96 128.879 47.44 126.613 47.44C123.226 47.44 120.613 48.4267 118.773 50.4C116.959 52.3467 116.053 55 116.053 58.36C116.053 61 116.586 63.3333 117.653 65.36C118.719 67.36 120.173 68.9333 122.013 70.08C123.853 71.2267 125.946 71.8 128.293 71.8C129.599 71.8 130.639 71.68 131.413 71.44C132.186 71.2 132.746 70.7333 133.093 70.04C133.439 69.3467 133.613 68.32 133.613 66.96C133.613 65.68 133.533 64.7467 133.373 64.16C133.213 63.5467 132.813 63.1467 132.173 62.96C131.533 62.7733 130.506 62.68 129.093 62.68C128.933 62.68 128.853 62.5733 128.853 62.36C128.853 62.1467 128.919 62.04 129.053 62.04C130.733 62.1467 132.266 62.2133 133.653 62.24C135.039 62.24 136.493 62.2 138.013 62.12C138.146 62.12 138.213 62.2133 138.213 62.4C138.213 62.5867 138.146 62.68 138.013 62.68C137.399 62.6533 136.946 62.7467 136.653 62.96C136.386 63.1467 136.213 63.5733 136.133 64.24C136.053 64.9067 136.013 65.9467 136.013 67.36C136.013 68.24 136.039 68.8933 136.093 69.32C136.146 69.7467 136.186 70.0667 136.213 70.28C136.266 70.4667 136.293 70.6667 136.293 70.88C136.293 71.04 136.266 71.1467 136.213 71.2C136.159 71.2533 136.039 71.3067 135.853 71.36C134.493 71.68 133.066 71.9467 131.573 72.16C130.106 72.3733 128.693 72.48 127.333 72.48ZM154.863 51.68C154.863 52.7733 155.129 53.72 155.663 54.52C156.223 55.2933 156.929 55.9733 157.783 56.56C158.636 57.1467 159.543 57.7333 160.503 58.32C161.489 58.88 162.436 59.48 163.343 60.12C164.276 60.76 165.036 61.52 165.623 62.4C166.236 63.28 166.543 64.36 166.543 65.64C166.543 66.92 166.223 68.08 165.583 69.12C164.943 70.1333 164.009 70.9467 162.783 71.56C161.583 72.1733 160.089 72.48 158.303 72.48C157.663 72.48 157.023 72.4267 156.383 72.32C155.769 72.24 155.143 72.0933 154.503 71.88C153.889 71.6667 153.276 71.4 152.663 71.08C152.529 71 152.436 70.9067 152.383 70.8C152.356 70.6667 152.329 70.5067 152.303 70.32L151.783 64.88C151.756 64.7467 151.809 64.68 151.943 64.68C152.103 64.6533 152.196 64.6933 152.223 64.8C152.409 65.6 152.676 66.4133 153.023 67.24C153.369 68.0667 153.823 68.8267 154.383 69.52C154.943 70.2133 155.623 70.7733 156.423 71.2C157.223 71.6267 158.156 71.84 159.223 71.84C159.996 71.84 160.743 71.6933 161.463 71.4C162.209 71.1067 162.809 70.6267 163.263 69.96C163.743 69.2933 163.983 68.3867 163.983 67.24C163.983 65.9333 163.689 64.8533 163.103 64C162.543 63.12 161.823 62.36 160.943 61.72C160.063 61.08 159.129 60.48 158.143 59.92C157.209 59.3333 156.303 58.7333 155.423 58.12C154.569 57.5067 153.863 56.7867 153.303 55.96C152.769 55.1067 152.503 54.0533 152.503 52.8C152.503 51.3867 152.863 50.2267 153.583 49.32C154.303 48.3867 155.236 47.6933 156.383 47.24C157.529 46.7867 158.716 46.56 159.943 46.56C160.689 46.56 161.463 46.64 162.263 46.8C163.063 46.9333 163.849 47.1733 164.623 47.52C164.836 47.6 164.983 47.7067 165.063 47.84C165.169 47.9467 165.223 48.0667 165.223 48.2L165.503 52.76C165.503 52.8667 165.436 52.9333 165.303 52.96C165.169 52.96 165.076 52.9067 165.023 52.8C164.969 52.2667 164.823 51.68 164.583 51.04C164.343 50.3733 163.996 49.7467 163.543 49.16C163.089 48.5733 162.516 48.0933 161.823 47.72C161.129 47.3467 160.289 47.16 159.303 47.16C158.263 47.16 157.409 47.3867 156.743 47.84C156.103 48.2667 155.623 48.8267 155.303 49.52C155.009 50.1867 154.863 50.9067 154.863 51.68ZM185.311 46.56C186.538 46.56 187.804 46.68 189.111 46.92C190.444 47.16 191.511 47.5067 192.311 47.96C192.551 48.0933 192.698 48.2133 192.751 48.32C192.831 48.4267 192.884 48.6267 192.911 48.92L193.351 53.4C193.351 53.4533 193.284 53.5067 193.151 53.56C193.018 53.5867 192.938 53.5467 192.911 53.44C192.298 51.28 191.178 49.7467 189.551 48.84C187.924 47.9067 185.991 47.44 183.751 47.44C181.698 47.44 179.911 47.8933 178.391 48.8C176.898 49.68 175.738 50.9333 174.911 52.56C174.084 54.16 173.671 56.04 173.671 58.2C173.671 60.0933 173.964 61.88 174.551 63.56C175.138 65.2133 175.951 66.6667 176.991 67.92C178.058 69.1733 179.271 70.16 180.631 70.88C182.018 71.5733 183.484 71.92 185.031 71.92C186.898 71.92 188.538 71.4133 189.951 70.4C191.391 69.36 192.498 67.72 193.271 65.48C193.298 65.3733 193.378 65.3467 193.511 65.4C193.671 65.4267 193.751 65.4667 193.751 65.52L193.191 70.04C193.138 70.36 193.071 70.5733 192.991 70.68C192.938 70.76 192.791 70.8533 192.551 70.96C191.271 71.4933 190.004 71.88 188.751 72.12C187.498 72.36 186.231 72.48 184.951 72.48C182.418 72.48 180.244 72.0933 178.431 71.32C176.618 70.52 175.138 69.48 173.991 68.2C172.844 66.8933 172.004 65.4667 171.471 63.92C170.938 62.3467 170.671 60.8 170.671 59.28C170.671 57.36 171.071 55.6267 171.871 54.08C172.671 52.5333 173.764 51.2 175.151 50.08C176.538 48.96 178.098 48.0933 179.831 47.48C181.591 46.8667 183.418 46.56 185.311 46.56ZM218.309 50.32C218.309 49.5467 218.229 48.96 218.069 48.56C217.909 48.16 217.575 47.88 217.069 47.72C216.589 47.56 215.829 47.48 214.789 47.48C214.709 47.48 214.669 47.4 214.669 47.24C214.669 47.08 214.709 47 214.789 47C215.429 47 216.149 47.0267 216.949 47.08C217.749 47.1067 218.642 47.12 219.629 47.12C220.509 47.12 221.362 47.1067 222.189 47.08C223.015 47.0267 223.735 47 224.349 47C224.429 47 224.469 47.08 224.469 47.24C224.469 47.4 224.429 47.48 224.349 47.48C223.362 47.48 222.615 47.56 222.109 47.72C221.602 47.8533 221.269 48.12 221.109 48.52C220.949 48.8933 220.869 49.4667 220.869 50.24V68.76C220.869 69.5333 220.949 70.12 221.109 70.52C221.269 70.92 221.602 71.1867 222.109 71.32C222.615 71.4533 223.362 71.52 224.349 71.52C224.429 71.52 224.469 71.6 224.469 71.76C224.469 71.92 224.429 72 224.349 72C223.735 72 223.015 71.9867 222.189 71.96C221.362 71.9333 220.509 71.92 219.629 71.92C218.642 71.92 217.749 71.9333 216.949 71.96C216.149 71.9867 215.429 72 214.789 72C214.709 72 214.669 71.92 214.669 71.76C214.669 71.6 214.709 71.52 214.789 71.52C215.829 71.52 216.589 71.4533 217.069 71.32C217.575 71.1867 217.909 70.92 218.069 70.52C218.229 70.12 218.309 69.5333 218.309 68.76V50.32ZM201.549 59.4V58.56H219.429V59.4H201.549ZM200.389 68.76V50.24C200.389 49.4667 200.295 48.8933 200.109 48.52C199.949 48.12 199.615 47.8533 199.109 47.72C198.629 47.56 197.895 47.48 196.909 47.48C196.855 47.48 196.829 47.4 196.829 47.24C196.829 47.08 196.855 47 196.909 47C197.549 47 198.269 47.0267 199.069 47.08C199.895 47.1067 200.749 47.12 201.629 47.12C202.615 47.12 203.509 47.1067 204.309 47.08C205.109 47.0267 205.829 47 206.469 47C206.522 47 206.549 47.08 206.549 47.24C206.549 47.4 206.522 47.48 206.469 47.48C205.482 47.48 204.735 47.56 204.229 47.72C203.722 47.88 203.375 48.16 203.189 48.56C203.029 48.96 202.949 49.5467 202.949 50.32V68.76C202.949 69.5333 203.029 70.12 203.189 70.52C203.349 70.92 203.682 71.1867 204.189 71.32C204.722 71.4533 205.482 71.52 206.469 71.52C206.522 71.52 206.549 71.6 206.549 71.76C206.549 71.92 206.522 72 206.469 72C205.802 72 205.069 71.9867 204.269 71.96C203.495 71.9333 202.615 71.92 201.629 71.92C200.749 71.92 199.895 71.9333 199.069 71.96C198.242 71.9867 197.509 72 196.869 72C196.815 72 196.789 71.92 196.789 71.76C196.789 71.6 196.815 71.52 196.869 71.52C197.855 71.52 198.602 71.4533 199.109 71.32C199.615 71.1867 199.949 70.92 200.109 70.52C200.295 70.12 200.389 69.5333 200.389 68.76ZM240.46 72.48C238.54 72.48 236.794 72.1467 235.22 71.48C233.674 70.7867 232.34 69.84 231.22 68.64C230.127 67.44 229.274 66.0667 228.66 64.52C228.074 62.9467 227.78 61.28 227.78 59.52C227.78 57.36 228.194 55.4667 229.02 53.84C229.874 52.2133 230.994 50.8667 232.38 49.8C233.767 48.7067 235.287 47.8933 236.94 47.36C238.594 46.8267 240.234 46.56 241.86 46.56C243.834 46.56 245.594 46.92 247.14 47.64C248.714 48.3333 250.047 49.28 251.14 50.48C252.234 51.68 253.06 53.04 253.62 54.56C254.207 56.08 254.5 57.64 254.5 59.24C254.5 61.1067 254.127 62.84 253.38 64.44C252.634 66.04 251.607 67.44 250.3 68.64C249.02 69.84 247.527 70.7867 245.82 71.48C244.14 72.1467 242.354 72.48 240.46 72.48ZM241.86 71.64C243.674 71.64 245.3 71.2133 246.74 70.36C248.18 69.48 249.327 68.2 250.18 66.52C251.034 64.84 251.46 62.7867 251.46 60.36C251.46 57.8533 250.994 55.64 250.06 53.72C249.154 51.7733 247.847 50.2533 246.14 49.16C244.46 48.04 242.474 47.48 240.18 47.48C237.22 47.48 234.914 48.44 233.26 50.36C231.634 52.2533 230.82 54.84 230.82 58.12C230.82 60.0133 231.074 61.7867 231.58 63.44C232.114 65.0667 232.874 66.5067 233.86 67.76C234.847 68.9867 236.02 69.9467 237.38 70.64C238.74 71.3067 240.234 71.64 241.86 71.64ZM271.085 72.48C269.165 72.48 267.419 72.1467 265.845 71.48C264.299 70.7867 262.965 69.84 261.845 68.64C260.752 67.44 259.899 66.0667 259.285 64.52C258.699 62.9467 258.405 61.28 258.405 59.52C258.405 57.36 258.819 55.4667 259.645 53.84C260.499 52.2133 261.619 50.8667 263.005 49.8C264.392 48.7067 265.912 47.8933 267.565 47.36C269.219 46.8267 270.859 46.56 272.485 46.56C274.459 46.56 276.219 46.92 277.765 47.64C279.339 48.3333 280.672 49.28 281.765 50.48C282.859 51.68 283.685 53.04 284.245 54.56C284.832 56.08 285.125 57.64 285.125 59.24C285.125 61.1067 284.752 62.84 284.005 64.44C283.259 66.04 282.232 67.44 280.925 68.64C279.645 69.84 278.152 70.7867 276.445 71.48C274.765 72.1467 272.979 72.48 271.085 72.48ZM272.485 71.64C274.299 71.64 275.925 71.2133 277.365 70.36C278.805 69.48 279.952 68.2 280.805 66.52C281.659 64.84 282.085 62.7867 282.085 60.36C282.085 57.8533 281.619 55.64 280.685 53.72C279.779 51.7733 278.472 50.2533 276.765 49.16C275.085 48.04 273.099 47.48 270.805 47.48C267.845 47.48 265.539 48.44 263.885 50.36C262.259 52.2533 261.445 54.84 261.445 58.12C261.445 60.0133 261.699 61.7867 262.205 63.44C262.739 65.0667 263.499 66.5067 264.485 67.76C265.472 68.9867 266.645 69.9467 268.005 70.64C269.365 71.3067 270.859 71.64 272.485 71.64ZM294.47 50.28V68.6C294.47 69.32 294.55 69.8667 294.71 70.24C294.87 70.6133 295.177 70.8667 295.63 71C296.11 71.1067 296.79 71.16 297.67 71.16H302.03C303.577 71.16 304.804 70.68 305.71 69.72C306.617 68.7333 307.204 67.4533 307.47 65.88C307.47 65.8 307.537 65.7733 307.67 65.8C307.83 65.8 307.91 65.84 307.91 65.92C307.83 66.64 307.75 67.52 307.67 68.56C307.59 69.5733 307.55 70.52 307.55 71.4C307.55 71.8 307.35 72 306.95 72H288.47C288.417 72 288.39 71.92 288.39 71.76C288.39 71.6 288.417 71.52 288.47 71.52C289.43 71.52 290.15 71.4533 290.63 71.32C291.137 71.1867 291.47 70.92 291.63 70.52C291.79 70.12 291.87 69.5333 291.87 68.76V50.24C291.87 49.4667 291.79 48.8933 291.63 48.52C291.47 48.12 291.137 47.8533 290.63 47.72C290.15 47.56 289.43 47.48 288.47 47.48C288.417 47.48 288.39 47.4 288.39 47.24C288.39 47.08 288.417 47 288.47 47C289.11 47 289.83 47.0267 290.63 47.08C291.43 47.1067 292.27 47.12 293.15 47.12C294.084 47.12 294.95 47.1067 295.75 47.08C296.55 47.0267 297.257 47 297.87 47C297.95 47 297.99 47.08 297.99 47.24C297.99 47.4 297.95 47.48 297.87 47.48C296.91 47.48 296.177 47.56 295.67 47.72C295.19 47.8533 294.87 48.12 294.71 48.52C294.55 48.92 294.47 49.5067 294.47 50.28Z" fill="white"/>
<path d="M601.373 53.16C600.946 53.16 600.386 53.1333 599.693 53.08C598.999 53.0533 598.293 53.0267 597.573 53C596.853 52.9467 596.199 52.92 595.613 52.92C594.733 52.92 593.879 52.9333 593.053 52.96C592.253 52.9867 591.519 53 590.853 53C590.799 53 590.773 52.92 590.773 52.76C590.773 52.6 590.799 52.52 590.853 52.52C591.839 52.52 592.573 52.4533 593.053 52.32C593.559 52.1867 593.906 51.92 594.093 51.52C594.279 51.12 594.373 50.5333 594.373 49.76V31.24C594.373 30.4667 594.279 29.8933 594.093 29.52C593.933 29.12 593.613 28.8533 593.133 28.72C592.653 28.56 591.919 28.48 590.933 28.48C590.853 28.48 590.813 28.4 590.813 28.24C590.813 28.08 590.853 28 590.933 28H606.693C606.853 28 606.959 28.04 607.013 28.12C607.066 28.1733 607.106 28.2933 607.133 28.48L607.653 33.56C607.653 33.64 607.586 33.6933 607.453 33.72C607.319 33.72 607.226 33.68 607.173 33.6C606.906 32.1067 606.359 30.9333 605.533 30.08C604.706 29.2267 603.666 28.8 602.413 28.8H600.133C599.226 28.8 598.546 28.8667 598.093 29C597.639 29.1333 597.333 29.4 597.173 29.8C597.013 30.1733 596.933 30.7333 596.933 31.48V49.76C596.933 50.32 597.013 50.8 597.173 51.2C597.359 51.6 597.706 51.9067 598.213 52.12C598.746 52.3333 599.533 52.44 600.573 52.44C602.733 52.44 604.279 51.9467 605.213 50.96C606.173 49.9733 606.653 48.4933 606.653 46.52C606.653 44.8133 606.346 43.4667 605.733 42.48C605.119 41.4667 604.253 40.7467 603.133 40.32C602.039 39.8933 600.733 39.68 599.213 39.68C598.706 39.68 598.159 39.72 597.573 39.8C597.013 39.8533 596.439 39.9067 595.853 39.96L595.773 39.2C596.519 39.0933 597.253 39.0133 597.973 38.96C598.719 38.9067 599.439 38.88 600.133 38.88C601.919 38.88 603.506 39.0933 604.893 39.52C606.306 39.92 607.413 40.6 608.213 41.56C609.039 42.4933 609.453 43.8 609.453 45.48C609.453 47 609.106 48.3333 608.413 49.48C607.746 50.6267 606.799 51.5333 605.573 52.2C604.373 52.84 602.973 53.16 601.373 53.16ZM613.038 53C612.931 53 612.824 52.9333 612.718 52.8C612.611 52.6667 612.611 52.56 612.718 52.48C613.971 50.8533 615.238 49.2667 616.518 47.72C617.824 46.1467 619.011 44.6 620.078 43.08C621.144 41.5333 621.998 40.0267 622.638 38.56C623.304 37.0933 623.638 35.6533 623.638 34.24C623.638 32.72 623.224 31.5067 622.398 30.6C621.598 29.6933 620.438 29.24 618.918 29.24C617.558 29.24 616.411 29.6267 615.478 30.4C614.571 31.1733 613.891 32.2533 613.438 33.64C613.411 33.6933 613.318 33.7067 613.158 33.68C613.024 33.6533 612.971 33.6 612.998 33.52C613.398 31.6 614.224 30.1333 615.478 29.12C616.731 28.08 618.264 27.56 620.078 27.56C622.051 27.56 623.571 28.1333 624.638 29.28C625.731 30.4 626.278 31.8 626.278 33.48C626.278 34.7867 625.984 36.12 625.398 37.48C624.811 38.8133 624.051 40.12 623.118 41.4C622.184 42.68 621.198 43.9067 620.158 45.08C619.144 46.2267 618.198 47.28 617.317 48.24C616.438 49.1733 615.758 49.9733 615.278 50.64C615.144 50.8267 615.198 50.92 615.438 50.92C617.758 50.92 619.651 50.9067 621.118 50.88C622.584 50.8267 623.718 50.72 624.518 50.56C625.344 50.3733 625.918 50.0933 626.238 49.72C626.558 49.3467 626.731 48.8267 626.758 48.16C626.758 48.1067 626.824 48.08 626.958 48.08C627.118 48.08 627.198 48.1067 627.198 48.16L627.158 52.56C627.158 52.6667 627.131 52.7733 627.078 52.88C627.024 52.96 626.931 53 626.798 53C625.411 53 623.918 53 622.318 53C620.744 53 619.158 53 617.558 53C615.958 53 614.451 53 613.038 53ZM642.767 49.76C642.767 50.5333 642.834 51.12 642.967 51.52C643.101 51.92 643.381 52.1867 643.807 52.32C644.234 52.4533 644.861 52.52 645.687 52.52C645.741 52.52 645.767 52.6 645.767 52.76C645.767 52.92 645.741 53 645.687 53C645.154 53 644.527 52.9867 643.807 52.96C643.114 52.9333 642.354 52.92 641.527 52.92C640.541 52.92 639.621 52.9333 638.767 52.96C637.914 52.9867 637.141 53 636.447 53C636.367 53 636.327 52.92 636.327 52.76C636.327 52.6 636.367 52.52 636.447 52.52C637.621 52.52 638.487 52.4667 639.047 52.36C639.607 52.2533 639.967 52 640.127 51.6C640.287 51.2 640.367 50.5867 640.367 49.76V31.2L641.327 30.48L631.967 44.2C631.861 44.3867 631.927 44.48 632.167 44.48C634.194 44.48 635.967 44.48 637.487 44.48C639.007 44.4533 640.447 44.4267 641.807 44.4C643.167 44.3467 644.594 44.2933 646.087 44.24C646.167 44.24 646.207 44.3867 646.207 44.68C646.234 44.9467 646.234 45.2267 646.207 45.52C646.207 45.7867 646.167 45.92 646.087 45.92C644.701 45.84 643.261 45.7867 641.767 45.76C640.274 45.7067 638.607 45.68 636.767 45.68C634.927 45.6533 632.754 45.64 630.247 45.64C630.141 45.64 630.047 45.6 629.967 45.52C629.887 45.4133 629.887 45.3067 629.967 45.2L642.127 27.8C642.207 27.72 642.327 27.6933 642.487 27.72C642.674 27.7467 642.767 27.8267 642.767 27.96V49.76ZM674.477 52.52C674.717 52.52 674.851 52.5467 674.877 52.6C674.931 52.6267 674.957 52.76 674.957 53C674.957 53.3733 674.917 53.7733 674.837 54.2C674.784 54.6533 674.731 55.2933 674.677 56.12C674.624 56.9467 674.597 58.12 674.597 59.64C674.597 59.7467 674.517 59.8 674.357 59.8C674.197 59.8 674.117 59.7467 674.117 59.64C674.117 57.3733 673.611 55.6933 672.597 54.6C671.611 53.5333 669.971 53 667.677 53H655.157C654.117 53 653.184 53.1867 652.357 53.56C651.557 53.96 650.931 54.64 650.477 55.6C650.024 56.5867 649.797 57.9333 649.797 59.64C649.797 59.7467 649.717 59.8 649.557 59.8C649.397 59.8 649.317 59.7467 649.317 59.64C649.317 58.52 649.291 57.6 649.237 56.88C649.211 56.16 649.157 55.5733 649.077 55.12C649.024 54.6667 648.971 54.28 648.917 53.96C648.891 53.64 648.877 53.3067 648.877 52.96C648.877 52.7467 648.891 52.6133 648.917 52.56C648.971 52.5067 649.091 52.48 649.277 52.48C650.424 52.48 651.437 52.1067 652.317 51.36C653.224 50.5867 654.024 49.5733 654.717 48.32C655.437 47.0667 656.051 45.68 656.557 44.16C657.091 42.64 657.517 41.1067 657.837 39.56C658.157 37.9867 658.397 36.52 658.557 35.16C658.717 33.7733 658.797 32.6133 658.797 31.68C658.797 31.04 658.717 30.48 658.557 30C658.397 29.52 658.024 29.1467 657.437 28.88C656.877 28.6133 655.971 28.48 654.717 28.48C654.664 28.48 654.637 28.4 654.637 28.24C654.637 28.08 654.664 28 654.717 28C654.877 28 655.317 28 656.037 28C656.784 28 657.717 28 658.837 28C659.957 28 661.157 28 662.437 28C663.744 28 665.037 28 666.317 28C667.597 28 668.784 28 669.877 28C670.971 28 671.864 28 672.557 28C673.251 28 673.651 28 673.757 28C673.811 28 673.837 28.08 673.837 28.24C673.837 28.4 673.811 28.48 673.757 28.48C672.771 28.48 672.024 28.56 671.517 28.72C671.011 28.8533 670.677 29.12 670.517 29.52C670.357 29.8933 670.277 30.4667 670.277 31.24V49.76C670.277 50.4267 670.291 50.96 670.317 51.36C670.371 51.7333 670.517 52 670.757 52.16C670.997 52.32 671.397 52.4267 671.957 52.48C672.544 52.5067 673.384 52.52 674.477 52.52ZM667.677 49.68V31.32C667.677 30.4933 667.624 29.92 667.517 29.6C667.437 29.2533 667.184 29.0533 666.757 29C666.331 28.92 665.597 28.88 664.557 28.88H662.597C661.824 28.88 661.264 29 660.917 29.24C660.571 29.48 660.344 29.9333 660.237 30.6C660.131 31.2667 660.024 32.2533 659.917 33.56C659.864 34.04 659.771 34.7733 659.637 35.76C659.504 36.7467 659.304 37.8667 659.037 39.12C658.797 40.3733 658.491 41.6933 658.117 43.08C657.744 44.44 657.304 45.76 656.797 47.04C656.291 48.32 655.704 49.4533 655.037 50.44C654.371 51.4 653.611 52.1333 652.757 52.64V52.12H664.357C665.451 52.12 666.224 52.08 666.677 52C667.157 51.92 667.437 51.72 667.517 51.4C667.624 51.0533 667.677 50.48 667.677 49.68ZM683.968 53.48C681.488 53.48 679.328 52.48 677.488 50.48C677.434 50.3733 677.461 50.2667 677.568 50.16C677.701 50.0533 677.808 50.0533 677.888 50.16C678.608 50.9333 679.461 51.5067 680.448 51.88C681.434 52.2267 682.394 52.4 683.328 52.4C684.608 52.4 685.634 52.12 686.408 51.56C687.208 51 687.781 50.2667 688.128 49.36C688.501 48.4267 688.688 47.4 688.688 46.28C688.688 45.1333 688.474 44.0933 688.048 43.16C687.648 42.2267 686.914 41.48 685.848 40.92C684.808 40.3333 683.328 40.04 681.408 40.04C681.301 40.04 681.248 39.9333 681.248 39.72C681.248 39.5067 681.301 39.4 681.408 39.4C683.088 39.4 684.394 39.1733 685.328 38.72C686.261 38.24 686.914 37.6 687.288 36.8C687.688 36 687.888 35.1067 687.888 34.12C687.888 32.4933 687.474 31.2533 686.648 30.4C685.848 29.5467 684.741 29.12 683.328 29.12C682.288 29.12 681.248 29.3867 680.208 29.92C679.194 30.4267 678.434 31.2267 677.928 32.32C677.901 32.3733 677.808 32.3733 677.648 32.32C677.514 32.2667 677.461 32.2 677.488 32.12C678.074 30.7067 678.968 29.6 680.168 28.8C681.394 27.9733 682.808 27.56 684.408 27.56C685.714 27.56 686.808 27.8133 687.688 28.32C688.594 28.8267 689.274 29.4933 689.728 30.32C690.208 31.1467 690.448 32.0667 690.448 33.08C690.448 34.0933 690.208 35.08 689.728 36.04C689.274 36.9733 688.608 37.7867 687.728 38.48C686.874 39.1467 685.834 39.6 684.608 39.84L684.728 39.52C686.221 39.4133 687.461 39.6533 688.448 40.24C689.434 40.8 690.181 41.6 690.688 42.64C691.221 43.6533 691.488 44.7733 691.488 46C691.488 47.4667 691.168 48.7733 690.528 49.92C689.888 51.04 688.994 51.92 687.848 52.56C686.728 53.1733 685.434 53.48 683.968 53.48ZM703.431 53.52C701.804 53.52 700.377 52.9733 699.151 51.88C697.924 50.7867 696.964 49.2667 696.271 47.32C695.604 45.3467 695.271 43.0667 695.271 40.48C695.271 37.92 695.604 35.6667 696.271 33.72C696.964 31.7733 697.924 30.2533 699.151 29.16C700.404 28.0667 701.857 27.52 703.511 27.52C705.111 27.52 706.511 28.08 707.711 29.2C708.911 30.2933 709.844 31.8267 710.511 33.8C711.177 35.7467 711.511 38.0133 711.511 40.6C711.511 43.16 711.177 45.4133 710.511 47.36C709.844 49.3067 708.897 50.8267 707.671 51.92C706.471 52.9867 705.057 53.52 703.431 53.52ZM703.911 52.96C705.004 52.96 705.897 52.48 706.591 51.52C707.311 50.56 707.844 49.2 708.191 47.44C708.537 45.6533 708.711 43.5333 708.711 41.08C708.711 38.0933 708.457 35.64 707.951 33.72C707.444 31.8 706.764 30.3733 705.911 29.44C705.057 28.5067 704.111 28.04 703.071 28.04C701.977 28.04 701.057 28.5467 700.311 29.56C699.591 30.5733 699.031 31.9867 698.631 33.8C698.257 35.6133 698.071 37.7467 698.071 40.2C698.071 42.7867 698.297 45.04 698.751 46.96C699.231 48.8533 699.897 50.3333 700.751 51.4C701.631 52.44 702.684 52.96 703.911 52.96ZM721.55 41.48C720.19 41.48 719.043 41.1733 718.11 40.56C717.176 39.92 716.47 39.08 715.99 38.04C715.536 37 715.31 35.8933 715.31 34.72C715.31 33.28 715.643 32.0267 716.31 30.96C716.976 29.8933 717.883 29.0667 719.03 28.48C720.203 27.8667 721.536 27.56 723.03 27.56C724.763 27.56 726.19 27.9733 727.31 28.8C728.456 29.6 729.296 30.72 729.83 32.16C730.363 33.6 730.63 35.2533 730.63 37.12C730.63 39.0133 730.35 40.9067 729.79 42.8C729.23 44.6933 728.39 46.4267 727.27 48C726.176 49.5733 724.83 50.8533 723.23 51.84C721.656 52.8 719.856 53.3467 717.83 53.48C717.75 53.5067 717.683 53.44 717.63 53.28C717.603 53.1467 717.643 53.0667 717.75 53.04C719.456 52.6933 720.95 52.0267 722.23 51.04C723.51 50.0533 724.576 48.84 725.43 47.4C726.283 45.96 726.923 44.4133 727.35 42.76C727.776 41.08 727.99 39.4133 727.99 37.76C727.99 36.5333 727.87 35.36 727.63 34.24C727.416 33.12 727.07 32.1067 726.59 31.2C726.11 30.2933 725.483 29.5867 724.71 29.08C723.963 28.5467 723.056 28.28 721.99 28.28C720.576 28.28 719.55 28.76 718.91 29.72C718.27 30.68 717.95 31.9867 717.95 33.64C717.95 35.72 718.39 37.3733 719.27 38.6C720.176 39.8267 721.35 40.44 722.79 40.44C723.27 40.44 723.75 40.3467 724.23 40.16C724.71 39.9467 725.243 39.5867 725.83 39.08C725.91 39 726.003 39.0133 726.11 39.12C726.243 39.2 726.283 39.28 726.23 39.36C725.083 40.7733 723.523 41.48 721.55 41.48Z" fill="#FFF9EE"/>
<path d="M1083.38 27.832C1084.55 27.832 1085.75 27.946 1086.99 28.174C1088.26 28.402 1089.27 28.7313 1090.03 29.162C1090.26 29.2887 1090.4 29.4027 1090.45 29.504C1090.53 29.6053 1090.58 29.7953 1090.6 30.074L1091.02 34.33C1091.02 34.3807 1090.96 34.4313 1090.83 34.482C1090.7 34.5073 1090.63 34.4693 1090.6 34.368C1090.02 32.316 1088.96 30.8593 1087.41 29.998C1085.87 29.1113 1084.03 28.668 1081.9 28.668C1079.95 28.668 1078.25 29.0987 1076.81 29.96C1075.39 30.796 1074.29 31.9867 1073.5 33.532C1072.72 35.052 1072.33 36.838 1072.33 38.89C1072.33 40.6887 1072.6 42.386 1073.16 43.982C1073.72 45.5527 1074.49 46.9333 1075.48 48.124C1076.49 49.3147 1077.65 50.252 1078.94 50.936C1080.25 51.5947 1081.65 51.924 1083.12 51.924C1084.89 51.924 1086.45 51.4427 1087.79 50.48C1089.16 49.492 1090.21 47.934 1090.95 45.806C1090.97 45.7047 1091.05 45.6793 1091.17 45.73C1091.33 45.7553 1091.4 45.7933 1091.4 45.844L1090.87 50.138C1090.82 50.442 1090.76 50.6447 1090.68 50.746C1090.63 50.822 1090.49 50.9107 1090.26 51.012C1089.05 51.5187 1087.84 51.886 1086.65 52.114C1085.46 52.342 1084.26 52.456 1083.04 52.456C1080.63 52.456 1078.57 52.0887 1076.85 51.354C1075.12 50.594 1073.72 49.606 1072.63 48.39C1071.54 47.1487 1070.74 45.7933 1070.24 44.324C1069.73 42.8293 1069.48 41.36 1069.48 39.916C1069.48 38.092 1069.86 36.4453 1070.62 34.976C1071.38 33.5067 1072.41 32.24 1073.73 31.176C1075.05 30.112 1076.53 29.2887 1078.18 28.706C1079.85 28.1233 1081.58 27.832 1083.38 27.832ZM1101.81 52.494C1100.32 52.494 1099.01 52.1267 1097.9 51.392C1096.78 50.6573 1095.92 49.682 1095.31 48.466C1094.71 47.2247 1094.4 45.8947 1094.4 44.476C1094.4 43.1587 1094.64 42.0187 1095.12 41.056C1095.6 40.0933 1096.25 39.308 1097.06 38.7C1097.87 38.0667 1098.75 37.598 1099.68 37.294C1100.65 36.99 1101.58 36.838 1102.5 36.838C1104.04 36.838 1105.36 37.218 1106.45 37.978C1107.56 38.738 1108.41 39.7133 1108.99 40.904C1109.58 42.0947 1109.87 43.3487 1109.87 44.666C1109.87 46.2873 1109.5 47.6807 1108.77 48.846C1108.03 50.0113 1107.06 50.9107 1105.84 51.544C1104.62 52.1773 1103.28 52.494 1101.81 52.494ZM1102.91 51.772C1104.26 51.772 1105.32 51.3033 1106.11 50.366C1106.89 49.4033 1107.28 47.858 1107.28 45.73C1107.28 44.134 1107.02 42.728 1106.49 41.512C1105.98 40.2707 1105.27 39.308 1104.36 38.624C1103.45 37.9147 1102.41 37.56 1101.24 37.56C1099.9 37.56 1098.85 38.054 1098.09 39.042C1097.33 40.03 1096.95 41.4487 1096.95 43.298C1096.95 44.8433 1097.2 46.262 1097.71 47.554C1098.21 48.846 1098.91 49.872 1099.8 50.632C1100.71 51.392 1101.75 51.772 1102.91 51.772ZM1113.34 52.304C1112.23 52.304 1111.67 51.886 1111.67 51.05C1111.67 50.6447 1111.79 50.328 1112.01 50.1C1112.27 49.872 1112.55 49.758 1112.85 49.758C1113 49.758 1113.17 49.7833 1113.34 49.834C1113.55 49.8593 1113.74 49.872 1113.91 49.872C1114.62 49.872 1115.22 49.5427 1115.7 48.884C1116.21 48.2253 1116.63 47.3767 1116.95 46.338C1117.28 45.2993 1117.52 44.1973 1117.68 43.032C1117.83 41.8667 1117.9 40.7647 1117.9 39.726C1117.9 38.9153 1117.71 38.4087 1117.33 38.206C1116.98 37.978 1116.23 37.826 1115.09 37.75C1115.02 37.75 1114.98 37.6867 1114.98 37.56C1114.98 37.408 1115.02 37.332 1115.09 37.332C1115.32 37.332 1115.73 37.332 1116.31 37.332C1116.92 37.332 1117.56 37.332 1118.25 37.332C1118.96 37.332 1119.59 37.332 1120.15 37.332C1120.7 37.332 1121.06 37.332 1121.21 37.332H1127.75C1127.8 37.332 1127.82 37.408 1127.82 37.56C1127.82 37.712 1127.8 37.788 1127.75 37.788C1127.09 37.8133 1126.58 37.8893 1126.23 38.016C1125.9 38.1173 1125.66 38.3453 1125.5 38.7C1125.38 39.0547 1125.31 39.65 1125.31 40.486V48.922C1125.31 49.7073 1125.38 50.29 1125.5 50.67C1125.63 51.0247 1125.87 51.2527 1126.23 51.354C1126.58 51.43 1127.09 51.4933 1127.75 51.544C1127.8 51.544 1127.82 51.62 1127.82 51.772C1127.82 51.924 1127.8 52 1127.75 52C1127.24 52 1126.7 51.9873 1126.11 51.962C1125.53 51.9367 1124.93 51.924 1124.33 51.924C1123.67 51.924 1123.02 51.9367 1122.39 51.962C1121.78 51.9873 1121.24 52 1120.75 52C1120.68 52 1120.64 51.924 1120.64 51.772C1120.64 51.62 1120.68 51.544 1120.75 51.544C1121.44 51.4933 1121.95 51.43 1122.27 51.354C1122.63 51.2527 1122.87 51.0247 1123 50.67C1123.12 50.29 1123.19 49.7073 1123.19 48.922V40.41C1123.19 39.6247 1123.16 39.08 1123.11 38.776C1123.06 38.4467 1122.91 38.244 1122.65 38.168C1122.4 38.092 1121.97 38.054 1121.36 38.054H1121.13C1120.53 38.054 1120.07 38.1173 1119.77 38.244C1119.49 38.3453 1119.3 38.5607 1119.2 38.89C1119.1 39.2193 1118.99 39.7133 1118.89 40.372C1118.79 41.3347 1118.66 42.3607 1118.51 43.45C1118.36 44.5393 1118.16 45.6033 1117.9 46.642C1117.65 47.6807 1117.33 48.6307 1116.95 49.492C1116.57 50.328 1116.08 51.012 1115.47 51.544C1114.89 52.0507 1114.18 52.304 1113.34 52.304ZM1137.7 52.494C1136.2 52.494 1134.9 52.1267 1133.78 51.392C1132.67 50.6573 1131.81 49.682 1131.2 48.466C1130.59 47.2247 1130.29 45.8947 1130.29 44.476C1130.29 43.1587 1130.53 42.0187 1131.01 41.056C1131.49 40.0933 1132.14 39.308 1132.95 38.7C1133.76 38.0667 1134.63 37.598 1135.57 37.294C1136.53 36.99 1137.47 36.838 1138.38 36.838C1139.93 36.838 1141.24 37.218 1142.33 37.978C1143.45 38.738 1144.3 39.7133 1144.88 40.904C1145.46 42.0947 1145.75 43.3487 1145.75 44.666C1145.75 46.2873 1145.38 47.6807 1144.65 48.846C1143.92 50.0113 1142.94 50.9107 1141.72 51.544C1140.51 52.1773 1139.17 52.494 1137.7 52.494ZM1138.8 51.772C1140.14 51.772 1141.2 51.3033 1141.99 50.366C1142.78 49.4033 1143.17 47.858 1143.17 45.73C1143.17 44.134 1142.9 42.728 1142.37 41.512C1141.86 40.2707 1141.15 39.308 1140.24 38.624C1139.33 37.9147 1138.29 37.56 1137.13 37.56C1135.78 37.56 1134.73 38.054 1133.97 39.042C1133.21 40.03 1132.83 41.4487 1132.83 43.298C1132.83 44.8433 1133.09 46.262 1133.59 47.554C1134.1 48.846 1134.8 49.872 1135.68 50.632C1136.59 51.392 1137.63 51.772 1138.8 51.772ZM1150.45 48.048L1151.02 38.168L1151.78 38.282L1151.21 48.048C1151.13 49.3147 1151.28 50.214 1151.66 50.746C1152.07 51.278 1152.71 51.544 1153.6 51.544C1153.65 51.544 1153.68 51.62 1153.68 51.772C1153.68 51.924 1153.65 52 1153.6 52C1153.19 52 1152.75 51.9873 1152.27 51.962C1151.81 51.9367 1151.32 51.924 1150.79 51.924C1150.28 51.924 1149.77 51.9367 1149.27 51.962C1148.79 51.9873 1148.33 52 1147.9 52C1147.85 52 1147.82 51.924 1147.82 51.772C1147.82 51.62 1147.85 51.544 1147.9 51.544C1148.81 51.544 1149.44 51.278 1149.8 50.746C1150.15 50.214 1150.37 49.3147 1150.45 48.048ZM1167.85 51.544C1167.9 51.544 1167.93 51.62 1167.93 51.772C1167.93 51.924 1167.9 52 1167.85 52C1167.34 52 1166.79 51.9873 1166.18 51.962C1165.57 51.9367 1164.96 51.924 1164.35 51.924C1163.75 51.924 1163.19 51.9367 1162.68 51.962C1162.2 51.9873 1161.74 52 1161.31 52C1161.24 52 1161.2 51.924 1161.2 51.772C1161.2 51.62 1161.24 51.544 1161.31 51.544C1162.15 51.544 1162.69 51.3793 1162.95 51.05C1163.23 50.7207 1163.33 50.0113 1163.25 48.922L1162.57 38.206L1163.18 37.788L1157.7 50.746C1157.65 50.8473 1157.55 50.898 1157.4 50.898C1157.25 50.898 1157.15 50.8473 1157.1 50.746L1151.85 40.486C1151.29 39.346 1150.71 38.6113 1150.1 38.282C1149.52 37.9527 1148.96 37.788 1148.43 37.788C1148.38 37.788 1148.36 37.712 1148.36 37.56C1148.36 37.408 1148.38 37.332 1148.43 37.332C1148.79 37.332 1149.14 37.3447 1149.5 37.37C1149.85 37.37 1150.14 37.37 1150.37 37.37C1150.72 37.37 1151.05 37.37 1151.36 37.37C1151.66 37.3447 1151.89 37.332 1152.04 37.332C1152.42 37.332 1152.7 37.4587 1152.88 37.712C1153.05 37.9653 1153.35 38.4847 1153.75 39.27L1158.43 48.39L1157.4 49.682L1162.19 38.282C1162.31 37.978 1162.48 37.75 1162.68 37.598C1162.91 37.4207 1163.12 37.332 1163.33 37.332C1163.5 37.332 1163.76 37.3447 1164.09 37.37C1164.42 37.37 1164.78 37.37 1165.19 37.37C1165.67 37.37 1166.05 37.37 1166.33 37.37C1166.63 37.3447 1166.95 37.332 1167.28 37.332C1167.33 37.332 1167.36 37.408 1167.36 37.56C1167.36 37.712 1167.33 37.788 1167.28 37.788C1166.42 37.788 1165.75 37.94 1165.27 38.244C1164.81 38.548 1164.63 39.232 1164.73 40.296L1165.38 48.922C1165.46 49.6567 1165.54 50.214 1165.65 50.594C1165.77 50.974 1166 51.2273 1166.33 51.354C1166.66 51.4807 1167.17 51.544 1167.85 51.544ZM1177.4 52.494C1175.91 52.494 1174.6 52.1267 1173.49 51.392C1172.37 50.6573 1171.51 49.682 1170.91 48.466C1170.3 47.2247 1169.99 45.8947 1169.99 44.476C1169.99 43.1587 1170.23 42.0187 1170.72 41.056C1171.2 40.0933 1171.84 39.308 1172.65 38.7C1173.46 38.0667 1174.34 37.598 1175.28 37.294C1176.24 36.99 1177.18 36.838 1178.09 36.838C1179.63 36.838 1180.95 37.218 1182.04 37.978C1183.15 38.738 1184 39.7133 1184.59 40.904C1185.17 42.0947 1185.46 43.3487 1185.46 44.666C1185.46 46.2873 1185.09 47.6807 1184.36 48.846C1183.62 50.0113 1182.65 50.9107 1181.43 51.544C1180.22 52.1773 1178.87 52.494 1177.4 52.494ZM1178.51 51.772C1179.85 51.772 1180.91 51.3033 1181.7 50.366C1182.48 49.4033 1182.88 47.858 1182.88 45.73C1182.88 44.134 1182.61 42.728 1182.08 41.512C1181.57 40.2707 1180.86 39.308 1179.95 38.624C1179.04 37.9147 1178 37.56 1176.83 37.56C1175.49 37.56 1174.44 38.054 1173.68 39.042C1172.92 40.03 1172.54 41.4487 1172.54 43.298C1172.54 44.8433 1172.79 46.262 1173.3 47.554C1173.81 48.846 1174.5 49.872 1175.39 50.632C1176.3 51.392 1177.34 51.772 1178.51 51.772ZM1191.44 45.046V44.286H1201.67V45.046H1191.44ZM1190.46 48.922V40.41C1190.46 39.2953 1190.3 38.586 1190 38.282C1189.72 37.9527 1189.08 37.788 1188.06 37.788C1187.99 37.788 1187.95 37.712 1187.95 37.56C1187.95 37.408 1187.99 37.332 1188.06 37.332C1188.54 37.332 1189.09 37.3447 1189.7 37.37C1190.3 37.3953 1190.93 37.408 1191.56 37.408C1192.17 37.408 1192.77 37.3953 1193.38 37.37C1193.99 37.3447 1194.54 37.332 1195.02 37.332C1195.07 37.332 1195.09 37.408 1195.09 37.56C1195.09 37.712 1195.07 37.788 1195.02 37.788C1193.95 37.788 1193.28 37.9653 1193 38.32C1192.72 38.6747 1192.58 39.3967 1192.58 40.486V48.922C1192.58 50.0113 1192.72 50.7207 1193 51.05C1193.28 51.3793 1193.95 51.544 1195.02 51.544C1195.07 51.544 1195.09 51.62 1195.09 51.772C1195.09 51.924 1195.07 52 1195.02 52C1194.51 52 1193.95 51.9873 1193.34 51.962C1192.76 51.9367 1192.17 51.924 1191.56 51.924C1190.93 51.924 1190.3 51.9367 1189.7 51.962C1189.09 51.9873 1188.53 52 1188.02 52C1187.95 52 1187.91 51.924 1187.91 51.772C1187.91 51.62 1187.95 51.544 1188.02 51.544C1189.06 51.544 1189.72 51.3793 1190 51.05C1190.3 50.7207 1190.46 50.0113 1190.46 48.922ZM1200.68 48.922V40.41C1200.68 39.2953 1200.53 38.586 1200.22 38.282C1199.94 37.9527 1199.3 37.788 1198.28 37.788C1198.21 37.788 1198.17 37.712 1198.17 37.56C1198.17 37.408 1198.21 37.332 1198.28 37.332C1198.77 37.332 1199.31 37.3447 1199.92 37.37C1200.53 37.3953 1201.15 37.408 1201.78 37.408C1202.39 37.408 1203 37.3953 1203.6 37.37C1204.21 37.3447 1204.76 37.332 1205.24 37.332C1205.29 37.332 1205.31 37.408 1205.31 37.56C1205.31 37.712 1205.29 37.788 1205.24 37.788C1204.17 37.788 1203.5 37.9653 1203.22 38.32C1202.95 38.6747 1202.81 39.3967 1202.81 40.486V48.922C1202.81 50.0113 1202.95 50.7207 1203.22 51.05C1203.5 51.3793 1204.17 51.544 1205.24 51.544C1205.29 51.544 1205.31 51.62 1205.31 51.772C1205.31 51.924 1205.29 52 1205.24 52C1204.73 52 1204.17 51.9873 1203.57 51.962C1202.98 51.9367 1202.39 51.924 1201.78 51.924C1201.15 51.924 1200.51 51.9367 1199.88 51.962C1199.27 51.9873 1198.73 52 1198.25 52C1198.17 52 1198.13 51.924 1198.13 51.772C1198.13 51.62 1198.17 51.544 1198.25 51.544C1199.29 51.544 1199.94 51.3793 1200.22 51.05C1200.53 50.7207 1200.68 50.0113 1200.68 48.922ZM1215.18 52.494C1213.69 52.494 1212.38 52.1267 1211.27 51.392C1210.15 50.6573 1209.29 49.682 1208.68 48.466C1208.07 47.2247 1207.77 45.8947 1207.77 44.476C1207.77 43.1587 1208.01 42.0187 1208.49 41.056C1208.97 40.0933 1209.62 39.308 1210.43 38.7C1211.24 38.0667 1212.12 37.598 1213.05 37.294C1214.02 36.99 1214.95 36.838 1215.86 36.838C1217.41 36.838 1218.73 37.218 1219.82 37.978C1220.93 38.738 1221.78 39.7133 1222.36 40.904C1222.95 42.0947 1223.24 43.3487 1223.24 44.666C1223.24 46.2873 1222.87 47.6807 1222.13 48.846C1221.4 50.0113 1220.42 50.9107 1219.21 51.544C1217.99 52.1773 1216.65 52.494 1215.18 52.494ZM1216.28 51.772C1217.63 51.772 1218.69 51.3033 1219.47 50.366C1220.26 49.4033 1220.65 47.858 1220.65 45.73C1220.65 44.134 1220.39 42.728 1219.85 41.512C1219.35 40.2707 1218.64 39.308 1217.73 38.624C1216.81 37.9147 1215.78 37.56 1214.61 37.56C1213.27 37.56 1212.22 38.054 1211.46 39.042C1210.7 40.03 1210.32 41.4487 1210.32 43.298C1210.32 44.8433 1210.57 46.262 1211.08 47.554C1211.58 48.846 1212.28 49.872 1213.17 50.632C1214.08 51.392 1215.12 51.772 1216.28 51.772ZM1229.34 37.37C1229.99 37.37 1230.68 37.3573 1231.39 37.332C1232.12 37.2813 1232.84 37.256 1233.55 37.256C1235.02 37.256 1236.15 37.4967 1236.94 37.978C1237.75 38.4593 1238.15 39.1813 1238.15 40.144C1238.15 41.512 1237.13 42.88 1235.07 44.248L1234.58 44.02C1234.96 43.6653 1235.25 43.26 1235.45 42.804C1235.66 42.3227 1235.76 41.7273 1235.76 41.018C1235.76 39.878 1235.48 39.0547 1234.92 38.548C1234.39 38.0413 1233.6 37.788 1232.57 37.788C1231.7 37.788 1231.12 37.9527 1230.82 38.282C1230.51 38.586 1230.36 39.3207 1230.36 40.486V48.922C1230.36 49.8087 1230.55 50.4547 1230.93 50.86C1231.34 51.2653 1232.16 51.468 1233.4 51.468C1234.74 51.468 1235.72 51.1893 1236.33 50.632C1236.96 50.0747 1237.28 49.2767 1237.28 48.238C1237.28 47.1233 1236.95 46.224 1236.29 45.54C1235.63 44.8307 1234.53 44.476 1232.98 44.476H1229.49L1229.45 43.868H1234.31C1237.94 43.868 1239.75 45.0333 1239.75 47.364C1239.75 48.732 1239.22 49.8593 1238.15 50.746C1237.09 51.6327 1235.73 52.076 1234.09 52.076C1233.48 52.076 1232.71 52.0507 1231.77 52C1230.86 51.9493 1230.05 51.924 1229.34 51.924C1228.7 51.924 1228.08 51.9367 1227.47 51.962C1226.87 51.9873 1226.31 52 1225.8 52C1225.73 52 1225.69 51.924 1225.69 51.772C1225.69 51.62 1225.73 51.544 1225.8 51.544C1226.84 51.544 1227.5 51.3793 1227.78 51.05C1228.08 50.7207 1228.23 50.0113 1228.23 48.922V40.41C1228.23 39.2953 1228.08 38.586 1227.78 38.282C1227.5 37.9527 1226.85 37.788 1225.84 37.788C1225.76 37.788 1225.73 37.712 1225.73 37.56C1225.73 37.408 1225.76 37.332 1225.84 37.332C1226.32 37.332 1226.87 37.3447 1227.47 37.37C1228.08 37.37 1228.7 37.37 1229.34 37.37ZM1253.11 52.228C1253 52.2787 1252.9 52.304 1252.8 52.304C1252.47 52.304 1252.16 52.038 1251.85 51.506C1251.55 50.9487 1251.4 50.1507 1251.4 49.112V42.31C1251.4 41.1193 1251.28 40.1947 1251.05 39.536C1250.85 38.8773 1250.56 38.4213 1250.18 38.168C1249.83 37.9147 1249.42 37.788 1248.96 37.788C1248.33 37.788 1247.81 37.9527 1247.41 38.282C1247 38.586 1246.7 38.9787 1246.49 39.46C1246.29 39.9413 1246.15 40.4227 1246.08 40.904C1246.05 41.2587 1245.94 41.588 1245.73 41.892C1245.56 42.196 1245.2 42.348 1244.67 42.348C1244.26 42.348 1243.95 42.2467 1243.72 42.044C1243.49 41.8413 1243.38 41.5627 1243.38 41.208C1243.38 40.752 1243.61 40.2833 1244.06 39.802C1244.52 39.2953 1245.09 38.8393 1245.77 38.434C1246.48 38.0033 1247.22 37.6613 1247.98 37.408C1248.76 37.1293 1249.5 36.99 1250.18 36.99C1251.14 36.99 1251.94 37.332 1252.57 38.016C1253.21 38.6747 1253.52 39.726 1253.52 41.17V47.896C1253.52 48.7827 1253.64 49.4287 1253.87 49.834C1254.09 50.2393 1254.46 50.442 1254.97 50.442C1255.42 50.442 1256.06 50.2773 1256.87 49.948C1256.99 49.8973 1257.08 49.948 1257.13 50.1C1257.18 50.2267 1257.15 50.3153 1257.02 50.366L1253.11 52.228ZM1245.66 52.266C1244.85 52.266 1244.24 52.0507 1243.83 51.62C1243.43 51.164 1243.23 50.6447 1243.23 50.062C1243.23 49.3527 1243.5 48.7953 1244.06 48.39C1244.62 47.9593 1245.53 47.5287 1246.8 47.098L1251.78 45.312L1251.89 45.73L1247.48 47.402C1246.9 47.63 1246.48 47.8833 1246.23 48.162C1246 48.4407 1245.89 48.7953 1245.89 49.226C1245.89 49.758 1246.04 50.176 1246.34 50.48C1246.65 50.7587 1247.04 50.898 1247.52 50.898C1247.8 50.898 1248.06 50.8727 1248.32 50.822C1248.57 50.746 1248.82 50.6447 1249.08 50.518L1252.31 48.884L1252.38 49.34L1249.08 51.126C1248.32 51.506 1247.68 51.7973 1247.18 52C1246.67 52.1773 1246.16 52.266 1245.66 52.266ZM1268.17 52.456C1267.63 52.456 1267.19 52.342 1266.84 52.114C1266.48 51.886 1266.3 51.5313 1266.3 51.05C1266.3 50.594 1266.47 50.2773 1266.8 50.1C1267.13 49.9227 1267.51 49.834 1267.94 49.834C1268.06 49.834 1268.19 49.834 1268.32 49.834C1268.47 49.834 1268.61 49.834 1268.74 49.834C1269.65 49.834 1270.47 49.4667 1271.21 48.732C1271.94 47.972 1272.59 46.9713 1273.14 45.73C1273.7 44.4633 1274.17 43.0573 1274.55 41.512C1274.93 39.9413 1275.21 38.3453 1275.39 36.724C1275.59 35.1027 1275.69 33.5573 1275.69 32.088C1275.69 31.404 1275.6 30.8087 1275.42 30.302C1275.25 29.77 1274.89 29.3773 1274.36 29.124C1273.83 28.8453 1273.02 28.706 1271.93 28.706C1271.85 28.706 1271.81 28.63 1271.81 28.478C1271.81 28.326 1271.85 28.25 1271.93 28.25C1272.08 28.25 1272.51 28.25 1273.22 28.25C1273.93 28.25 1274.82 28.25 1275.88 28.25C1276.94 28.25 1278.08 28.25 1279.3 28.25C1280.54 28.25 1281.77 28.25 1282.99 28.25C1284.23 28.25 1285.37 28.25 1286.41 28.25C1287.44 28.25 1288.29 28.25 1288.95 28.25C1289.61 28.25 1289.99 28.25 1290.09 28.25C1290.17 28.25 1290.21 28.326 1290.21 28.478C1290.21 28.63 1290.17 28.706 1290.09 28.706C1289.15 28.706 1288.45 28.782 1287.96 28.934C1287.48 29.0607 1287.17 29.314 1287.01 29.694C1286.86 30.0487 1286.79 30.5933 1286.79 31.328V48.922C1286.79 49.6567 1286.86 50.214 1287.01 50.594C1287.17 50.974 1287.48 51.2273 1287.96 51.354C1288.45 51.4807 1289.15 51.544 1290.09 51.544C1290.17 51.544 1290.21 51.62 1290.21 51.772C1290.21 51.924 1290.17 52 1290.09 52C1289.51 52 1288.83 51.9873 1288.04 51.962C1287.25 51.9367 1286.44 51.924 1285.61 51.924C1284.72 51.924 1283.89 51.9367 1283.1 51.962C1282.34 51.9873 1281.66 52 1281.05 52C1280.97 52 1280.93 51.924 1280.93 51.772C1280.93 51.62 1280.97 51.544 1281.05 51.544C1282.01 51.544 1282.72 51.4807 1283.18 51.354C1283.66 51.2273 1283.97 50.974 1284.13 50.594C1284.28 50.214 1284.35 49.6567 1284.35 48.922V31.48C1284.35 30.6947 1284.3 30.1373 1284.2 29.808C1284.1 29.4787 1283.83 29.2887 1283.4 29.238C1283 29.162 1282.31 29.124 1281.35 29.124H1279.41C1278.73 29.124 1278.17 29.1873 1277.74 29.314C1277.34 29.4407 1277.05 29.7193 1276.87 30.15C1276.69 30.5553 1276.6 31.2013 1276.6 32.088C1276.6 33.1013 1276.55 34.3047 1276.45 35.698C1276.35 37.0913 1276.17 38.5607 1275.92 40.106C1275.66 41.626 1275.34 43.1207 1274.93 44.59C1274.52 46.034 1274.01 47.3513 1273.37 48.542C1272.76 49.7327 1272.03 50.6827 1271.17 51.392C1270.31 52.1013 1269.31 52.456 1268.17 52.456ZM1300.01 52.456C1298.44 52.456 1297.12 52.114 1296.05 51.43C1294.99 50.7207 1294.19 49.8087 1293.66 48.694C1293.13 47.5793 1292.86 46.4013 1292.86 45.16C1292.86 43.6147 1293.22 42.234 1293.93 41.018C1294.66 39.7767 1295.64 38.8013 1296.85 38.092C1298.09 37.3573 1299.49 36.99 1301.03 36.99C1302.43 36.99 1303.49 37.332 1304.22 38.016C1304.98 38.6747 1305.36 39.5867 1305.36 40.752C1305.36 41.0307 1305.34 41.246 1305.29 41.398C1305.24 41.55 1305.11 41.626 1304.91 41.626H1302.7C1302.81 40.3847 1302.58 39.4347 1302.02 38.776C1301.49 38.092 1300.73 37.75 1299.74 37.75C1298.32 37.75 1297.23 38.282 1296.47 39.346C1295.74 40.41 1295.37 41.854 1295.37 43.678C1295.37 45.122 1295.6 46.4013 1296.05 47.516C1296.54 48.6307 1297.22 49.5173 1298.11 50.176C1299.02 50.8093 1300.09 51.126 1301.34 51.126C1301.99 51.126 1302.67 51.0247 1303.35 50.822C1304.03 50.6193 1304.68 50.3027 1305.29 49.872C1305.34 49.8213 1305.4 49.8593 1305.48 49.986C1305.58 50.0873 1305.6 50.176 1305.55 50.252C1304.64 51.0373 1303.73 51.6073 1302.82 51.962C1301.91 52.2913 1300.97 52.456 1300.01 52.456ZM1294.69 41.702L1294.65 41.208L1303.31 41.018V41.626L1294.69 41.702ZM1321.79 51.544C1321.84 51.544 1321.86 51.62 1321.86 51.772C1321.86 51.924 1321.84 52 1321.79 52C1321.36 52 1320.85 51.9873 1320.27 51.962C1319.71 51.9367 1319.12 51.924 1318.48 51.924C1317.8 51.924 1317.16 51.9367 1316.58 51.962C1316.02 51.9873 1315.49 52 1314.99 52C1314.94 52 1314.91 51.924 1314.91 51.772C1314.91 51.62 1314.94 51.544 1314.99 51.544C1316 51.544 1316.63 51.3793 1316.89 51.05C1317.16 50.7207 1317.3 50.0113 1317.3 48.922V44.666L1317.91 44.742C1317.2 44.742 1316.56 44.856 1315.97 45.084C1315.42 45.2867 1314.86 45.692 1314.3 46.3C1313.74 46.8827 1313.15 47.7567 1312.52 48.922C1312.06 49.7833 1311.71 50.442 1311.45 50.898C1311.2 51.3287 1311 51.62 1310.84 51.772C1310.69 51.924 1310.51 52 1310.31 52H1307.01C1306.96 52 1306.93 51.924 1306.93 51.772C1306.93 51.62 1306.96 51.544 1307.01 51.544C1307.66 51.544 1308.21 51.3667 1308.64 51.012C1309.07 50.632 1309.43 50.1887 1309.7 49.682C1310.01 49.15 1310.3 48.6433 1310.58 48.162C1311.14 47.1487 1311.84 46.3253 1312.71 45.692C1313.57 45.0333 1314.56 44.704 1315.67 44.704L1315.94 44.856C1314.44 44.856 1313.26 44.704 1312.4 44.4C1311.54 44.0707 1310.93 43.6273 1310.58 43.07C1310.22 42.5127 1310.05 41.8793 1310.05 41.17C1310.05 39.954 1310.49 38.9913 1311.38 38.282C1312.29 37.5727 1313.49 37.218 1314.99 37.218C1315.42 37.218 1315.99 37.256 1316.7 37.332C1317.41 37.3827 1318 37.408 1318.48 37.408C1319.12 37.408 1319.7 37.3953 1320.23 37.37C1320.79 37.3447 1321.29 37.332 1321.75 37.332C1321.8 37.332 1321.83 37.408 1321.83 37.56C1321.83 37.712 1321.8 37.788 1321.75 37.788C1320.81 37.788 1320.19 37.9527 1319.89 38.282C1319.58 38.586 1319.43 39.2953 1319.43 40.41V48.922C1319.43 50.0113 1319.58 50.7207 1319.89 51.05C1320.22 51.3793 1320.85 51.544 1321.79 51.544ZM1312.33 40.296C1312.33 41.4613 1312.62 42.424 1313.2 43.184C1313.78 43.944 1314.66 44.324 1315.82 44.324C1316.18 44.324 1316.57 44.2987 1317 44.248C1317.43 44.1973 1317.77 44.1467 1318.03 44.096L1317.3 44.4V40.486C1317.3 39.3207 1317.15 38.5607 1316.85 38.206C1316.54 37.8513 1315.91 37.674 1314.95 37.674C1313.2 37.674 1312.33 38.548 1312.33 40.296Z" fill="#FFF9EE"/>
</svg>
