<svg width="1477" height="366" viewBox="0 0 1477 366" fill="none" xmlns="http://www.w3.org/2000/svg">
<rect x="161" y="5" width="1311" height="356" rx="15" fill="#FFF9EE" fill-opacity="0.24" stroke="#FDAEC3" stroke-width="10"/>
<rect x="162" y="5" width="275" height="58" rx="15" fill="#FFF9EE" fill-opacity="0.24" stroke="#FDAEC3" stroke-width="10"/>
<path d="M202.597 22.2904C202.285 22.2697 201.89 22.2489 201.412 22.2281C200.955 22.2073 200.466 22.1865 199.946 22.1657C199.426 22.1449 198.896 22.1345 198.356 22.1345C197.836 22.1345 197.358 22.1345 196.921 22.1345C195.715 22.1761 194.489 22.2385 193.241 22.3216C192.015 22.4048 190.767 22.5607 189.499 22.7894C188.813 22.9142 188.054 23.1117 187.222 23.382C186.411 23.6522 185.653 24.0057 184.946 24.4423C184.26 24.8789 183.677 25.4194 183.199 26.064C182.742 26.6877 182.513 27.4153 182.513 28.247C182.513 29.3281 182.971 30.1701 183.885 30.773C184.218 31.0017 184.623 31.1681 185.102 31.272C185.58 31.376 186.058 31.4279 186.536 31.4279C187.222 31.4279 187.867 31.3136 188.47 31.0849C189.073 30.8562 189.603 30.5132 190.06 30.0558C190.518 29.5984 190.85 29.037 191.058 28.3717C191.287 27.7064 191.401 26.9683 191.401 26.1575C191.401 25.9912 191.391 25.8145 191.37 25.6273C191.349 25.4194 191.328 25.2219 191.308 25.0348L191.651 25.0036C191.734 25.3363 191.775 25.7625 191.775 26.2823C191.775 27.0931 191.682 27.8727 191.495 28.6212C191.308 29.3489 190.944 30.0454 190.403 30.7107C189.863 31.376 189.229 31.8853 188.501 32.2388C187.794 32.5714 187.046 32.7378 186.256 32.7378C185.673 32.7378 185.122 32.6546 184.603 32.4883C184.104 32.3219 183.677 32.0725 183.324 31.7398C182.95 31.3864 182.648 30.929 182.42 30.3676C182.191 29.8063 182.077 29.2449 182.077 28.6836C182.077 27.5401 182.336 26.5525 182.856 25.7209C183.397 24.8685 184.093 24.1512 184.946 23.5691C185.819 22.9661 186.796 22.4672 187.877 22.0721C188.958 21.6771 190.06 21.3549 191.183 21.1054C192.867 20.7104 194.686 20.4297 196.64 20.2634C198.616 20.097 200.611 20.0139 202.628 20.0139C204.354 20.0139 205.944 20.0762 207.4 20.201C208.876 20.3049 210.134 20.3569 211.173 20.3569C211.589 20.3569 211.922 20.4609 212.171 20.6688C212.421 20.8559 212.545 21.095 212.545 21.3861C212.545 22.2385 211.734 22.6647 210.113 22.6647C209.905 22.6647 209.51 22.6543 208.928 22.6335C208.366 22.6127 207.753 22.5919 207.088 22.5711C206.422 22.5503 205.788 22.5295 205.185 22.5087C204.583 22.488 204.146 22.4776 203.876 22.4776C203.231 22.4776 202.535 22.6335 201.786 22.9454C201.038 23.2364 200.414 23.6107 199.915 24.068C199.395 24.5462 198.917 25.0764 198.48 25.6585C198.044 26.2199 197.628 26.8228 197.233 27.4673C196.838 28.1118 196.464 28.7667 196.11 29.432C195.778 30.0973 195.445 30.7419 195.112 31.3656L194.457 32.5818C193.813 33.8293 193.116 34.952 192.368 35.9499C191.64 36.9479 190.902 37.8107 190.154 38.5384C188.906 39.765 187.545 40.7006 186.068 41.3451C184.592 41.9896 182.971 42.3119 181.203 42.3119C180.413 42.3119 179.717 42.2287 179.114 42.0624C178.532 41.9168 178.002 41.6985 177.523 41.4075C176.941 41.054 176.505 40.6278 176.214 40.1288C175.943 39.6091 175.808 39.0997 175.808 38.6007C175.808 37.7899 175.985 37.1766 176.338 36.7608C176.713 36.3241 177.16 36.1058 177.679 36.1058C178.116 36.1058 178.48 36.241 178.771 36.5113C179.083 36.7608 179.239 37.1246 179.239 37.6028C179.239 37.9354 179.145 38.2473 178.958 38.5384C178.792 38.8086 178.49 38.9646 178.054 39.0061C178.012 39.4843 178.074 39.9313 178.241 40.3471C178.407 40.763 178.625 41.0852 178.896 41.3139C179.249 41.605 179.582 41.7817 179.894 41.8441C180.226 41.9064 180.58 41.9376 180.954 41.9376C181.266 41.9376 181.619 41.9168 182.014 41.8753C182.43 41.8337 182.867 41.7297 183.324 41.5634C183.781 41.3971 184.27 41.158 184.79 40.8461C185.31 40.5135 185.84 40.0665 186.38 39.5051C186.942 38.923 187.451 38.3512 187.908 37.7899C188.387 37.2078 188.844 36.6048 189.281 35.9811C189.717 35.3366 190.143 34.6505 190.559 33.9228C190.996 33.1952 191.464 32.3843 191.963 31.4903C192.815 29.9726 193.626 28.7044 194.395 27.6856C195.185 26.6669 195.986 25.8249 196.796 25.1596C197.42 24.6398 198.033 24.2136 198.636 23.8809C199.26 23.5483 199.832 23.278 200.352 23.0701C200.871 22.8414 201.329 22.6751 201.724 22.5711C202.119 22.4672 202.41 22.3944 202.597 22.3528V22.2904ZM209.52 33.8605C208.73 35.0039 208.013 36.0019 207.368 36.8543C206.724 37.6859 206.069 38.4656 205.404 39.1933C203.387 41.3971 201.454 42.499 199.603 42.499C199.146 42.499 198.74 42.395 198.387 42.1871C198.054 41.9792 197.774 41.7089 197.545 41.3763C197.316 41.0436 197.139 40.6694 197.015 40.2536C196.911 39.817 196.859 39.37 196.859 38.9126C196.859 38.2057 196.994 37.3325 197.264 36.293C197.555 35.2534 197.971 34.1723 198.512 33.0496C198.74 32.5714 199 32.0829 199.291 31.5839C199.582 31.0641 199.894 30.5547 200.227 30.0558C200.56 29.5568 200.892 29.089 201.225 28.6524C201.557 28.2158 201.88 27.8416 202.192 27.5297C202.898 26.7604 203.574 26.1471 204.219 25.6897C204.884 25.2115 205.477 24.8373 205.996 24.567C206.308 24.4007 206.63 24.2656 206.963 24.1616C207.316 24.0369 207.608 23.9745 207.836 23.9745C208.023 23.9745 208.179 23.9953 208.304 24.0369C208.45 24.0784 208.522 24.1616 208.522 24.2863C208.522 24.4319 208.45 24.5358 208.304 24.5982C208.159 24.6398 208.003 24.6606 207.836 24.6606C207.379 24.6606 206.849 24.7645 206.246 24.9724C205.83 25.2427 205.425 25.6066 205.03 26.064C204.634 26.5006 204.219 27.0411 203.782 27.6856C203.117 28.642 202.535 29.6607 202.036 30.7419C201.557 31.8022 201.131 32.8833 200.757 33.9852C200.383 35.0663 200.123 36.0123 199.977 36.8231C199.832 37.6132 199.759 38.3304 199.759 38.975C199.759 39.2244 199.78 39.4947 199.821 39.7858C199.863 40.0561 199.936 40.3056 200.04 40.5343C200.164 40.763 200.32 40.9501 200.508 41.0956C200.715 41.2411 200.965 41.3139 201.256 41.3139C201.797 41.3139 202.41 41.0956 203.096 40.659C203.782 40.2016 204.52 39.5571 205.31 38.7255C205.913 38.081 206.526 37.3637 207.15 36.5736C207.795 35.7628 208.491 34.796 209.24 33.6733L209.52 33.8605ZM225.306 33.9228C224.89 34.4634 224.391 34.952 223.809 35.3886C223.248 35.8252 222.624 36.0435 221.938 36.0435C221.46 36.0435 221.044 35.9395 220.69 35.7316C220.337 35.5237 220.015 35.2326 219.724 34.8584C219.474 35.8979 219.058 36.8855 218.476 37.8211C217.915 38.7359 217.229 39.5467 216.418 40.2536C215.607 40.9397 214.703 41.4906 213.705 41.9064C212.707 42.3015 211.667 42.499 210.586 42.499C209.443 42.499 208.528 42.1767 207.842 41.5322C207.156 40.8669 206.813 39.9625 206.813 38.819C206.813 37.7171 207.093 36.6672 207.655 35.6692C208.216 34.6505 208.944 33.7669 209.838 33.0184C210.732 32.2492 211.719 31.6462 212.8 31.2096C213.882 30.7522 214.942 30.5236 215.981 30.5236C217.104 30.5236 217.988 30.825 218.632 31.4279C219.277 32.0309 219.672 32.7585 219.817 33.611C219.921 34.2347 220.15 34.7337 220.503 35.1079C220.878 35.4821 221.356 35.6692 221.938 35.6692C222.499 35.6692 223.029 35.5029 223.528 35.1703C224.027 34.8376 224.558 34.3386 225.119 33.6733L225.306 33.9228ZM210.805 42.1247C211.324 42.1247 211.844 41.948 212.364 41.5946C212.884 41.2411 213.383 40.7837 213.861 40.2224C214.339 39.661 214.776 39.0269 215.171 38.3201C215.586 37.6132 215.94 36.9063 216.231 36.1994C216.543 35.4925 216.782 34.8168 216.948 34.1723C217.114 33.5278 217.198 32.9872 217.198 32.5506C217.198 32.0309 217.083 31.6255 216.855 31.3344C216.647 31.0433 216.304 30.8978 215.825 30.8978C215.306 30.8978 214.786 31.0745 214.266 31.4279C213.746 31.7814 213.247 32.2388 212.769 32.8001C212.291 33.3615 211.844 33.9956 211.428 34.7025C211.033 35.4094 210.68 36.1162 210.368 36.8231C210.077 37.53 209.848 38.2057 209.682 38.8502C209.515 39.4947 209.432 40.0353 209.432 40.4719C209.432 40.9917 209.536 41.3971 209.744 41.6881C209.973 41.9792 210.326 42.1247 210.805 42.1247ZM228.719 38.5072C228.158 39.1101 227.648 39.6299 227.191 40.0665C226.734 40.5031 226.297 40.8669 225.881 41.158C225.278 41.5946 224.717 41.896 224.197 42.0624C223.677 42.2287 223.178 42.3119 222.7 42.3119C222.035 42.3119 221.536 42.1247 221.203 41.7505C220.85 41.3555 220.673 40.8461 220.673 40.2224C220.673 39.7442 220.829 39.1621 221.141 38.476C221.432 37.7899 221.817 37.0518 222.295 36.2618L225.413 31.0225L228.719 30.8978L225.195 36.3241C223.844 38.3824 223.168 39.817 223.168 40.6278C223.168 40.8981 223.23 41.1268 223.355 41.3139C223.48 41.4802 223.667 41.5634 223.917 41.5634C224.312 41.5634 224.79 41.3971 225.351 41.0644C225.912 40.711 226.484 40.264 227.066 39.7234C227.357 39.4531 227.659 39.1517 227.971 38.819C228.283 38.4864 228.574 38.1537 228.844 37.8211C229.114 37.4884 229.353 37.1766 229.561 36.8855C229.79 36.5736 229.967 36.3138 230.091 36.1058L233.148 31.1473L236.36 30.8978C235.507 32.2908 234.728 33.5278 234.021 34.6089C233.335 35.69 232.742 36.636 232.243 37.4468C231.765 38.2577 231.391 38.9542 231.12 39.5363C230.85 40.1184 230.715 40.6174 230.715 41.0332C230.715 41.5114 230.913 41.7505 231.308 41.7505C231.744 41.7505 232.41 41.4387 233.304 40.8149C234.198 40.1704 235.154 39.3076 236.173 38.2265C236.755 37.6028 237.378 36.9167 238.044 36.1682C238.709 35.399 239.416 34.5361 240.164 33.5798L240.414 33.7669C239.686 34.7233 238.99 35.5965 238.324 36.3865C237.659 37.1766 237.025 37.8834 236.422 38.5072C235.736 39.2141 235.112 39.817 234.551 40.316C234.01 40.7941 233.501 41.1788 233.023 41.4698C232.545 41.7609 232.098 41.9688 231.682 42.0936C231.266 42.2391 230.871 42.3119 230.497 42.3119C229.852 42.3119 229.343 42.1351 228.969 41.7817C228.594 41.4075 228.407 40.9189 228.407 40.316C228.407 39.9417 228.428 39.6299 228.47 39.3804C228.532 39.1309 228.636 38.8606 228.782 38.5695L228.719 38.5072ZM236.983 24.723C236.672 25.2011 236.329 25.6377 235.954 26.0328C235.601 26.4278 235.154 26.802 234.613 27.1555C234.218 27.405 233.761 27.6233 233.241 27.8104C232.721 27.9767 232.118 28.0599 231.432 28.0599C231.079 28.0599 230.673 28.0495 230.216 28.0287C229.779 27.9871 229.332 27.8831 228.875 27.7168C228.522 27.5713 228.22 27.3738 227.971 27.1243C227.721 26.8748 227.596 26.5421 227.596 26.1263C227.596 25.7313 227.711 25.409 227.94 25.1596C228.168 24.9101 228.459 24.723 228.813 24.5982C229.104 24.4943 229.426 24.4215 229.779 24.3799C230.133 24.3383 230.455 24.3175 230.746 24.3175C230.892 24.3175 231.12 24.3383 231.432 24.3799C231.744 24.4007 232.004 24.4319 232.212 24.4735L232.15 24.7541C232.046 24.7333 231.963 24.723 231.9 24.723C231.838 24.723 231.765 24.723 231.682 24.723C231.266 24.723 230.881 24.8477 230.528 25.0972C230.175 25.3467 229.998 25.7001 229.998 26.1575C229.998 26.6357 230.206 27.0099 230.622 27.2802C230.975 27.5089 231.432 27.6233 231.994 27.6233C232.472 27.6233 232.908 27.5609 233.304 27.4361C233.719 27.2906 234.104 27.1035 234.457 26.8748C234.936 26.5837 235.362 26.2303 235.736 25.8145C236.131 25.3779 236.443 24.9517 236.672 24.5358L236.983 24.723ZM250.189 37.8834C249.794 38.3824 249.326 38.9438 248.786 39.5675C248.245 40.1704 247.736 40.659 247.258 41.0332C246.779 41.4283 246.301 41.7401 245.823 41.9688C245.366 42.1975 244.804 42.3119 244.139 42.3119C243.494 42.3119 242.985 42.1143 242.611 41.7193C242.257 41.3243 242.081 40.8253 242.081 40.2224C242.081 39.4531 242.278 38.6943 242.673 37.9458L242.611 37.8834C242.049 38.5903 241.488 39.2556 240.927 39.8794C240.386 40.4823 239.866 40.9605 239.367 41.3139C238.931 41.6258 238.473 41.8649 237.995 42.0312C237.538 42.2183 237.018 42.3119 236.436 42.3119C235.708 42.3119 235.085 42.0728 234.565 41.5946C234.045 41.1164 233.785 40.4823 233.785 39.6922C233.785 39.1309 233.941 38.6423 234.253 38.2265C234.565 37.8107 235.053 37.6028 235.719 37.6028C236.135 37.6028 236.467 37.7379 236.717 38.0082C236.966 38.2785 237.091 38.6007 237.091 38.975C237.091 39.3284 236.977 39.6507 236.748 39.9417C236.519 40.2328 236.176 40.3887 235.719 40.4095C235.698 40.8877 235.791 41.2619 235.999 41.5322C236.187 41.8025 236.457 41.9376 236.81 41.9376C237.288 41.9376 237.735 41.8233 238.151 41.5946C238.588 41.3659 238.993 41.106 239.367 40.8149C239.97 40.3367 240.719 39.5779 241.613 38.5384C242.507 37.4988 243.536 36.0954 244.7 34.3282C245.324 33.3927 245.979 32.3323 246.665 31.1473L249.877 30.8978L247.975 33.954C246.79 35.846 245.875 37.3637 245.23 38.5072C244.586 39.6299 244.264 40.4719 244.264 41.0332C244.264 41.2411 244.336 41.4179 244.482 41.5634C244.628 41.6881 244.794 41.7505 244.981 41.7505C245.438 41.7505 245.917 41.5738 246.416 41.2203C246.914 40.8669 247.445 40.4095 248.006 39.8482C248.443 39.4324 248.9 38.9334 249.378 38.3512C249.856 37.7691 250.314 37.187 250.75 36.6048C251.187 36.0019 251.582 35.4405 251.935 34.9208C252.289 34.3802 252.559 33.954 252.746 33.6422L254.243 31.1473L257.455 30.8978L254.836 35.0767C254.316 35.9083 253.859 36.636 253.464 37.2597C253.089 37.8627 252.777 38.4032 252.528 38.8814C252.278 39.3388 252.091 39.7442 251.967 40.0977C251.863 40.4511 251.811 40.7734 251.811 41.0644C251.811 41.5218 252.019 41.7505 252.434 41.7505C252.892 41.7505 253.557 41.4387 254.43 40.8149C255.304 40.1912 256.333 39.2452 257.518 37.977C258.079 37.3741 258.672 36.7088 259.295 35.9811C259.919 35.2534 260.574 34.453 261.26 33.5798L261.51 33.7669C260.823 34.6401 260.169 35.4613 259.545 36.2306C258.942 36.9791 258.349 37.6548 257.767 38.2577C255.231 40.9605 253.193 42.3119 251.655 42.3119C250.989 42.3119 250.47 42.1247 250.095 41.7505C249.742 41.3555 249.565 40.8565 249.565 40.2536C249.565 39.8378 249.638 39.422 249.784 39.0061C249.929 38.5903 250.085 38.2369 250.251 37.9458L250.189 37.8834ZM270.079 31.2096L273.322 31.0225C273.135 31.3968 272.865 31.8542 272.511 32.3947C272.158 32.9145 271.773 33.4862 271.358 34.1099C270.942 34.7129 270.515 35.347 270.079 36.0123C269.663 36.6568 269.278 37.2909 268.925 37.9146C268.572 38.5176 268.28 39.0893 268.052 39.6299C267.844 40.1496 267.74 40.5966 267.74 40.9709C267.74 41.4906 268 41.7505 268.52 41.7505C269.019 41.7505 269.694 41.4594 270.547 40.8773C271.399 40.2952 272.293 39.5259 273.229 38.5695C273.624 38.1745 274.019 37.7483 274.414 37.2909C274.83 36.8335 275.225 36.3865 275.599 35.9499C275.973 35.4925 276.316 35.0767 276.628 34.7025C276.94 34.3075 277.189 33.9852 277.376 33.7357L277.595 33.8605C277.054 34.5881 276.43 35.399 275.724 36.293C275.017 37.1662 274.164 38.1017 273.166 39.0997C272.168 40.0977 271.181 40.9189 270.204 41.5634C269.247 42.1871 268.291 42.499 267.335 42.499C266.669 42.499 266.149 42.3327 265.775 42C265.422 41.6466 265.245 41.2203 265.245 40.7214C265.245 40.555 265.255 40.3991 265.276 40.2536C265.297 40.108 265.328 39.9937 265.37 39.9105H265.307C264.663 40.6382 263.935 41.2515 263.124 41.7505C262.314 42.2495 261.44 42.499 260.505 42.499C260.006 42.499 259.58 42.4054 259.226 42.2183C258.873 42.0312 258.582 41.7817 258.353 41.4698C258.145 41.1372 257.989 40.7734 257.885 40.3783C257.781 39.9625 257.729 39.5363 257.729 39.0997C257.729 38.081 258.01 37.0622 258.571 36.0435C259.133 35.0247 259.839 34.1099 260.692 33.2991C261.544 32.4675 262.49 31.8022 263.53 31.3032C264.59 30.7834 265.598 30.5236 266.555 30.5236C267.283 30.5236 267.854 30.6795 268.27 30.9913C268.686 31.3032 269.029 31.7918 269.299 32.4571L270.079 31.2096ZM260.723 39.1933C260.723 39.7962 260.817 40.3264 261.004 40.7837C261.212 41.2203 261.638 41.4387 262.282 41.4387C262.719 41.4179 263.176 41.2411 263.655 40.9085C264.133 40.555 264.59 40.1184 265.027 39.5987C265.484 39.0789 265.91 38.5072 266.305 37.8834C266.721 37.2389 267.075 36.5944 267.366 35.9499C267.678 35.3054 267.917 34.7025 268.083 34.1411C268.27 33.559 268.364 33.0704 268.364 32.6754C268.364 32.114 268.26 31.6774 268.052 31.3656C267.844 31.0537 267.438 30.8978 266.836 30.8978C266.357 30.8978 265.869 31.0433 265.37 31.3344C264.892 31.6255 264.424 32.0101 263.966 32.4883C263.53 32.9665 263.104 33.507 262.688 34.1099C262.293 34.6921 261.95 35.295 261.659 35.9187C261.368 36.5424 261.139 37.1454 260.973 37.7275C260.806 38.2889 260.723 38.7774 260.723 39.1933ZM280.98 38.5072C280.419 39.1101 279.909 39.6299 279.452 40.0665C278.995 40.5031 278.558 40.8669 278.142 41.158C277.539 41.5946 276.978 41.896 276.458 42.0624C275.938 42.2287 275.439 42.3119 274.961 42.3119C274.296 42.3119 273.797 42.1247 273.464 41.7505C273.111 41.3555 272.934 40.8461 272.934 40.2224C272.934 39.7442 273.09 39.1621 273.402 38.476C273.693 37.7899 274.078 37.0518 274.556 36.2618L277.674 31.0225L280.98 30.8978L277.456 36.3241C276.105 38.3824 275.429 39.817 275.429 40.6278C275.429 40.8981 275.491 41.1268 275.616 41.3139C275.741 41.4802 275.928 41.5634 276.177 41.5634C276.572 41.5634 277.051 41.3971 277.612 41.0644C278.173 40.711 278.745 40.264 279.327 39.7234C279.618 39.4531 279.92 39.1517 280.232 38.819C280.544 38.4864 280.835 38.1537 281.105 37.8211C281.375 37.4884 281.614 37.1766 281.822 36.8855C282.051 36.5736 282.228 36.3138 282.352 36.1058L285.409 31.1473L288.621 30.8978C287.768 32.2908 286.989 33.5278 286.282 34.6089C285.596 35.69 285.003 36.636 284.504 37.4468C284.026 38.2577 283.652 38.9542 283.381 39.5363C283.111 40.1184 282.976 40.6174 282.976 41.0332C282.976 41.5114 283.174 41.7505 283.569 41.7505C284.005 41.7505 284.67 41.4387 285.564 40.8149C286.458 40.1704 287.415 39.3076 288.434 38.2265C289.016 37.6028 289.639 36.9167 290.305 36.1682C290.97 35.399 291.677 34.5361 292.425 33.5798L292.675 33.7669C291.947 34.7233 291.251 35.5965 290.585 36.3865C289.92 37.1766 289.286 37.8834 288.683 38.5072C287.997 39.2141 287.373 39.817 286.812 40.316C286.271 40.7941 285.762 41.1788 285.284 41.4698C284.806 41.7609 284.359 41.9688 283.943 42.0936C283.527 42.2391 283.132 42.3119 282.758 42.3119C282.113 42.3119 281.604 42.1351 281.23 41.7817C280.855 41.4075 280.668 40.9189 280.668 40.316C280.668 39.9417 280.689 39.6299 280.731 39.3804C280.793 39.1309 280.897 38.8606 281.042 38.5695L280.98 38.5072ZM289.244 24.723C288.933 25.2011 288.589 25.6377 288.215 26.0328C287.862 26.4278 287.415 26.802 286.874 27.1555C286.479 27.405 286.022 27.6233 285.502 27.8104C284.982 27.9767 284.379 28.0599 283.693 28.0599C283.34 28.0599 282.934 28.0495 282.477 28.0287C282.04 27.9871 281.593 27.8831 281.136 27.7168C280.783 27.5713 280.481 27.3738 280.232 27.1243C279.982 26.8748 279.857 26.5421 279.857 26.1263C279.857 25.7313 279.972 25.409 280.2 25.1596C280.429 24.9101 280.72 24.723 281.074 24.5982C281.365 24.4943 281.687 24.4215 282.04 24.3799C282.394 24.3383 282.716 24.3175 283.007 24.3175C283.153 24.3175 283.381 24.3383 283.693 24.3799C284.005 24.4007 284.265 24.4319 284.473 24.4735L284.411 24.7541C284.307 24.7333 284.223 24.723 284.161 24.723C284.099 24.723 284.026 24.723 283.943 24.723C283.527 24.723 283.142 24.8477 282.789 25.0972C282.435 25.3467 282.259 25.7001 282.259 26.1575C282.259 26.6357 282.467 27.0099 282.882 27.2802C283.236 27.5089 283.693 27.6233 284.255 27.6233C284.733 27.6233 285.169 27.5609 285.564 27.4361C285.98 27.2906 286.365 27.1035 286.718 26.8748C287.197 26.5837 287.623 26.2303 287.997 25.8145C288.392 25.3779 288.704 24.9517 288.933 24.5358L289.244 24.723ZM316.845 33.9852C316.304 34.7129 315.712 35.2326 315.067 35.5445C314.443 35.8356 313.83 35.9811 313.227 35.9811C312.749 35.9811 312.292 35.8771 311.855 35.6692C311.439 35.4613 311.086 35.2326 310.795 34.9831C310.42 36.2306 309.88 37.3221 309.173 38.2577C308.487 39.1933 307.707 39.9729 306.834 40.5966C305.982 41.2203 305.056 41.6881 304.058 42C303.081 42.3327 302.115 42.499 301.158 42.499C300.098 42.499 299.266 42.2079 298.663 41.6258C298.06 41.0436 297.759 40.2952 297.759 39.3804C297.759 38.9854 297.8 38.6007 297.884 38.2265C297.988 37.8315 298.164 37.3845 298.414 36.8855C298.58 36.5736 298.798 36.1578 299.069 35.6381C299.36 35.1183 299.62 34.6817 299.848 34.3282L304.121 27.6544C304.828 26.5317 305.607 25.5442 306.46 24.6918C307.312 23.8394 308.258 23.0597 309.298 22.3528C310.296 21.6875 311.221 21.1781 312.073 20.8247C312.926 20.4713 313.674 20.2945 314.319 20.2945C314.61 20.2945 314.911 20.3153 315.223 20.3569C315.556 20.3777 315.868 20.4505 316.159 20.5752C316.782 20.8455 317.094 21.2509 317.094 21.7915C317.094 22.3944 316.918 22.9869 316.564 23.5691C316.211 24.1304 315.566 24.7853 314.631 25.5338C313.508 26.407 312.489 27.1243 311.574 27.6856C310.66 28.247 309.797 28.8187 308.986 29.4009C308.882 29.484 308.726 29.588 308.518 29.7127C308.331 29.8375 308.113 29.983 307.863 30.1493C307.614 30.3156 307.343 30.4924 307.052 30.6795C306.782 30.8458 306.512 31.0225 306.241 31.2096C305.597 31.6255 304.911 32.0725 304.183 32.5506L302.655 34.8584C302.406 35.2326 302.115 35.7004 301.782 36.2618C301.449 36.8231 301.189 37.3117 301.002 37.7275C300.67 38.3928 300.441 38.9646 300.316 39.4427C300.191 39.9001 300.129 40.2744 300.129 40.5654C300.129 41.0644 300.254 41.449 300.503 41.7193C300.753 41.9896 301.085 42.1247 301.501 42.1247C302.104 42.1247 302.821 41.8337 303.653 41.2515C304.505 40.6486 305.358 39.6922 306.21 38.3824C307.375 36.5528 308.05 34.9312 308.237 33.5174C308.009 33.06 307.894 32.6338 307.894 32.2388C307.894 31.719 308.029 31.3032 308.3 30.9913C308.57 30.6795 308.892 30.5236 309.267 30.5236C309.911 30.5236 310.368 30.773 310.639 31.272C310.93 31.7502 311.075 32.3843 311.075 33.1744C311.075 33.4031 311.055 33.6318 311.013 33.8605C310.971 34.0892 310.93 34.3282 310.888 34.5777C311.242 34.8896 311.626 35.1391 312.042 35.3262C312.458 35.5133 312.895 35.6069 313.352 35.6069C313.83 35.6069 314.35 35.4821 314.911 35.2326C315.493 34.9831 316.065 34.505 316.626 33.7981L316.845 33.9852ZM304.589 31.7398L304.651 31.771C305.212 31.3968 305.763 31.0329 306.304 30.6795C306.761 30.3884 307.219 30.0973 307.676 29.8063C308.133 29.4944 308.487 29.2449 308.736 29.0578C309.464 28.5588 310.171 28.0079 310.857 27.4049C311.543 26.7812 312.156 26.1367 312.697 25.4714C313.321 24.7645 313.778 24.0888 314.069 23.4443C314.381 22.7998 314.537 22.1969 314.537 21.6355C314.537 21.0326 314.308 20.7311 313.851 20.7311C313.477 20.7311 313.113 20.8351 312.759 21.043C312.427 21.2301 312.052 21.5316 311.637 21.9474C311.387 22.1969 311.127 22.4984 310.857 22.8518C310.587 23.1844 310.316 23.5379 310.046 23.9121C309.776 24.2656 309.526 24.619 309.298 24.9724C309.09 25.3051 308.913 25.5754 308.768 25.7833L304.589 31.7398ZM329.593 33.954C328.823 34.8896 327.992 35.8668 327.098 36.8855C326.204 37.8834 325.237 38.7982 324.197 39.6299C323.179 40.4615 322.077 41.1476 320.892 41.6881C319.727 42.2287 318.49 42.499 317.18 42.499C315.933 42.499 314.977 42.1663 314.311 41.501C313.646 40.8149 313.313 39.817 313.313 38.5072C313.313 37.5092 313.604 36.5321 314.187 35.5757C314.769 34.6193 315.517 33.7669 316.432 33.0184C317.347 32.27 318.355 31.667 319.457 31.2096C320.559 30.7522 321.63 30.5236 322.669 30.5236C323.626 30.5236 324.384 30.7211 324.946 31.1161C325.507 31.4903 325.788 31.9581 325.788 32.5195C325.788 32.9145 325.705 33.2783 325.538 33.611C325.393 33.9228 325.195 34.1931 324.946 34.4218C324.696 34.6297 324.416 34.796 324.104 34.9208C323.792 35.0247 323.48 35.0767 323.168 35.0767C322.898 35.0767 322.659 35.0559 322.451 35.0143C322.596 34.5361 322.752 34.0476 322.919 33.5486C323.085 33.0496 323.168 32.5506 323.168 32.0517C323.168 31.6982 323.085 31.4175 322.919 31.2096C322.752 31.0017 322.524 30.8978 322.233 30.8978C321.692 30.8978 321.079 31.1161 320.393 31.5527C319.707 31.9685 319.062 32.5402 318.459 33.2679C317.856 33.9748 317.347 34.796 316.931 35.7316C316.515 36.6464 316.307 37.6028 316.307 38.6007C316.307 39.3908 316.546 40.0665 317.025 40.6278C317.503 41.1684 318.168 41.4387 319.02 41.4387C320.039 41.4387 321.048 41.158 322.045 40.5966C323.064 40.0353 324.021 39.3596 324.915 38.5695C325.829 37.7587 326.661 36.9271 327.409 36.0747C328.158 35.2015 328.792 34.453 329.312 33.8293L329.593 33.954ZM342.292 33.8293C341.648 34.7025 340.951 35.5653 340.203 36.4177C339.475 37.2701 338.602 38.1641 337.583 39.0997C336.149 40.3887 334.766 41.2827 333.435 41.7817C332.126 42.2599 330.889 42.499 329.724 42.499C328.539 42.499 327.604 42.1455 326.918 41.4387C326.231 40.7318 325.888 39.817 325.888 38.6943C325.888 37.6963 326.19 36.7088 326.793 35.7316C327.396 34.7545 328.155 33.8812 329.069 33.112C329.984 32.3427 330.982 31.719 332.063 31.2408C333.165 30.7626 334.205 30.5236 335.182 30.5236C336.076 30.5236 336.772 30.7003 337.271 31.0537C337.77 31.3864 338.02 31.8645 338.02 32.4883C338.02 32.9872 337.843 33.4446 337.49 33.8605C337.157 34.2763 336.72 34.6505 336.18 34.9831C335.639 35.3158 335.026 35.6069 334.34 35.8564C333.675 36.1058 333.009 36.3241 332.344 36.5113C331.679 36.6984 331.055 36.8543 330.473 36.9791C329.891 37.1038 329.412 37.2078 329.038 37.2909C328.934 37.7067 328.882 38.081 328.882 38.4136C328.882 39.3076 329.132 40.0353 329.631 40.5966C330.13 41.158 330.826 41.4387 331.72 41.4387C332.593 41.4387 333.55 41.1788 334.589 40.659C335.65 40.1392 336.71 39.3804 337.77 38.3824C338.581 37.6132 339.361 36.8127 340.109 35.9811C340.858 35.1287 341.513 34.3386 342.074 33.611L342.292 33.8293ZM335.525 31.7086C335.525 31.4175 335.442 31.2096 335.275 31.0849C335.13 30.9602 334.932 30.8978 334.683 30.8978C334.163 30.8978 333.602 31.1161 332.999 31.5527C332.396 31.9893 331.824 32.5299 331.284 33.1744C330.764 33.7981 330.296 34.4634 329.88 35.1703C329.485 35.8564 329.225 36.4593 329.101 36.9791C329.953 36.8127 330.764 36.5424 331.533 36.1682C332.302 35.7732 332.978 35.3366 333.56 34.8584C334.163 34.3594 334.641 33.8397 334.995 33.2991C335.348 32.7378 335.525 32.2076 335.525 31.7086ZM354.074 31.5839C353.264 32.8937 352.453 34.3075 351.642 35.8252C350.852 37.3221 349.999 38.819 349.085 40.316C348.191 41.7921 347.234 43.2163 346.216 44.5884C345.176 45.9606 344.033 47.1665 342.785 48.206C341.538 49.2663 340.166 50.1084 338.669 50.7321C337.151 51.3558 335.467 51.6677 333.616 51.6677C332.993 51.6677 332.327 51.5949 331.621 51.4494C330.914 51.3246 330.269 51.1063 329.687 50.7945C329.105 50.4826 328.627 50.0668 328.252 49.547C327.857 49.0272 327.66 48.3723 327.66 47.5823C327.66 46.9794 327.795 46.4492 328.065 45.9918C328.315 45.5344 328.658 45.1498 329.094 44.8379C329.51 44.5261 329.988 44.287 330.529 44.1206C331.07 43.9543 331.621 43.8712 332.182 43.8712C332.473 43.8712 332.743 43.8816 332.993 43.9023C333.221 43.9231 333.429 43.9543 333.616 43.9959V44.2454C332.618 44.3078 331.818 44.6612 331.215 45.3057C330.591 45.9502 330.28 46.7715 330.28 47.7694C330.28 48.8505 330.581 49.7029 331.184 50.3267C331.787 50.9712 332.764 51.2934 334.115 51.2934C335.342 51.2934 336.517 50.9504 337.639 50.2643C338.762 49.599 339.843 48.7154 340.883 47.6135C341.902 46.5116 342.879 45.2537 343.814 43.84C344.729 42.447 345.613 41.0228 346.465 39.5675C347.297 38.0914 348.097 36.6568 348.866 35.2638C349.636 33.8708 350.363 32.6442 351.049 31.5839H348.056L348.367 31.0225H351.424C352.027 29.983 352.733 28.8395 353.544 27.5921C354.376 26.3446 355.301 25.1803 356.32 24.0992C357.359 23.0181 358.492 22.1137 359.719 21.3861C360.946 20.6584 362.256 20.2945 363.649 20.2945C364.085 20.2945 364.501 20.3465 364.896 20.4505C365.312 20.5544 365.676 20.7104 365.988 20.9183C366.32 21.1262 366.58 21.3964 366.767 21.7291C366.975 22.041 367.079 22.4152 367.079 22.8518C367.079 23.6003 366.809 24.1616 366.268 24.5358C365.728 24.9101 365.094 25.0972 364.366 25.0972C364.2 25.0972 364.012 25.0764 363.804 25.0348C363.992 24.6606 364.148 24.2656 364.272 23.8497C364.397 23.4339 364.459 22.9869 364.459 22.5087C364.459 21.9058 364.335 21.4484 364.085 21.1366C363.836 20.8247 363.503 20.6688 363.087 20.6688C362.567 20.6688 362.016 20.8767 361.434 21.2925C360.852 21.6875 360.28 22.2073 359.719 22.8518C359.158 23.4963 358.596 24.2136 358.035 25.0036C357.495 25.7937 356.996 26.5733 356.538 27.3426C356.081 28.1118 355.665 28.8291 355.291 29.4944C354.937 30.1389 354.646 30.6483 354.418 31.0225H362.463L362.12 31.5839H354.074ZM367.931 31.2096L371.174 31.0225C370.987 31.3968 370.717 31.8542 370.364 32.3947C370.01 32.9145 369.625 33.4862 369.21 34.1099C368.794 34.7129 368.368 35.347 367.931 36.0123C367.515 36.6568 367.131 37.2909 366.777 37.9146C366.424 38.5176 366.133 39.0893 365.904 39.6299C365.696 40.1496 365.592 40.5966 365.592 40.9709C365.592 41.4906 365.852 41.7505 366.372 41.7505C366.871 41.7505 367.546 41.4594 368.399 40.8773C369.251 40.2952 370.145 39.5259 371.081 38.5695C371.476 38.1745 371.871 37.7483 372.266 37.2909C372.682 36.8335 373.077 36.3865 373.451 35.9499C373.825 35.4925 374.168 35.0767 374.48 34.7025C374.792 34.3075 375.041 33.9852 375.229 33.7357L375.447 33.8605C374.906 34.5881 374.283 35.399 373.576 36.293C372.869 37.1662 372.016 38.1017 371.018 39.0997C370.021 40.0977 369.033 40.9189 368.056 41.5634C367.099 42.1871 366.143 42.499 365.187 42.499C364.521 42.499 364.002 42.3327 363.627 42C363.274 41.6466 363.097 41.2203 363.097 40.7214C363.097 40.555 363.108 40.3991 363.128 40.2536C363.149 40.108 363.18 39.9937 363.222 39.9105H363.16C362.515 40.6382 361.787 41.2515 360.977 41.7505C360.166 42.2495 359.293 42.499 358.357 42.499C357.858 42.499 357.432 42.4054 357.078 42.2183C356.725 42.0312 356.434 41.7817 356.205 41.4698C355.997 41.1372 355.841 40.7734 355.737 40.3783C355.633 39.9625 355.581 39.5363 355.581 39.0997C355.581 38.081 355.862 37.0622 356.423 36.0435C356.985 35.0247 357.692 34.1099 358.544 33.2991C359.396 32.4675 360.342 31.8022 361.382 31.3032C362.442 30.7834 363.451 30.5236 364.407 30.5236C365.135 30.5236 365.706 30.6795 366.122 30.9913C366.538 31.3032 366.881 31.7918 367.151 32.4571L367.931 31.2096ZM358.575 39.1933C358.575 39.7962 358.669 40.3264 358.856 40.7837C359.064 41.2203 359.49 41.4387 360.135 41.4387C360.571 41.4179 361.029 41.2411 361.507 40.9085C361.985 40.555 362.442 40.1184 362.879 39.5987C363.336 39.0789 363.763 38.5072 364.158 37.8834C364.573 37.2389 364.927 36.5944 365.218 35.9499C365.53 35.3054 365.769 34.7025 365.935 34.1411C366.122 33.559 366.216 33.0704 366.216 32.6754C366.216 32.114 366.112 31.6774 365.904 31.3656C365.696 31.0537 365.291 30.8978 364.688 30.8978C364.21 30.8978 363.721 31.0433 363.222 31.3344C362.744 31.6255 362.276 32.0101 361.819 32.4883C361.382 32.9665 360.956 33.507 360.54 34.1099C360.145 34.6921 359.802 35.295 359.511 35.9187C359.22 36.5424 358.991 37.1454 358.825 37.7275C358.658 38.2889 358.575 38.7774 358.575 39.1933ZM379.394 31.0225C378.416 32.561 377.574 33.8812 376.868 34.9831C376.161 36.0643 375.579 36.9894 375.121 37.7587C374.685 38.528 374.352 39.1621 374.123 39.661C373.915 40.1392 373.811 40.5343 373.811 40.8461C373.811 41.0956 373.853 41.3035 373.936 41.4698C374.04 41.6154 374.186 41.6881 374.373 41.6881C374.788 41.6881 375.371 41.449 376.119 40.9709C376.888 40.4927 377.845 39.6714 378.988 38.5072C379.446 38.029 379.893 37.5612 380.329 37.1038C380.766 36.6256 381.171 36.1682 381.545 35.7316C381.94 35.295 382.284 34.9 382.575 34.5465C382.886 34.1931 383.136 33.9124 383.323 33.7045L383.604 33.8916C383.354 34.2243 383.042 34.6089 382.668 35.0455C382.315 35.4613 381.93 35.9083 381.514 36.3865C381.098 36.8439 380.672 37.3013 380.236 37.7587C379.799 38.2161 379.373 38.6527 378.957 39.0685C377.751 40.2744 376.712 41.1164 375.838 41.5946C374.986 42.0728 374.196 42.3119 373.468 42.3119C372.782 42.3119 372.252 42.1247 371.878 41.7505C371.504 41.3763 371.316 40.8877 371.316 40.2848C371.316 39.869 371.4 39.4427 371.566 39.0061C371.711 38.5487 371.971 37.9874 372.346 37.3221C372.72 36.6568 373.219 35.8356 373.843 34.8584C374.466 33.8605 375.246 32.6338 376.181 31.1785L379.394 31.0225ZM381.202 24.0992C381.597 24.0992 381.94 24.2448 382.232 24.5358C382.543 24.8269 382.699 25.17 382.699 25.565C382.699 25.9808 382.533 26.3654 382.2 26.7189C381.868 27.0515 381.493 27.2178 381.078 27.2178C380.62 27.2178 380.225 27.1035 379.893 26.8748C379.56 26.6253 379.394 26.2615 379.394 25.7833C379.394 25.3051 379.57 24.9101 379.924 24.5982C380.298 24.2656 380.724 24.0992 381.202 24.0992ZM377.329 42C378.389 40.1704 379.46 38.3512 380.541 36.5424C381.643 34.7337 382.734 32.8937 383.815 31.0225L387.371 30.8978L383.254 36.6984L383.316 36.7608C384.107 35.7836 384.803 35.0039 385.406 34.4218C386.03 33.8189 386.57 33.3303 387.028 32.9561C387.485 32.5818 387.87 32.3012 388.181 32.114C388.493 31.9061 388.722 31.7294 388.868 31.5839C389.096 31.3552 389.304 31.1785 389.491 31.0537C389.699 30.9082 389.938 30.8042 390.209 30.7419C390.479 30.6587 390.801 30.6067 391.175 30.5859C391.57 30.5651 392.059 30.5443 392.641 30.5236C392.246 31.0849 391.882 31.6774 391.55 32.3012C391.217 32.9041 391.051 33.559 391.051 34.2659C391.051 35.1599 391.498 35.6069 392.392 35.6069C392.683 35.6069 392.963 35.5445 393.234 35.4198C393.525 35.295 393.795 35.1391 394.044 34.952C394.294 34.7648 394.533 34.5673 394.762 34.3594C394.99 34.1307 395.198 33.9228 395.385 33.7357L395.51 33.8916C394.928 34.6193 394.242 35.2118 393.452 35.6692C392.662 36.1266 391.799 36.3553 390.863 36.3553C390.032 36.3553 389.377 36.137 388.899 35.7004C388.421 35.2638 388.181 34.6193 388.181 33.7669C388.181 33.2263 388.337 32.717 388.649 32.2388L388.587 32.1764C387.714 32.7585 386.882 33.4342 386.092 34.2035C385.302 34.9728 384.564 35.7836 383.878 36.636C383.213 37.4884 382.589 38.372 382.007 39.2868C381.445 40.1808 380.936 41.054 380.479 41.9064L377.329 42ZM386.331 44.4637C386.227 44.4429 386.04 44.4325 385.77 44.4325C384.876 44.4325 384.19 44.7548 383.712 45.3993C383.213 46.0438 382.963 46.8338 382.963 47.7694C382.963 48.8713 383.306 49.7341 383.992 50.3578C384.658 50.9816 385.489 51.2934 386.487 51.2934C387.548 51.2934 388.545 51.0647 389.481 50.6073C390.417 50.1707 391.29 49.5782 392.101 48.8297C392.912 48.1021 393.67 47.26 394.377 46.3037C395.105 45.3681 395.77 44.4013 396.373 43.4034C396.997 42.4054 397.579 41.4283 398.12 40.4719C398.66 39.5155 399.159 38.6527 399.617 37.8834L399.554 37.8211C399.242 38.1953 398.847 38.6423 398.369 39.1621C397.912 39.661 397.392 40.1496 396.81 40.6278C396.228 41.0852 395.614 41.4802 394.97 41.8129C394.325 42.1455 393.67 42.3119 393.005 42.3119C392.319 42.3119 391.83 42.1143 391.539 41.7193C391.227 41.3243 391.072 40.8565 391.072 40.316C391.072 39.7962 391.217 39.2037 391.508 38.5384C391.799 37.8731 392.163 37.1454 392.6 36.3553C393.057 35.5445 393.566 34.6921 394.128 33.7981C394.689 32.9041 395.25 31.9789 395.812 31.0225L399.118 30.8978C397.371 33.6214 396.009 35.7732 395.032 37.3533C394.055 38.9334 393.566 40.0561 393.566 40.7214C393.566 40.9709 393.639 41.1788 393.785 41.3451C393.951 41.4906 394.149 41.5634 394.377 41.5634C394.752 41.5634 395.23 41.3763 395.812 41.002C396.394 40.607 397.007 40.0873 397.652 39.4427C398.317 38.7982 398.982 38.0602 399.648 37.2285C400.313 36.3761 400.916 35.5029 401.457 34.6089C401.914 33.8605 402.319 33.1744 402.673 32.5506C403.026 31.9269 403.286 31.4175 403.452 31.0225L406.509 30.8978C405.386 32.8313 404.294 34.7648 403.234 36.6984C402.195 38.6111 401.103 40.5135 399.96 42.4054C400.958 42.1143 401.945 41.6673 402.922 41.0644C403.899 40.4407 404.835 39.7234 405.729 38.9126C406.644 38.1017 407.486 37.2389 408.255 36.3241C409.045 35.4094 409.752 34.5154 410.376 33.6422L410.625 33.8605C409.918 34.8792 409.139 35.8771 408.286 36.8543C407.434 37.8107 406.529 38.6943 405.573 39.5051C404.637 40.2952 403.671 40.9813 402.673 41.5634C401.675 42.1455 400.677 42.5613 399.679 42.8108C398.93 44.0791 398.088 45.2537 397.153 46.3349C396.217 47.416 395.188 48.3515 394.065 49.1416C392.943 49.9316 391.726 50.545 390.417 50.9816C389.107 51.439 387.703 51.6677 386.207 51.6677C385.458 51.6677 384.73 51.5949 384.024 51.4494C383.317 51.3246 382.693 51.0959 382.152 50.7633C381.612 50.4514 381.175 50.0252 380.843 49.4846C380.51 48.9649 380.344 48.3204 380.344 47.5511C380.344 46.9274 380.479 46.3972 380.749 45.9606C380.998 45.524 381.342 45.1602 381.778 44.8691C382.194 44.5988 382.683 44.3909 383.244 44.2454C383.784 44.1206 384.346 44.0583 384.928 44.0583C385.177 44.0583 385.437 44.0687 385.708 44.0895C385.957 44.1103 386.165 44.1414 386.331 44.183V44.4637ZM412.105 38.2577C412.541 37.5508 412.968 36.8127 413.383 36.0435C413.82 35.2742 414.215 34.5258 414.568 33.7981C414.922 33.0704 415.244 32.3739 415.535 31.7086C415.826 31.0433 416.055 30.4612 416.221 29.9622C416.803 28.2366 417.323 27.0099 417.781 26.2823C418.259 25.5338 418.799 25.1596 419.402 25.1596C419.777 25.1596 420.099 25.2947 420.369 25.565C420.66 25.8353 420.806 26.1783 420.806 26.5941C420.806 26.9476 420.712 27.3114 420.525 27.6856C420.359 28.0391 420.099 28.4445 419.745 28.9019C419.392 29.3593 418.945 29.8894 418.404 30.4924C417.885 31.0745 417.271 31.771 416.564 32.5818C415.858 33.3927 415.13 34.2763 414.381 35.2326C413.654 36.189 412.968 37.2285 412.323 38.3512L412.105 38.2577ZM410.701 38.8814C411.18 38.8814 411.585 39.0581 411.918 39.4116C412.271 39.7442 412.448 40.1496 412.448 40.6278C412.448 41.106 412.271 41.5218 411.918 41.8753C411.585 42.2079 411.18 42.3742 410.701 42.3742C410.223 42.3742 409.807 42.2079 409.454 41.8753C409.121 41.5218 408.955 41.106 408.955 40.6278C408.955 40.1496 409.121 39.7442 409.454 39.4116C409.807 39.0581 410.223 38.8814 410.701 38.8814Z" fill="#FFF9EE"/>
</svg>
