<svg width="485" height="481" viewBox="0 0 485 481" fill="none" xmlns="http://www.w3.org/2000/svg">
<ellipse cx="269.582" cy="237.479" rx="12.8697" ry="12.4088" transform="rotate(64.9849 269.582 237.479)" fill="#FDAEC3"/>
<ellipse cx="295.508" cy="399.318" rx="12.8697" ry="12.4088" transform="rotate(64.9849 295.508 399.318)" fill="#FDAEC3"/>
<ellipse cx="416.298" cy="330.042" rx="12.8697" ry="12.4088" transform="rotate(64.9849 416.298 330.042)" fill="#FDAEC3"/>
<ellipse cx="323.732" cy="337.086" rx="12.8697" ry="12.4088" transform="rotate(64.9849 323.732 337.086)" fill="#FDAEC3"/>
<ellipse cx="79.5853" cy="232.775" rx="12.8697" ry="12.4088" transform="rotate(64.9849 79.5853 232.775)" fill="#FDAEC3"/>
<ellipse cx="134.02" cy="149.117" rx="12.8697" ry="12.4088" transform="rotate(64.9849 134.02 149.117)" fill="#FDAEC3"/>
<ellipse cx="272.868" cy="140.045" rx="12.8697" ry="12.4088" transform="rotate(64.9849 272.868 140.045)" fill="#FDAEC3"/>
<ellipse cx="327.012" cy="17.1332" rx="12.8697" ry="12.4088" transform="rotate(64.9849 327.012 17.1332)" fill="#FDAEC3"/>
<ellipse cx="252.591" cy="89.3666" rx="12.8697" ry="12.4088" transform="rotate(64.9849 252.591 89.3666)" fill="#FDAEC3"/>
<ellipse cx="226.756" cy="328.225" rx="12.8697" ry="12.4088" transform="rotate(64.9849 226.756 328.225)" fill="#FDAEC3"/>
<ellipse cx="82.7991" cy="303.62" rx="12.8697" ry="12.4088" transform="rotate(64.9849 82.7991 303.62)" fill="#FDAEC3"/>
<ellipse cx="136.123" cy="305.852" rx="12.8697" ry="12.4088" transform="rotate(64.9849 136.123 305.852)" fill="#FDAEC3"/>
</svg>
