<svg width="387" height="370" viewBox="0 0 387 370" fill="none" xmlns="http://www.w3.org/2000/svg">
<ellipse cx="246.08" cy="74.9438" rx="12.8697" ry="12.4088" transform="rotate(64.9849 246.08 74.9438)" fill="#FDAEC3"/>
<ellipse cx="284.693" cy="156.378" rx="12.8697" ry="12.4088" transform="rotate(64.9849 284.693 156.378)" fill="#FFCCB4"/>
<ellipse cx="139.863" cy="238.163" rx="12.8697" ry="12.4088" transform="rotate(64.9849 139.863 238.163)" fill="#FDAEC3"/>
<ellipse cx="202.511" cy="105.643" rx="12.8697" ry="12.4088" transform="rotate(64.9849 202.511 105.643)" fill="#FFCCB4"/>
<ellipse cx="235.45" cy="32.1742" rx="12.8697" ry="12.4088" transform="rotate(64.9849 235.45 32.1742)" fill="#FFCCB4"/>
<ellipse cx="310.214" cy="107.029" rx="12.8697" ry="12.4088" transform="rotate(64.9849 310.214 107.029)" fill="#FFCCB4"/>
<ellipse cx="324.561" cy="137.775" rx="12.8697" ry="12.4088" transform="rotate(64.9849 324.561 137.775)" fill="#FDAEC3"/>
<ellipse cx="231.011" cy="222.743" rx="12.8697" ry="12.4088" transform="rotate(64.9849 231.011 222.743)" fill="#FDAEC3"/>
<ellipse cx="187.196" cy="178.025" rx="12.8697" ry="12.4088" transform="rotate(64.9849 187.196 178.025)" fill="#FFCCB4"/>
<ellipse cx="238.205" cy="296.85" rx="12.8697" ry="12.4088" transform="rotate(64.9849 238.205 296.85)" fill="#FFCCB4"/>
<ellipse cx="43.4021" cy="191.507" rx="12.8697" ry="12.4088" transform="rotate(64.9849 43.4021 191.507)" fill="#FFCCB4"/>
<ellipse cx="57.3803" cy="130.759" rx="12.8697" ry="12.4088" transform="rotate(64.9849 57.3803 130.759)" fill="#FFCCB4"/>
</svg>
