<svg width="396" height="416" viewBox="0 0 396 416" fill="none" xmlns="http://www.w3.org/2000/svg">
<ellipse cx="147.553" cy="112.418" rx="12.8697" ry="12.4088" transform="rotate(-146.977 147.553 112.418)" fill="#FDAEC3"/>
<ellipse cx="240.551" cy="220.694" rx="12.8697" ry="12.4088" transform="rotate(-146.977 240.551 220.694)" fill="#FDAEC3"/>
<ellipse cx="217.551" cy="315.418" rx="12.8697" ry="12.4088" transform="rotate(-146.977 217.551 315.418)" fill="#FDAEC3"/>
<ellipse cx="132.552" cy="235.418" rx="12.8697" ry="12.4088" transform="rotate(-146.977 132.552 235.418)" fill="#FDAEC3"/>
<ellipse cx="212.358" cy="146.811" rx="12.8697" ry="12.4088" transform="rotate(-146.977 212.358 146.811)" fill="#FDAEC3"/>
<ellipse cx="98.5523" cy="231.419" rx="12.8697" ry="12.4088" transform="rotate(-146.977 98.5523 231.419)" fill="#FFCCB4"/>
<ellipse cx="103.553" cy="326.418" rx="12.8697" ry="12.4088" transform="rotate(-146.977 103.553 326.418)" fill="#FDAEC3"/>
<ellipse cx="143.19" cy="208.141" rx="12.8697" ry="12.4088" transform="rotate(-146.977 143.19 208.141)" fill="#FDAEC3"/>
<ellipse cx="165.937" cy="173.146" rx="12.8697" ry="12.4088" transform="rotate(-146.977 165.937 173.146)" fill="#FDAEC3"/>
<ellipse cx="110.552" cy="193.418" rx="12.8697" ry="12.4088" transform="rotate(-146.977 110.552 193.418)" fill="#FDAEC3"/>
<ellipse cx="132.551" cy="276.419" rx="12.8697" ry="12.4088" transform="rotate(-146.977 132.551 276.419)" fill="#FDAEC3"/>
<ellipse cx="286.551" cy="168.694" rx="12.8697" ry="12.4088" transform="rotate(-146.977 286.551 168.694)" fill="#FDAEC3"/>
<ellipse cx="319.551" cy="234.694" rx="12.8697" ry="12.4088" transform="rotate(-146.977 319.551 234.694)" fill="#FDAEC3"/>
<ellipse cx="284.135" cy="255.355" rx="12.8697" ry="12.4088" transform="rotate(-146.977 284.135 255.355)" fill="#FDAEC3"/>
<ellipse cx="97.8578" cy="149.077" rx="12.8697" ry="12.4088" transform="rotate(-146.977 97.8578 149.077)" fill="#FFCCB4"/>
<ellipse cx="252.902" cy="129.329" rx="12.8697" ry="12.4088" transform="rotate(-146.977 252.902 129.329)" fill="#FDAEC3"/>
<ellipse cx="312.551" cy="102.693" rx="12.8697" ry="12.4088" transform="rotate(-146.977 312.551 102.693)" fill="#FDAEC3"/>
<ellipse cx="168.551" cy="242.693" rx="12.8697" ry="12.4088" transform="rotate(-146.977 168.551 242.693)" fill="#FDAEC3"/>
<ellipse cx="318.893" cy="135.331" rx="12.8697" ry="12.4088" transform="rotate(-146.977 318.893 135.331)" fill="#FFCCB4"/>
<ellipse cx="177.551" cy="294.418" rx="12.8697" ry="12.4088" transform="rotate(-146.977 177.551 294.418)" fill="#FDAEC3"/>
<ellipse cx="339.19" cy="194.27" rx="12.8697" ry="12.4088" transform="rotate(-146.977 339.19 194.27)" fill="#FFCCB4"/>
</svg>
